<svg width="1002" height="813" viewBox="0 0 1002 813" fill="none" xmlns="http://www.w3.org/2000/svg">
<path d="M629.309 219.404H373.69V390.567H629.309V219.404ZM623.982 384.614H377.212V224.51H623.982V384.614Z" fill="#333333"/>
<path d="M697.617 526.139L662.681 419.708C661.959 417.51 659.478 415.528 656.002 414.035C659.921 409.855 662.338 404.247 662.338 398.061V212.372C662.338 199.459 651.89 189 638.991 189H364.006C351.107 189.006 340.659 199.465 340.653 212.372V398.061C340.653 404.247 343.076 409.855 346.995 414.035C343.519 415.528 341.038 417.51 340.316 419.708L305.381 526.139C303.057 533.222 311.6 547.092 324.505 547.092H678.486C691.409 547.092 699.946 533.228 697.617 526.139ZM351.037 212.372C351.048 205.201 356.849 199.401 364.012 199.383H638.997C646.16 199.395 651.955 205.201 651.966 212.372V398.061C651.96 405.238 646.16 411.039 638.997 411.05L364.012 411.044C356.849 411.033 351.048 405.232 351.037 398.061V212.372V212.372ZM349.994 424.413C351.689 423.41 356.062 421.958 361.566 421.958H641.437C646.94 421.958 651.314 423.416 653.009 424.413L685.841 524.437H552.955L544.255 493.859H458.748L450.048 524.437H317.161L349.994 424.413ZM324.511 536.423C320.003 536.423 316.76 532.22 315.892 529.765H450.38L451.847 536.423H324.511ZM545.693 536.423H522.446C522.44 537.292 522.021 538.154 521.019 538.708C508.877 545.465 491.884 549.091 481.338 537.694C480.709 537.571 480.074 537.455 479.433 537.356C478.682 537.239 478.164 536.889 477.82 536.423H457.31L455.842 529.765H547.172L545.693 536.423ZM455.621 524.32L462.772 499.193H540.236L547.388 524.32H455.621ZM678.498 536.423H551.15L552.617 529.765H687.111C686.249 532.22 683.005 536.423 678.498 536.423Z" fill="#333333"/>
<path d="M640.978 434.484H360.889L345.538 482.906H656.335L640.978 434.484ZM644.243 463.963H626.812L624.012 453.427H640.908L644.243 463.963ZM624.058 463.963H606.04L603.71 453.427H621.257L624.058 463.963ZM636.736 440.271L640.066 450.777H623.309L620.52 440.271H636.736ZM617.771 440.271L620.56 450.777H603.129L600.805 440.271H617.771ZM598.08 440.271L600.404 450.777H582.95L581.09 440.271H598.08ZM578.394 440.271L580.254 450.777H562.776L561.382 440.271H578.394ZM561.841 463.963H543.765L542.829 453.427H560.44L561.841 463.963ZM558.697 440.271L560.092 450.777H542.603L541.673 440.271H558.697ZM541.098 463.963H523.01L522.545 453.427H540.168L541.098 463.963ZM539.006 440.271L539.936 450.777H522.429L521.964 440.271H539.006ZM520.349 463.963H502.261V453.427H519.884L520.349 463.963ZM519.303 440.271L519.768 450.777H502.261V440.271H519.303ZM482.564 440.271H499.606V450.777H482.099L482.564 440.271ZM481.983 453.427H499.606V463.963H481.518L481.983 453.427ZM462.867 440.271H479.903L479.438 450.777H461.937L462.867 440.271ZM461.699 453.427H479.316L478.851 463.963H460.769L461.699 453.427ZM443.17 440.271H460.2L459.27 450.777H441.775L443.17 440.271ZM459.032 453.427L458.097 463.963H440.02L441.421 453.427H459.032ZM423.473 440.271H440.485L439.091 450.777H421.613L423.473 440.271ZM403.787 440.271H420.782L418.923 450.777H401.463L403.787 440.271ZM401.068 440.271L398.744 450.777H381.313L384.101 440.271H401.068ZM398.157 453.427L395.827 463.963H377.809L380.604 453.427H398.157ZM365.136 440.271H381.347L378.558 450.777H361.801L365.136 440.271ZM360.965 453.427H377.855L375.061 463.963H357.629L360.965 453.427ZM353.452 477.119L356.781 466.612H374.352L371.563 477.119H353.452ZM392.91 477.119H374.311L377.1 466.612H395.234L392.91 477.119ZM414.252 477.119H395.635L397.959 466.612H416.117L414.252 477.119ZM398.546 463.963L400.876 453.427H418.452L416.587 463.963H398.546ZM435.599 477.119H416.953L418.813 466.612H436.993L435.599 477.119ZM419.283 463.963L421.148 453.427H438.742L437.342 463.963H419.283ZM438.277 477.119L439.672 466.612H562.195L563.59 477.119H438.277ZM563.125 453.427H580.719L582.584 463.963H564.525L563.125 453.427ZM566.268 477.119L564.874 466.612H583.054L584.914 477.119H566.268ZM583.42 453.427H600.991L603.321 463.963H585.28L583.42 453.427ZM587.615 477.119L585.756 466.612H603.908L606.232 477.119H587.615ZM608.957 477.119L606.633 466.612H624.761L627.55 477.119H608.957ZM627.515 466.612H645.086L648.415 477.119H630.304L627.515 466.612Z" fill="#333333"/>
<path d="M549.465 479.94H538.781C537.995 479.94 537.36 479.305 537.36 478.519V472.459C537.36 471.673 537.995 471.038 538.781 471.038H549.465C550.251 471.038 550.885 471.673 550.885 472.459V478.519C550.885 479.305 550.251 479.94 549.465 479.94Z" fill="#333333"/>
<path d="M549.465 559.77H538.781C537.995 559.77 537.36 559.136 537.36 558.35V552.289C537.36 551.503 537.995 550.869 538.781 550.869H549.465C550.251 550.869 550.885 551.503 550.885 552.289V558.35C550.885 559.136 550.251 559.77 549.465 559.77Z" fill="#333333"/>
<path d="M539.788 514.621V515.593L548.463 516.373V515.395L539.788 514.621Z" fill="#333333"/>
<path d="M539.788 516.507V517.479L548.463 518.259V517.287L539.788 516.507Z" fill="#333333"/>
<path d="M548.439 519.167L539.788 518.393V518.935C539.788 519.086 539.817 519.231 539.857 519.371L547.933 520.099C548.201 519.86 548.381 519.54 548.439 519.167Z" fill="#333333"/>
<path d="M548.463 512.6V511.838C548.463 510.982 547.781 510.289 546.937 510.289H541.313C540.475 510.289 539.799 510.976 539.788 511.82L548.463 512.6Z" fill="#333333"/>
<path d="M539.788 512.734V513.707L548.463 514.487V513.509L539.788 512.734Z" fill="#333333"/>
<path d="M540.719 520.361C540.9 520.443 541.104 520.484 541.313 520.484H542.087L540.719 520.361Z" fill="#333333"/>
<path fill-rule="evenodd" clip-rule="evenodd" d="M461.707 355.977H443.507V265.8H560.427V355.977H542.227C542.227 347.803 535.707 341.172 527.666 341.172H476.268C468.228 341.172 461.707 347.797 461.707 355.977ZM560.433 255.065H443.507V238.513H560.433V255.065ZM443.507 227.771V210.404H560.433V227.771H443.507ZM515.294 303.865C515.294 311.337 509.33 317.395 501.973 317.395C494.616 317.395 488.652 311.337 488.652 303.865C488.652 296.392 494.616 290.335 501.973 290.335C509.33 290.335 515.294 296.392 515.294 303.865Z" fill="#333333"/>
<path d="M466.155 479.939H455.471C454.685 479.939 454.05 479.305 454.05 478.519V472.458C454.05 471.672 454.685 471.038 455.471 471.038H466.155C466.941 471.038 467.575 471.672 467.575 472.458V478.519C467.575 479.305 466.935 479.939 466.155 479.939Z" fill="#333333"/>
<path d="M466.155 559.77H455.471C454.685 559.77 454.05 559.136 454.05 558.35V552.289C454.05 551.503 454.685 550.869 455.471 550.869H466.155C466.941 550.869 467.575 551.503 467.575 552.289V558.35C467.575 559.136 466.935 559.77 466.155 559.77Z" fill="#333333"/>
<path d="M474.545 511.791C476.221 498.622 486.975 488.224 500.162 487.368C514.997 486.401 527.555 497.411 529.389 511.791H554.11V486.04C554.11 484.212 552.649 482.728 550.85 482.728H536.324C533.302 482.728 530.385 481.686 527.963 479.852C527.922 479.823 527.881 479.788 527.835 479.758C521.774 475.2 518.112 468.068 518.112 460.406V344.537H485.822V460.4C485.822 468.062 482.16 475.2 476.099 479.753C476.058 479.782 476.012 479.817 475.971 479.846C473.549 481.68 470.632 482.722 467.61 482.722H453.084C451.285 482.722 449.824 484.206 449.824 486.035V511.785H474.545V511.791Z" fill="#333333"/>
<path d="M529.314 519.674C527.387 532.558 516.762 542.653 503.778 543.497C489.147 544.446 476.734 533.763 474.627 519.674H449.83V544.813C449.83 546.641 451.291 548.126 453.09 548.126H467.611C470.633 548.126 473.544 549.162 475.966 550.996C483.232 556.504 492.233 559.764 501.973 559.764C511.714 559.764 520.715 556.498 527.981 550.996C530.403 549.162 533.314 548.126 536.336 548.126H550.856C552.655 548.126 554.117 546.641 554.117 544.813V519.674H529.314Z" fill="#333333"/>
<path d="M456.479 514.621V515.593L465.148 516.373V515.395L456.479 514.621Z" fill="#333333"/>
<path d="M456.479 516.507V517.479L465.148 518.259V517.287L456.479 516.507Z" fill="#333333"/>
<path d="M465.124 519.167L456.473 518.393V518.935C456.473 519.086 456.502 519.231 456.543 519.371L464.618 520.099C464.886 519.86 465.072 519.54 465.124 519.167Z" fill="#333333"/>
<path d="M465.148 512.6V511.838C465.148 510.982 464.466 510.289 463.622 510.289H457.998C457.16 510.289 456.484 510.976 456.473 511.82L465.148 512.6Z" fill="#333333"/>
<path d="M456.479 512.734V513.707L465.148 514.487V513.509L456.479 512.734Z" fill="#333333"/>
<path d="M457.404 520.361C457.584 520.443 457.788 520.484 457.998 520.484H458.772L457.404 520.361Z" fill="#333333"/>
<path fill-rule="evenodd" clip-rule="evenodd" d="M501.5 695C676.298 695 818 553.298 818 378.5C818 203.702 676.298 62.0001 501.5 62.0001C326.701 62.0001 185 203.702 185 378.5C185 553.298 326.701 695 501.5 695ZM501.5 615C632.115 615 738 509.116 738 378.5C738 247.885 632.115 142 501.5 142C370.884 142 265 247.885 265 378.5C265 509.116 370.884 615 501.5 615Z" fill="#1C4484"/>
<path d="M230.218 368.46C230.334 371.583 230.412 373.139 230.612 376.24C220.52 381.325 210.65 386.721 200.908 392.456C200.53 389.01 200.363 387.282 200.074 383.814C202.731 382.414 204.065 381.73 206.738 380.38C206.332 374.828 206.188 372.033 206.032 366.426C203.237 365.309 201.842 364.731 199.057 363.558C198.996 360.146 198.985 358.429 199.018 355C209.277 359.868 219.636 364.342 230.218 368.46ZM211.161 368.398C211.295 372.222 211.389 374.128 211.645 377.924C216.069 375.773 218.291 374.728 222.749 372.705C222.749 372.666 222.743 372.65 222.743 372.611C218.097 370.999 215.78 370.155 211.161 368.398Z" fill="white"/>
<path d="M218.582 426.424C210.007 428.686 204.428 420.967 203.205 413.52C201.938 405.795 204.161 397.098 213.125 395.97C219.505 395.159 225.879 394.347 232.259 393.536C232.637 396.52 232.848 398.004 233.298 400.966C226.946 401.944 220.589 402.928 214.237 403.906C210.902 404.423 207.668 406.023 208.829 412.503C209.852 418.21 212.369 419.588 216.882 418.66C223.178 417.365 229.48 416.071 235.777 414.781C236.377 417.699 236.694 419.149 237.366 422.045C231.109 423.506 224.846 424.968 218.582 426.424Z" fill="white"/>
<path d="M235.614 438.106C234.475 434.166 233.936 432.176 232.936 428.186C235.17 427.625 236.287 427.347 238.521 426.786C240.772 435.644 243.373 444.424 246.479 453.021C244.312 453.794 243.223 454.183 241.055 454.955C239.682 451.11 239.027 449.17 237.787 445.269C229.763 447.814 221.738 450.365 213.718 452.91C212.735 449.815 212.262 448.253 211.356 445.124C219.442 442.785 227.528 440.445 235.614 438.106Z" fill="white"/>
<path d="M254.33 470.818C258.037 478.881 254.652 488.884 246.677 492.947C238.097 497.315 228.06 492.291 224.553 483.816C221.169 475.63 223.942 464.599 232.873 461.337C241.17 458.303 250.723 462.971 254.33 470.818ZM229.788 481.527C232.145 486.917 238.241 488.423 243.276 486.034C248.128 483.733 251.379 478.448 249.05 473.124C246.722 467.795 240.636 466.572 235.646 468.562C230.461 470.629 227.432 476.136 229.788 481.527Z" fill="white"/>
<path d="M263.477 491.374C265.41 494.981 266.405 496.77 268.462 500.299C263.588 506.128 258.858 512.08 254.285 518.149C254.312 518.199 254.329 518.221 254.357 518.271C261.748 516.748 269.106 515.042 276.414 513.164C278.665 516.593 279.821 518.288 282.188 521.628C273.752 527.602 265.322 533.581 256.885 539.555C255.146 537.099 254.285 535.86 252.606 533.359C258.68 529.269 264.749 525.184 270.823 521.094C270.796 521.05 270.779 521.027 270.746 520.983C263.065 522.722 255.374 524.312 247.632 525.751C246.304 523.645 245.648 522.589 244.359 520.461C249.038 514.198 253.823 508.046 258.742 501.972C258.725 501.938 258.714 501.922 258.697 501.894C252.384 505.467 246.071 509.035 239.763 512.608C238.274 509.98 237.546 508.657 236.123 505.995C245.243 501.121 254.362 496.248 263.477 491.374Z" fill="white"/>
<path d="M296.426 538.904C302.234 545.601 301.706 556.132 295.215 562.233C288.235 568.802 277.214 566.868 271.485 559.727C265.944 552.819 265.649 541.538 273.263 535.931C280.332 530.724 290.774 532.386 296.426 538.904ZM275.875 556.065C279.643 560.577 285.901 560.261 290.046 556.571C294.037 553.019 295.732 547.057 292.008 542.594C288.285 538.137 282.116 538.737 277.909 542.027C273.541 545.451 272.107 551.552 275.875 556.065Z" fill="white"/>
<path d="M311.696 564.936C308.801 562.113 307.378 560.68 304.583 557.756C306.244 556.162 307.078 555.367 308.74 553.772C314.992 560.268 321.511 566.537 328.363 572.405C326.857 574.15 326.107 575.023 324.6 576.768C321.533 574.117 320.021 572.772 317.048 570.021C311.329 576.201 305.616 582.381 299.898 588.56C297.542 586.376 296.374 585.27 294.074 583.031C299.948 576.996 305.822 570.966 311.696 564.936Z" fill="white"/>
<path d="M343.922 583.985C351.119 589.175 353.175 599.568 348.234 607.053C342.916 615.106 331.668 615.628 324.438 609.987C317.446 604.536 314.473 593.593 320.62 586.352C326.333 579.628 336.914 578.928 343.922 583.985ZM327.867 605.408C332.574 608.937 338.631 607.259 341.832 602.685C344.917 598.278 345.117 592.076 340.465 588.586C335.814 585.096 329.923 587.047 326.572 591.243C323.093 595.6 323.159 601.879 327.867 605.408Z" fill="white"/>
<path d="M362.105 597.415C367.245 600.582 372.397 603.611 377.66 606.556C382.945 609.44 384.673 614.586 382.567 618.777C380.928 622.05 378.199 623.745 374.081 623.161C374.064 623.189 374.059 623.206 374.042 623.233C377.026 625.773 376.493 629.207 375.354 632.092C374.648 633.876 372.964 637.154 373.481 639.344C370.53 637.877 369.063 637.127 366.156 635.587C366.206 633.381 367.729 630.797 368.535 628.418C369.58 625.329 368.974 623.356 365.495 621.405C362.761 619.871 361.405 619.088 358.72 617.487C356.236 621.655 354.997 623.739 352.513 627.913C349.701 626.24 348.306 625.384 345.549 623.639C351.068 614.898 356.586 606.156 362.105 597.415ZM361.21 613.319C364.111 615.048 365.573 615.892 368.529 617.537C371.552 619.221 373.809 618.971 375.287 616.209C376.704 613.558 375.709 611.558 372.781 609.918C369.913 608.318 368.49 607.501 365.678 605.823C363.883 608.824 362.994 610.324 361.21 613.319Z" fill="white"/>
<path d="M393.331 614.483C401.084 617.99 408.875 621.213 416.844 624.203C416.061 626.37 415.666 627.448 414.883 629.616C409.136 627.465 403.484 625.214 397.833 622.825C396.771 625.253 396.243 626.465 395.187 628.893C400.428 631.194 405.78 633.345 411.159 635.301C410.426 637.29 410.059 638.29 409.325 640.28C403.851 638.285 398.399 636.101 393.064 633.756C391.847 636.546 391.241 637.94 390.024 640.73C396.132 643.392 402.328 645.854 408.597 648.11C407.819 650.261 407.43 651.339 406.658 653.49C397.688 650.155 388.907 646.532 380.193 642.564C384.573 633.211 388.952 623.847 393.331 614.483Z" fill="white"/>
<path d="M421.903 647.8C420.713 651.735 423.942 654.441 428.238 655.67C431.039 656.47 435.496 656.925 436.296 653.858C437.136 650.635 431.878 648.673 427.104 645.994C422.242 643.266 417.601 639.692 419.552 634.307C421.758 628.217 429.45 627.772 434.829 629.273C440.681 630.907 447.545 635.363 445.95 642.521C442.954 641.81 441.465 641.437 438.503 640.654C439.231 636.975 436.535 635.286 432.995 634.263C430.622 633.574 427.644 633.602 426.865 636.114C426.16 638.392 427.588 639.276 435.83 643.599C438.241 644.805 445.95 648.373 444.221 654.997C442.259 662.505 432.612 662.255 426.432 660.66C419.763 658.937 412.077 653.13 414.461 645.339C417.423 646.367 418.913 646.856 421.903 647.8Z" fill="white"/>
<path d="M554.663 641.733C553.519 638.826 549.601 637.365 545.794 638.026C539.892 639.054 536.835 644.6 537.719 650.213C538.641 656.043 543.849 659.921 549.784 658.66C554.78 657.599 557.131 654.203 556.881 650.091C560.015 649.391 561.571 649.024 564.672 648.246C566.345 656.809 558.181 662.745 550.868 664.278C541.842 666.168 530.711 661.333 529.466 651.397C528.305 642.177 535.813 633.953 544.699 632.38C551.679 631.146 559.193 633.013 562.283 639.943C559.248 640.693 557.726 641.049 554.663 641.733Z" fill="white"/>
<path d="M580.806 622.873C589.259 619.856 599.457 623.507 602.963 632.115C606.742 641.385 599.996 650.893 591.16 653.672C582.673 656.339 571.136 653.188 568.596 643.652C566.251 634.794 572.615 625.791 580.806 622.873ZM589.342 648.248C594.966 646.364 597.478 640.468 595.45 635.044C593.499 629.82 588.197 626.463 582.646 628.331C577.094 630.198 574.854 636.066 576.46 641.423C578.122 646.986 583.718 650.137 589.342 648.248Z" fill="white"/>
<path d="M603.052 615.132C606.975 613.431 608.92 612.548 612.766 610.708C618.285 615.993 623.942 621.128 629.727 626.119C629.777 626.091 629.805 626.08 629.861 626.052C629.021 618.516 627.988 611.003 626.765 603.517C630.5 601.461 632.345 600.405 635.99 598.216C641.309 607.08 646.627 615.943 651.946 624.807C649.267 626.419 647.911 627.208 645.188 628.753C641.581 622.384 637.974 616.01 634.362 609.641C634.312 609.669 634.29 609.68 634.24 609.708C635.285 617.555 636.168 625.402 636.891 633.287C634.596 634.499 633.445 635.088 631.122 636.249C625.142 631.142 619.285 625.93 613.511 620.589C613.477 620.606 613.461 620.611 613.427 620.628C616.473 627.208 619.524 633.788 622.569 640.373C619.707 641.695 618.268 642.34 615.373 643.596C611.266 634.104 607.159 624.618 603.052 615.132Z" fill="white"/>
<path d="M642.935 593.904C648.131 590.575 650.676 588.841 655.667 585.246C660.363 581.478 667.282 580.939 671.244 585.968C675.401 591.242 672.483 598.05 667.304 601.395C664.569 603.368 663.186 604.335 660.39 606.23C662.886 609.903 664.13 611.743 666.626 615.416C663.864 617.294 662.469 618.211 659.651 620.017C654.083 611.315 648.509 602.612 642.935 593.904ZM657.412 601.845C659.429 600.473 660.429 599.778 662.419 598.366C665.409 596.243 667.621 593.715 665.259 590.553C662.902 587.385 659.935 588.73 657.039 590.786C655.116 592.153 654.144 592.826 652.188 594.154C654.283 597.227 655.322 598.766 657.412 601.845Z" fill="white"/>
<path d="M704.67 568.641C711.172 574.727 707.504 583.601 701.852 588.597C695.978 593.788 687.436 596.539 681.712 589.531C677.639 584.557 673.565 579.584 669.486 574.61C671.803 572.709 672.954 571.742 675.215 569.781C679.422 574.643 683.629 579.506 687.831 584.368C690.037 586.919 693.11 588.809 697.995 584.363C702.297 580.445 702.141 577.572 698.957 574.243C694.511 569.597 690.07 564.951 685.625 560.306C687.786 558.233 688.859 557.188 690.965 555.06C695.539 559.589 700.101 564.112 704.67 568.641Z" fill="white"/>
<path d="M705.608 547.878C702.84 550.984 701.429 552.513 698.555 555.519C696.894 553.924 696.06 553.13 694.398 551.54C700.789 544.822 706.925 537.836 712.621 530.512C714.433 531.934 715.339 532.64 717.156 534.063C714.588 537.342 713.271 538.959 710.587 542.137C717.023 547.567 723.458 552.991 729.893 558.42C727.759 560.949 726.676 562.199 724.481 564.666C718.184 559.07 711.893 553.474 705.608 547.878Z" fill="white"/>
<path d="M721.107 519.102C722.88 516.59 723.747 515.323 725.453 512.761C736.512 514.984 747.666 516.59 758.864 517.935C757.08 520.903 756.169 522.375 754.302 525.287C751.345 524.782 749.872 524.515 746.933 523.965C743.915 528.588 742.353 530.867 739.13 535.346C740.686 537.913 741.453 539.208 742.97 541.814C740.986 544.515 739.98 545.855 737.924 548.5C732.65 538.491 727.059 528.722 721.107 519.102ZM736.229 530.7C738.408 527.627 739.469 526.076 741.553 522.931C736.74 521.947 734.345 521.419 729.588 520.302C729.566 520.336 729.555 520.347 729.538 520.38C732.267 524.459 733.606 526.521 736.229 530.7Z" fill="white"/>
<path d="M754.527 482.6C751.537 481.7 748.014 483.784 746.263 487.085C743.479 492.331 746.286 497.933 751.109 500.595C756.117 503.357 762.357 502.04 764.997 496.627C767.159 492.192 765.886 488.324 762.48 486.007C763.819 483.189 764.469 481.772 765.736 478.916C773.367 482.767 773.356 492.553 770.099 499.217C766.053 507.497 755.55 512.454 747.18 507.502C739.411 502.906 736.932 492.414 741.145 484.473C744.424 478.288 750.526 473.831 757.728 475.676C756.472 478.466 755.833 479.85 754.527 482.6Z" fill="white"/>
<path d="M750.794 465.347C751.961 462.541 752.528 461.129 753.623 458.284C763.27 461.996 772.918 465.714 782.565 469.426C781.348 472.583 780.72 474.156 779.426 477.268C769.878 473.294 760.336 469.321 750.794 465.347Z" fill="white"/>
<path d="M760.452 435.718C762.803 427.06 771.595 420.619 780.714 422.664C790.529 424.865 794.397 435.974 791.651 444.804C789.006 453.318 779.848 460.837 770.594 457.486C762.003 454.374 758.163 444.126 760.452 435.718ZM786.161 443.204C787.817 437.507 784.443 432.039 778.814 430.6C773.395 429.216 767.621 431.695 765.982 437.324C764.342 442.954 767.916 448.111 773.218 449.845C778.714 451.656 784.505 448.9 786.161 443.204ZM758.846 434.006C758.318 435.857 758.04 436.785 757.479 438.624C755.656 436.135 754.734 434.907 752.861 432.484C753.683 429.622 754.072 428.182 754.817 425.287C756.49 428.721 757.29 430.466 758.846 434.006Z" fill="white"/>
<path d="M766.828 412.782C767.434 409.748 767.723 408.225 768.245 405.169C776.003 401.334 783.556 397.278 791.042 392.937C791.047 392.899 791.047 392.876 791.053 392.837C784.162 392.02 777.276 391.209 770.385 390.392C770.729 387.469 770.885 386.002 771.157 383.057C781.45 384.001 791.742 384.946 802.04 385.891C801.723 389.375 801.534 391.109 801.123 394.56C793.715 399.167 786.062 403.379 778.271 407.297C778.265 407.336 778.26 407.353 778.254 407.392C785.073 408.581 791.898 409.77 798.716 410.96C798.161 414.149 797.866 415.739 797.233 418.901C787.096 416.856 776.965 414.816 766.828 412.782Z" fill="white"/>
<path d="M654.193 106.806L613 83.0235L656.973 31.0464L726.094 70.9534L703.066 135.024L654.193 106.806Z" fill="#1C4484"/>
<path d="M769.783 219.693L746 178.5L810.07 155.473L849.977 224.594L798 268.566L769.783 219.693Z" fill="#1C4484"/>
<path d="M814 373.566L814 326L881 338.093L881 417.907L814 430L814 373.566Z" fill="#1C4484"/>
<path d="M663.873 643.783L705.067 620L728.094 684.07L658.973 723.977L615 672L663.873 643.783Z" fill="#1C4484"/>
<path d="M773.989 530.422L797.771 489.228L849.749 533.201L809.842 602.322L745.771 579.295L773.989 530.422Z" fill="#1C4484"/>
<path d="M497.565 66.9999L450 66.9999L462.093 -0.000114846L541.906 -0.000115498L554 66.9999L497.565 66.9999Z" fill="#1C4484"/>
<path d="M349.807 106.807L391 83.0237L347.027 31.0465L277.906 70.9535L300.934 135.024L349.807 106.807Z" fill="#1C4484"/>
<path d="M234.217 219.693L258 178.5L193.93 155.473L154.023 224.594L206 268.567L234.217 219.693Z" fill="#1C4484"/>
<path d="M190 373.566L190 326L123 338.093L123 417.907L190 430L190 373.566Z" fill="#1C4484"/>
<path d="M340.127 643.783L298.933 620L275.906 684.07L345.027 723.977L389 672L340.127 643.783Z" fill="#1C4484"/>
<path d="M230.011 530.422L206.229 489.229L154.251 533.201L194.158 602.322L258.229 579.295L230.011 530.422Z" fill="#1C4484"/>
<path d="M506.435 689L554 689L541.907 756L462.094 756L450 689L506.435 689Z" fill="#1C4484"/>
<path d="M316 153.892C324.128 147.529 332.434 141.543 341.041 135.847C342.369 137.901 343.03 138.934 344.352 140.988C338.39 144.837 332.564 148.904 326.897 153.172C328.591 155.421 329.435 156.543 331.123 158.792C336.265 155.014 341.424 151.389 346.725 147.836C347.959 149.725 348.573 150.669 349.807 152.552C344.594 155.935 339.464 159.541 334.512 163.295C336.454 165.881 337.428 167.168 339.37 169.753C344.819 165.757 350.291 161.944 355.928 158.219C357.239 160.261 357.9 161.283 359.21 163.325C351.383 168.325 343.856 173.815 336.59 179.599C329.73 171.028 322.865 162.463 316 153.892Z" fill="white"/>
<path d="M360.483 154.124C363.281 152.406 364.692 151.574 367.532 149.95C368.943 152.424 369.651 153.657 371.068 156.131C368.305 157.713 366.93 158.527 364.202 160.198C362.715 157.766 361.971 156.556 360.483 154.124Z" fill="white"/>
<path d="M372.309 125.045C368.071 127.164 365.969 128.268 361.796 130.57C360.615 128.427 360.025 127.353 358.844 125.21C368.567 120.004 378.395 115.264 388.525 110.913C389.464 113.174 389.936 114.301 390.875 116.562C386.53 118.369 384.369 119.313 380.09 121.302C383.85 129.413 387.604 137.53 391.365 145.64C388.519 146.957 387.108 147.641 384.293 149.046C380.302 141.042 376.306 133.043 372.309 125.045Z" fill="white"/>
<path d="M402.376 133.142C405.369 131.956 406.869 131.383 409.891 130.285C410.865 132.959 411.349 134.299 412.323 136.979C409.383 138.048 407.92 138.603 405.003 139.765C403.953 137.115 403.427 135.793 402.376 133.142Z" fill="white"/>
<path d="M424.345 98.6255C427.692 97.7106 429.375 97.2737 432.745 96.4591C439.687 102.344 446.37 108.401 452.893 114.746C452.928 114.741 452.952 114.735 452.987 114.729C451.641 107.486 450.295 100.237 448.955 92.9941C452.149 92.4038 453.749 92.1264 456.96 91.6246C458.672 102.468 460.384 113.318 462.096 124.162C459.056 124.64 457.538 124.899 454.51 125.466C448.176 119.109 441.683 113.035 434.924 107.126C434.882 107.138 434.865 107.138 434.823 107.149C436.576 114.292 438.324 121.434 440.077 128.577C437.261 129.268 435.856 129.628 433.052 130.395C430.154 119.805 427.25 109.215 424.345 98.6255Z" fill="white"/>
<path d="M471.99 89.6475C476.511 89.1694 480.348 91.9438 480.644 95.6921C480.945 99.4818 477.751 102.787 473.436 103.242C469.168 103.697 465.295 101.135 464.794 97.3686C464.292 93.6497 467.515 90.1198 471.99 89.6475ZM473.141 100.462C475.443 100.22 477.385 98.2009 477.184 95.9814C476.99 93.8032 474.658 92.174 472.285 92.4219C469.965 92.6698 468.029 94.7536 468.294 96.92C468.56 99.1395 470.886 100.704 473.141 100.462Z" fill="white"/>
<path d="M485.767 101.584C485.189 93.9692 491.381 87.901 498.937 88.0013C504.764 88.0781 512.03 91.3483 511.918 98.1662C511.836 102.959 508.725 105.604 505.206 107.841C501.653 110.096 497.467 112.003 495.012 115.403C500.549 115.208 506.133 115.202 511.676 115.379C511.611 117.634 511.576 118.762 511.511 121.011C503.052 120.875 494.675 121.028 486.228 121.471C485.685 114.429 491.151 109.748 496.694 106.572C499.876 104.524 504.321 102.528 504.356 98.5794C504.38 95.5394 501.96 93.5855 498.678 93.6446C494.114 93.7213 492.834 97.8238 492.963 101.23C490.083 101.336 488.642 101.407 485.767 101.584Z" fill="white"/>
<path d="M535.111 98.6132C534.839 96.3878 533.092 94.3512 530.429 94.1092C524.898 93.6075 522.992 99.7937 522.555 103.353C522.59 103.389 522.614 103.412 522.649 103.448C524.851 101.051 527.673 100.225 531.256 100.549C537.283 101.092 541.988 106.145 541.144 112.284C540.235 118.884 533.942 122.939 527.655 122.632C518.724 122.195 514.828 112.727 515.182 105.106C515.577 96.4704 521.433 88.3538 531.032 89.2098C536.586 89.7056 542.159 93.3477 542.265 99.475C539.402 99.0913 537.974 98.9201 535.111 98.6132ZM522.738 110.809C522.531 113.813 524.408 116.906 527.944 117.219C531.339 117.52 533.546 114.787 533.865 111.877C534.196 108.837 532.803 105.632 529.013 105.295C525.075 104.947 522.956 107.627 522.738 110.809Z" fill="white"/>
<path d="M566.084 94.4918C571.645 95.6547 577.2 96.9947 582.678 98.4999C592.218 100.584 597.92 109.875 594.703 119.19C591.763 127.702 583.038 133.339 574.018 130.281C568.145 128.682 565.187 127.967 559.243 126.71C561.527 115.973 563.806 105.235 566.084 94.4918ZM568.245 122.531C570.978 123.192 572.342 123.54 575.063 124.278C579.502 125.476 584.325 123.995 586.615 117.33C588.729 111.179 585.748 105.111 579.036 103.86C576.686 103.24 575.506 102.939 573.145 102.366C571.509 109.09 569.874 115.813 568.245 122.531Z" fill="white"/>
<path d="M597.124 130.129C600.141 131.221 601.646 131.788 604.639 132.974C603.594 135.625 603.069 136.947 602.018 139.597C599.102 138.446 597.638 137.891 594.698 136.829C595.672 134.149 596.156 132.809 597.124 130.129Z" fill="white"/>
<path d="M621.943 112.172C631.193 116.162 640.154 120.642 649.015 125.418C647.834 127.56 647.238 128.629 646.058 130.772C639.971 127.401 633.761 124.249 627.445 121.321C626.264 123.871 625.668 125.152 624.488 127.702C630.131 130.294 635.727 133.115 641.17 136.108C640.089 138.085 639.552 139.077 638.472 141.055C633.136 138.121 627.652 135.352 622.12 132.814C620.763 135.748 620.078 137.212 618.72 140.146C624.694 143.008 630.526 145.978 636.359 149.118C635.178 151.243 634.594 152.306 633.413 154.431C625.391 150.121 617.298 146.155 608.974 142.454C613.295 132.36 617.622 122.266 621.943 112.172Z" fill="white"/>
<path d="M642.081 151.177C644.909 152.83 646.314 153.68 649.1 155.421C647.589 157.836 646.839 159.046 645.328 161.46C642.613 159.76 641.243 158.933 638.492 157.328C639.927 154.866 640.647 153.633 642.081 151.177Z" fill="white"/>
<path d="M679.387 155.828C680.278 153.762 679.741 151.052 677.474 149.405C672.769 145.981 667.917 150.285 665.715 153.118C665.727 153.171 665.739 153.195 665.75 153.248C668.938 152.368 671.89 153.189 674.942 155.403C679.888 158.992 681.854 165.939 677.852 170.91C673.554 176.246 665.745 175.992 660.461 172.468C652.923 167.439 653.867 157.297 658.23 150.68C663.153 143.207 672.616 139.772 680.514 145.515C685.095 148.844 688.46 154.954 685.384 160.491C683.005 158.584 681.807 157.652 679.387 155.828ZM662.085 159.629C660.367 162.108 660.473 165.774 663.484 167.958C666.376 170.06 669.747 168.908 671.518 166.571C673.365 164.133 673.743 160.609 670.514 158.265C667.155 155.839 663.903 157.008 662.085 159.629Z" fill="white"/>
<path d="M73.4176 261.989C74.7418 269.368 76.3776 280.576 76.6748 292.064C76.8293 298.079 76.6001 303.632 75.993 308.58C75.3435 314.449 74.1697 319.644 72.5084 324.013C71.9474 325.508 71.2996 326.969 70.5823 328.341C69.0393 331.288 67.157 333.93 64.8253 336.402C61.3632 340.068 57.1666 342.669 52.0008 344.36L51.4137 344.555L51.4228 343.834C51.4355 342.955 51.4587 341.986 51.4893 340.94C51.5517 338.645 51.6907 335.914 51.8925 332.819C51.9858 331.289 52.0835 329.782 52.2154 328.257C52.3405 326.784 52.5232 325.244 52.7751 323.552C52.9783 322.185 53.2481 320.71 53.6195 318.909L54.1363 316.665L54.7864 314.239L55.3326 312.424L55.6626 311.431L55.0986 312.94L54.575 314.434L53.9053 316.574L53.2884 318.798C52.8446 320.556 52.5144 322.022 52.2488 323.401C51.9718 324.776 51.7157 326.267 51.4425 328.107C51.2109 329.644 51.0345 331.189 50.9286 332.71C50.8248 334.33 50.7855 335.744 50.8104 337.039C50.8124 337.524 50.8215 337.989 50.8346 338.447L50.8852 339.706C50.9073 340.124 50.9272 340.531 50.9563 340.929C50.9977 341.603 51.0558 342.28 51.15 343.127L51.2871 344.388L50.4335 343.584C42.1476 335.768 37.7431 326.158 37.3413 315.01C37.1513 309.986 37.775 304.538 39.184 298.834C39.821 296.246 40.6358 293.544 41.6106 290.807C42.4865 288.473 43.5608 285.989 44.8921 283.207C45.4452 282.053 46.0376 280.88 46.6468 279.71C48.4367 276.29 50.4837 272.779 52.7214 269.283C55.3885 265.137 58.2008 261.645 60.6802 258.566L60.9083 258.285C63.5774 255.04 65.8462 252.517 67.2768 250.965C68.8481 249.243 69.836 248.358 69.8783 248.325L70.3868 247.873L70.5776 248.602C70.5886 248.663 71.9712 253.963 73.4176 261.989Z" fill="#4DA400"/>
<path d="M9.13611 333.942C8.26085 341.388 7.30613 352.675 7.7046 364.16C7.91424 370.172 8.479 375.702 9.38432 380.604C10.3878 386.423 11.8738 391.538 13.7963 395.798C14.4468 397.256 15.1817 398.675 15.9808 400.001C17.6992 402.85 19.738 405.373 22.2149 407.699C25.8925 411.149 30.2388 413.492 35.4975 414.867L36.0952 415.026L36.0425 414.307C35.9767 413.43 35.895 412.464 35.801 411.422C35.5999 409.136 35.296 406.418 34.9072 403.341C34.7215 401.818 34.5329 400.321 34.309 398.807C34.095 397.344 33.8194 395.817 33.4657 394.144C33.1801 392.791 32.8216 391.336 32.3418 389.56L31.6902 387.351L30.8945 384.969L30.2395 383.191L29.8501 382.22L30.5043 383.692L31.1173 385.152L31.9153 387.247L32.6656 389.43C33.2149 391.158 33.6333 392.601 33.9818 393.962C34.3415 395.317 34.6873 396.789 35.0714 398.61C35.3955 400.13 35.6651 401.662 35.8628 403.173C36.0644 404.785 36.1893 406.193 36.2427 407.487C36.2701 407.972 36.2892 408.436 36.3038 408.894L36.3293 410.154C36.3326 410.573 36.3374 410.98 36.3324 411.379C36.3319 412.054 36.3148 412.733 36.272 413.584L36.2116 414.852L37.0149 413.998C44.8127 405.694 48.6277 395.835 48.3544 384.684C48.24 379.658 47.2878 374.257 45.5362 368.648C44.7439 366.104 43.7671 363.457 42.6285 360.784C41.6129 358.507 40.3904 356.092 38.8932 353.395C38.2713 352.278 37.609 351.143 36.9301 350.012C34.9366 346.706 32.6808 343.325 30.2358 339.972C27.3227 335.994 24.3043 332.678 21.6431 329.755L21.3985 329.489C18.5378 326.411 16.1206 324.029 14.5988 322.567C12.9261 320.943 11.8864 320.119 11.8422 320.089L11.3074 319.669L11.161 320.408C11.1537 320.47 10.0943 325.844 9.13611 333.942Z" fill="#4DA400"/>
<path d="M92.5529 339.145C93.4281 346.59 94.3828 357.877 93.9844 369.362C93.7747 375.375 93.21 380.904 92.3046 385.806C91.3012 391.625 89.8152 396.74 87.8926 401C87.2422 402.458 86.5072 403.877 85.7082 405.203C83.9897 408.052 81.951 410.575 79.474 412.901C75.7965 416.352 71.4501 418.694 66.1915 420.069L65.5937 420.228L65.6464 419.509C65.7123 418.633 65.794 417.667 65.8879 416.624C66.089 414.338 66.393 411.62 66.7817 408.543C66.9674 407.021 67.1561 405.523 67.38 404.009C67.594 402.546 67.8695 401.019 68.2233 399.346C68.5089 397.993 68.8674 396.538 69.3472 394.762L69.9987 392.554L70.7945 390.171L71.4495 388.393L71.8389 387.422L71.1847 388.894L70.5716 390.354L69.7736 392.449L69.0233 394.632C68.474 396.36 68.0557 397.804 67.7072 399.164C67.3475 400.519 67.0017 401.991 66.6176 403.812C66.2934 405.332 66.0238 406.864 65.8262 408.375C65.6245 409.987 65.4997 411.395 65.4463 412.689C65.4189 413.174 65.3998 413.638 65.3852 414.096L65.3596 415.356C65.3563 415.775 65.3516 416.182 65.3565 416.581C65.3571 417.256 65.3741 417.935 65.4169 418.786L65.4774 420.054L64.674 419.2C56.8763 410.896 53.0612 401.038 53.3346 389.886C53.449 384.86 54.4012 379.459 56.1527 373.851C56.9451 371.306 57.9219 368.659 59.0605 365.986C60.076 363.709 61.2986 361.295 62.7958 358.598C63.4177 357.48 64.08 356.345 64.7588 355.214C66.7524 351.908 69.0081 348.527 71.4532 345.174C74.3662 341.196 77.3847 337.88 80.0458 334.957L80.2905 334.691C83.1511 331.613 85.5684 329.232 87.0902 327.769C88.7629 326.145 89.8025 325.322 89.8468 325.291L90.3816 324.871L90.5279 325.61C90.5353 325.672 91.5946 331.046 92.5529 339.145Z" fill="#4DA400"/>
<path d="M100.104 422.156C102.013 429.406 104.539 440.447 105.752 451.875C106.387 457.858 106.602 463.412 106.392 468.392C106.213 474.295 105.458 479.567 104.151 484.054C103.711 485.589 103.182 487.097 102.576 488.522C101.274 491.583 99.6085 494.368 97.4817 497.017C94.3235 500.948 90.3479 503.876 85.3337 505.975L84.7641 506.215L84.7156 505.496C84.658 504.619 84.6037 503.651 84.5507 502.606C84.4297 500.314 84.3501 497.581 84.3041 494.479C84.2748 492.946 84.2519 491.437 84.2616 489.906C84.2686 488.428 84.3277 486.877 84.4436 485.171C84.537 483.792 84.6882 482.301 84.9146 480.475L85.2504 478.197L85.7048 475.727L86.1043 473.874L86.3539 472.858L85.9122 474.407L85.5097 475.939L85.0129 478.125L84.5757 480.391C84.2738 482.179 84.0617 483.667 83.9071 485.063C83.7407 486.455 83.6045 487.961 83.4792 489.818C83.371 491.368 83.3186 492.923 83.3345 494.447C83.3605 496.071 83.4341 497.483 83.5624 498.771C83.6031 499.255 83.6493 499.718 83.699 500.173L83.85 501.424C83.9054 501.839 83.9577 502.243 84.0185 502.638C84.1136 503.306 84.2256 503.976 84.3871 504.813L84.6245 506.06L83.7094 505.326C74.8258 498.196 69.6678 488.969 68.377 477.889C67.7864 472.896 67.973 467.415 68.9219 461.617C69.3502 458.987 69.9466 456.229 70.6997 453.423C71.3864 451.026 72.2588 448.464 73.3636 445.584C73.8229 444.39 74.3197 443.174 74.8335 441.959C76.3445 438.406 78.1046 434.743 80.056 431.08C82.3833 426.733 84.9078 423.028 87.1334 419.761L87.3383 419.463C89.7398 416.015 91.7998 413.319 93.1018 411.658C94.5306 409.815 95.4447 408.854 95.4842 408.818L95.955 408.327L96.2034 409.038C96.2193 409.098 98.0207 414.271 100.104 422.156Z" fill="#4DA400"/>
<path d="M4.0301 447.178C5.96624 454.421 9.24675 465.262 13.8581 475.788C16.2732 481.298 18.84 486.229 21.4913 490.45C24.5727 495.487 27.8422 499.691 31.202 502.94C32.3451 504.056 33.552 505.103 34.7844 506.04C37.4331 508.053 40.2598 509.645 43.4206 510.892C48.1122 512.741 53.0162 513.312 58.4112 512.649L59.0253 512.575L58.7109 511.927C58.326 511.137 57.8933 510.269 57.4211 509.335C56.3899 507.284 55.1039 504.871 53.6063 502.155C52.8716 500.809 52.1433 499.487 51.3762 498.162C50.637 496.882 49.8173 495.565 48.8706 494.14C48.1056 492.989 47.2351 491.769 46.1335 490.296L44.7124 488.484L43.0932 486.564L41.828 485.153L41.1074 484.394L42.2587 485.52L43.3678 486.651L44.883 488.303L46.3864 490.055C47.5349 491.458 48.4567 492.645 49.2829 493.78C50.1176 494.907 50.9827 496.148 52.012 497.698C52.8745 498.991 53.6907 500.315 54.4324 501.646C55.2149 503.069 55.851 504.332 56.3784 505.515C56.5828 505.955 56.7722 506.38 56.9549 506.8L57.4437 507.961C57.6015 508.349 57.7562 508.726 57.899 509.099C58.1478 509.726 58.3828 510.364 58.6573 511.171L59.0693 512.371L59.5003 511.28C63.6807 500.684 63.5856 490.113 59.2137 479.851C57.2515 475.222 54.3722 470.555 50.6734 465.99C48.9975 463.918 47.1121 461.818 45.067 459.754C43.2823 458.013 41.2547 456.221 38.8674 454.268C37.8767 453.459 36.8421 452.648 35.7937 451.848C32.7202 449.512 29.3754 447.203 25.8649 444.989C21.6888 442.368 17.6594 440.402 14.107 438.668L13.7812 438.511C9.98621 436.707 6.86043 435.386 4.90617 434.589C2.75199 433.698 1.48168 433.316 1.42939 433.304L0.777344 433.112L0.914146 433.852C0.930089 433.912 1.93005 439.298 4.0301 447.178Z" fill="#4DA400"/>
<path d="M39.4107 542.126C42.7849 548.821 48.2099 558.764 54.8734 568.127C58.3626 573.028 61.882 577.331 65.3392 580.921C69.3844 585.224 73.4434 588.672 77.3958 591.166C78.7426 592.025 80.1378 592.803 81.5357 593.469C84.5395 594.898 87.6317 595.88 90.9806 596.456C95.9507 597.307 100.868 596.865 106.014 595.114L106.6 594.917L106.16 594.347C105.622 593.651 105.021 592.891 104.368 592.073C102.94 590.276 101.188 588.176 99.1677 585.823C98.1737 584.655 97.1908 583.509 96.1694 582.37C95.1844 581.267 94.113 580.145 92.8954 578.944C91.9114 577.973 90.8102 576.956 89.4309 575.739L87.6697 574.255L85.6926 572.706L84.1661 571.584L83.3057 570.988L84.6627 571.855L85.9793 572.736L87.7999 574.044L89.6293 575.452C91.0401 576.591 92.1849 577.565 93.2255 578.507C94.2727 579.44 95.3728 580.478 96.6969 581.785C97.8052 582.875 98.8747 584.004 99.8726 585.156C100.929 586.389 101.81 587.496 102.568 588.546C102.857 588.935 103.13 589.312 103.394 589.686L104.11 590.723C104.344 591.071 104.572 591.408 104.788 591.744C105.159 592.307 105.52 592.883 105.953 593.617L106.602 594.708L106.801 593.552C108.73 582.326 106.478 571.997 100.103 562.844C97.237 558.713 93.4654 554.732 88.9124 551.018C86.8488 549.332 84.5744 547.662 82.151 546.059C80.0484 544.719 77.6976 543.378 74.9617 541.954C73.8267 541.364 72.6484 540.782 71.4587 540.213C67.973 538.553 64.2273 536.976 60.3387 535.526C55.7154 533.813 51.3694 532.71 47.5379 531.738L47.1868 531.651C43.1034 530.66 39.7738 530.005 37.698 529.624C35.4072 529.191 34.0857 529.077 34.0321 529.076L33.3545 529.021L33.6396 529.718C33.6675 529.773 35.746 534.841 39.4107 542.126Z" fill="#4DA400"/>
<path d="M80.3443 623.382C83.7185 630.077 89.1435 640.02 95.8069 649.383C99.2962 654.284 102.816 658.586 106.273 662.177C110.318 666.479 114.377 669.927 118.329 672.421C119.676 673.28 121.071 674.059 122.469 674.725C125.473 676.154 128.565 677.136 131.914 677.711C136.884 678.562 141.802 678.121 146.948 676.37L147.534 676.173L147.094 675.602C146.555 674.907 145.955 674.146 145.302 673.328C143.874 671.531 142.122 669.431 140.101 667.078C139.107 665.91 138.124 664.765 137.103 663.625C136.118 662.522 135.047 661.4 133.829 660.199C132.845 659.228 131.744 658.212 130.365 656.994L128.603 655.511L126.626 653.962L125.1 652.839L124.239 652.244L125.596 653.111L126.913 653.991L128.734 655.299L130.563 656.707C131.974 657.846 133.118 658.82 134.159 659.763C135.206 660.695 136.306 661.733 137.631 663.041C138.739 664.13 139.808 665.26 140.806 666.411C141.863 667.645 142.743 668.751 143.501 669.801C143.791 670.19 144.063 670.568 144.328 670.942L145.043 671.978C145.277 672.326 145.505 672.663 145.721 672.999C146.093 673.563 146.453 674.139 146.887 674.872L147.535 675.964L147.734 674.808C149.663 663.581 147.412 653.253 141.037 644.099C138.171 639.969 134.399 635.987 129.846 632.273C127.782 630.587 125.508 628.917 123.085 627.314C120.982 625.974 118.631 624.634 115.895 623.209C114.76 622.619 113.582 622.037 112.392 621.468C108.907 619.809 105.161 618.231 101.272 616.781C96.649 615.068 92.303 613.966 88.4715 612.994L88.1204 612.906C84.037 611.915 80.7074 611.261 78.6316 610.879C76.3408 610.447 75.0193 610.332 74.9657 610.331L74.2881 610.276L74.5732 610.973C74.6011 611.029 76.6795 616.096 80.3443 623.382Z" fill="#4DA400"/>
<path d="M126.286 497.055C129.465 503.845 133.931 514.254 137.176 525.278C138.874 531.05 140.083 536.476 140.77 541.412C141.653 547.251 141.856 552.573 141.376 557.222C141.219 558.812 140.969 560.39 140.629 561.901C139.897 565.145 138.758 568.184 137.142 571.172C134.74 575.606 131.355 579.2 126.798 582.164L126.281 582.503L126.104 581.804C125.89 580.952 125.663 580.009 125.423 578.99C124.893 576.757 124.324 574.083 123.722 571.04C123.418 569.537 123.125 568.056 122.86 566.549C122.601 565.093 122.381 563.557 122.189 561.858C122.033 560.484 121.915 558.99 121.81 557.154L121.731 554.852L121.735 552.341L121.796 550.447L121.859 549.402L121.702 551.005L121.581 552.584L121.485 554.824L121.461 557.132C121.485 558.945 121.543 560.447 121.642 561.848C121.728 563.247 121.864 564.754 122.074 566.603C122.246 568.147 122.474 569.686 122.763 571.182C123.08 572.775 123.406 574.151 123.763 575.396C123.89 575.864 124.018 576.311 124.149 576.75L124.522 577.954C124.651 578.352 124.775 578.74 124.906 579.117C125.119 579.758 125.35 580.397 125.659 581.191L126.116 582.375L125.084 581.818C115.065 576.398 108.335 568.246 105.076 557.578C103.599 552.772 102.799 547.347 102.692 541.472C102.642 538.808 102.733 535.987 102.971 533.091C103.216 530.61 103.614 527.934 104.184 524.902C104.422 523.645 104.692 522.359 104.98 521.072C105.829 517.306 106.903 513.386 108.165 509.433C109.675 504.739 111.493 500.641 113.096 497.027L113.244 496.697C114.988 492.874 116.531 489.852 117.514 487.984C118.589 485.915 119.315 484.806 119.348 484.763L119.723 484.196L120.095 484.851C120.121 484.907 122.822 489.673 126.286 497.055Z" fill="#4DA400"/>
<path d="M166.65 580.395C170.704 586.701 176.516 596.423 181.199 606.918C183.649 612.412 185.569 617.629 186.907 622.43C188.559 628.1 189.469 633.347 189.611 638.019C189.667 639.615 189.629 641.212 189.493 642.755C189.199 646.068 188.475 649.231 187.27 652.408C185.48 657.122 182.603 661.134 178.482 664.678L178.014 665.083L177.746 664.414C177.42 663.598 177.07 662.694 176.697 661.716C175.874 659.573 174.954 656.998 173.953 654.062C173.452 652.613 172.964 651.185 172.501 649.726C172.051 648.318 171.628 646.825 171.212 645.166C170.875 643.825 170.558 642.36 170.21 640.554L169.826 638.283L169.495 635.794L169.303 633.909L169.227 632.865L169.285 634.474L169.375 636.056L169.578 638.288L169.862 640.579C170.126 642.373 170.384 643.854 170.668 645.229C170.94 646.604 171.275 648.079 171.729 649.884C172.105 651.392 172.535 652.887 173.021 654.331C173.547 655.868 174.053 657.188 174.573 658.374C174.761 658.821 174.948 659.247 175.136 659.665L175.665 660.808C175.846 661.186 176.021 661.554 176.2 661.911C176.497 662.517 176.811 663.12 177.223 663.866L177.833 664.978L176.737 664.563C166.086 660.525 158.331 653.341 153.682 643.201C151.578 638.634 150.064 633.364 149.176 627.555C148.771 624.921 148.487 622.114 148.337 619.212C148.25 616.721 148.289 614.015 148.45 610.934C148.518 609.657 148.615 608.346 148.729 607.033C149.069 603.187 149.612 599.159 150.337 595.073C151.209 590.22 152.466 585.916 153.574 582.122L153.677 581.775C154.896 577.754 156.023 574.553 156.749 572.571C157.539 570.378 158.112 569.181 158.138 569.135L158.434 568.523L158.89 569.122C158.924 569.175 162.234 573.538 166.65 580.395Z" fill="#4DA400"/>
<path d="M222.484 633.358C228.375 637.996 237.042 645.288 244.894 653.679C249.004 658.072 252.521 662.376 255.353 666.478C258.766 671.298 261.339 675.961 262.998 680.33C263.572 681.82 264.058 683.343 264.433 684.845C265.237 688.073 265.585 691.299 265.483 694.695C265.33 699.735 263.92 704.467 261.182 709.162L260.872 709.697L260.4 709.153C259.826 708.487 259.2 707.747 258.528 706.945C257.05 705.188 255.34 703.054 253.435 700.606C252.489 699.4 251.561 698.209 250.647 696.981C249.762 695.797 248.876 694.524 247.94 693.092C247.184 691.935 246.407 690.653 245.488 689.06L244.383 687.039L243.258 684.794L242.462 683.074L242.049 682.113L242.629 683.615L243.23 685.08L244.151 687.125L245.167 689.197C246.003 690.806 246.73 692.122 247.447 693.329C248.153 694.54 248.951 695.825 249.969 697.382C250.817 698.685 251.712 699.958 252.642 701.164C253.641 702.445 254.55 703.528 255.429 704.479C255.753 704.841 256.069 705.182 256.383 705.516L257.256 706.423C257.551 706.722 257.836 707.012 258.122 707.291C258.6 707.767 259.093 708.234 259.726 708.805L260.667 709.657L259.495 709.623C248.109 709.283 238.433 705.024 230.729 696.957C227.25 693.327 224.098 688.84 221.363 683.64C220.12 681.282 218.935 678.721 217.846 676.028C216.95 673.701 216.104 671.131 215.251 668.166C214.898 666.937 214.562 665.666 214.241 664.387C213.307 660.641 212.505 656.657 211.857 652.558C211.096 647.686 210.879 643.208 210.688 639.259L210.672 638.898C210.512 634.699 210.532 631.306 210.571 629.196C210.602 626.865 210.753 625.547 210.762 625.494L210.843 624.819L211.469 625.237C211.518 625.275 216.072 628.319 222.484 633.358Z" fill="#4DA400"/>
<path d="M927.897 261.989C926.573 269.368 924.937 280.576 924.64 292.064C924.485 298.079 924.714 303.632 925.321 308.58C925.971 314.449 927.145 319.644 928.806 324.013C929.367 325.508 930.015 326.969 930.732 328.341C932.275 331.288 934.157 333.93 936.489 336.402C939.951 340.068 944.148 342.669 949.314 344.36L949.901 344.555L949.892 343.834C949.879 342.955 949.856 341.986 949.825 340.94C949.763 338.645 949.624 335.914 949.422 332.819C949.329 331.289 949.231 329.782 949.099 328.257C948.974 326.784 948.791 325.244 948.539 323.552C948.336 322.185 948.066 320.71 947.695 318.909L947.178 316.665L946.528 314.239L945.982 312.424L945.652 311.431L946.216 312.94L946.739 314.434L947.409 316.574L948.026 318.798C948.47 320.556 948.8 322.022 949.066 323.401C949.343 324.776 949.599 326.267 949.872 328.107C950.104 329.644 950.28 331.189 950.386 332.71C950.49 334.33 950.529 335.744 950.504 337.039C950.502 337.524 950.493 337.989 950.48 338.447L950.429 339.706C950.407 340.124 950.387 340.531 950.358 340.929C950.317 341.603 950.259 342.28 950.164 343.127L950.027 344.388L950.881 343.584C959.167 335.768 963.571 326.158 963.973 315.01C964.163 309.986 963.539 304.538 962.13 298.834C961.493 296.246 960.679 293.544 959.704 290.807C958.828 288.473 957.754 285.989 956.422 283.207C955.869 282.053 955.277 280.88 954.668 279.71C952.878 276.29 950.831 272.779 948.593 269.283C945.926 265.137 943.114 261.645 940.634 258.566L940.406 258.285C937.737 255.04 935.468 252.517 934.038 250.965C932.466 249.243 931.478 248.358 931.436 248.325L930.928 247.873L930.737 248.602C930.726 248.663 929.343 253.963 927.897 261.989Z" fill="#4DA400"/>
<path d="M992.178 333.942C993.054 341.388 994.008 352.675 993.61 364.16C993.4 370.172 992.835 375.702 991.93 380.604C990.927 386.423 989.441 391.538 987.518 395.798C986.868 397.256 986.133 398.675 985.334 400.001C983.615 402.85 981.576 405.373 979.1 407.699C975.422 411.149 971.076 413.492 965.817 414.867L965.219 415.026L965.272 414.307C965.338 413.43 965.42 412.464 965.513 411.422C965.715 409.136 966.018 406.418 966.407 403.341C966.593 401.818 966.782 400.321 967.005 398.807C967.219 397.344 967.495 395.817 967.849 394.144C968.134 392.791 968.493 391.336 968.973 389.56L969.624 387.351L970.42 384.969L971.075 383.191L971.464 382.22L970.81 383.692L970.197 385.152L969.399 387.247L968.649 389.43C968.1 391.158 967.681 392.601 967.333 393.962C966.973 395.317 966.627 396.789 966.243 398.61C965.919 400.13 965.649 401.662 965.452 403.173C965.25 404.785 965.125 406.193 965.072 407.487C965.044 407.972 965.025 408.436 965.011 408.894L964.985 410.154C964.982 410.573 964.977 410.98 964.982 411.379C964.983 412.054 965 412.733 965.042 413.584L965.103 414.852L964.3 413.998C956.502 405.694 952.687 395.835 952.96 384.684C953.074 379.658 954.027 374.257 955.778 368.648C956.571 366.104 957.547 363.457 958.686 360.784C959.702 358.507 960.924 356.092 962.421 353.395C963.043 352.278 963.705 351.143 964.384 350.012C966.378 346.706 968.634 343.325 971.079 339.972C973.992 335.994 977.01 332.678 979.671 329.755L979.916 329.489C982.777 326.411 985.194 324.029 986.716 322.567C988.388 320.943 989.428 320.119 989.472 320.089L990.007 319.669L990.153 320.408C990.161 320.47 991.22 325.844 992.178 333.942Z" fill="#4DA400"/>
<path d="M908.762 339.145C907.886 346.59 906.932 357.877 907.33 369.362C907.54 375.375 908.104 380.904 909.01 385.806C910.013 391.625 911.499 396.74 913.422 401C914.072 402.458 914.807 403.877 915.606 405.203C917.325 408.052 919.363 410.575 921.84 412.901C925.518 416.352 929.864 418.694 935.123 420.069L935.721 420.228L935.668 419.509C935.602 418.633 935.52 417.667 935.427 416.624C935.225 414.338 934.921 411.62 934.533 408.543C934.347 407.021 934.158 405.523 933.934 404.009C933.72 402.546 933.445 401.019 933.091 399.346C932.806 397.993 932.447 396.538 931.967 394.762L931.316 392.554L930.52 390.171L929.865 388.393L929.476 387.422L930.13 388.894L930.743 390.354L931.541 392.449L932.291 394.632C932.84 396.36 933.259 397.804 933.607 399.164C933.967 400.519 934.313 401.991 934.697 403.812C935.021 405.332 935.291 406.864 935.488 408.375C935.69 409.987 935.815 411.395 935.868 412.689C935.896 413.174 935.915 413.638 935.929 414.096L935.955 415.356C935.958 415.775 935.963 416.182 935.958 416.581C935.957 417.256 935.94 417.935 935.898 418.786L935.837 420.054L936.64 419.2C944.438 410.896 948.253 401.038 947.98 389.886C947.865 384.86 946.913 379.459 945.162 373.851C944.369 371.306 943.393 368.659 942.254 365.986C941.238 363.709 940.016 361.295 938.519 358.598C937.897 357.48 937.234 356.345 936.556 355.214C934.562 351.908 932.306 348.527 929.861 345.174C926.948 341.196 923.93 337.88 921.269 334.957L921.024 334.691C918.163 331.613 915.746 329.232 914.224 327.769C912.552 326.145 911.512 325.322 911.468 325.291L910.933 324.871L910.787 325.61C910.779 325.672 909.72 331.046 908.762 339.145Z" fill="#4DA400"/>
<path d="M901.211 422.156C899.302 429.406 896.776 440.447 895.562 451.875C894.928 457.858 894.713 463.412 894.923 468.392C895.101 474.295 895.857 479.567 897.164 484.054C897.603 485.589 898.133 487.097 898.738 488.522C900.041 491.583 901.706 494.368 903.833 497.017C906.991 500.948 910.967 503.876 915.981 505.975L916.55 506.215L916.599 505.496C916.656 504.619 916.711 503.651 916.764 502.606C916.885 500.314 916.964 497.581 917.01 494.479C917.04 492.946 917.063 491.437 917.053 489.906C917.046 488.428 916.987 486.877 916.871 485.171C916.777 483.792 916.626 482.301 916.4 480.475L916.064 478.197L915.61 475.727L915.21 473.874L914.961 472.858L915.402 474.407L915.805 475.939L916.302 478.125L916.739 480.391C917.041 482.179 917.253 483.667 917.407 485.063C917.574 486.455 917.71 487.961 917.835 489.818C917.943 491.368 917.996 492.923 917.98 494.447C917.954 496.071 917.88 497.483 917.752 498.771C917.711 499.255 917.665 499.718 917.615 500.173L917.464 501.424C917.409 501.839 917.357 502.243 917.296 502.638C917.201 503.306 917.089 503.976 916.927 504.813L916.69 506.06L917.605 505.326C926.489 498.196 931.647 488.969 932.937 477.889C933.528 472.896 933.341 467.415 932.393 461.617C931.964 458.987 931.368 456.229 930.615 453.423C929.928 451.026 929.056 448.464 927.951 445.584C927.492 444.39 926.995 443.174 926.481 441.959C924.97 438.406 923.21 434.743 921.258 431.08C918.931 426.733 916.407 423.028 914.181 419.761L913.976 419.463C911.575 416.015 909.515 413.319 908.213 411.658C906.784 409.815 905.87 408.854 905.83 408.818L905.359 408.327L905.111 409.038C905.095 409.098 903.294 414.271 901.211 422.156Z" fill="#4DA400"/>
<path d="M997.284 447.178C995.348 454.421 992.068 465.262 987.456 475.788C985.041 481.298 982.475 486.229 979.823 490.45C976.742 495.487 973.472 499.691 970.112 502.94C968.969 504.056 967.762 505.103 966.53 506.04C963.881 508.053 961.055 509.645 957.894 510.892C953.202 512.741 948.298 513.312 942.903 512.649L942.289 512.575L942.604 511.927C942.988 511.137 943.421 510.269 943.893 509.335C944.925 507.284 946.211 504.871 947.708 502.155C948.443 500.809 949.171 499.487 949.938 498.162C950.677 496.882 951.497 495.565 952.444 494.14C953.209 492.989 954.079 491.769 955.181 490.296L956.602 488.484L958.221 486.564L959.486 485.153L960.207 484.394L959.056 485.52L957.947 486.651L956.431 488.303L954.928 490.055C953.78 491.458 952.858 492.645 952.032 493.78C951.197 494.907 950.332 496.148 949.302 497.698C948.44 498.991 947.624 500.315 946.882 501.646C946.1 503.069 945.463 504.332 944.936 505.515C944.732 505.955 944.542 506.38 944.36 506.8L943.871 507.961C943.713 508.349 943.558 508.726 943.415 509.099C943.167 509.726 942.932 510.364 942.657 511.171L942.245 512.371L941.814 511.28C937.634 500.684 937.729 490.113 942.101 479.851C944.063 475.222 946.942 470.555 950.641 465.99C952.317 463.918 954.202 461.818 956.247 459.754C958.032 458.013 960.06 456.221 962.447 454.268C963.438 453.459 964.472 452.648 965.521 451.848C968.594 449.512 971.939 447.203 975.45 444.989C979.626 442.368 983.655 440.402 987.207 438.668L987.533 438.511C991.328 436.707 994.454 435.386 996.408 434.589C998.562 433.698 999.833 433.316 999.885 433.304L1000.54 433.112L1000.4 433.852C1000.38 433.912 999.384 439.298 997.284 447.178Z" fill="#4DA400"/>
<path d="M961.904 542.126C958.53 548.821 953.105 558.764 946.441 568.127C942.952 573.028 939.432 577.331 935.975 580.921C931.93 585.224 927.871 588.672 923.919 591.166C922.572 592.025 921.177 592.803 919.779 593.469C916.775 594.898 913.683 595.88 910.334 596.456C905.364 597.307 900.446 596.865 895.3 595.114L894.714 594.917L895.154 594.347C895.693 593.651 896.293 592.891 896.946 592.073C898.374 590.276 900.126 588.176 902.147 585.823C903.141 584.655 904.124 583.509 905.145 582.37C906.13 581.267 907.202 580.145 908.419 578.944C909.403 577.973 910.504 576.956 911.884 575.739L913.645 574.255L915.622 572.706L917.148 571.584L918.009 570.988L916.652 571.855L915.335 572.736L913.515 574.044L911.685 575.452C910.274 576.591 909.13 577.565 908.089 578.507C907.042 579.44 905.942 580.478 904.618 581.785C903.509 582.875 902.44 584.004 901.442 585.156C900.385 586.389 899.505 587.496 898.747 588.546C898.457 588.935 898.185 589.312 897.92 589.686L897.205 590.723C896.971 591.071 896.743 591.408 896.527 591.744C896.155 592.307 895.795 592.883 895.361 593.617L894.713 594.708L894.514 593.552C892.585 582.326 894.836 571.997 901.211 562.844C904.077 558.713 907.849 554.732 912.402 551.018C914.466 549.332 916.74 547.662 919.163 546.059C921.266 544.719 923.617 543.378 926.353 541.954C927.488 541.364 928.666 540.782 929.856 540.213C933.341 538.553 937.087 536.976 940.976 535.526C945.599 533.813 949.945 532.71 953.777 531.738L954.128 531.651C958.211 530.66 961.541 530.005 963.616 529.624C965.907 529.191 967.229 529.077 967.282 529.076L967.96 529.021L967.675 529.718C967.647 529.773 965.569 534.841 961.904 542.126Z" fill="#4DA400"/>
<path d="M920.97 623.382C917.596 630.077 912.171 640.02 905.508 649.383C902.018 654.284 898.499 658.586 895.042 662.177C890.996 666.479 886.937 669.927 882.985 672.421C881.638 673.28 880.243 674.059 878.845 674.725C875.841 676.154 872.749 677.136 869.4 677.711C864.43 678.562 859.513 678.121 854.367 676.37L853.781 676.173L854.221 675.602C854.759 674.907 855.36 674.146 856.013 673.328C857.441 671.531 859.192 669.431 861.213 667.078C862.207 665.91 863.19 664.765 864.211 663.625C865.197 662.522 866.268 661.4 867.485 660.199C868.469 659.228 869.571 658.212 870.95 656.994L872.711 655.511L874.688 653.962L876.215 652.839L877.075 652.244L875.718 653.111L874.402 653.991L872.581 655.299L870.752 656.707C869.341 657.846 868.196 658.82 867.155 659.763C866.108 660.695 865.008 661.733 863.684 663.041C862.576 664.13 861.506 665.26 860.508 666.411C859.452 667.645 858.571 668.751 857.813 669.801C857.523 670.19 857.251 670.568 856.987 670.942L856.271 671.978C856.037 672.326 855.809 672.663 855.593 672.999C855.221 673.563 854.861 674.139 854.428 674.872L853.779 675.964L853.58 674.808C851.651 663.581 853.903 653.253 860.278 644.099C863.144 639.969 866.915 635.987 871.468 632.273C873.532 630.587 875.806 628.917 878.23 627.314C880.332 625.974 882.683 624.634 885.419 623.209C886.554 622.619 887.732 622.037 888.922 621.468C892.408 619.809 896.154 618.231 900.042 616.781C904.665 615.068 909.011 613.966 912.843 612.994L913.194 612.906C917.277 611.915 920.607 611.261 922.683 610.879C924.974 610.447 926.295 610.332 926.349 610.331L927.026 610.276L926.741 610.973C926.713 611.029 924.635 616.096 920.97 623.382Z" fill="#4DA400"/>
<path d="M875.029 497.055C871.849 503.845 867.383 514.254 864.138 525.278C862.44 531.05 861.232 536.476 860.545 541.412C859.661 547.251 859.458 552.573 859.939 557.222C860.096 558.812 860.346 560.39 860.685 561.901C861.418 565.145 862.556 568.184 864.173 571.172C866.574 575.606 869.96 579.2 874.516 582.164L875.033 582.503L875.21 581.804C875.424 580.952 875.651 580.009 875.891 578.99C876.421 576.757 876.99 574.083 877.592 571.04C877.896 569.537 878.189 568.056 878.455 566.549C878.713 565.093 878.933 563.557 879.125 561.858C879.281 560.484 879.4 558.99 879.505 557.154L879.583 554.852L879.58 552.341L879.519 550.447L879.456 549.402L879.612 551.005L879.733 552.584L879.83 554.824L879.853 557.132C879.829 558.945 879.771 560.447 879.673 561.848C879.586 563.247 879.45 564.754 879.24 566.603C879.068 568.147 878.841 569.686 878.552 571.182C878.235 572.775 877.909 574.151 877.551 575.396C877.425 575.864 877.296 576.311 877.165 576.75L876.792 577.954C876.663 578.352 876.54 578.74 876.409 579.117C876.195 579.758 875.965 580.397 875.656 581.191L875.199 582.375L876.23 581.818C886.249 576.398 892.98 568.246 896.238 557.578C897.715 552.772 898.515 547.347 898.622 541.472C898.673 538.808 898.581 535.987 898.344 533.091C898.099 530.61 897.7 527.934 897.13 524.902C896.892 523.645 896.622 522.359 896.335 521.072C895.486 517.306 894.412 513.386 893.149 509.433C891.64 504.739 889.821 500.641 888.218 497.027L888.07 496.697C886.326 492.874 884.784 489.852 883.801 487.984C882.726 485.915 881.999 484.806 881.967 484.763L881.592 484.196L881.22 484.851C881.193 484.907 878.493 489.673 875.029 497.055Z" fill="#4DA400"/>
<path d="M834.665 580.395C830.61 586.701 824.799 596.423 820.116 606.918C817.665 612.412 815.746 617.629 814.408 622.43C812.755 628.1 811.846 633.347 811.703 638.019C811.648 639.615 811.685 641.212 811.821 642.755C812.115 646.068 812.839 649.231 814.044 652.408C815.834 657.122 818.711 661.134 822.833 664.678L823.3 665.083L823.568 664.414C823.894 663.598 824.244 662.694 824.618 661.716C825.44 659.573 826.36 656.998 827.362 654.062C827.863 652.613 828.35 651.185 828.814 649.726C829.264 648.318 829.686 646.825 830.103 645.166C830.44 643.825 830.756 642.36 831.105 640.554L831.489 638.283L831.819 635.794L832.011 633.909L832.088 632.865L832.029 634.474L831.939 636.056L831.737 638.288L831.453 640.579C831.188 642.373 830.93 643.854 830.646 645.229C830.375 646.604 830.039 648.079 829.585 649.884C829.209 651.392 828.779 652.887 828.294 654.331C827.768 655.868 827.261 657.188 826.742 658.374C826.554 658.821 826.367 659.247 826.179 659.665L825.649 660.808C825.468 661.186 825.294 661.554 825.114 661.911C824.817 662.517 824.504 663.12 824.092 663.866L823.481 664.978L824.578 664.563C835.229 660.525 842.984 653.341 847.633 643.201C849.736 638.634 851.251 633.364 852.139 627.555C852.543 624.921 852.828 622.114 852.978 619.212C853.065 616.721 853.026 614.015 852.864 610.934C852.796 609.657 852.699 608.346 852.586 607.033C852.245 603.187 851.702 599.159 850.977 595.073C850.106 590.22 848.849 585.916 847.74 582.122L847.638 581.775C846.418 577.754 845.291 574.553 844.566 572.571C843.776 570.378 843.203 569.181 843.176 569.135L842.88 568.523L842.424 569.122C842.391 569.175 839.08 573.538 834.665 580.395Z" fill="#4DA400"/>
<path d="M778.831 633.358C772.94 637.996 764.273 645.288 756.42 653.679C752.31 658.072 748.793 662.376 745.961 666.478C742.548 671.298 739.976 675.961 738.316 680.33C737.742 681.82 737.256 683.343 736.881 684.845C736.077 688.073 735.73 691.299 735.831 694.695C735.984 699.735 737.394 704.467 740.133 709.162L740.442 709.697L740.914 709.153C741.489 708.487 742.115 707.747 742.787 706.945C744.264 705.188 745.974 703.054 747.879 700.606C748.826 699.4 749.753 698.209 750.667 696.981C751.552 695.797 752.439 694.524 753.374 693.092C754.13 691.935 754.908 690.653 755.827 689.06L756.931 687.039L758.056 684.794L758.853 683.074L759.266 682.113L758.686 683.615L758.084 685.08L757.164 687.125L756.148 689.197C755.312 690.806 754.585 692.122 753.868 693.329C753.162 694.54 752.363 695.825 751.345 697.382C750.498 698.685 749.603 699.958 748.672 701.164C747.673 702.445 746.764 703.528 745.885 704.479C745.562 704.841 745.246 705.182 744.932 705.516L744.058 706.423C743.764 706.722 743.479 707.012 743.193 707.291C742.714 707.767 742.221 708.234 741.588 708.805L740.648 709.657L741.82 709.623C753.206 709.283 762.881 705.024 770.585 696.957C774.064 693.327 777.217 688.84 779.952 683.64C781.194 681.282 782.379 678.721 783.469 676.028C784.364 673.701 785.211 671.131 786.064 668.166C786.416 666.937 786.752 665.666 787.074 664.387C788.008 660.641 788.809 656.657 789.458 652.558C790.218 647.686 790.435 643.208 790.626 639.259L790.642 638.898C790.802 634.699 790.782 631.306 790.743 629.196C790.712 626.865 790.562 625.547 790.552 625.494L790.472 624.819L789.845 625.237C789.796 625.275 785.243 628.319 778.831 633.358Z" fill="#4DA400"/>
<path fill-rule="evenodd" clip-rule="evenodd" d="M163.329 644.557L169.254 645.294C168.857 644.906 168.462 644.517 168.067 644.127L160.436 636.148C158.541 634.236 156.729 632.185 154.972 630.196L154.867 630.076C154.252 629.38 153.641 628.689 153.024 628.001L149.374 623.886C149.247 623.738 149.116 623.592 148.985 623.444C148.897 623.346 148.809 623.247 148.721 623.147C148.334 622.717 147.949 622.28 147.578 621.836L138.867 611.24C137.421 609.411 135.976 607.512 134.585 605.677C133.802 604.644 133.019 603.611 132.231 602.58C131.845 602.068 131.451 601.553 131.06 601.043L131.057 601.04C130.35 600.116 129.643 599.191 128.952 598.252L122.711 589.402C122.551 589.174 122.39 588.946 122.229 588.717C122.068 588.488 121.907 588.26 121.747 588.032C121.043 587.043 120.318 586.023 119.667 584.988L119.6 584.883L112.345 573.748L108.247 566.924C105.481 562.485 102.947 557.879 100.499 553.416L100.498 553.414C99.6245 551.823 98.7508 550.232 97.8657 548.653C96.8554 546.739 95.8654 544.775 94.9032 542.868L94.8263 542.715C94.644 542.354 94.4625 541.993 94.2812 541.633C93.9123 540.899 93.5442 540.167 93.1719 539.438L90.8408 534.857L84.4377 521.055L80.5688 511.859L79.8877 510.236C79.4726 509.258 79.0622 508.277 78.6686 507.296L73.504 493.615C65.3979 470.597 59.4131 447.253 55.7131 424.243C55.4562 422.569 55.2286 420.901 55.0026 419.245L54.9776 419.061L54.9771 419.058C54.849 418.1 54.7209 417.142 54.5861 416.195C54.4613 415.255 54.3317 414.317 54.2022 413.379L54.2021 413.379C54.1805 413.224 54.1588 413.068 54.137 412.912C53.9254 411.396 53.7086 409.843 53.5552 408.333L52.8066 400.636C52.7294 399.783 52.6448 398.926 52.5555 398.071L52.5359 397.878C52.3774 396.318 52.214 394.711 52.1533 393.161L51.72 385.853C51.6852 385.219 51.6458 384.587 51.6063 383.955C51.4933 382.166 51.3905 380.482 51.3882 378.791L51.1746 366.566L51.2048 365.277C51.2142 355.535 51.7332 346.634 52.4496 338.745L50.7353 338.531C49.924 346.375 49.2981 355.214 49.1626 364.894C48.7991 384.682 50.1199 404.663 53.0942 424.283C56.6444 447.509 62.5121 471.102 70.5341 494.4L75.6492 508.242C76.0415 509.245 76.4499 510.233 76.861 511.226C76.9735 511.501 77.0879 511.776 77.2023 512.052C77.3166 512.327 77.431 512.602 77.5435 512.877L81.385 522.196L87.7621 536.195L90.09 540.853C90.6472 541.945 91.1977 543.048 91.7482 544.15L91.7504 544.155L91.8223 544.298C92.7922 546.233 93.7928 548.23 94.8188 550.188C95.6993 551.77 96.5658 553.358 97.4323 554.946L97.4329 554.947C99.9107 559.484 102.476 564.178 105.277 568.703L109.407 575.614L116.776 586.989C117.424 588.027 118.146 589.048 118.842 590.033L118.904 590.12C119.183 590.511 119.46 590.907 119.736 591.301L119.867 591.49L126.158 600.454C126.716 601.215 127.283 601.963 127.85 602.713C128.007 602.92 128.164 603.127 128.321 603.334C128.439 603.49 128.557 603.646 128.676 603.802C128.943 604.152 129.211 604.503 129.475 604.859C130.262 605.89 131.048 606.928 131.826 607.964C133.234 609.832 134.694 611.764 136.174 613.639L144.952 624.373C145.315 624.819 145.694 625.244 146.076 625.674L146.144 625.75C146.358 625.989 146.575 626.234 146.784 626.475L150.469 630.648C151.091 631.348 151.708 632.05 152.325 632.752L152.525 632.979C154.274 634.966 156.08 637.019 157.969 638.931L163.329 644.557Z" fill="#4DA400"/>
<path fill-rule="evenodd" clip-rule="evenodd" d="M837.925 644.557L832 645.294C832.397 644.906 832.792 644.517 833.187 644.127L840.818 636.148C842.713 634.236 844.525 632.185 846.281 630.196L846.387 630.076C847.002 629.38 847.613 628.689 848.23 628.001L851.88 623.886C852.007 623.738 852.138 623.592 852.269 623.444C852.357 623.346 852.445 623.247 852.533 623.147C852.92 622.717 853.305 622.28 853.676 621.836L862.387 611.24C863.833 609.411 865.278 607.512 866.669 605.677C867.452 604.644 868.235 603.611 869.023 602.58C869.409 602.068 869.803 601.553 870.194 601.043L870.197 601.04C870.904 600.116 871.611 599.191 872.302 598.252L878.543 589.402C878.703 589.174 878.864 588.946 879.025 588.717C879.186 588.488 879.347 588.26 879.507 588.032C880.211 587.043 880.935 586.023 881.586 584.988L881.654 584.883L888.908 573.748L893.007 566.924C895.773 562.485 898.307 557.879 900.755 553.416L900.756 553.414C901.629 551.823 902.503 550.232 903.388 548.653C904.398 546.739 905.388 544.775 906.351 542.868L906.428 542.715C906.61 542.354 906.791 541.993 906.973 541.633C907.342 540.899 907.71 540.167 908.082 539.438L910.413 534.857L916.816 521.055L920.685 511.859L921.366 510.236C921.781 509.258 922.192 508.277 922.585 507.296L927.75 493.615C935.856 470.597 941.841 447.253 945.541 424.243C945.798 422.569 946.025 420.901 946.251 419.245L946.276 419.061L946.277 419.058C946.405 418.1 946.533 417.142 946.668 416.195C946.793 415.255 946.922 414.317 947.052 413.379L947.052 413.379C947.073 413.224 947.095 413.068 947.117 412.912C947.329 411.396 947.545 409.843 947.699 408.333L948.447 400.636C948.525 399.783 948.609 398.926 948.698 398.071L948.718 397.878C948.877 396.318 949.04 394.711 949.101 393.161L949.534 385.853C949.569 385.219 949.608 384.587 949.648 383.955C949.761 382.166 949.863 380.482 949.866 378.791L950.079 366.566L950.049 365.277C950.04 355.535 949.521 346.634 948.804 338.745L950.519 338.531C951.33 346.375 951.956 355.214 952.091 364.894C952.455 384.682 951.134 404.663 948.16 424.283C944.61 447.509 938.742 471.102 930.72 494.4L925.605 508.242C925.212 509.245 924.804 510.233 924.393 511.226C924.28 511.501 924.166 511.776 924.052 512.052C923.937 512.327 923.823 512.602 923.71 512.877L919.869 522.196L913.492 536.195L911.164 540.853C910.607 541.945 910.056 543.048 909.506 544.15L909.503 544.155L909.432 544.298C908.462 546.233 907.461 548.23 906.435 550.188C905.555 551.77 904.688 553.358 903.822 554.946L903.821 554.947C901.343 559.484 898.778 564.178 895.977 568.703L891.847 575.614L884.477 586.989C883.829 588.027 883.107 589.048 882.412 590.033L882.35 590.12C882.071 590.511 881.794 590.907 881.518 591.301L881.386 591.49L875.096 600.454C874.538 601.215 873.971 601.963 873.403 602.713C873.247 602.92 873.09 603.127 872.933 603.334C872.815 603.49 872.696 603.646 872.578 603.802C872.311 604.152 872.043 604.503 871.779 604.859C870.991 605.89 870.206 606.928 869.427 607.964C868.02 609.832 866.56 611.764 865.08 613.639L856.302 624.373C855.939 624.819 855.56 625.244 855.177 625.674L855.11 625.75C854.896 625.989 854.679 626.234 854.47 626.475L850.785 630.648C850.163 631.348 849.546 632.05 848.929 632.752L848.729 632.979C846.98 634.966 845.174 637.019 843.285 638.931L837.925 644.557Z" fill="#4DA400"/>
<path d="M326.017 776.883C220.975 762.181 160.264 749.118 64 709.162L152.062 683.867L122.92 612C207.408 647.083 255.633 656.775 347.817 669.699L326.017 776.883Z" fill="#9B0404"/>
<path d="M677.852 776.883C782.895 762.181 843.642 749.118 939.906 709.162L851.844 683.867L880.986 612C796.468 647.083 748.273 656.775 656.059 669.699L677.852 776.883Z" fill="#9B0404"/>
<path d="M343.094 692.844L347.817 669.693L223.589 669.351C221.967 680.61 260.236 678.724 285.766 683.242C300.74 685.91 343.094 692.844 343.094 692.844Z" fill="black"/>
<path d="M660.776 692.843L656.053 669.693C656.053 669.693 780.665 667.067 780.503 669.35C779.764 681.83 743.604 678.724 718.134 683.242C703.136 685.91 660.776 692.843 660.776 692.843Z" fill="black"/>
<path d="M819.157 773.236C612.521 825.846 391.614 825.846 185.008 773.236C197.872 738.616 210.737 703.977 223.595 669.351C405.055 715.537 599.085 715.537 780.509 669.351C793.404 703.977 806.298 738.616 819.157 773.236Z" fill="#9B0404"/>
<path d="M249.552 729.808C249.774 726.84 247.311 724.004 243.958 723.247C237.865 721.871 234.452 726.143 233.275 731.196C232.145 736.021 233.335 741.434 239.53 742.84C243.73 743.789 246.698 741.62 248.068 737.937C250.718 738.52 252.046 738.809 254.695 739.373C252.532 746.469 245.118 749.54 238.322 748.164C229.85 746.451 224.508 737.631 226.437 729.574C228.342 721.606 236.76 715.754 245.172 717.881C251.229 719.413 256.774 724.412 256.174 731.25C253.524 730.679 252.196 730.391 249.552 729.808Z" fill="white"/>
<path d="M277.889 724.785C285.953 726.738 291.781 734.717 290.261 743.051C288.723 751.48 280.064 756.485 271.904 755.254C263.174 753.932 257.82 745.117 259.521 737.012C261.197 729.009 269.297 722.712 277.889 724.785ZM272.956 749.894C279.181 751.12 282.45 746.638 283.369 741.777C284.33 736.682 282.948 731.394 276.826 730.187C270.703 728.985 267.422 733.353 266.383 738.436C265.397 743.291 266.731 748.675 272.956 749.894Z" fill="white"/>
<path d="M298.727 729.405C301.431 729.886 302.789 730.12 305.499 730.589C308.683 737.877 311.934 745.135 315.25 752.364C315.287 752.37 315.299 752.369 315.335 752.375C316.38 745.832 317.432 739.283 318.477 732.74C321.025 733.149 322.299 733.347 324.852 733.743C323.344 743.507 321.836 753.271 320.328 763.029C317.546 762.596 316.152 762.38 313.376 761.935C310.023 754.713 306.736 747.461 303.516 740.178C303.48 740.172 303.468 740.172 303.432 740.166C302.308 746.686 301.19 753.205 300.067 759.73C297.459 759.279 296.155 759.051 293.547 758.588C295.272 748.855 297.002 739.133 298.727 729.405Z" fill="white"/>
<path d="M332.26 734.861C339.531 735.937 346.807 736.946 354.096 737.884C353.813 740.065 353.675 741.158 353.393 743.339C347.36 742.564 344.344 742.156 338.323 741.296C337.939 744.006 337.746 745.358 337.362 748.068C342.607 748.813 345.227 749.167 350.479 749.858C350.214 751.871 350.082 752.875 349.824 754.887C344.554 754.196 341.916 753.842 336.653 753.091C335.968 757.934 335.619 760.349 334.934 765.192C332.128 764.795 330.728 764.591 327.928 764.176C329.364 754.407 330.812 744.637 332.26 734.861Z" fill="white"/>
<path d="M359.131 738.526C366.882 739.493 374.651 740.376 382.42 741.188C382.192 743.375 382.078 744.474 381.85 746.661C375.24 745.97 371.935 745.604 365.332 744.823C365.032 747.334 364.887 748.59 364.587 751.107C370.674 751.829 373.72 752.171 379.813 752.814C379.602 754.833 379.494 755.842 379.278 757.855C373.155 757.212 370.097 756.87 363.986 756.143C363.644 759.033 363.475 760.475 363.133 763.365C368.829 764.044 374.537 764.681 380.245 765.269C380.017 767.444 379.909 768.532 379.681 770.701C371.599 769.86 363.529 768.941 355.466 767.937C356.692 758.125 357.911 748.326 359.131 738.526Z" fill="white"/>
<path d="M388.663 741.819C394.035 742.348 396.727 742.6 402.105 743.069C410.096 743.886 415.798 750.928 415.161 758.835C414.518 766.898 407.861 773.201 399.527 772.588C394.011 772.107 391.259 771.849 385.743 771.302C386.717 761.484 387.69 751.649 388.663 741.819ZM393.29 766.55C395.772 766.778 397.015 766.892 399.497 767.108C403.553 767.463 407.627 765.468 408.155 758.925C408.636 752.97 406.785 749.011 399.923 748.404C397.959 748.23 396.979 748.14 395.02 747.959C394.444 754.154 393.867 760.349 393.29 766.55Z" fill="white"/>
<path d="M422.107 744.648C429.894 745.195 437.681 745.664 445.481 746.054C445.372 748.254 445.312 749.353 445.204 751.552C438.571 751.222 435.26 751.029 428.633 750.603C428.47 753.126 428.386 754.394 428.224 756.918C434.335 757.308 437.393 757.488 443.504 757.801C443.402 759.826 443.348 760.841 443.245 762.866C437.105 762.554 434.034 762.373 427.899 761.977C427.713 764.879 427.617 766.333 427.431 769.235C433.151 769.607 438.877 769.932 444.603 770.214C444.495 772.395 444.441 773.489 444.333 775.67C436.227 775.267 428.128 774.781 420.034 774.21C420.719 764.356 421.41 754.502 422.107 744.648Z" fill="white"/>
<path d="M451.742 746.349C457.354 746.607 462.966 746.818 468.578 746.98C474.178 747.148 477.663 750.915 477.561 755.398C477.483 758.895 475.915 761.46 472.388 762.698C472.388 762.728 472.388 762.746 472.388 762.776C475.77 763.689 476.636 766.886 476.81 769.848C476.918 771.681 476.816 775.196 478.012 776.872C475.188 776.812 473.776 776.776 470.951 776.698C470.152 774.787 470.345 771.933 470.05 769.554C469.672 766.465 468.41 765.029 464.871 764.909C462.089 764.819 460.701 764.765 457.925 764.657C457.745 769.289 457.654 771.609 457.474 776.241C454.65 776.133 453.238 776.073 450.414 775.947C450.853 766.087 451.297 756.215 451.742 746.349ZM458.105 760.03C461.139 760.151 462.66 760.205 465.7 760.301C468.806 760.403 470.519 759.231 470.603 756.245C470.687 753.379 469.053 752.075 465.97 751.973C462.954 751.877 461.446 751.823 458.43 751.703C458.297 755.031 458.231 756.702 458.105 760.03Z" fill="white"/>
<path d="M493.436 747.479C496.26 747.503 497.666 747.515 500.49 747.521C504.383 757.422 508.349 767.294 512.387 777.136C509.461 777.154 507.994 777.16 505.068 777.16C504.077 774.522 503.59 773.201 502.611 770.557C497.858 770.551 495.478 770.533 490.72 770.479C489.674 773.11 489.151 774.42 488.094 777.052C485.252 777.016 483.834 776.992 480.992 776.938C485.21 767.144 489.356 757.326 493.436 747.479ZM492.588 765.666C495.875 765.696 497.521 765.708 500.808 765.72C499.222 761.358 498.435 759.177 496.872 754.815C496.836 754.815 496.824 754.815 496.788 754.815C495.124 759.159 494.283 761.328 492.588 765.666Z" fill="white"/>
<path d="M537.196 757.056C536.697 754.118 533.639 751.967 530.22 752.039C524.013 752.177 521.754 757.146 521.826 762.337C521.898 767.288 524.343 772.257 530.658 772.119C534.937 772.023 537.28 769.205 537.719 765.3C540.416 765.221 541.762 765.185 544.46 765.089C544.088 772.468 537.695 777.268 530.779 777.581C522.156 777.965 514.928 770.665 514.85 762.416C514.772 754.262 521.435 746.511 530.1 746.535C536.337 746.553 542.874 750.092 543.931 756.846C541.24 756.936 539.894 756.978 537.196 757.056Z" fill="white"/>
<path d="M549.616 746.656C552.368 746.548 553.75 746.493 556.502 746.367C556.94 756.233 557.379 766.105 557.817 775.971C554.993 776.097 553.581 776.157 550.757 776.265C550.379 766.399 549.994 756.528 549.616 746.656Z" fill="white"/>
<path d="M577.682 744.528C585.968 744.372 593.581 750.639 594.224 759.063C594.873 767.583 587.819 774.643 579.623 775.514C570.851 776.451 563.502 769.247 563.087 761.01C562.679 752.868 568.856 744.697 577.682 744.528ZM579.281 770.064C585.584 769.668 587.603 764.512 587.26 759.574C586.9 754.4 584.226 749.636 578.025 750.02C571.824 750.405 569.769 755.47 570.052 760.649C570.328 765.594 572.972 770.461 579.281 770.064ZM578.638 742.54C576.901 742.648 576.03 742.702 574.294 742.81C575.826 740.359 576.583 739.127 578.097 736.669C580.831 736.495 582.195 736.405 584.923 736.219C582.423 738.748 581.167 740.016 578.638 742.54Z" fill="white"/>
<path d="M598.935 743.718C601.668 743.495 603.032 743.381 605.766 743.147C610.681 749.39 615.657 755.59 620.692 761.743C620.728 761.737 620.74 761.737 620.776 761.737C620.133 755.14 619.484 748.542 618.841 741.945C621.407 741.693 622.687 741.567 625.246 741.302C626.262 751.126 627.277 760.956 628.293 770.78C625.499 771.068 624.099 771.206 621.299 771.483C616.233 765.348 611.222 759.165 606.277 752.929C606.241 752.929 606.229 752.935 606.193 752.935C606.764 759.526 607.329 766.117 607.899 772.708C605.268 772.937 603.952 773.045 601.32 773.255C600.521 763.407 599.728 753.559 598.935 743.718Z" fill="white"/>
<path d="M652.267 758.15C652.795 762.043 656.274 763.154 660.024 762.668C662.469 762.349 666.08 761.184 665.672 758.186C665.245 755.031 660.426 755.139 655.691 754.586C650.867 754.028 645.934 752.904 645.273 747.364C644.552 741.356 650.284 737.823 655.83 737.012C661.55 736.177 668.676 738.045 669.601 744.787C666.928 745.165 665.594 745.346 662.92 745.706C662.235 742.191 659.423 741.656 656.154 742.083C653.961 742.365 651.546 743.543 651.858 746.037C652.14 748.296 653.667 748.41 661.79 749.269C664.152 749.467 671.374 749.888 672.281 756.515C673.213 763.335 666.062 767.048 660.384 767.733C654.237 768.478 646.354 766.327 645.555 758.967C648.235 758.648 649.581 758.486 652.267 758.15Z" fill="white"/>
<path d="M704.314 749.095C705.69 757.014 699.807 761.671 692.741 763.065C685.591 764.477 678.579 760.938 677.425 753.349C676.536 747.269 675.647 741.188 674.751 735.114C677.485 734.711 678.849 734.507 681.583 734.092C682.509 740.167 683.434 746.241 684.359 752.316C684.846 755.5 686.258 758.559 691.882 757.669C696.833 756.888 698.101 754.599 697.386 750.255C696.394 744.192 695.397 738.13 694.406 732.061C697.134 731.617 698.497 731.388 701.225 730.926C702.253 736.982 703.28 743.039 704.314 749.095Z" fill="white"/>
<path d="M708.616 729.646C711.338 729.165 712.702 728.918 715.423 728.426C717.196 738.141 718.969 747.863 720.747 757.579C717.959 758.089 716.559 758.336 713.771 758.829C712.047 749.101 710.328 739.373 708.616 729.646Z" fill="white"/>
<path d="M725.218 751.51C729.664 744.246 734.044 736.946 738.376 729.609C732.248 730.847 729.183 731.448 723.043 732.602C722.634 730.439 722.43 729.357 722.021 727.194C730.121 725.668 738.202 724.058 746.272 722.363C746.698 724.376 746.909 725.386 747.329 727.404C743.075 734.783 738.761 742.125 734.393 749.437C740.173 748.314 745.941 747.142 751.704 745.922C752.154 748.061 752.377 749.131 752.833 751.27C743.958 753.114 735.072 754.881 726.167 756.575C725.782 754.55 725.596 753.535 725.218 751.51Z" fill="white"/>
<path d="M760.38 719.305C763.15 718.686 764.538 718.374 767.302 717.737C773.364 726.491 779.493 735.197 785.688 743.861C782.822 744.552 781.386 744.889 778.52 745.562C776.951 743.219 776.17 742.041 774.614 739.692C769.951 740.773 767.62 741.296 762.945 742.329C762.519 745.129 762.302 746.529 761.864 749.329C759.07 749.942 757.676 750.242 754.882 750.837C756.793 740.335 758.625 729.832 760.38 719.305ZM763.684 737.216C766.911 736.495 768.527 736.135 771.748 735.39C769.2 731.508 767.938 729.561 765.415 725.668C765.385 725.674 765.367 725.68 765.331 725.686C764.688 730.294 764.357 732.602 763.684 737.216Z" fill="white"/>
</svg>
