<svg xmlns="http://www.w3.org/2000/svg" width="983" height="813" viewBox="0 0 983 813" fill="none">
<path d="M608.25 231.102H372.75V388.794H608.25V231.102ZM603.342 383.31H375.995V235.807H603.342V383.31Z" fill="#333333"/>
<path d="M671.182 513.696L638.996 415.642C638.331 413.617 636.045 411.791 632.842 410.416C636.453 406.565 638.68 401.398 638.68 395.699V224.624C638.68 212.727 629.055 203.092 617.171 203.092H363.827C351.944 203.097 342.319 212.733 342.313 224.624V395.699C342.313 401.398 344.545 406.565 348.156 410.416C344.953 411.791 342.667 413.617 342.002 415.642L309.816 513.696C307.676 520.222 315.546 533 327.436 533H653.557C665.463 533 673.328 520.227 671.182 513.696ZM351.879 224.624C351.89 218.018 357.234 212.674 363.833 212.657H617.176C623.775 212.668 629.114 218.018 629.124 224.624V395.699C629.119 402.311 623.775 407.655 617.176 407.666L363.833 407.66C357.234 407.649 351.89 402.305 351.879 395.699V224.624V224.624ZM350.919 419.976C352.48 419.052 356.509 417.715 361.579 417.715H619.424C624.494 417.715 628.523 419.058 630.085 419.976L660.333 512.128H537.906L529.89 483.957H451.113L443.098 512.128H320.67L350.919 419.976ZM327.441 523.171C323.288 523.171 320.3 519.298 319.5 517.037H443.404L444.756 523.171H327.441ZM531.215 523.171H509.798C509.792 523.971 509.406 524.766 508.483 525.276C497.297 531.501 481.641 534.842 471.925 524.342C471.345 524.229 470.761 524.122 470.17 524.03C469.478 523.923 469.001 523.601 468.684 523.171H449.788L448.436 517.037H532.578L531.215 523.171ZM448.232 512.02L454.821 488.871H526.188L532.777 512.02H448.232ZM653.568 523.171H536.243L537.595 517.037H661.503C660.709 519.298 657.721 523.171 653.568 523.171Z" fill="#333333"/>
<path d="M619.001 429.255H360.957L346.814 473.866H633.15L619.001 429.255ZM622.01 456.413H605.951L603.37 446.707H618.937L622.01 456.413ZM603.413 456.413H586.813L584.667 446.707H600.833L603.413 456.413ZM615.094 434.586L618.161 444.266H602.723L600.153 434.586H615.094ZM597.621 434.586L600.191 444.266H584.132L581.99 434.586H597.621ZM579.48 434.586L581.621 444.266H565.54L563.827 434.586H579.48ZM561.343 434.586L563.056 444.266H546.954L545.67 434.586H561.343ZM546.093 456.413H529.439L528.577 446.707H544.802L546.093 456.413ZM543.197 434.586L544.481 444.266H528.369L527.512 434.586H543.197ZM526.982 456.413H510.318L509.89 446.707H526.126L526.982 456.413ZM525.055 434.586L525.912 444.266H509.783L509.354 434.586H525.055ZM507.866 456.413H491.202V446.707H507.438L507.866 456.413ZM506.903 434.586L507.331 444.266H491.202V434.586H506.903ZM473.055 434.586H488.756V444.266H472.627L473.055 434.586ZM472.52 446.707H488.756V456.413H472.092L472.52 446.707ZM454.908 434.586H470.604L470.175 444.266H454.052L454.908 434.586ZM453.832 446.707H470.063L469.635 456.413H452.976L453.832 446.707ZM436.762 434.586H452.451L451.595 444.266H435.477L436.762 434.586ZM451.375 446.707L450.514 456.413H433.86L435.15 446.707H451.375ZM418.615 434.586H434.288L433.004 444.266H416.902L418.615 434.586ZM400.478 434.586H416.136L414.423 444.266H398.337L400.478 434.586ZM397.973 434.586L395.832 444.266H379.773L382.342 434.586H397.973ZM395.291 446.707L393.145 456.413H376.545L379.12 446.707H395.291ZM364.87 434.586H379.805L377.235 444.266H361.797L364.87 434.586ZM361.026 446.707H376.588L374.013 456.413H357.954L361.026 446.707ZM354.105 468.534L357.172 458.855H373.36L370.79 468.534H354.105ZM390.458 468.534H373.322L375.892 458.855H392.599L390.458 468.534ZM410.119 468.534H392.968L395.109 458.855H411.838L410.119 468.534ZM395.65 456.413L397.797 446.707H413.99L412.271 456.413H395.65ZM429.787 468.534H412.609L414.321 458.855H431.071L429.787 468.534ZM414.755 456.413L416.473 446.707H432.683L431.392 456.413H414.755ZM432.254 468.534L433.539 458.855H546.419L547.704 468.534H432.254ZM547.276 446.707H563.485L565.203 456.413H548.566L547.276 446.707ZM550.172 468.534L548.887 458.855H565.637L567.35 468.534H550.172ZM565.974 446.707H582.162L584.308 456.413H567.687L565.974 446.707ZM569.839 468.534L568.126 458.855H584.849L586.99 468.534H569.839ZM589.501 468.534L587.359 458.855H604.061L606.63 468.534H589.501ZM606.598 458.855H622.786L625.853 468.534H609.168L606.598 458.855Z" fill="#333333"/>
<path d="M533.238 469.503H523.73C523.031 469.503 522.466 468.938 522.466 468.238V462.845C522.466 462.145 523.031 461.58 523.73 461.58H533.238C533.938 461.58 534.502 462.145 534.502 462.845V468.238C534.502 468.938 533.938 469.503 533.238 469.503Z" fill="#333333"/>
<path d="M533.238 540.549H523.73C523.031 540.549 522.466 539.984 522.466 539.285V533.891C522.466 533.191 523.031 532.627 523.73 532.627H533.238C533.938 532.627 534.502 533.191 534.502 533.891V539.285C534.502 539.984 533.938 540.549 533.238 540.549Z" fill="#333333"/>
<path d="M524.625 500.367V501.232L532.346 501.927V501.056L524.625 500.367Z" fill="#333333"/>
<path d="M524.625 502.046V502.911L532.346 503.605V502.74L524.625 502.046Z" fill="#333333"/>
<path d="M532.325 504.414L524.625 503.725V504.206C524.625 504.341 524.651 504.471 524.688 504.595L531.874 505.243C532.113 505.03 532.273 504.745 532.325 504.414Z" fill="#333333"/>
<path d="M532.346 498.569V497.89C532.346 497.129 531.74 496.512 530.988 496.512H525.983C525.237 496.512 524.636 497.124 524.625 497.875L532.346 498.569Z" fill="#333333"/>
<path d="M524.625 498.688V499.554L532.346 500.248V499.378L524.625 498.688Z" fill="#333333"/>
<path d="M525.455 505.476C525.615 505.549 525.797 505.585 525.983 505.585H526.672L525.455 505.476Z" fill="#333333"/>
<path fill-rule="evenodd" clip-rule="evenodd" d="M455.137 359.18H438.939V278.926H542.994V359.18H526.797C526.797 351.906 520.994 346.004 513.838 346.004H468.096C460.94 346.004 455.137 351.9 455.137 359.18ZM543 269.372H438.939V254.641H543V269.372ZM438.939 245.082V229.626H543V245.082H438.939ZM502.828 312.802C502.828 319.453 497.52 324.844 490.972 324.844C484.425 324.844 479.117 319.453 479.117 312.802C479.117 306.152 484.425 300.761 490.972 300.761C497.52 300.761 502.828 306.152 502.828 312.802Z" fill="#333333"/>
<path d="M459.095 469.502H449.587C448.888 469.502 448.323 468.937 448.323 468.238V462.844C448.323 462.145 448.888 461.58 449.587 461.58H459.095C459.795 461.58 460.359 462.145 460.359 462.844V468.238C460.359 468.937 459.789 469.502 459.095 469.502Z" fill="#333333"/>
<path d="M459.095 540.549H449.587C448.888 540.549 448.323 539.984 448.323 539.285V533.891C448.323 533.191 448.888 532.627 449.587 532.627H459.095C459.795 532.627 460.359 533.191 460.359 533.891V539.285C460.359 539.984 459.789 540.549 459.095 540.549Z" fill="#333333"/>
<path d="M466.562 497.849C468.054 486.129 477.624 476.875 489.36 476.113C502.563 475.253 513.739 485.051 515.372 497.849H537.372V474.932C537.372 473.305 536.072 471.984 534.471 471.984H521.543C518.854 471.984 516.258 471.056 514.102 469.424C514.066 469.398 514.03 469.367 513.988 469.341C508.594 465.284 505.335 458.937 505.335 452.118V348.999H476.598V452.113C476.598 458.932 473.339 465.284 467.945 469.336C467.909 469.362 467.867 469.393 467.831 469.419C465.676 471.051 463.08 471.979 460.391 471.979H447.463C445.862 471.979 444.561 473.3 444.561 474.927V497.844H466.562V497.849Z" fill="#333333"/>
<path d="M515.304 504.865C513.589 516.331 504.133 525.315 492.578 526.067C479.557 526.911 468.51 517.403 466.634 504.865H444.566V527.238C444.566 528.865 445.867 530.186 447.468 530.186H460.391C463.08 530.186 465.671 531.108 467.826 532.74C474.293 537.642 482.303 540.543 490.972 540.543C499.641 540.543 507.651 537.637 514.118 532.74C516.273 531.108 518.864 530.186 521.553 530.186H534.476C536.077 530.186 537.378 528.865 537.378 527.238V504.865H515.304Z" fill="#333333"/>
<path d="M450.484 500.367V501.232L458.199 501.927V501.056L450.484 500.367Z" fill="#333333"/>
<path d="M450.484 502.046V502.911L458.199 503.605V502.74L450.484 502.046Z" fill="#333333"/>
<path d="M458.178 504.414L450.479 503.725V504.206C450.479 504.341 450.504 504.471 450.541 504.595L457.727 505.243C457.966 505.03 458.132 504.745 458.178 504.414Z" fill="#333333"/>
<path d="M458.199 498.569V497.89C458.199 497.129 457.593 496.512 456.841 496.512H451.836C451.09 496.512 450.489 497.124 450.479 497.875L458.199 498.569Z" fill="#333333"/>
<path d="M450.483 498.688V499.554L458.199 500.248V499.378L450.483 498.688Z" fill="#333333"/>
<path d="M451.307 505.476C451.468 505.549 451.649 505.585 451.836 505.585H452.525L451.307 505.476Z" fill="#333333"/>
<path fill-rule="evenodd" clip-rule="evenodd" d="M490.5 695C665.298 695 807 553.298 807 378.5C807 203.702 665.298 62 490.5 62C315.702 62 174 203.702 174 378.5C174 553.298 315.702 695 490.5 695ZM490.5 615C621.115 615 727 509.115 727 378.5C727 247.885 621.115 142 490.5 142C359.884 142 254 247.885 254 378.5C254 509.115 359.884 615 490.5 615Z" fill="#1C4484"/>
<path d="M219.218 368.46C219.334 371.583 219.412 373.139 219.612 376.24C209.52 381.325 199.65 386.721 189.908 392.456C189.53 389.01 189.363 387.282 189.074 383.814C191.731 382.414 193.065 381.73 195.738 380.38C195.332 374.828 195.188 372.033 195.032 366.426C192.237 365.309 190.842 364.731 188.057 363.558C187.996 360.146 187.985 358.429 188.018 355C198.277 359.868 208.636 364.342 219.218 368.46ZM200.161 368.398C200.295 372.222 200.389 374.128 200.645 377.924C205.069 375.773 207.291 374.728 211.749 372.705C211.749 372.666 211.743 372.65 211.743 372.611C207.097 370.999 204.78 370.155 200.161 368.398Z" fill="white"/>
<path d="M207.583 426.424C199.008 428.686 193.428 420.967 192.206 413.52C190.939 405.795 193.161 397.098 202.126 395.97C208.505 395.159 214.88 394.347 221.26 393.536C221.638 396.52 221.849 398.004 222.299 400.966C215.947 401.944 209.589 402.928 203.237 403.906C199.903 404.423 196.668 406.023 197.83 412.503C198.852 418.21 201.37 419.588 205.882 418.66C212.179 417.365 218.481 416.071 224.777 414.781C225.378 417.699 225.694 419.149 226.367 422.045C220.109 423.506 213.846 424.968 207.583 426.424Z" fill="white"/>
<path d="M224.614 438.106C223.475 434.166 222.936 432.176 221.936 428.186C224.17 427.625 225.287 427.347 227.521 426.786C229.772 435.644 232.373 444.424 235.479 453.021C233.312 453.794 232.223 454.183 230.055 454.955C228.682 451.11 228.027 449.17 226.787 445.269C218.763 447.814 210.738 450.365 202.718 452.91C201.735 449.815 201.262 448.253 200.356 445.124C208.442 442.785 216.528 440.445 224.614 438.106Z" fill="white"/>
<path d="M243.33 470.818C247.037 478.881 243.652 488.884 235.677 492.947C227.097 497.315 217.06 492.291 213.553 483.816C210.169 475.63 212.942 464.599 221.873 461.337C230.17 458.303 239.723 462.971 243.33 470.818ZM218.788 481.527C221.145 486.917 227.241 488.423 232.276 486.034C237.128 483.733 240.379 478.448 238.05 473.124C235.722 467.795 229.636 466.572 224.646 468.562C219.461 470.629 216.432 476.136 218.788 481.527Z" fill="white"/>
<path d="M252.477 491.374C254.41 494.981 255.405 496.77 257.462 500.299C252.588 506.128 247.858 512.08 243.285 518.149C243.312 518.199 243.329 518.221 243.357 518.271C250.748 516.748 258.106 515.042 265.414 513.164C267.665 516.593 268.821 518.288 271.188 521.628C262.752 527.602 254.322 533.581 245.885 539.555C244.146 537.099 243.285 535.86 241.606 533.359C247.68 529.269 253.749 525.184 259.823 521.094C259.796 521.05 259.779 521.027 259.746 520.983C252.065 522.722 244.374 524.312 236.632 525.751C235.304 523.645 234.648 522.589 233.359 520.461C238.038 514.198 242.823 508.046 247.742 501.972C247.725 501.938 247.714 501.922 247.697 501.894C241.384 505.467 235.071 509.035 228.763 512.608C227.274 509.98 226.546 508.657 225.123 505.995C234.243 501.121 243.362 496.248 252.477 491.374Z" fill="white"/>
<path d="M285.427 538.904C291.234 545.601 290.706 556.132 284.215 562.233C277.235 568.802 266.215 566.868 260.485 559.727C254.945 552.819 254.65 541.538 262.264 535.931C269.333 530.724 279.775 532.386 285.427 538.904ZM264.876 556.065C268.643 560.577 274.901 560.261 279.047 556.571C283.037 553.019 284.732 547.057 281.009 542.594C277.285 538.137 271.117 538.737 266.91 542.027C262.541 545.451 261.108 551.552 264.876 556.065Z" fill="white"/>
<path d="M300.697 564.936C297.801 562.113 296.379 560.68 293.583 557.756C295.245 556.162 296.079 555.367 297.74 553.772C303.992 560.268 310.511 566.537 317.363 572.405C315.857 574.15 315.107 575.023 313.601 576.768C310.533 574.117 309.022 572.772 306.048 570.021C300.33 576.201 294.617 582.381 288.898 588.56C286.542 586.376 285.375 585.27 283.074 583.031C288.948 576.996 294.823 570.966 300.697 564.936Z" fill="white"/>
<path d="M332.922 583.985C340.119 589.175 342.175 599.568 337.234 607.053C331.916 615.106 320.668 615.628 313.438 609.987C306.446 604.536 303.473 593.593 309.62 586.352C315.333 579.628 325.914 578.928 332.922 583.985ZM316.867 605.408C321.574 608.937 327.631 607.259 330.832 602.685C333.917 598.278 334.117 592.076 329.465 588.586C324.814 585.096 318.923 587.047 315.572 591.243C312.093 595.6 312.159 601.879 316.867 605.408Z" fill="white"/>
<path d="M351.105 597.415C356.246 600.582 361.398 603.611 366.66 606.556C371.946 609.44 373.674 614.586 371.568 618.777C369.928 622.05 367.2 623.745 363.081 623.161C363.065 623.189 363.059 623.206 363.043 623.233C366.027 625.773 365.493 629.207 364.354 632.092C363.648 633.876 361.964 637.154 362.481 639.344C359.53 637.877 358.063 637.127 355.157 635.587C355.207 633.381 356.729 630.797 357.535 628.418C358.58 625.329 357.974 623.356 354.495 621.405C351.761 619.871 350.405 619.088 347.721 617.487C345.237 621.655 343.997 623.739 341.513 627.913C338.701 626.24 337.306 625.384 334.55 623.639C340.068 614.898 345.587 606.156 351.105 597.415ZM350.211 613.319C353.112 615.048 354.573 615.892 357.53 617.537C360.553 619.221 362.809 618.971 364.287 616.209C365.705 613.558 364.71 611.558 361.781 609.918C358.913 608.318 357.491 607.501 354.679 605.823C352.884 608.824 351.994 610.324 350.211 613.319Z" fill="white"/>
<path d="M382.331 614.483C390.084 617.99 397.875 621.213 405.844 624.203C405.061 626.37 404.666 627.448 403.883 629.616C398.136 627.465 392.484 625.214 386.833 622.825C385.771 625.253 385.243 626.465 384.187 628.893C389.428 631.194 394.78 633.345 400.159 635.301C399.426 637.29 399.059 638.29 398.325 640.28C392.851 638.285 387.399 636.101 382.064 633.756C380.847 636.546 380.241 637.94 379.024 640.73C385.132 643.392 391.328 645.854 397.597 648.11C396.819 650.261 396.43 651.339 395.658 653.49C386.688 650.155 377.907 646.532 369.193 642.564C373.573 633.211 377.952 623.847 382.331 614.483Z" fill="white"/>
<path d="M410.903 647.8C409.713 651.735 412.942 654.441 417.238 655.67C420.039 656.47 424.496 656.925 425.296 653.858C426.136 650.635 420.878 648.673 416.104 645.994C411.242 643.266 406.601 639.692 408.552 634.307C410.758 628.217 418.45 627.772 423.829 629.273C429.681 630.907 436.545 635.363 434.95 642.521C431.954 641.81 430.465 641.437 427.503 640.654C428.231 636.975 425.535 635.286 421.995 634.263C419.622 633.574 416.644 633.602 415.865 636.114C415.16 638.392 416.588 639.276 424.83 643.599C427.241 644.805 434.95 648.373 433.221 654.997C431.259 662.505 421.612 662.255 415.432 660.66C408.763 658.937 401.077 653.13 403.461 645.339C406.423 646.367 407.913 646.856 410.903 647.8Z" fill="white"/>
<path d="M543.665 641.734C542.52 638.827 538.602 637.366 534.795 638.027C528.893 639.055 525.837 644.601 526.72 650.214C527.643 656.043 532.85 659.922 538.785 658.661C543.782 657.6 546.132 654.204 545.882 650.092C549.017 649.391 550.573 649.025 553.674 648.247C555.347 656.81 547.183 662.746 539.869 664.279C530.844 666.169 519.712 661.334 518.468 651.398C517.306 642.178 524.814 633.954 533.7 632.381C540.681 631.147 548.194 633.014 551.284 639.944C548.25 640.694 546.727 641.05 543.665 641.734Z" fill="white"/>
<path d="M569.808 622.874C578.26 619.857 588.458 623.508 591.965 632.116C595.744 641.386 588.997 650.894 580.161 653.673C571.675 656.34 560.138 653.189 557.598 643.653C555.253 634.795 561.616 625.792 569.808 622.874ZM578.344 648.249C583.968 646.365 586.48 640.469 584.451 635.045C582.501 629.821 577.199 626.464 571.647 628.332C566.095 630.199 563.856 636.067 565.462 641.424C567.123 646.987 572.72 650.138 578.344 648.249Z" fill="white"/>
<path d="M592.053 615.133C595.977 613.432 597.922 612.549 601.768 610.709C607.286 615.994 612.943 621.129 618.729 626.12C618.779 626.092 618.807 626.081 618.862 626.053C618.023 618.517 616.989 611.004 615.767 603.518C619.501 601.462 621.346 600.406 624.992 598.217C630.31 607.081 635.629 615.944 640.947 624.808C638.268 626.42 636.913 627.209 634.189 628.754C630.583 622.385 626.976 616.011 623.364 609.642C623.314 609.67 623.291 609.681 623.241 609.709C624.286 617.556 625.17 625.403 625.892 633.288C623.597 634.5 622.447 635.089 620.124 636.25C614.144 631.143 608.286 625.931 602.512 620.59C602.479 620.607 602.462 620.612 602.429 620.629C605.474 627.209 608.525 633.789 611.571 640.374C608.709 641.696 607.269 642.341 604.374 643.597C600.267 634.105 596.16 624.619 592.053 615.133Z" fill="white"/>
<path d="M631.936 593.905C637.132 590.576 639.678 588.842 644.668 585.247C649.364 581.479 656.283 580.94 660.245 585.969C664.402 591.243 661.485 598.051 656.305 601.396C653.571 603.369 652.187 604.336 649.392 606.231C651.887 609.904 653.132 611.744 655.627 615.417C652.865 617.295 651.47 618.212 648.653 620.018C643.084 611.316 637.51 602.613 631.936 593.905ZM646.413 601.846C648.43 600.474 649.431 599.779 651.42 598.367C654.41 596.244 656.622 593.716 654.26 590.554C651.904 587.386 648.936 588.731 646.041 590.787C644.118 592.154 643.145 592.827 641.189 594.155C643.284 597.228 644.323 598.767 646.413 601.846Z" fill="white"/>
<path d="M693.671 568.642C700.173 574.728 696.505 583.602 690.854 588.598C684.979 593.789 676.438 596.54 670.714 589.532C666.64 584.558 662.566 579.585 658.487 574.611C660.805 572.71 661.955 571.743 664.217 569.782C668.424 574.644 672.631 579.507 676.832 584.369C679.039 586.92 682.112 588.81 686.997 584.364C691.298 580.446 691.143 577.573 687.958 574.244C683.512 569.598 679.072 564.952 674.626 560.307C676.788 558.234 677.86 557.189 679.967 555.061C684.54 559.59 689.103 564.113 693.671 568.642Z" fill="white"/>
<path d="M694.609 547.879C691.842 550.985 690.43 552.514 687.557 555.52C685.895 553.925 685.062 553.131 683.4 551.541C689.791 544.823 695.926 537.837 701.623 530.513C703.434 531.935 704.34 532.641 706.157 534.064C703.59 537.343 702.273 538.96 699.589 542.138C706.024 547.568 712.46 552.992 718.895 558.421C716.761 560.95 715.677 562.2 713.482 564.667C707.186 559.071 700.895 553.475 694.609 547.879Z" fill="white"/>
<path d="M710.001 519.341C711.774 516.829 712.641 515.562 714.347 513C725.406 515.223 736.56 516.829 747.758 518.174C745.974 521.142 745.062 522.614 743.195 525.526C740.239 525.021 738.766 524.754 735.826 524.204C732.808 528.827 731.247 531.106 728.024 535.585C729.58 538.153 730.347 539.447 731.864 542.054C729.88 544.755 728.874 546.094 726.818 548.739C721.544 538.73 715.953 528.961 710.001 519.341ZM725.123 530.939C727.301 527.866 728.363 526.316 730.447 523.17C725.634 522.187 723.239 521.659 718.482 520.542C718.459 520.575 718.448 520.586 718.431 520.619C721.16 524.698 722.5 526.76 725.123 530.939Z" fill="white"/>
<path d="M743.529 482.601C740.539 481.701 737.015 483.785 735.265 487.086C732.481 492.332 735.287 497.934 740.111 500.596C745.118 503.358 751.359 502.041 753.999 496.628C756.161 492.193 754.888 488.325 751.481 486.008C752.821 483.19 753.471 481.773 754.738 478.917C762.368 482.768 762.357 492.554 759.1 499.217C755.055 507.498 744.551 512.455 736.182 507.503C728.412 502.907 725.934 492.415 730.146 484.474C733.425 478.289 739.527 473.832 746.73 475.677C745.474 478.467 744.835 479.851 743.529 482.601Z" fill="white"/>
<path d="M739.795 465.348C740.962 462.542 741.529 461.13 742.624 458.285C752.272 461.997 761.919 465.715 771.567 469.427C770.35 472.584 769.722 474.157 768.427 477.269C758.879 473.295 749.337 469.322 739.795 465.348Z" fill="white"/>
<path d="M749.454 435.719C751.804 427.061 760.596 420.62 769.716 422.665C779.53 424.866 783.398 435.975 780.653 444.805C778.008 453.319 768.849 460.838 759.596 457.487C751.004 454.375 747.164 444.127 749.454 435.719ZM775.162 443.205C776.818 437.508 773.445 432.04 767.815 430.601C762.397 429.217 756.623 431.695 754.983 437.325C753.344 442.954 756.917 448.112 762.219 449.845C767.715 451.657 773.506 448.901 775.162 443.205ZM747.848 434.007C747.32 435.858 747.042 436.786 746.48 438.625C744.658 436.136 743.735 434.908 741.862 432.485C742.685 429.623 743.074 428.183 743.819 425.288C745.491 428.722 746.292 430.467 747.848 434.007Z" fill="white"/>
<path d="M755.83 412.783C756.435 409.749 756.724 408.226 757.247 405.17C765.005 401.335 772.557 397.278 780.043 392.938C780.049 392.899 780.049 392.877 780.054 392.838C773.163 392.021 766.277 391.21 759.386 390.393C759.731 387.47 759.886 386.003 760.159 383.057C770.451 384.002 780.743 384.947 791.041 385.892C790.724 389.376 790.536 391.11 790.124 394.561C782.716 399.168 775.064 403.38 767.272 407.298C767.267 407.337 767.261 407.354 767.256 407.393C774.074 408.582 780.899 409.771 787.718 410.96C787.162 414.15 786.868 415.74 786.234 418.902C776.097 416.857 765.966 414.817 755.83 412.783Z" fill="white"/>
<path d="M643.193 106.807L601.999 83.0237L645.972 31.0465L715.093 70.9535L692.066 135.024L643.193 106.807Z" fill="#1C4484"/>
<path d="M758.782 219.693L734.999 178.5L799.07 155.473L838.977 224.594L787 268.567L758.782 219.693Z" fill="#1C4484"/>
<path d="M803 373.566L803 326L869.999 338.093L870 417.907L803 430L803 373.566Z" fill="#1C4484"/>
<path d="M652.873 643.783L694.066 620L717.093 684.07L647.972 723.977L604 672L652.873 643.783Z" fill="#1C4484"/>
<path d="M762.988 530.422L786.771 489.229L838.748 533.201L798.841 602.322L734.771 579.295L762.988 530.422Z" fill="#1C4484"/>
<path d="M486.565 67L438.999 67L451.092 7.22402e-06L530.906 6.57219e-06L542.999 67L486.565 67Z" fill="#1C4484"/>
<path d="M338.806 106.807L380 83.0237L336.027 31.0465L266.906 70.9535L289.933 135.024L338.806 106.807Z" fill="#1C4484"/>
<path d="M223.217 219.693L247 178.5L182.929 155.473L143.022 224.594L195 268.567L223.217 219.693Z" fill="#1C4484"/>
<path d="M179 373.566L179 326L112 338.093L112 417.907L179 430L179 373.566Z" fill="#1C4484"/>
<path d="M329.126 643.783L287.933 620L264.906 684.07L334.027 723.977L378 672L329.126 643.783Z" fill="#1C4484"/>
<path d="M219.011 530.422L195.228 489.229L143.251 533.201L183.158 602.322L247.228 579.295L219.011 530.422Z" fill="#1C4484"/>
<path d="M495.434 689L543 689L530.907 756L451.093 756L439 689L495.434 689Z" fill="#1C4484"/>
<path d="M305 153.892C313.129 147.529 321.434 141.543 330.041 135.847C331.369 137.901 332.03 138.934 333.353 140.988C327.391 144.837 321.564 148.904 315.897 153.172C317.591 155.421 318.436 156.542 320.124 158.791C325.265 155.014 330.425 151.389 335.726 147.836C336.96 149.724 337.573 150.669 338.807 152.552C333.595 155.934 328.465 159.541 323.512 163.295C325.454 165.881 326.428 167.168 328.37 169.753C333.819 165.757 339.291 161.944 344.929 158.219C346.239 160.261 346.9 161.282 348.211 163.325C340.383 168.325 332.857 173.814 325.59 179.599C318.731 171.028 311.865 162.463 305 153.892Z" fill="white"/>
<path d="M349.484 154.124C352.282 152.406 353.693 151.574 356.532 149.95C357.943 152.424 358.651 153.657 360.068 156.131C357.306 157.713 355.93 158.527 353.203 160.198C351.715 157.766 350.971 156.556 349.484 154.124Z" fill="white"/>
<path d="M361.31 125.045C357.071 127.164 354.97 128.268 350.796 130.57C349.616 128.427 349.025 127.353 347.845 125.21C357.567 120.004 367.396 115.264 377.526 110.913C378.464 113.174 378.936 114.301 379.875 116.562C375.53 118.369 373.37 119.313 369.09 121.302C372.85 129.413 376.605 137.529 380.365 145.64C377.52 146.956 376.109 147.641 373.293 149.046C369.303 141.042 365.306 133.043 361.31 125.045Z" fill="white"/>
<path d="M391.377 133.142C394.37 131.956 395.869 131.383 398.892 130.285C399.866 132.959 400.35 134.299 401.324 136.979C398.384 138.048 396.92 138.602 394.004 139.765C392.953 137.115 392.428 135.793 391.377 133.142Z" fill="white"/>
<path d="M413.346 98.6254C416.693 97.7104 418.375 97.2736 421.746 96.459C428.688 102.344 435.37 108.401 441.893 114.746C441.929 114.74 441.952 114.735 441.988 114.729C440.642 107.486 439.296 100.237 437.956 92.994C441.149 92.4037 442.749 92.1263 445.96 91.6245C447.672 102.468 449.384 113.318 451.096 124.161C448.056 124.64 446.539 124.899 443.511 125.466C437.177 119.109 430.683 113.034 423.924 107.126C423.883 107.137 423.865 107.137 423.824 107.149C425.577 114.292 427.324 121.434 429.077 128.577C426.262 129.268 424.857 129.628 422.053 130.395C419.154 119.805 416.25 109.215 413.346 98.6254Z" fill="white"/>
<path d="M460.99 89.6474C465.512 89.1693 469.349 91.9436 469.644 95.692C469.945 99.4817 466.751 102.787 462.436 103.242C458.168 103.696 454.296 101.135 453.794 97.3685C453.292 93.6496 456.515 90.1196 460.99 89.6474ZM462.141 100.462C464.443 100.22 466.386 98.2008 466.185 95.9813C465.99 93.8031 463.658 92.1739 461.285 92.4218C458.965 92.6697 457.029 94.7535 457.295 96.9198C457.56 99.1393 459.886 100.704 462.141 100.462Z" fill="white"/>
<path d="M474.768 101.584C474.189 93.9691 480.382 87.9009 487.938 88.0012C493.764 88.078 501.031 91.3482 500.919 98.1661C500.836 102.959 497.725 105.604 494.207 107.841C490.653 110.096 486.468 112.003 484.012 115.403C489.549 115.208 495.134 115.202 500.677 115.379C500.612 117.634 500.576 118.761 500.511 121.01C492.052 120.875 483.676 121.028 475.228 121.471C474.685 114.429 480.152 109.748 485.695 106.572C488.876 104.524 493.321 102.528 493.357 98.5793C493.38 95.5393 490.96 93.5854 487.678 93.6444C483.115 93.7212 481.834 97.8237 481.964 101.23C479.083 101.336 477.643 101.407 474.768 101.584Z" fill="white"/>
<path d="M524.111 98.613C523.84 96.3876 522.092 94.3511 519.43 94.1091C513.899 93.6073 511.992 99.7936 511.555 103.353C511.591 103.389 511.614 103.412 511.65 103.448C513.852 101.051 516.673 100.225 520.256 100.549C526.283 101.092 530.988 106.145 530.144 112.284C529.235 118.884 522.942 122.939 516.656 122.632C507.724 122.195 503.828 112.727 504.182 105.106C504.578 96.4703 510.434 88.3537 520.032 89.2096C525.587 89.7055 531.159 93.3476 531.266 99.4749C528.403 99.0912 526.974 98.92 524.111 98.613ZM511.738 110.809C511.532 113.813 513.409 116.906 516.945 117.219C520.339 117.52 522.547 114.787 522.866 111.877C523.196 108.837 521.803 105.632 518.013 105.295C514.076 104.947 511.957 107.627 511.738 110.809Z" fill="white"/>
<path d="M555.085 94.4917C560.646 95.6546 566.2 96.9946 571.679 98.4998C581.218 100.584 586.92 109.875 583.703 119.19C580.763 127.702 572.039 133.339 563.019 130.281C557.145 128.682 554.188 127.967 548.243 126.71C550.528 115.973 552.806 105.235 555.085 94.4917ZM557.245 122.531C559.979 123.192 561.342 123.54 564.064 124.278C568.503 125.476 573.325 123.995 575.616 117.33C577.729 111.179 574.748 105.111 568.036 103.86C565.687 103.24 564.506 102.939 562.145 102.366C560.51 109.09 558.875 115.813 557.245 122.531Z" fill="white"/>
<path d="M586.125 130.129C589.141 131.221 590.647 131.788 593.64 132.974C592.595 135.625 592.069 136.947 591.019 139.597C588.102 138.446 586.638 137.891 583.699 136.829C584.673 134.149 585.157 132.809 586.125 130.129Z" fill="white"/>
<path d="M610.944 112.171C620.194 116.162 629.155 120.642 638.015 125.418C636.835 127.56 636.239 128.629 635.058 130.772C628.972 127.401 622.762 124.249 616.445 121.321C615.265 123.871 614.669 125.152 613.488 127.702C619.131 130.293 624.728 133.115 630.17 136.108C629.09 138.085 628.553 139.077 627.472 141.054C622.136 138.121 616.652 135.352 611.121 132.814C609.763 135.748 609.078 137.212 607.721 140.145C613.695 143.008 619.527 145.977 625.359 149.118C624.179 151.243 623.594 152.305 622.414 154.43C614.391 150.121 606.298 146.155 597.975 142.453C602.296 132.359 606.623 122.265 610.944 112.171Z" fill="white"/>
<path d="M631.082 151.177C633.909 152.83 635.314 153.68 638.101 155.421C636.589 157.835 635.84 159.045 634.328 161.46C631.613 159.76 630.244 158.933 627.493 157.328C628.927 154.866 629.647 153.632 631.082 151.177Z" fill="white"/>
<path d="M668.387 155.827C669.278 153.761 668.741 151.052 666.474 149.405C661.77 145.981 656.917 150.284 654.715 153.118C654.727 153.171 654.739 153.195 654.751 153.248C657.939 152.368 660.89 153.189 663.942 155.402C668.889 158.991 670.855 165.939 666.852 170.909C662.555 176.246 654.745 175.992 649.462 172.468C641.923 167.438 642.868 157.297 647.23 150.68C652.154 143.207 661.616 139.771 669.515 145.515C674.095 148.844 677.46 154.954 674.385 160.491C672.006 158.584 670.807 157.651 668.387 155.827ZM651.085 159.629C649.367 162.108 649.474 165.774 652.484 167.958C655.377 170.059 658.747 168.908 660.518 166.571C662.366 164.133 662.744 160.609 659.515 158.265C656.156 155.839 652.903 157.008 651.085 159.629Z" fill="white"/>
<path d="M75.4171 261.989C76.7413 269.368 78.3772 280.576 78.6743 292.064C78.8288 298.079 78.5997 303.632 77.9926 308.58C77.3431 314.449 76.1692 319.644 74.5079 324.013C73.9469 325.508 73.2991 326.969 72.5818 328.341C71.0388 331.288 69.1565 333.93 66.8248 336.402C63.3627 340.068 59.1661 342.669 54.0003 344.36L53.4132 344.555L53.4224 343.834C53.435 342.955 53.4582 341.986 53.4889 340.94C53.5512 338.645 53.6902 335.914 53.8921 332.819C53.9853 331.289 54.083 329.782 54.2149 328.257C54.34 326.784 54.5227 325.244 54.7746 323.552C54.9778 322.185 55.2476 320.71 55.619 318.909L56.1358 316.665L56.7859 314.239L57.3321 312.424L57.6621 311.431L57.0981 312.94L56.5745 314.434L55.9048 316.574L55.2879 318.798C54.8441 320.556 54.5139 322.022 54.2484 323.401C53.9713 324.776 53.7153 326.267 53.442 328.107C53.2104 329.644 53.034 331.189 52.9281 332.71C52.8243 334.33 52.785 335.744 52.81 337.039C52.8119 337.524 52.821 337.989 52.8341 338.447L52.8848 339.706C52.9068 340.124 52.9267 340.531 52.9558 340.929C52.9972 341.603 53.0553 342.28 53.1495 343.127L53.2866 344.388L52.433 343.584C44.1471 335.768 39.7426 326.158 39.3408 315.01C39.1508 309.986 39.7746 304.538 41.1835 298.834C41.8205 296.246 42.6354 293.544 43.6101 290.807C44.486 288.473 45.5603 285.989 46.8916 283.207C47.4447 282.053 48.0371 280.88 48.6463 279.71C50.4362 276.29 52.4832 272.779 54.7209 269.283C57.388 265.137 60.2003 261.645 62.6797 258.566L62.9078 258.285C65.577 255.04 67.8457 252.517 69.2763 250.965C70.8476 249.243 71.8355 248.358 71.8779 248.325L72.3863 247.873L72.5771 248.602C72.5881 248.663 73.9707 253.963 75.4171 261.989Z" fill="#4DA400"/>
<path d="M9.13611 340.942C8.26085 348.388 7.30613 359.675 7.7046 371.16C7.91424 377.172 8.479 382.702 9.38432 387.604C10.3878 393.423 11.8738 398.538 13.7963 402.798C14.4468 404.256 15.1817 405.675 15.9808 407.001C17.6992 409.85 19.738 412.373 22.2149 414.699C25.8925 418.149 30.2388 420.492 35.4975 421.867L36.0952 422.026L36.0425 421.307C35.9767 420.43 35.895 419.464 35.801 418.422C35.5999 416.136 35.296 413.418 34.9072 410.341C34.7215 408.818 34.5329 407.321 34.309 405.807C34.095 404.344 33.8194 402.817 33.4657 401.144C33.1801 399.791 32.8216 398.336 32.3418 396.56L31.6902 394.351L30.8945 391.969L30.2395 390.191L29.8501 389.22L30.5043 390.692L31.1173 392.152L31.9153 394.247L32.6656 396.43C33.2149 398.158 33.6333 399.601 33.9818 400.962C34.3415 402.317 34.6873 403.789 35.0714 405.61C35.3955 407.13 35.6651 408.662 35.8628 410.173C36.0644 411.785 36.1893 413.193 36.2427 414.487C36.2701 414.972 36.2892 415.436 36.3038 415.894L36.3293 417.154C36.3326 417.573 36.3374 417.98 36.3324 418.379C36.3319 419.054 36.3148 419.733 36.272 420.584L36.2116 421.852L37.0149 420.998C44.8127 412.694 48.6277 402.835 48.3544 391.684C48.24 386.658 47.2878 381.257 45.5362 375.648C44.7439 373.104 43.7671 370.457 42.6285 367.784C41.6129 365.507 40.3904 363.092 38.8932 360.395C38.2713 359.278 37.609 358.143 36.9301 357.012C34.9366 353.706 32.6808 350.325 30.2358 346.972C27.3227 342.994 24.3043 339.678 21.6431 336.755L21.3985 336.489C18.5378 333.411 16.1206 331.029 14.5988 329.567C12.9261 327.943 11.8864 327.119 11.8422 327.089L11.3074 326.669L11.161 327.408C11.1537 327.47 10.0943 332.844 9.13611 340.942Z" fill="#4DA400"/>
<path d="M94.5524 339.145C95.4276 346.59 96.3824 357.877 95.9839 369.362C95.7742 375.375 95.2095 380.904 94.3042 385.806C93.3007 391.625 91.8147 396.74 89.8921 401C89.2417 402.458 88.5067 403.877 87.7077 405.203C85.9892 408.052 83.9505 410.575 81.4735 412.901C77.796 416.352 73.4497 418.694 68.191 420.069L67.5933 420.228L67.646 419.509C67.7118 418.633 67.7935 417.667 67.8875 416.624C68.0885 414.338 68.3925 411.62 68.7812 408.543C68.967 407.021 69.1556 405.523 69.3795 404.009C69.5935 402.546 69.869 401.019 70.2228 399.346C70.5084 397.993 70.8669 396.538 71.3467 394.762L71.9982 392.554L72.794 390.171L73.449 388.393L73.8384 387.422L73.1842 388.894L72.5711 390.354L71.7732 392.449L71.0228 394.632C70.4735 396.36 70.0552 397.804 69.7067 399.164C69.347 400.519 69.0012 401.991 68.6171 403.812C68.2929 405.332 68.0233 406.864 67.8257 408.375C67.624 409.987 67.4992 411.395 67.4458 412.689C67.4184 413.174 67.3993 413.638 67.3847 414.096L67.3591 415.356C67.3558 415.775 67.3511 416.182 67.3561 416.581C67.3566 417.256 67.3736 417.935 67.4164 418.786L67.4769 420.054L66.6735 419.2C58.8758 410.896 55.0608 401.038 55.3341 389.886C55.4485 384.86 56.4007 379.459 58.1522 373.851C58.9446 371.306 59.9214 368.659 61.06 365.986C62.0755 363.709 63.2981 361.295 64.7953 358.598C65.4172 357.48 66.0795 356.345 66.7583 355.214C68.7519 351.908 71.0076 348.527 73.4527 345.174C76.3658 341.196 79.3842 337.88 82.0453 334.957L82.29 334.691C85.1506 331.613 87.5679 329.232 89.0897 327.769C90.7624 326.145 91.802 325.322 91.8463 325.291L92.3811 324.871L92.5275 325.61C92.5348 325.672 93.5941 331.046 94.5524 339.145Z" fill="#4DA400"/>
<path d="M102.104 422.156C104.013 429.406 106.539 440.447 107.752 451.875C108.387 457.858 108.602 463.412 108.392 468.392C108.213 474.295 107.458 479.567 106.151 484.054C105.711 485.589 105.182 487.097 104.576 488.522C103.274 491.583 101.609 494.368 99.4817 497.017C96.3235 500.948 92.3479 503.876 87.3337 505.975L86.7641 506.215L86.7156 505.496C86.658 504.619 86.6037 503.651 86.5507 502.606C86.4297 500.314 86.3501 497.581 86.3041 494.479C86.2748 492.946 86.2519 491.437 86.2616 489.906C86.2686 488.428 86.3277 486.877 86.4436 485.171C86.537 483.792 86.6882 482.301 86.9146 480.475L87.2504 478.197L87.7048 475.727L88.1043 473.874L88.3539 472.858L87.9122 474.407L87.5097 475.939L87.0129 478.125L86.5757 480.391C86.2738 482.179 86.0617 483.667 85.9071 485.063C85.7407 486.455 85.6045 487.961 85.4792 489.818C85.371 491.368 85.3186 492.923 85.3345 494.447C85.3605 496.071 85.4341 497.483 85.5624 498.771C85.6031 499.255 85.6493 499.718 85.699 500.173L85.85 501.424C85.9054 501.839 85.9577 502.243 86.0185 502.638C86.1136 503.306 86.2256 503.976 86.3871 504.813L86.6245 506.06L85.7094 505.326C76.8258 498.196 71.6678 488.969 70.377 477.889C69.7864 472.896 69.973 467.415 70.9219 461.617C71.3502 458.987 71.9466 456.229 72.6997 453.423C73.3864 451.026 74.2588 448.464 75.3636 445.584C75.8229 444.39 76.3197 443.174 76.8335 441.959C78.3445 438.406 80.1046 434.743 82.056 431.08C84.3833 426.733 86.9078 423.028 89.1334 419.761L89.3383 419.463C91.7398 416.015 93.7998 413.319 95.1018 411.658C96.5306 409.815 97.4447 408.854 97.4842 408.818L97.955 408.327L98.2034 409.038C98.2193 409.098 100.021 414.271 102.104 422.156Z" fill="#4DA400"/>
<path d="M18.3523 439.388C18.5159 446.883 19.1324 458.193 21.1165 469.513C22.1562 475.438 23.4808 480.837 25.0558 485.566C26.8549 491.19 29.0344 496.05 31.5281 500.003C32.3741 501.357 33.2984 502.661 34.2733 503.864C36.3694 506.447 38.7378 508.664 41.5128 510.625C45.6324 513.533 50.2611 515.251 55.6595 515.886L56.2735 515.96L56.1218 515.255C55.9353 514.396 55.7206 513.451 55.4834 512.432C54.9678 510.195 54.2906 507.546 53.4797 504.552C53.0852 503.07 52.6911 501.613 52.2598 500.144C51.8454 498.725 51.3612 497.251 50.7793 495.643C50.3092 494.343 49.7528 492.951 49.0319 491.259L48.0809 489.162L46.9631 486.912L46.0684 485.242L45.5483 484.334L46.3998 485.701L47.2091 487.063L48.2894 489.027L49.3346 491.085C50.1177 492.72 50.7318 494.092 51.2652 495.391C51.809 496.683 52.3552 498.094 52.9876 499.844C53.519 501.304 53.998 502.784 54.4029 504.253C54.8257 505.822 55.1442 507.199 55.3762 508.473C55.4704 508.949 55.5536 509.407 55.6314 509.859L55.8311 511.102C55.8923 511.517 55.9534 511.919 56.0037 512.315C56.0965 512.984 56.1737 513.659 56.2491 514.508L56.3647 515.772L57.0421 514.815C63.6156 505.512 66.0295 495.22 64.2155 484.214C63.4067 479.252 61.7161 474.034 59.2053 468.722C58.0684 466.312 56.7346 463.825 55.2371 461.336C53.9162 459.221 52.3713 456.999 50.5152 454.536C49.7446 453.515 48.9316 452.482 48.1028 451.456C45.6709 448.458 42.969 445.422 40.0833 442.439C36.6478 438.902 33.1995 436.037 30.1595 433.51L29.8803 433.28C26.6213 430.628 23.8977 428.604 22.1881 427.366C20.3068 425.989 19.1632 425.317 19.1151 425.293L18.5274 424.952L18.4847 425.704C18.4859 425.766 18.1805 431.235 18.3523 439.388Z" fill="#4DA400"/>
<path d="M34.42 535.709C37.0932 542.713 41.4749 553.158 47.1478 563.152C50.1186 568.384 53.1804 573.023 56.2531 576.948C59.8379 581.64 63.5238 585.485 67.2009 588.37C68.453 589.361 69.7615 590.278 71.0841 591.084C73.9263 592.812 76.9022 594.104 80.1748 595.018C85.0321 596.373 89.9689 596.435 95.2667 595.219L95.8699 595.082L95.4902 594.47C95.0259 593.723 94.506 592.905 93.9399 592.025C92.7026 590.091 91.1745 587.824 89.4045 585.276C88.5349 584.014 87.6741 582.774 86.7743 581.536C85.907 580.338 84.9557 579.113 83.8671 577.794C82.9874 576.727 81.9957 575.603 80.7479 574.252L79.1474 572.596L77.3387 570.853L75.9347 569.581L75.1397 568.901L76.4011 569.902L77.6209 570.912L79.2985 572.399L80.9746 573.986C82.2618 575.263 83.3012 576.349 84.2401 577.393C85.1866 578.427 86.1751 579.572 87.3588 581.008C88.3501 582.205 89.2987 583.438 90.1738 584.685C91.0989 586.02 91.862 587.211 92.5086 588.333C92.7573 588.749 92.9895 589.153 93.2146 589.552L93.8206 590.656C94.0177 591.026 94.2103 591.384 94.3909 591.74C94.703 592.339 95.0026 592.949 95.3589 593.723L95.8926 594.875L96.2088 593.745C99.2735 582.774 98.0881 572.27 92.6806 562.513C90.2511 558.112 86.9056 553.766 82.7555 549.607C80.8747 547.719 78.7828 545.825 76.5356 543.984C74.5808 542.436 72.3791 540.863 69.803 539.166C68.7341 538.463 67.6213 537.764 66.496 537.076C63.1978 535.07 59.6327 533.118 55.9124 531.279C51.4882 529.103 47.2774 527.563 43.5651 526.205L43.2248 526.082C39.2639 524.679 36.0185 523.688 33.9924 523.097C31.7578 522.433 30.4548 522.184 30.4016 522.178L29.7332 522.053L29.9457 522.776C29.9677 522.834 31.518 528.087 34.42 535.709Z" fill="#4DA400"/>
<path d="M82.3443 623.382C85.7185 630.077 91.1435 640.02 97.8069 649.383C101.296 654.284 104.816 658.586 108.273 662.177C112.318 666.479 116.377 669.927 120.329 672.421C121.676 673.28 123.071 674.059 124.469 674.725C127.473 676.154 130.565 677.136 133.914 677.711C138.884 678.562 143.802 678.121 148.948 676.37L149.534 676.173L149.094 675.602C148.555 674.907 147.955 674.146 147.302 673.328C145.874 671.531 144.122 669.431 142.101 667.078C141.107 665.91 140.124 664.765 139.103 663.625C138.118 662.522 137.047 661.4 135.829 660.199C134.845 659.228 133.744 658.212 132.365 656.994L130.603 655.511L128.626 653.962L127.1 652.839L126.239 652.244L127.596 653.111L128.913 653.991L130.734 655.299L132.563 656.707C133.974 657.846 135.118 658.82 136.159 659.763C137.206 660.695 138.306 661.733 139.631 663.041C140.739 664.13 141.808 665.26 142.806 666.411C143.863 667.645 144.743 668.751 145.501 669.801C145.791 670.19 146.063 670.568 146.328 670.942L147.043 671.978C147.277 672.326 147.505 672.663 147.721 672.999C148.093 673.563 148.453 674.139 148.887 674.872L149.535 675.964L149.734 674.808C151.663 663.581 149.412 653.253 143.037 644.099C140.171 639.969 136.399 635.987 131.846 632.273C129.782 630.587 127.508 628.917 125.085 627.314C122.982 625.974 120.631 624.634 117.895 623.209C116.76 622.619 115.582 622.037 114.392 621.468C110.907 619.809 107.161 618.231 103.272 616.781C98.649 615.068 94.303 613.966 90.4715 612.994L90.1204 612.906C86.037 611.915 82.7074 611.261 80.6316 610.879C78.3408 610.447 77.0193 610.332 76.9657 610.331L76.2881 610.276L76.5732 610.973C76.6011 611.029 78.6795 616.096 82.3443 623.382Z" fill="#4DA400"/>
<path d="M124.285 497.055C127.465 503.845 131.931 514.254 135.176 525.278C136.874 531.05 138.082 536.476 138.769 541.412C139.653 547.251 139.856 552.573 139.375 557.222C139.218 558.812 138.968 560.39 138.628 561.901C137.896 565.145 136.758 568.184 135.141 571.172C132.74 575.606 129.354 579.2 124.798 582.164L124.281 582.503L124.104 581.804C123.89 580.952 123.663 580.009 123.423 578.99C122.893 576.757 122.324 574.083 121.722 571.04C121.418 569.537 121.125 568.056 120.859 566.549C120.601 565.093 120.381 563.557 120.189 561.858C120.033 560.484 119.914 558.99 119.809 557.154L119.731 554.852L119.734 552.341L119.795 550.447L119.858 549.402L119.702 551.005L119.581 552.584L119.484 554.824L119.461 557.132C119.485 558.945 119.543 560.447 119.641 561.848C119.728 563.247 119.864 564.754 120.074 566.603C120.246 568.147 120.473 569.686 120.762 571.182C121.079 572.775 121.405 574.151 121.763 575.396C121.889 575.864 122.018 576.311 122.149 576.75L122.522 577.954C122.651 578.352 122.774 578.74 122.905 579.117C123.119 579.758 123.349 580.397 123.658 581.191L124.115 582.375L123.084 581.818C113.065 576.398 106.334 568.246 103.076 557.578C101.599 552.772 100.799 547.347 100.692 541.472C100.641 538.808 100.733 535.987 100.97 533.091C101.215 530.61 101.614 527.934 102.184 524.902C102.422 523.645 102.692 522.359 102.979 521.072C103.828 517.306 104.902 513.386 106.165 509.433C107.674 504.739 109.493 500.641 111.096 497.027L111.244 496.697C112.988 492.874 114.53 489.852 115.513 487.984C116.588 485.915 117.315 484.806 117.347 484.763L117.722 484.196L118.094 484.851C118.121 484.907 120.821 489.673 124.285 497.055Z" fill="#4DA400"/>
<path d="M168.65 580.395C172.704 586.701 178.516 596.423 183.199 606.918C185.649 612.412 187.569 617.629 188.907 622.43C190.559 628.1 191.469 633.347 191.611 638.019C191.667 639.615 191.629 641.212 191.493 642.755C191.199 646.068 190.475 649.231 189.27 652.408C187.48 657.122 184.603 661.134 180.482 664.678L180.014 665.083L179.746 664.414C179.42 663.598 179.07 662.694 178.697 661.716C177.874 659.573 176.954 656.998 175.953 654.062C175.452 652.613 174.964 651.185 174.501 649.726C174.051 648.318 173.628 646.825 173.212 645.166C172.875 643.825 172.558 642.36 172.21 640.554L171.826 638.283L171.495 635.794L171.303 633.909L171.227 632.865L171.285 634.474L171.375 636.056L171.578 638.288L171.862 640.579C172.126 642.373 172.384 643.854 172.668 645.229C172.94 646.604 173.275 648.079 173.729 649.884C174.105 651.392 174.535 652.887 175.021 654.331C175.547 655.868 176.053 657.188 176.573 658.374C176.761 658.821 176.948 659.247 177.136 659.665L177.665 660.808C177.846 661.186 178.021 661.554 178.2 661.911C178.497 662.517 178.811 663.12 179.223 663.866L179.833 664.978L178.737 664.563C168.086 660.525 160.331 653.341 155.682 643.201C153.578 638.634 152.064 633.364 151.176 627.555C150.771 624.921 150.487 622.114 150.337 619.212C150.25 616.721 150.289 614.015 150.45 610.934C150.518 609.657 150.615 608.346 150.729 607.033C151.069 603.187 151.612 599.159 152.337 595.073C153.209 590.22 154.466 585.916 155.574 582.122L155.677 581.775C156.896 577.754 158.023 574.553 158.749 572.571C159.539 570.378 160.112 569.181 160.138 569.135L160.434 568.523L160.89 569.122C160.924 569.175 164.234 573.538 168.65 580.395Z" fill="#4DA400"/>
<path d="M224.484 633.358C230.375 637.996 239.042 645.288 246.894 653.679C251.004 658.072 254.521 662.376 257.353 666.478C260.766 671.298 263.339 675.961 264.998 680.33C265.572 681.82 266.058 683.343 266.433 684.845C267.237 688.073 267.585 691.299 267.483 694.695C267.33 699.735 265.92 704.467 263.182 709.162L262.872 709.697L262.4 709.153C261.826 708.487 261.2 707.747 260.528 706.945C259.05 705.188 257.34 703.054 255.435 700.606C254.489 699.4 253.561 698.209 252.647 696.981C251.762 695.797 250.876 694.524 249.94 693.092C249.184 691.935 248.407 690.653 247.488 689.06L246.383 687.039L245.258 684.794L244.462 683.074L244.049 682.113L244.629 683.615L245.23 685.08L246.151 687.125L247.167 689.197C248.003 690.806 248.73 692.122 249.447 693.329C250.153 694.54 250.951 695.825 251.969 697.382C252.817 698.685 253.712 699.958 254.642 701.164C255.641 702.445 256.55 703.528 257.429 704.479C257.753 704.841 258.069 705.182 258.383 705.516L259.256 706.423C259.551 706.722 259.836 707.012 260.122 707.291C260.6 707.767 261.093 708.234 261.726 708.805L262.667 709.657L261.495 709.623C250.109 709.283 240.433 705.024 232.729 696.957C229.25 693.327 226.098 688.84 223.363 683.64C222.12 681.282 220.935 678.721 219.846 676.028C218.95 673.701 218.104 671.131 217.251 668.166C216.898 666.937 216.562 665.666 216.241 664.387C215.307 660.641 214.505 656.657 213.857 652.558C213.096 647.686 212.879 643.208 212.688 639.259L212.672 638.898C212.512 634.699 212.532 631.306 212.571 629.196C212.602 626.865 212.753 625.547 212.762 625.494L212.843 624.819L213.469 625.237C213.518 625.275 218.072 628.319 224.484 633.358Z" fill="#4DA400"/>
<path d="M906.898 261.989C905.574 269.368 903.938 280.576 903.641 292.064C903.486 298.079 903.715 303.632 904.322 308.58C904.972 314.449 906.146 319.644 907.807 324.013C908.368 325.508 909.016 326.969 909.733 328.341C911.276 331.288 913.158 333.93 915.49 336.402C918.952 340.068 923.149 342.669 928.315 344.36L928.902 344.555L928.893 343.834C928.88 342.955 928.857 341.986 928.826 340.94C928.764 338.645 928.625 335.914 928.423 332.819C928.33 331.289 928.232 329.782 928.1 328.257C927.975 326.784 927.792 325.244 927.54 323.552C927.337 322.185 927.067 320.71 926.696 318.909L926.179 316.665L925.529 314.239L924.983 312.424L924.653 311.431L925.217 312.94L925.74 314.434L926.41 316.574L927.027 318.798C927.471 320.556 927.801 322.022 928.067 323.401C928.344 324.776 928.6 326.267 928.873 328.107C929.105 329.644 929.281 331.189 929.387 332.71C929.491 334.33 929.53 335.744 929.505 337.039C929.503 337.524 929.494 337.989 929.481 338.447L929.43 339.706C929.408 340.124 929.388 340.531 929.359 340.929C929.318 341.603 929.26 342.28 929.165 343.127L929.028 344.388L929.882 343.584C938.168 335.768 942.572 326.158 942.974 315.01C943.164 309.986 942.54 304.538 941.131 298.834C940.494 296.246 939.68 293.544 938.705 290.807C937.829 288.473 936.755 285.989 935.423 283.207C934.87 282.053 934.278 280.88 933.669 279.71C931.879 276.29 929.832 272.779 927.594 269.283C924.927 265.137 922.115 261.645 919.635 258.566L919.407 258.285C916.738 255.04 914.469 252.517 913.039 250.965C911.467 249.243 910.479 248.358 910.437 248.325L909.929 247.873L909.738 248.602C909.727 248.663 908.344 253.963 906.898 261.989Z" fill="#4DA400"/>
<path d="M973.179 340.942C974.054 348.388 975.009 359.675 974.61 371.16C974.401 377.172 973.836 382.702 972.931 387.604C971.927 393.423 970.441 398.538 968.519 402.798C967.868 404.256 967.133 405.675 966.334 407.001C964.616 409.85 962.577 412.373 960.1 414.699C956.422 418.149 952.076 420.492 946.817 421.867L946.22 422.026L946.272 421.307C946.338 420.43 946.42 419.464 946.514 418.422C946.715 416.136 947.019 413.418 947.408 410.341C947.593 408.818 947.782 407.321 948.006 405.807C948.22 404.344 948.496 402.817 948.849 401.144C949.135 399.791 949.493 398.336 949.973 396.56L950.625 394.351L951.42 391.969L952.075 390.191L952.465 389.22L951.811 390.692L951.198 392.152L950.4 394.247L949.649 396.43C949.1 398.158 948.682 399.601 948.333 400.962C947.973 402.317 947.628 403.789 947.244 405.61C946.919 407.13 946.65 408.662 946.452 410.173C946.25 411.785 946.126 413.193 946.072 414.487C946.045 414.972 946.026 415.436 946.011 415.894L945.986 417.154C945.982 417.573 945.978 417.98 945.983 418.379C945.983 419.054 946 419.733 946.043 420.584L946.103 421.852L945.3 420.998C937.502 412.694 933.687 402.835 933.961 391.684C934.075 386.658 935.027 381.257 936.779 375.648C937.571 373.104 938.548 370.457 939.686 367.784C940.702 365.507 941.925 363.092 943.422 360.395C944.044 359.278 944.706 358.143 945.385 357.012C947.378 353.706 949.634 350.325 952.079 346.972C954.992 342.994 958.011 339.678 960.672 336.755L960.916 336.489C963.777 333.411 966.194 331.029 967.716 329.567C969.389 327.943 970.429 327.119 970.473 327.089L971.008 326.669L971.154 327.408C971.161 327.47 972.221 332.844 973.179 340.942Z" fill="#4DA400"/>
<path d="M887.763 339.145C886.887 346.59 885.933 357.877 886.331 369.362C886.541 375.375 887.105 380.904 888.011 385.806C889.014 391.625 890.5 396.74 892.423 401C893.073 402.458 893.808 403.877 894.607 405.203C896.326 408.052 898.364 410.575 900.841 412.901C904.519 416.352 908.865 418.694 914.124 420.069L914.722 420.228L914.669 419.509C914.603 418.633 914.521 417.667 914.427 416.624C914.226 414.338 913.922 411.62 913.534 408.543C913.348 407.021 913.159 405.523 912.935 404.009C912.721 402.546 912.446 401.019 912.092 399.346C911.807 397.993 911.448 396.538 910.968 394.762L910.317 392.554L909.521 390.171L908.866 388.393L908.477 387.422L909.131 388.894L909.744 390.354L910.542 392.449L911.292 394.632C911.841 396.36 912.26 397.804 912.608 399.164C912.968 400.519 913.314 401.991 913.698 403.812C914.022 405.332 914.292 406.864 914.489 408.375C914.691 409.987 914.816 411.395 914.869 412.689C914.897 413.174 914.916 413.638 914.93 414.096L914.956 415.356C914.959 415.775 914.964 416.182 914.959 416.581C914.958 417.256 914.941 417.935 914.899 418.786L914.838 420.054L915.641 419.2C923.439 410.896 927.254 401.038 926.981 389.886C926.866 384.86 925.914 379.459 924.163 373.851C923.37 371.306 922.394 368.659 921.255 365.986C920.239 363.709 919.017 361.295 917.52 358.598C916.898 357.48 916.235 356.345 915.557 355.214C913.563 351.908 911.307 348.527 908.862 345.174C905.949 341.196 902.931 337.88 900.27 334.957L900.025 334.691C897.164 331.613 894.747 329.232 893.225 327.769C891.553 326.145 890.513 325.322 890.469 325.291L889.934 324.871L889.787 325.61C889.78 325.672 888.721 331.046 887.763 339.145Z" fill="#4DA400"/>
<path d="M880.211 422.156C878.302 429.406 875.776 440.447 874.563 451.875C873.928 457.858 873.713 463.412 873.923 468.392C874.102 474.295 874.857 479.567 876.164 484.054C876.604 485.589 877.133 487.097 877.739 488.522C879.041 491.583 880.706 494.368 882.833 497.017C885.991 500.948 889.967 503.876 894.981 505.975L895.551 506.215L895.599 505.496C895.657 504.619 895.711 503.651 895.764 502.606C895.885 500.314 895.965 497.581 896.011 494.479C896.04 492.946 896.063 491.437 896.053 489.906C896.046 488.428 895.987 486.877 895.871 485.171C895.778 483.792 895.627 482.301 895.4 480.475L895.065 478.197L894.61 475.727L894.211 473.874L893.961 472.858L894.403 474.407L894.805 475.939L895.302 478.125L895.739 480.391C896.041 482.179 896.253 483.667 896.408 485.063C896.574 486.455 896.71 487.961 896.836 489.818C896.944 491.368 896.996 492.923 896.98 494.447C896.954 496.071 896.881 497.483 896.753 498.771C896.712 499.255 896.666 499.718 896.616 500.173L896.465 501.424C896.41 501.839 896.357 502.243 896.296 502.638C896.201 503.306 896.089 503.976 895.928 504.813L895.69 506.06L896.606 505.326C905.489 498.196 910.647 488.969 911.938 477.889C912.529 472.896 912.342 467.415 911.393 461.617C910.965 458.987 910.368 456.229 909.615 453.423C908.929 451.026 908.056 448.464 906.951 445.584C906.492 444.39 905.995 443.174 905.481 441.959C903.97 438.406 902.21 434.743 900.259 431.08C897.932 426.733 895.407 423.028 893.182 419.761L892.977 419.463C890.575 416.015 888.515 413.319 887.213 411.658C885.784 409.815 884.87 408.854 884.831 408.818L884.36 408.327L884.112 409.038C884.096 409.098 882.294 414.271 880.211 422.156Z" fill="#4DA400"/>
<path d="M963.962 439.388C963.799 446.883 963.182 458.193 961.198 469.513C960.158 475.438 958.834 480.837 957.259 485.566C955.46 491.19 953.28 496.05 950.786 500.003C949.94 501.357 949.016 502.661 948.041 503.864C945.945 506.447 943.577 508.664 940.802 510.625C936.682 513.533 932.053 515.251 926.655 515.886L926.041 515.96L926.193 515.255C926.379 514.396 926.594 513.451 926.831 512.432C927.347 510.195 928.024 507.546 928.835 504.552C929.229 503.07 929.623 501.613 930.055 500.144C930.469 498.725 930.953 497.251 931.535 495.643C932.005 494.343 932.562 492.951 933.283 491.259L934.234 489.162L935.351 486.912L936.246 485.242L936.766 484.334L935.915 485.701L935.105 487.063L934.025 489.027L932.98 491.085C932.197 492.72 931.583 494.092 931.049 495.391C930.505 496.683 929.959 498.094 929.327 499.844C928.795 501.304 928.316 502.784 927.912 504.253C927.489 505.822 927.17 507.199 926.938 508.473C926.844 508.949 926.761 509.407 926.683 509.859L926.483 511.102C926.422 511.517 926.361 511.919 926.311 512.315C926.218 512.984 926.141 513.659 926.065 514.508L925.95 515.772L925.272 514.815C918.699 505.512 916.285 495.22 918.099 484.214C918.908 479.252 920.598 474.034 923.109 468.722C924.246 466.312 925.58 463.825 927.077 461.336C928.398 459.221 929.943 456.999 931.799 454.536C932.57 453.515 933.383 452.482 934.212 451.456C936.644 448.458 939.345 445.422 942.231 442.439C945.667 438.902 949.115 436.037 952.155 433.51L952.434 433.28C955.693 430.628 958.417 428.604 960.126 427.366C962.008 425.989 963.151 425.317 963.199 425.293L963.787 424.952L963.83 425.704C963.829 425.766 964.134 431.235 963.962 439.388Z" fill="#4DA400"/>
<path d="M947.895 535.709C945.222 542.713 940.841 553.158 935.168 563.152C932.197 568.384 929.135 573.023 926.062 576.948C922.478 581.64 918.792 585.485 915.114 588.37C913.862 589.361 912.554 590.278 911.231 591.084C908.389 592.812 905.413 594.104 902.141 595.018C897.283 596.373 892.347 596.435 887.049 595.219L886.446 595.082L886.825 594.47C887.29 593.723 887.809 592.905 888.376 592.025C889.613 590.091 891.141 587.824 892.911 585.276C893.781 584.014 894.641 582.774 895.541 581.536C896.408 580.338 897.36 579.113 898.448 577.794C899.328 576.727 900.32 575.603 901.568 574.252L903.168 572.596L904.977 570.853L906.381 569.581L907.176 568.901L905.914 569.902L904.695 570.912L903.017 572.399L901.341 573.986C900.054 575.263 899.014 576.349 898.075 577.393C897.129 578.427 896.14 579.572 894.957 581.008C893.965 582.205 893.017 583.438 892.142 584.685C891.217 586.02 890.453 587.211 889.807 588.333C889.558 588.749 889.326 589.153 889.101 589.552L888.495 590.656C888.298 591.026 888.105 591.384 887.925 591.74C887.612 592.339 887.313 592.949 886.957 593.723L886.423 594.875L886.107 593.745C883.042 582.774 884.227 572.27 889.635 562.513C892.064 558.112 895.41 553.766 899.56 549.607C901.441 547.719 903.533 545.825 905.78 543.984C907.735 542.436 909.936 540.863 912.512 539.166C913.581 538.463 914.694 537.764 915.819 537.076C919.118 535.07 922.683 533.118 926.403 531.279C930.827 529.103 935.038 527.563 938.75 526.205L939.091 526.082C943.052 524.679 946.297 523.688 948.323 523.097C950.558 522.433 951.861 522.184 951.914 522.178L952.582 522.053L952.37 522.776C952.348 522.834 950.797 528.087 947.895 535.709Z" fill="#4DA400"/>
<path d="M899.971 623.382C896.596 630.077 891.171 640.02 884.508 649.383C881.019 654.284 877.499 658.586 874.042 662.177C869.997 666.479 865.938 669.927 861.986 672.421C860.639 673.28 859.244 674.059 857.846 674.725C854.842 676.154 851.75 677.136 848.401 677.711C843.431 678.562 838.513 678.121 833.367 676.37L832.781 676.173L833.221 675.602C833.759 674.907 834.36 674.146 835.013 673.328C836.441 671.531 838.193 669.431 840.214 667.078C841.208 665.91 842.191 664.765 843.212 663.625C844.197 662.522 845.268 661.4 846.486 660.199C847.47 659.228 848.571 658.212 849.95 656.994L851.712 655.511L853.689 653.962L855.215 652.839L856.076 652.244L854.719 653.111L853.402 653.991L851.581 655.299L849.752 656.707C848.341 657.846 847.196 658.82 846.156 659.763C845.109 660.695 844.009 661.733 842.684 663.041C841.576 664.13 840.507 665.26 839.509 666.411C838.452 667.645 837.572 668.751 836.814 669.801C836.524 670.19 836.252 670.568 835.987 670.942L835.272 671.978C835.038 672.326 834.81 672.663 834.594 672.999C834.222 673.563 833.862 674.139 833.428 674.872L832.78 675.964L832.581 674.808C830.652 663.581 832.903 653.253 839.278 644.099C842.144 639.969 845.916 635.987 850.469 632.273C852.533 630.587 854.807 628.917 857.23 627.314C859.333 625.974 861.684 624.634 864.42 623.209C865.555 622.619 866.733 622.037 867.923 621.468C871.408 619.809 875.154 618.231 879.043 616.781C883.666 615.068 888.012 613.966 891.843 612.994L892.195 612.906C896.278 611.915 899.608 611.261 901.683 610.879C903.974 610.447 905.296 610.332 905.349 610.331L906.027 610.276L905.742 610.973C905.714 611.029 903.635 616.096 899.971 623.382Z" fill="#4DA400"/>
<path d="M858.03 497.055C854.85 503.845 850.384 514.254 847.139 525.278C845.441 531.05 844.233 536.476 843.546 541.412C842.662 547.251 842.459 552.573 842.94 557.222C843.097 558.812 843.347 560.39 843.686 561.901C844.419 565.145 845.557 568.184 847.174 571.172C849.575 575.606 852.961 579.2 857.517 582.164L858.034 582.503L858.211 581.804C858.425 580.952 858.652 580.009 858.892 578.99C859.422 576.757 859.991 574.083 860.593 571.04C860.897 569.537 861.19 568.056 861.456 566.549C861.714 565.093 861.934 563.557 862.126 561.858C862.282 560.484 862.401 558.99 862.506 557.154L862.584 554.852L862.581 552.341L862.52 550.447L862.457 549.402L862.613 551.005L862.734 552.584L862.831 554.824L862.854 557.132C862.83 558.945 862.772 560.447 862.674 561.848C862.587 563.247 862.451 564.754 862.241 566.603C862.069 568.147 861.842 569.686 861.553 571.182C861.236 572.775 860.91 574.151 860.552 575.396C860.426 575.864 860.297 576.311 860.166 576.75L859.793 577.954C859.664 578.352 859.541 578.74 859.41 579.117C859.196 579.758 858.966 580.397 858.657 581.191L858.2 582.375L859.231 581.818C869.25 576.398 875.981 568.246 879.239 557.578C880.716 552.772 881.516 547.347 881.623 541.472C881.674 538.808 881.582 535.987 881.345 533.091C881.1 530.61 880.701 527.934 880.131 524.902C879.893 523.645 879.623 522.359 879.336 521.072C878.487 517.306 877.413 513.386 876.15 509.433C874.641 504.739 872.822 500.641 871.219 497.027L871.071 496.697C869.327 492.874 867.785 489.852 866.802 487.984C865.727 485.915 865 484.806 864.968 484.763L864.593 484.196L864.221 484.851C864.194 484.907 861.494 489.673 858.03 497.055Z" fill="#4DA400"/>
<path d="M813.665 580.395C809.611 586.701 803.799 596.423 799.116 606.918C796.666 612.412 794.746 617.629 793.408 622.43C791.756 628.1 790.846 633.347 790.704 638.019C790.648 639.615 790.686 641.212 790.822 642.755C791.116 646.068 791.84 649.231 793.045 652.408C794.835 657.122 797.712 661.134 801.833 664.678L802.301 665.083L802.569 664.414C802.894 663.598 803.245 662.694 803.618 661.716C804.441 659.573 805.361 656.998 806.362 654.062C806.863 652.613 807.351 651.185 807.814 649.726C808.264 648.318 808.687 646.825 809.103 645.166C809.44 643.825 809.757 642.36 810.105 640.554L810.489 638.283L810.82 635.794L811.012 633.909L811.088 632.865L811.03 634.474L810.94 636.056L810.737 638.288L810.453 640.579C810.189 642.373 809.931 643.854 809.647 645.229C809.375 646.604 809.04 648.079 808.586 649.884C808.21 651.392 807.78 652.887 807.294 654.331C806.768 655.868 806.262 657.188 805.742 658.374C805.554 658.821 805.367 659.247 805.179 659.665L804.65 660.808C804.469 661.186 804.294 661.554 804.114 661.911C803.818 662.517 803.504 663.12 803.092 663.866L802.482 664.978L803.578 664.563C814.229 660.525 821.984 653.341 826.633 643.201C828.736 638.634 830.251 633.364 831.139 627.555C831.544 624.921 831.828 622.114 831.978 619.212C832.065 616.721 832.026 614.015 831.865 610.934C831.797 609.657 831.7 608.346 831.586 607.033C831.246 603.187 830.703 599.159 829.978 595.073C829.106 590.22 827.849 585.916 826.741 582.122L826.638 581.775C825.419 577.754 824.292 574.553 823.566 572.571C822.776 570.378 822.203 569.181 822.177 569.135L821.881 568.523L821.425 569.122C821.391 569.175 818.081 573.538 813.665 580.395Z" fill="#4DA400"/>
<path d="M757.831 633.358C751.94 637.996 743.273 645.288 735.421 653.679C731.311 658.072 727.794 662.376 724.962 666.478C721.549 671.298 718.976 675.961 717.316 680.33C716.743 681.82 716.257 683.343 715.882 684.845C715.078 688.073 714.73 691.299 714.832 694.695C714.985 699.735 716.395 704.467 719.133 709.162L719.443 709.697L719.915 709.153C720.489 708.487 721.115 707.747 721.787 706.945C723.265 705.188 724.974 703.054 726.879 700.606C727.826 699.4 728.754 698.209 729.668 696.981C730.553 695.797 731.439 694.524 732.375 693.092C733.131 691.935 733.908 690.653 734.827 689.06L735.932 687.039L737.057 684.794L737.853 683.074L738.266 682.113L737.686 683.615L737.085 685.08L736.164 687.125L735.148 689.197C734.312 690.806 733.585 692.122 732.868 693.329C732.162 694.54 731.364 695.825 730.345 697.382C729.498 698.685 728.603 699.958 727.673 701.164C726.674 702.445 725.764 703.528 724.886 704.479C724.562 704.841 724.246 705.182 723.932 705.516L723.059 706.423C722.764 706.722 722.479 707.012 722.193 707.291C721.715 707.767 721.222 708.234 720.589 708.805L719.648 709.657L720.82 709.623C732.206 709.283 741.882 705.024 749.586 696.957C753.065 693.327 756.217 688.84 758.952 683.64C760.195 681.282 761.38 678.721 762.469 676.028C763.365 673.701 764.211 671.131 765.064 668.166C765.417 666.937 765.753 665.666 766.074 664.387C767.008 660.641 767.81 656.657 768.458 652.558C769.219 647.686 769.436 643.208 769.627 639.259L769.643 638.898C769.803 634.699 769.783 631.306 769.744 629.196C769.713 626.865 769.562 625.547 769.552 625.494L769.472 624.819L768.846 625.237C768.797 625.275 764.243 628.319 757.831 633.358Z" fill="#4DA400"/>
<path fill-rule="evenodd" clip-rule="evenodd" d="M154.573 646.066L160.118 646.919C159.93 646.715 159.741 646.511 159.553 646.307L152.436 638.132C150.668 636.172 148.98 634.074 147.344 632.04L147.245 631.917C146.672 631.204 146.102 630.497 145.528 629.793L142.126 625.583C141.929 625.331 141.723 625.083 141.518 624.827C141.157 624.387 140.799 623.94 140.453 623.486L132.345 612.659C131 610.791 129.657 608.853 128.364 606.98C127.636 605.926 126.908 604.872 126.175 603.82C125.816 603.298 125.45 602.772 125.086 602.251L125.084 602.249C124.427 601.305 123.769 600.361 123.127 599.403L117.331 590.381C117.184 590.149 117.034 589.916 116.885 589.684C116.735 589.45 116.585 589.216 116.437 588.984C115.783 587.975 115.11 586.935 114.506 585.882L114.444 585.775L107.717 574.435L103.922 567.493C101.36 562.974 99.0178 558.293 96.7559 553.757L96.7544 553.754C95.9472 552.137 95.1399 550.52 94.3218 548.915C93.3888 546.97 92.4755 544.976 91.5879 543.039L91.5175 542.885C91.3494 542.518 91.1822 542.152 91.0151 541.787C90.6747 541.042 90.3351 540.298 89.9915 539.557L87.841 534.905L81.9473 520.901L78.3957 511.578L77.7705 509.932C77.3893 508.941 77.0126 507.947 76.6518 506.952L71.9262 493.094C64.526 469.791 59.1325 446.202 55.8925 422.993C55.6683 421.306 55.4718 419.624 55.2767 417.955L55.2551 417.77L55.2547 417.766C55.1443 416.8 55.0339 415.835 54.9171 414.879C54.8096 413.932 54.6976 412.987 54.5856 412.042L54.5855 412.041C54.5668 411.885 54.548 411.728 54.5292 411.57C54.3461 410.042 54.1585 408.476 54.0303 406.955L53.4083 399.202C53.3447 398.342 53.2743 397.479 53.1994 396.618L53.183 396.424C53.0506 394.852 52.9141 393.233 52.8738 391.673L52.5452 384.317C52.5193 383.679 52.489 383.043 52.4587 382.407C52.3718 380.606 52.2932 378.911 52.3097 377.211L52.2427 364.916L52.2855 363.62C52.404 353.622 53.0145 344.515 53.801 336.476L52.1905 336.228C51.3134 344.219 50.6009 353.262 50.3614 363.195C49.8002 383.082 50.8272 403.197 53.4194 422.981C56.5154 446.404 61.7958 470.241 69.1133 493.824L73.7905 507.844C74.1499 508.859 74.5246 509.861 74.9018 510.868C75.005 511.146 75.1099 511.425 75.2148 511.704C75.3198 511.983 75.4248 512.263 75.528 512.541L79.0524 521.987L84.9194 536.189L87.066 540.918C87.5805 542.028 88.0886 543.149 88.5966 544.269L88.5974 544.271L88.6642 544.418C89.5586 546.383 90.4811 548.409 91.4281 550.398C92.2422 552.006 93.043 553.621 93.8438 555.235C96.1334 559.846 98.5036 564.617 101.099 569.222L104.922 576.253L111.755 587.836C112.355 588.892 113.026 589.934 113.672 590.938L113.729 591.026C113.987 591.424 114.244 591.827 114.5 592.228L114.624 592.423L120.464 601.561C120.983 602.336 121.509 603.099 122.036 603.863C122.182 604.075 122.328 604.287 122.475 604.5C122.584 604.659 122.695 604.818 122.805 604.977C123.053 605.335 123.302 605.693 123.547 606.056C124.28 607.108 125.01 608.168 125.734 609.224C127.042 611.131 128.4 613.103 129.776 615.017L137.946 625.985C138.284 626.44 138.637 626.876 138.994 627.315L139.057 627.392C139.256 627.637 139.458 627.887 139.653 628.134L143.086 632.403C143.665 633.118 144.239 633.836 144.813 634.553L144.815 634.555L145.002 634.788C146.631 636.821 148.314 638.921 150.076 640.88L154.573 646.066Z" fill="#344026"/>
<path fill-rule="evenodd" clip-rule="evenodd" d="M827.545 646.066L822 646.919C822.188 646.715 822.377 646.511 822.565 646.307L829.683 638.132C831.45 636.172 833.138 634.074 834.775 632.04L834.874 631.917C835.446 631.204 836.016 630.497 836.591 629.793L839.992 625.583C840.189 625.331 840.396 625.083 840.6 624.827C840.961 624.387 841.319 623.94 841.665 623.486L849.773 612.659C851.118 610.791 852.461 608.853 853.754 606.98C854.482 605.926 855.21 604.872 855.943 603.82C856.302 603.298 856.668 602.772 857.032 602.251L857.034 602.249C857.691 601.305 858.349 600.361 858.991 599.403L864.787 590.381C864.935 590.149 865.084 589.916 865.233 589.684C865.383 589.45 865.533 589.216 865.682 588.984C866.335 587.975 867.008 586.935 867.612 585.882L867.675 585.775L874.401 574.435L878.196 567.493C880.758 562.974 883.1 558.293 885.362 553.757L885.364 553.754C886.171 552.137 886.978 550.52 887.796 548.915C888.729 546.97 889.643 544.976 890.53 543.039L890.601 542.885C890.769 542.518 890.936 542.152 891.103 541.787C891.443 541.042 891.783 540.298 892.127 539.557L894.277 534.905L900.171 520.901L903.723 511.578L904.348 509.932C904.729 508.941 905.106 507.947 905.466 506.952L910.192 493.094C917.592 469.791 922.986 446.202 926.226 422.993C926.45 421.306 926.646 419.624 926.841 417.955L926.863 417.77L926.863 417.766C926.974 416.8 927.084 415.835 927.201 414.879C927.309 413.932 927.421 412.987 927.533 412.042L927.533 412.041C927.551 411.885 927.57 411.728 927.589 411.57C927.772 410.042 927.96 408.476 928.088 406.955L928.71 399.202C928.773 398.342 928.844 397.479 928.919 396.618L928.935 396.424C929.068 394.852 929.204 393.233 929.244 391.673L929.573 384.317C929.599 383.679 929.629 383.043 929.659 382.407C929.746 380.606 929.825 378.911 929.808 377.211L929.875 364.916L929.833 363.62C929.714 353.622 929.104 344.515 928.317 336.476L929.928 336.228C930.805 344.219 931.517 353.262 931.757 363.195C932.318 383.082 931.291 403.197 928.699 422.981C925.603 446.404 920.322 470.241 913.005 493.824L908.328 507.844C907.968 508.859 907.594 509.861 907.216 510.868C907.113 511.146 907.008 511.425 906.903 511.704C906.798 511.983 906.693 512.263 906.59 512.541L903.066 521.987L897.199 536.189L895.052 540.918C894.538 542.028 894.03 543.149 893.522 544.269L893.521 544.271L893.454 544.418C892.56 546.383 891.637 548.409 890.69 550.398C889.876 552.006 889.075 553.621 888.274 555.235C885.985 559.846 883.615 564.617 881.019 569.222L877.196 576.253L870.363 587.836C869.763 588.892 869.092 589.934 868.446 590.938L868.389 591.026C868.131 591.424 867.874 591.827 867.619 592.228L867.494 592.423L861.654 601.561C861.135 602.336 860.609 603.099 860.082 603.863C859.936 604.075 859.79 604.287 859.644 604.5C859.534 604.659 859.423 604.818 859.313 604.977C859.065 605.335 858.816 605.693 858.571 606.056C857.838 607.108 857.108 608.168 856.384 609.224C855.076 611.131 853.719 613.103 852.342 615.017L844.172 625.985C843.834 626.44 843.481 626.876 843.124 627.315L843.062 627.392C842.862 627.637 842.66 627.887 842.465 628.134L839.033 632.403C838.454 633.118 837.879 633.836 837.305 634.553L837.303 634.555L837.117 634.788C835.488 636.821 833.804 638.921 832.042 640.88L827.545 646.066Z" fill="#344026"/>
<path d="M315.017 776.883C209.975 762.181 149.264 749.118 53 709.162L141.062 683.867L111.92 612C196.408 647.083 244.633 656.775 336.817 669.699L315.017 776.883Z" fill="#6C1D1C"/>
<path d="M666.852 776.883C771.895 762.181 832.642 749.118 928.906 709.162L840.844 683.867L869.986 612C785.468 647.083 737.273 656.775 645.059 669.699L666.852 776.883Z" fill="#6C1D1C"/>
<path d="M332.094 692.844L336.817 669.693L212.589 669.351C210.967 680.61 249.236 678.724 274.766 683.242C289.74 685.91 332.094 692.844 332.094 692.844Z" fill="black"/>
<path d="M649.776 692.843L645.053 669.693C645.053 669.693 769.665 667.067 769.503 669.35C768.764 681.83 732.604 678.724 707.134 683.242C692.136 685.91 649.776 692.843 649.776 692.843Z" fill="black"/>
<path d="M808.157 773.236C601.521 825.846 380.614 825.846 174.008 773.236C186.872 738.616 199.737 703.977 212.595 669.351C394.055 715.537 588.085 715.537 769.509 669.351C782.404 703.977 795.298 738.616 808.157 773.236Z" fill="#8A1D1C"/>
<path d="M238.552 729.808C238.774 726.84 236.311 724.004 232.958 723.247C226.865 721.871 223.452 726.143 222.275 731.196C221.145 736.021 222.335 741.434 228.53 742.84C232.73 743.789 235.698 741.62 237.068 737.937C239.718 738.52 241.046 738.809 243.695 739.373C241.532 746.469 234.118 749.54 227.322 748.164C218.85 746.451 213.508 737.631 215.437 729.574C217.342 721.606 225.76 715.754 234.172 717.881C240.229 719.413 245.774 724.412 245.174 731.25C242.524 730.679 241.196 730.391 238.552 729.808Z" fill="white"/>
<path d="M266.89 724.785C274.953 726.738 280.781 734.717 279.261 743.051C277.723 751.48 269.065 756.485 260.905 755.254C252.174 753.932 246.821 745.117 248.521 737.012C250.198 729.009 258.297 722.712 266.89 724.785ZM261.956 749.894C268.181 751.12 271.45 746.638 272.369 741.777C273.331 736.682 271.949 731.394 265.826 730.187C259.703 728.985 256.423 733.353 255.383 738.436C254.398 743.291 255.732 748.675 261.956 749.894Z" fill="white"/>
<path d="M287.727 729.405C290.431 729.886 291.789 730.12 294.499 730.589C297.684 737.877 300.934 745.135 304.251 752.364C304.287 752.37 304.299 752.369 304.335 752.375C305.381 745.832 306.432 739.283 307.478 732.74C310.025 733.149 311.299 733.347 313.853 733.743C312.345 743.507 310.836 753.271 309.328 763.029C306.546 762.596 305.152 762.38 302.376 761.935C299.023 754.713 295.737 747.461 292.516 740.178C292.48 740.172 292.468 740.172 292.432 740.166C291.308 746.686 290.191 753.205 289.067 759.73C286.459 759.279 285.156 759.051 282.548 758.588C284.272 748.855 286.003 739.133 287.727 729.405Z" fill="white"/>
<path d="M321.261 734.861C328.531 735.937 335.808 736.946 343.096 737.884C342.814 740.065 342.676 741.158 342.393 743.339C336.361 742.564 333.344 742.156 327.324 741.296C326.939 744.006 326.747 745.358 326.362 748.068C331.608 748.813 334.228 749.167 339.479 749.858C339.215 751.871 339.082 752.875 338.824 754.887C333.555 754.196 330.917 753.842 325.653 753.091C324.968 757.934 324.62 760.349 323.935 765.192C321.129 764.795 319.729 764.591 316.929 764.176C318.365 754.407 319.813 744.637 321.261 734.861Z" fill="white"/>
<path d="M348.131 738.526C355.882 739.493 363.651 740.376 371.42 741.188C371.192 743.375 371.078 744.474 370.85 746.661C364.24 745.97 360.935 745.604 354.332 744.823C354.032 747.334 353.887 748.59 353.587 751.107C359.674 751.829 362.72 752.171 368.813 752.814C368.602 754.833 368.494 755.842 368.278 757.855C362.155 757.212 359.097 756.87 352.986 756.143C352.644 759.033 352.475 760.475 352.133 763.365C357.829 764.044 363.537 764.681 369.245 765.269C369.017 767.444 368.909 768.532 368.681 770.701C360.599 769.86 352.529 768.941 344.466 767.937C345.692 758.125 346.911 748.326 348.131 738.526Z" fill="white"/>
<path d="M377.663 741.819C383.035 742.348 385.727 742.6 391.105 743.069C399.096 743.886 404.798 750.928 404.161 758.835C403.518 766.898 396.861 773.201 388.527 772.588C383.011 772.107 380.259 771.849 374.743 771.302C375.717 761.484 376.69 751.649 377.663 741.819ZM382.29 766.55C384.772 766.778 386.015 766.892 388.497 767.108C392.553 767.463 396.627 765.468 397.155 758.925C397.636 752.97 395.785 749.011 388.923 748.404C386.959 748.23 385.979 748.14 384.02 747.959C383.444 754.154 382.867 760.349 382.29 766.55Z" fill="white"/>
<path d="M411.107 744.648C418.894 745.195 426.681 745.664 434.481 746.054C434.372 748.254 434.312 749.353 434.204 751.552C427.571 751.222 424.26 751.029 417.633 750.603C417.47 753.126 417.386 754.394 417.224 756.918C423.335 757.308 426.393 757.488 432.504 757.801C432.402 759.826 432.348 760.841 432.245 762.866C426.105 762.554 423.034 762.373 416.899 761.977C416.713 764.879 416.617 766.333 416.431 769.235C422.151 769.607 427.877 769.932 433.603 770.214C433.495 772.395 433.441 773.489 433.333 775.67C425.227 775.267 417.128 774.781 409.034 774.21C409.719 764.356 410.41 754.502 411.107 744.648Z" fill="white"/>
<path d="M440.742 746.349C446.354 746.607 451.966 746.818 457.578 746.98C463.178 747.148 466.663 750.915 466.561 755.398C466.483 758.895 464.915 761.46 461.388 762.698C461.388 762.728 461.388 762.746 461.388 762.776C464.77 763.689 465.636 766.886 465.81 769.848C465.918 771.681 465.816 775.196 467.012 776.872C464.188 776.812 462.776 776.776 459.951 776.698C459.152 774.787 459.345 771.933 459.05 769.554C458.672 766.465 457.41 765.029 453.871 764.909C451.089 764.819 449.701 764.765 446.925 764.657C446.745 769.289 446.654 771.609 446.474 776.241C443.65 776.133 442.238 776.073 439.414 775.947C439.853 766.087 440.297 756.215 440.742 746.349ZM447.105 760.03C450.139 760.151 451.66 760.205 454.7 760.301C457.806 760.403 459.519 759.231 459.603 756.245C459.687 753.379 458.053 752.075 454.97 751.973C451.954 751.877 450.446 751.823 447.43 751.703C447.297 755.031 447.231 756.702 447.105 760.03Z" fill="white"/>
<path d="M482.436 747.479C485.26 747.503 486.666 747.515 489.49 747.521C493.383 757.422 497.349 767.294 501.387 777.136C498.461 777.154 496.994 777.16 494.068 777.16C493.077 774.522 492.59 773.201 491.611 770.557C486.858 770.551 484.478 770.533 479.72 770.479C478.674 773.11 478.151 774.42 477.094 777.052C474.252 777.016 472.834 776.992 469.992 776.938C474.21 767.144 478.356 757.326 482.436 747.479ZM481.588 765.666C484.875 765.696 486.521 765.708 489.808 765.72C488.222 761.358 487.435 759.177 485.872 754.815C485.836 754.815 485.824 754.815 485.788 754.815C484.124 759.159 483.283 761.328 481.588 765.666Z" fill="white"/>
<path d="M526.196 757.056C525.697 754.118 522.639 751.967 519.22 752.039C513.013 752.177 510.754 757.146 510.826 762.337C510.898 767.288 513.343 772.257 519.658 772.119C523.937 772.023 526.28 769.205 526.719 765.3C529.416 765.221 530.762 765.185 533.46 765.089C533.088 772.468 526.695 777.268 519.779 777.581C511.156 777.965 503.928 770.665 503.85 762.416C503.772 754.262 510.435 746.511 519.1 746.535C525.337 746.553 531.874 750.092 532.931 756.846C530.24 756.936 528.894 756.978 526.196 757.056Z" fill="white"/>
<path d="M538.616 746.656C541.368 746.548 542.75 746.493 545.502 746.367C545.94 756.233 546.379 766.105 546.817 775.971C543.993 776.097 542.581 776.157 539.757 776.265C539.379 766.399 538.994 756.528 538.616 746.656Z" fill="white"/>
<path d="M566.682 744.528C574.968 744.372 582.581 750.639 583.224 759.063C583.873 767.583 576.819 774.643 568.623 775.514C559.851 776.451 552.502 769.247 552.087 761.01C551.679 752.868 557.856 744.697 566.682 744.528ZM568.281 770.064C574.584 769.668 576.603 764.512 576.26 759.574C575.9 754.4 573.226 749.636 567.025 750.02C560.824 750.405 558.769 755.47 559.052 760.649C559.328 765.594 561.972 770.461 568.281 770.064ZM567.638 742.54C565.901 742.648 565.03 742.702 563.294 742.81C564.826 740.359 565.583 739.127 567.097 736.669C569.831 736.495 571.195 736.405 573.923 736.219C571.423 738.748 570.167 740.016 567.638 742.54Z" fill="white"/>
<path d="M587.935 743.718C590.668 743.495 592.032 743.381 594.766 743.147C599.681 749.39 604.657 755.59 609.692 761.743C609.728 761.737 609.74 761.737 609.776 761.737C609.133 755.14 608.484 748.542 607.841 741.945C610.407 741.693 611.687 741.567 614.246 741.302C615.262 751.126 616.277 760.956 617.293 770.78C614.499 771.068 613.099 771.206 610.299 771.483C605.233 765.348 600.222 759.165 595.277 752.929C595.241 752.929 595.229 752.935 595.193 752.935C595.764 759.526 596.329 766.117 596.899 772.708C594.268 772.937 592.952 773.045 590.32 773.255C589.521 763.407 588.728 753.559 587.935 743.718Z" fill="white"/>
<path d="M641.267 758.15C641.795 762.043 645.274 763.154 649.024 762.668C651.469 762.349 655.08 761.184 654.672 758.186C654.245 755.031 649.426 755.139 644.691 754.586C639.867 754.028 634.934 752.904 634.273 747.364C633.552 741.356 639.284 737.823 644.83 737.012C650.55 736.177 657.676 738.045 658.601 744.787C655.928 745.165 654.594 745.346 651.92 745.706C651.235 742.191 648.423 741.656 645.154 742.083C642.961 742.365 640.546 743.543 640.858 746.037C641.14 748.296 642.667 748.41 650.79 749.269C653.152 749.467 660.374 749.888 661.281 756.515C662.213 763.335 655.062 767.048 649.384 767.733C643.237 768.478 635.354 766.327 634.555 758.967C637.235 758.648 638.581 758.486 641.267 758.15Z" fill="white"/>
<path d="M693.314 749.095C694.69 757.014 688.807 761.671 681.741 763.065C674.591 764.477 667.579 760.938 666.425 753.349C665.536 747.269 664.647 741.188 663.751 735.114C666.485 734.711 667.849 734.507 670.583 734.092C671.509 740.167 672.434 746.241 673.359 752.316C673.846 755.5 675.258 758.559 680.882 757.669C685.833 756.888 687.101 754.599 686.386 750.255C685.394 744.192 684.397 738.13 683.406 732.061C686.134 731.617 687.497 731.388 690.225 730.926C691.253 736.982 692.28 743.039 693.314 749.095Z" fill="white"/>
<path d="M697.616 729.646C700.338 729.165 701.702 728.918 704.423 728.426C706.196 738.141 707.969 747.863 709.747 757.579C706.959 758.089 705.559 758.336 702.771 758.829C701.047 749.101 699.328 739.373 697.616 729.646Z" fill="white"/>
<path d="M714.218 751.51C718.664 744.246 723.044 736.946 727.376 729.609C721.248 730.847 718.183 731.448 712.043 732.602C711.634 730.439 711.43 729.357 711.021 727.194C719.121 725.668 727.202 724.058 735.272 722.363C735.698 724.376 735.909 725.386 736.329 727.404C732.075 734.783 727.761 742.125 723.393 749.437C729.173 748.314 734.941 747.142 740.704 745.922C741.154 748.061 741.377 749.131 741.833 751.27C732.958 753.114 724.072 754.881 715.167 756.575C714.782 754.55 714.596 753.535 714.218 751.51Z" fill="white"/>
<path d="M749.38 719.305C752.15 718.686 753.538 718.374 756.302 717.737C762.364 726.491 768.493 735.197 774.688 743.861C771.822 744.552 770.386 744.889 767.52 745.562C765.951 743.219 765.17 742.041 763.614 739.692C758.951 740.773 756.62 741.296 751.945 742.329C751.519 745.129 751.302 746.529 750.864 749.329C748.07 749.942 746.676 750.242 743.882 750.837C745.793 740.335 747.625 729.832 749.38 719.305ZM752.684 737.216C755.911 736.495 757.527 736.135 760.748 735.39C758.2 731.508 756.938 729.561 754.415 725.668C754.385 725.674 754.367 725.68 754.331 725.686C753.688 730.294 753.357 732.602 752.684 737.216Z" fill="white"/>
</svg>