<svg width="1002" height="813" viewBox="0 0 1002 813" fill="none" xmlns="http://www.w3.org/2000/svg">
<path d="M619.25 231.1H383.75V388.79H619.25V231.1ZM614.34 383.31H387V235.81H614.34V383.31Z" fill="white"/>
<path d="M682.18 513.7L650 415.64C649.33 413.64 647 411.79 643.84 410.42C647.593 406.438 649.682 401.172 649.68 395.7V224.62C649.682 221.794 649.126 218.995 648.046 216.384C646.966 213.772 645.382 211.399 643.384 209.4C641.387 207.401 639.015 205.815 636.405 204.732C633.794 203.649 630.996 203.091 628.17 203.09H374.83C369.123 203.095 363.651 205.366 359.616 209.402C355.581 213.439 353.313 218.912 353.31 224.62V395.7C353.313 401.171 355.402 406.435 359.15 410.42C355.95 411.79 353.67 413.62 353 415.64L320.82 513.7C318.67 520.22 326.55 533 338.43 533H664.56C676.46 533 684.33 520.23 682.18 513.7ZM362.88 224.62C362.88 221.446 364.138 218.401 366.377 216.152C368.617 213.903 371.656 212.633 374.83 212.62H628.18C631.352 212.636 634.389 213.907 636.627 216.156C638.864 218.405 640.12 221.448 640.12 224.62V395.7C640.12 398.872 638.864 401.915 636.627 404.164C634.389 406.413 631.352 407.684 628.18 407.7H374.83C371.656 407.687 368.617 406.417 366.377 404.168C364.138 401.919 362.88 398.874 362.88 395.7V224.62ZM361.88 419.98C365.204 418.39 368.857 417.612 372.54 417.71H630.42C634.104 417.624 637.757 418.408 641.08 420L671.33 512.15H548.91L540.91 483.98H462.11L454.11 512.15H331.67L361.88 419.98ZM338.44 523.17C334.29 523.17 331.3 519.3 330.5 517.04H454.4L455.76 523.17H338.44ZM542.22 523.17H520.8C520.796 523.609 520.671 524.039 520.438 524.411C520.205 524.784 519.874 525.084 519.48 525.28C508.3 531.5 492.64 534.84 482.92 524.34C482.35 524.23 481.76 524.12 481.17 524.03C480.877 523.994 480.594 523.899 480.338 523.751C480.082 523.603 479.858 523.406 479.68 523.17H460.79L459.44 517H543.58L542.22 523.17ZM459.22 512.02L465.81 488.87H537.18L543.78 512L459.22 512.02ZM664.56 523.17H547.24L548.59 517.04H672.5C671.71 519.3 668.72 523.17 664.57 523.17H664.56Z" fill="white"/>
<path d="M630 429.26H372L357.85 473.87H644.15L630 429.26ZM633 456.41H617L614.42 446.71H629.99L633 456.41ZM614.4 456.41H597.8L595.66 446.71H611.82L614.4 456.41ZM626.08 434.59L629.15 444.27H613.72L611.15 434.59H626.08ZM608.61 434.59L611.18 444.27H595.13L593 434.59H608.61ZM590.47 434.59L592.61 444.27H576.54L574.83 434.59H590.47ZM572.33 434.59L574.05 444.27H558L556.72 434.59H572.33ZM557.08 456.41H540.44L539.58 446.71H555.8L557.08 456.41ZM554.19 434.59L555.47 444.27H539.37L538.51 434.59H554.19ZM538 456.41H521.32L520.89 446.71H537.13L538 456.41ZM536.07 434.59L536.93 444.27H520.78L520.35 434.59H536.07ZM518.89 456.41H502.2V446.71H518.44L518.89 456.41ZM517.89 434.59L518.32 444.27H502.2V434.59H517.89ZM484.04 434.59H499.75V444.27H483.63L484.04 434.59ZM483.51 446.71H499.75V456.41H483.09L483.51 446.71ZM465.9 434.59H481.6L481.17 444.27H465.05L465.9 434.59ZM464.82 446.71H481.05L480.62 456.41H464L464.82 446.71ZM447.75 434.59H463.44L462.58 444.27H446.48L447.75 434.59ZM462.37 446.71L461.5 456.41H444.86L446.15 446.71H462.37ZM429.6 434.59H445.28L444 444.27H427.9L429.6 434.59ZM411.47 434.59H427.13L425.41 444.27H409.34L411.47 434.59ZM408.96 434.59L406.82 444.27H390.77L393.34 434.59H408.96ZM406.28 446.71L404.13 456.41H387.53L390.11 446.71H406.28ZM375.86 434.59H390.8L388.23 444.27H372.8L375.86 434.59ZM372 446.71H387.56L384.98 456.41H369L372 446.71ZM365.07 468.53L368.14 458.86H384.33L381.76 468.53H365.07ZM401.43 468.53H384.32L386.89 458.86H403.6L401.43 468.53ZM421.09 468.53H404L406.14 458.86H422.87L421.09 468.53ZM406.62 456.41L408.77 446.71H425L423.28 456.41H406.62ZM440.76 468.53H423.61L425.32 458.86H442.07L440.76 468.53ZM425.76 456.41L427.48 446.71H443.69L442.4 456.41H425.76ZM443.26 468.53L444.55 458.86H557.42L558.7 468.53H443.26ZM558.26 446.71H574.46L576.18 456.41H559.57L558.26 446.71ZM561.15 468.53L559.87 458.86H576.62L578.33 468.53H561.15ZM577 446.71H593.19L595.34 456.41H578.69L577 446.71ZM580.87 468.53L579.16 458.86H595.88L598.02 468.53H580.87ZM600.53 468.53L598.39 458.86H615.09L617.66 468.53H600.53ZM617.63 458.86H633.81L636.88 468.53H620.17L617.63 458.86Z" fill="white"/>
<path d="M544.24 469.5H534.73C534.564 469.501 534.4 469.47 534.246 469.407C534.093 469.344 533.953 469.251 533.836 469.134C533.719 469.017 533.626 468.877 533.563 468.724C533.5 468.57 533.468 468.406 533.47 468.24V462.85C533.468 462.684 533.5 462.519 533.563 462.365C533.626 462.211 533.718 462.071 533.835 461.953C533.952 461.834 534.092 461.741 534.245 461.677C534.399 461.613 534.563 461.58 534.73 461.58H544.24C544.406 461.58 544.571 461.613 544.724 461.677C544.878 461.741 545.017 461.834 545.134 461.953C545.251 462.071 545.344 462.211 545.407 462.365C545.47 462.519 545.501 462.684 545.5 462.85V468.24C545.501 468.406 545.469 468.57 545.407 468.724C545.344 468.877 545.251 469.017 545.134 469.134C545.016 469.251 544.877 469.344 544.724 469.407C544.57 469.47 544.406 469.501 544.24 469.5Z" fill="white"/>
<path d="M544.24 540.55H534.73C534.563 540.55 534.399 540.517 534.245 540.453C534.092 540.389 533.952 540.295 533.835 540.177C533.718 540.059 533.626 539.919 533.563 539.765C533.5 539.611 533.468 539.446 533.47 539.28V533.89C533.468 533.724 533.5 533.56 533.563 533.406C533.626 533.253 533.719 533.113 533.836 532.996C533.953 532.879 534.093 532.786 534.246 532.723C534.4 532.66 534.564 532.629 534.73 532.63H544.24C544.406 532.629 544.57 532.66 544.724 532.723C544.877 532.786 545.016 532.879 545.134 532.996C545.251 533.113 545.344 533.253 545.407 533.406C545.469 533.56 545.501 533.724 545.5 533.89V539.28C545.501 539.446 545.47 539.611 545.407 539.765C545.344 539.919 545.251 540.059 545.134 540.177C545.017 540.295 544.878 540.389 544.724 540.453C544.571 540.517 544.406 540.55 544.24 540.55Z" fill="white"/>
<path d="M535.63 500.37V501.23L543.35 501.93V501.06L535.63 500.37Z" fill="white"/>
<path d="M535.63 502.05V502.91L543.35 503.61V502.74L535.63 502.05Z" fill="white"/>
<path d="M543.33 504.41L535.63 503.73V504.21C535.63 504.342 535.65 504.474 535.69 504.6L542.87 505.24C543.113 505.024 543.276 504.731 543.33 504.41Z" fill="white"/>
<path d="M543.35 498.57V497.89C543.351 497.71 543.317 497.532 543.25 497.365C543.182 497.198 543.082 497.046 542.956 496.918C542.83 496.79 542.679 496.688 542.514 496.618C542.348 496.548 542.17 496.511 541.99 496.51H536.99C536.63 496.515 536.287 496.662 536.034 496.918C535.782 497.175 535.64 497.52 535.64 497.88L543.35 498.57Z" fill="white"/>
<path d="M535.63 498.69V499.55L543.35 500.25V499.38L535.63 498.69Z" fill="white"/>
<path d="M536.46 505.48C536.624 505.549 536.801 505.584 536.98 505.58H537.67L536.46 505.48Z" fill="white"/>
<path fill-rule="evenodd" clip-rule="evenodd" d="M466.14 359.18H449.94V278.93H554V359.18H537.8C537.813 357.461 537.487 355.756 536.841 354.162C536.194 352.569 535.24 351.119 534.033 349.895C532.825 348.67 531.388 347.696 529.804 347.028C528.22 346.36 526.519 346.01 524.8 346H479.1C477.384 346.014 475.687 346.367 474.107 347.037C472.526 347.707 471.094 348.682 469.89 349.906C468.687 351.13 467.736 352.579 467.093 354.17C466.449 355.761 466.125 357.464 466.14 359.18ZM554 269.37H449.94V254.64H554V269.37ZM449.94 245.08V229.63H554V245.08H449.94ZM513.83 312.8C513.802 315.14 513.083 317.419 511.763 319.35C510.444 321.282 508.582 322.781 506.412 323.657C504.243 324.533 501.863 324.748 499.572 324.275C497.28 323.801 495.18 322.661 493.535 320.997C491.891 319.333 490.775 317.219 490.329 314.923C489.882 312.626 490.125 310.249 491.027 308.09C491.928 305.931 493.448 304.087 495.396 302.789C497.343 301.492 499.63 300.8 501.97 300.8C505.128 300.837 508.145 302.117 510.365 304.364C512.585 306.61 513.83 309.641 513.83 312.8Z" fill="white"/>
<path d="M470.1 469.5H460.59C460.424 469.501 460.259 469.47 460.105 469.407C459.951 469.344 459.81 469.252 459.692 469.135C459.574 469.017 459.481 468.878 459.417 468.724C459.353 468.571 459.32 468.406 459.32 468.24V462.84C459.32 462.674 459.353 462.509 459.417 462.356C459.481 462.202 459.574 462.063 459.692 461.946C459.81 461.828 459.951 461.736 460.105 461.673C460.259 461.61 460.424 461.579 460.59 461.58H470.1C470.434 461.58 470.754 461.713 470.991 461.949C471.227 462.185 471.36 462.506 471.36 462.84V468.24C471.36 468.574 471.227 468.895 470.991 469.131C470.754 469.367 470.434 469.5 470.1 469.5Z" fill="white"/>
<path d="M470.1 540.55H460.59C460.253 540.55 459.93 540.416 459.692 540.178C459.454 539.94 459.32 539.617 459.32 539.28V533.89C459.32 533.724 459.353 533.559 459.417 533.405C459.481 533.252 459.574 533.113 459.692 532.995C459.81 532.878 459.951 532.786 460.105 532.723C460.259 532.66 460.424 532.629 460.59 532.63H470.1C470.434 532.63 470.754 532.763 470.991 532.999C471.227 533.235 471.36 533.556 471.36 533.89V539.28C471.36 539.615 471.227 539.937 470.991 540.174C470.755 540.412 470.435 540.547 470.1 540.55Z" fill="white"/>
<path d="M477.56 497.85C478.237 491.851 481.1 486.312 485.602 482.29C490.103 478.268 495.928 476.045 501.965 476.045C508.002 476.045 513.827 478.268 518.329 482.29C522.83 486.312 525.693 491.851 526.37 497.85H548.37V474.93C548.375 474.155 548.073 473.409 547.53 472.856C546.986 472.303 546.245 471.988 545.47 471.98H532.54C529.847 471.964 527.233 471.065 525.1 469.42L524.99 469.34C522.311 467.338 520.134 464.74 518.633 461.751C517.132 458.762 516.347 455.465 516.34 452.12V349H487.6V452.11C487.597 455.451 486.819 458.747 485.326 461.736C483.834 464.726 481.669 467.329 479 469.34L478.88 469.42C476.746 471.062 474.133 471.961 471.44 471.98H458.46C457.685 471.988 456.944 472.303 456.401 472.856C455.857 473.409 455.555 474.155 455.56 474.93V497.84H477.56V497.85Z" fill="white"/>
<path d="M526.3 504.86C525.506 510.75 522.603 516.152 518.129 520.063C513.654 523.975 507.913 526.131 501.97 526.131C496.027 526.131 490.286 523.975 485.812 520.063C481.337 516.152 478.434 510.75 477.64 504.86H455.57V527.24C455.561 527.628 455.629 528.014 455.77 528.376C455.911 528.737 456.123 529.067 456.393 529.347C456.663 529.626 456.985 529.848 457.342 530.002C457.698 530.155 458.082 530.236 458.47 530.24H471.39C474.082 530.257 476.694 531.152 478.83 532.79C485.485 537.85 493.615 540.59 501.975 540.59C510.335 540.59 518.465 537.85 525.12 532.79C527.252 531.151 529.861 530.255 532.55 530.24H545.48C545.868 530.236 546.252 530.155 546.609 530.002C546.965 529.848 547.288 529.626 547.558 529.347C547.827 529.067 548.039 528.737 548.18 528.376C548.322 528.014 548.389 527.628 548.38 527.24V504.86H526.3Z" fill="white"/>
<path d="M461.48 500.37V501.23L469.2 501.93V501.06L461.48 500.37Z" fill="white"/>
<path d="M461.48 502.05V502.91L469.2 503.61V502.74L461.48 502.05Z" fill="white"/>
<path d="M469.18 504.41L461.48 503.73V504.21C461.48 504.342 461.501 504.474 461.54 504.6L468.73 505.24C468.974 505.025 469.133 504.731 469.18 504.41Z" fill="white"/>
<path d="M469.2 498.57V497.89C469.201 497.71 469.167 497.532 469.1 497.365C469.032 497.198 468.932 497.046 468.806 496.918C468.679 496.79 468.529 496.688 468.363 496.618C468.198 496.548 468.02 496.511 467.84 496.51H462.84C462.478 496.513 462.132 496.658 461.878 496.915C461.623 497.171 461.48 497.518 461.48 497.88L469.2 498.57Z" fill="white"/>
<path d="M461.48 498.69V499.55L469.2 500.25V499.38L461.48 498.69Z" fill="white"/>
<path d="M462.31 505.48C462.475 505.549 462.652 505.583 462.83 505.58H463.52L462.31 505.48Z" fill="white"/>
<path d="M654.19 106.81L613 83L657 31L726.09 71L703.09 135.07L654.19 106.81Z" fill="white"/>
<path d="M769.78 219.69L746 178.5L810.07 155.5L850 224.59L798 268.59L769.78 219.69Z" fill="white"/>
<path d="M814 373.57V326L881 338.09V417.91L814 430V373.57Z" fill="white"/>
<path d="M663.87 643.78L705.07 620L728.07 684.07L659 724L615 672L663.87 643.78Z" fill="white"/>
<path d="M774 530.42L797.78 489.23L849.78 533.23L809.87 602.35L745.8 579.35L774 530.42Z" fill="white"/>
<path d="M497.56 67H450L462.09 0H541.91L554 67H497.56Z" fill="white"/>
<path d="M349.81 106.81L391 83L347 31L277.9 71L300.9 135.07L349.81 106.81Z" fill="white"/>
<path d="M234.22 219.69L258 178.5L193.93 155.5L154 224.59L206 268.59L234.22 219.69Z" fill="white"/>
<path d="M190 373.57V326L123 338.09V417.91L190 430V373.57Z" fill="white"/>
<path d="M340.13 643.78L298.93 620L275.93 684.07L345 724L389 672L340.13 643.78Z" fill="white"/>
<path d="M230 530.42L206.22 489.23L154.22 533.23L194.13 602.35L258.2 579.35L230 530.42Z" fill="white"/>
<path d="M506.349 691L553 691L541.14 729L462.86 729L451 691L506.349 691Z" fill="white"/>
<path d="M73.4202 262C75.2372 271.93 76.3235 281.981 76.6702 292.07C76.8539 297.582 76.6299 303.101 76.0002 308.58C75.4844 313.845 74.3119 319.026 72.5102 324C71.9584 325.482 71.3138 326.929 70.5802 328.33C69.048 331.274 67.109 333.987 64.8202 336.39C61.3037 340.112 56.8889 342.867 52.0002 344.39L51.4102 344.58V343.86C51.4102 342.98 51.4102 342.02 51.4802 340.97C51.5402 338.67 51.6802 335.97 51.8802 332.85C51.9702 331.32 52.0702 329.85 52.2002 328.29C52.3302 326.73 52.5102 325.29 52.7602 323.58C52.9702 322.21 53.2402 320.74 53.6102 318.94L54.1302 316.7L54.7802 314.27L55.3202 312.45L55.6502 311.45L55.0902 312.96L54.5602 314.45L53.8902 316.59L53.2802 318.82C52.8302 320.58 52.5002 322.04 52.2802 323.42C52.0602 324.8 51.7402 326.29 51.4702 328.13C51.2402 329.66 51.0602 331.21 50.9602 332.73C50.8602 334.25 50.8102 335.73 50.8402 337.06C50.8402 337.54 50.8402 338.01 50.8402 338.47L50.8902 339.73C50.8902 340.14 50.8902 340.55 50.9702 340.95C50.9702 341.62 51.0602 342.3 51.1602 343.15L51.3002 344.41L50.4402 343.6C46.4407 339.963 43.2183 335.554 40.967 330.639C38.7157 325.724 37.482 320.404 37.3402 315C37.1983 309.547 37.8176 304.102 39.1802 298.82C39.8553 296.114 40.6664 293.444 41.6102 290.82C42.4902 288.48 43.6102 286 44.8902 283.22C45.4402 282.06 46.0402 280.89 46.6502 279.72C48.4402 276.3 50.4802 272.79 52.7202 269.29C55.1889 265.576 57.8596 262.001 60.7202 258.58L60.9502 258.3C63.6202 255.05 65.8902 252.53 67.3202 250.97C68.8902 249.25 69.8702 248.37 69.9202 248.33L70.4302 247.88L70.6202 248.61C70.5902 248.66 72.0002 254 73.4202 262Z" fill="white"/>
<path d="M9.14009 333.94C7.924 343.965 7.44272 354.065 7.70009 364.16C7.8609 369.673 8.42238 375.168 9.38009 380.6C10.2122 385.832 11.6971 390.938 13.8001 395.8C14.4469 397.244 15.1816 398.646 16.0001 400C17.7131 402.841 19.8095 405.432 22.2301 407.7C25.9763 411.184 30.5512 413.652 35.5201 414.87L36.1101 415.03L36.0601 414.31C36.0001 413.43 35.9101 412.46 35.8201 411.42C35.6201 409.14 35.3201 406.42 34.9301 403.34C34.7401 401.82 34.5501 400.34 34.3301 398.81C34.1101 397.28 33.8401 395.81 33.4901 394.14C33.2001 392.79 32.8401 391.34 32.3601 389.56L31.7101 387.35L30.9101 384.97L30.2601 383.19L29.8701 382.19L30.5201 383.66L31.1401 385.12L31.9301 387.22L32.6901 389.4C33.2301 391.13 33.6901 392.57 34.0001 393.93C34.3101 395.29 34.7101 396.76 35.0901 398.58C35.4201 400.1 35.6801 401.63 35.8801 403.14C36.0801 404.65 36.2101 406.14 36.2601 407.46C36.2601 407.94 36.2601 408.41 36.3201 408.86V410.12C36.3201 410.54 36.3201 410.95 36.3201 411.35C36.3201 412.02 36.3201 412.7 36.2601 413.55L36.2001 414.82L37.0001 414C40.7682 410.129 43.7151 405.536 45.6639 400.498C47.6126 395.459 48.5229 390.079 48.3401 384.68C48.1518 379.242 47.2061 373.857 45.5301 368.68C44.7301 366.13 43.7601 363.49 42.6201 360.81C41.6201 358.54 40.3801 356.12 38.8801 353.42C38.2601 352.31 37.6001 351.17 36.8801 350.04C34.8801 346.74 32.6301 343.36 30.1901 340.04C27.5112 336.483 24.6403 333.074 21.5901 329.83L21.3501 329.56C18.4901 326.48 16.0701 324.1 14.5501 322.64C13.6763 321.763 12.7549 320.935 11.7901 320.16L11.2601 319.74L11.1101 320.48C11.1501 320.47 10.0901 325.84 9.14009 333.94Z" fill="white"/>
<path d="M92.5502 339.14C93.7736 349.164 94.2583 359.265 94.0002 369.36C93.8443 374.877 93.2828 380.375 92.3202 385.81C91.4849 391.039 89.9966 396.142 87.8902 401C87.252 402.444 86.5239 403.847 85.7102 405.2C83.9994 408.045 81.8991 410.637 79.4702 412.9C75.7287 416.385 71.1567 418.854 66.1902 420.07L65.5902 420.23L65.6502 419.51C65.7102 418.63 65.7902 417.67 65.8902 416.62C66.0902 414.34 66.3902 411.62 66.7802 408.54C66.9702 407.02 67.1602 405.54 67.3802 404.01C67.6002 402.48 67.8702 401.01 68.2202 399.35C68.5102 397.99 68.8702 396.54 69.3502 394.76L70.0002 392.55L70.7902 390.17L71.4502 388.39L71.8402 387.39L71.1802 388.86L70.5702 390.32L69.7702 392.42L69.0002 394.63C68.4502 396.36 68.0002 397.8 67.6902 399.16C67.3802 400.52 67.0002 402 66.6202 403.81C66.2902 405.33 66.0202 406.86 65.8302 408.38C65.6402 409.9 65.5002 411.38 65.4502 412.69C65.4502 413.17 65.4502 413.64 65.3802 414.1V415.36C65.3802 415.77 65.3802 416.18 65.3802 416.58C65.3802 417.26 65.3802 417.93 65.4402 418.79L65.5002 420.05L64.6902 419.2C60.9252 415.329 57.9802 410.738 56.0317 405.701C54.0831 400.665 53.1711 395.287 53.3502 389.89C53.5471 384.452 54.4961 379.068 56.1702 373.89C56.9993 371.213 57.9639 368.579 59.0602 366C60.0602 363.72 61.3002 361.31 62.7902 358.61C63.4202 357.49 64.0802 356.36 64.7902 355.22C66.7902 351.92 69.0402 348.54 71.4802 345.22C74.1354 341.663 76.9795 338.252 80.0002 335L80.2502 334.73C83.1102 331.65 85.5302 329.27 87.0502 327.81C87.924 326.933 88.8454 326.105 89.8102 325.33L90.3402 324.91L90.4902 325.65C90.5302 325.67 91.5902 331.05 92.5502 339.14Z" fill="white"/>
<path d="M102.1 419.16C104.709 428.915 106.597 438.848 107.75 448.88C108.369 454.36 108.583 459.878 108.39 465.39C108.302 470.683 107.55 475.944 106.15 481.05C105.717 482.57 105.193 484.063 104.58 485.52C103.28 488.575 101.564 491.435 99.4799 494.02C96.2647 498.008 92.0818 501.107 87.3299 503.02L86.7599 503.25V502.54C86.6999 501.66 86.6399 500.69 86.5899 499.65C86.4699 497.35 86.3899 494.65 86.3399 491.52C86.3399 489.99 86.3399 488.52 86.3399 486.95C86.3399 485.38 86.4099 483.95 86.5199 482.21C86.6199 480.83 86.7699 479.34 86.9899 477.52L87.3299 475.24L87.7799 472.77L88.1799 470.91L88.4299 469.91L87.9899 471.46L87.5899 472.99L87.0899 475.18L86.6599 477.44C86.3499 479.23 86.1399 480.72 85.9899 482.11C85.8399 483.5 85.6799 485.01 85.5599 486.87C85.4499 488.42 85.3999 489.97 85.4099 491.5C85.4199 493.03 85.5099 494.5 85.6399 495.82C85.6399 496.31 85.7299 496.82 85.7799 497.22L85.9299 498.47C85.9799 498.89 86.0399 499.29 86.0999 499.69C86.1899 500.36 86.3099 501.03 86.4699 501.86L86.6999 503.11L85.7899 502.38C81.5187 499.074 77.9593 494.939 75.325 490.224C72.6908 485.509 71.036 480.31 70.4599 474.94C69.882 469.518 70.0638 464.042 70.9999 458.67C71.4299 456.04 71.9999 453.28 72.7799 450.47C73.4699 448.08 74.3399 445.47 75.4399 442.63C75.8999 441.44 76.4399 440.22 76.9099 439.01C78.4199 435.46 80.1799 431.79 82.1399 428.13C84.2875 424.23 86.6477 420.451 89.2099 416.81L89.4199 416.51C91.8199 413.07 93.8799 410.37 95.1799 408.71C96.6099 406.87 97.5199 405.9 97.5599 405.87L98.0299 405.38L98.2799 406.09C98.2199 406.1 99.9999 411.27 102.1 419.16Z" fill="white"/>
<path d="M9.99741 446.194C11.8419 456.121 14.4077 465.901 17.6743 475.455C19.4723 480.67 21.6514 485.746 24.1939 490.641C26.5493 495.383 29.4907 499.81 32.949 503.818C33.9921 505.005 35.1074 506.127 36.2888 507.176C38.775 509.374 41.5532 511.217 44.5445 512.654C49.1615 514.86 54.2658 515.848 59.3722 515.524L59.9858 515.5L59.7249 514.828C59.4047 514.012 59.0305 513.112 58.6317 512.14C57.7868 510.021 56.6495 507.52 55.3657 504.696C54.7273 503.305 54.0974 501.935 53.4391 500.542C52.7808 499.149 52.0759 497.843 51.2333 496.366C50.5608 495.163 49.7739 493.881 48.7862 492.333L47.5053 490.413L46.0325 488.378L44.8807 486.878L44.2192 486.067L45.2821 487.279L46.305 488.488L47.6883 490.246L49.064 492.103C50.0961 493.594 50.9359 494.84 51.6689 496.038C52.4019 497.236 53.2287 498.521 54.1108 500.141C54.8725 501.491 55.5914 502.878 56.2306 504.26C56.8697 505.641 57.4475 507.038 57.9375 508.267C58.105 508.711 58.2625 509.154 58.4108 509.586L58.8133 510.779C58.9438 511.18 59.0751 511.571 59.1873 511.951C59.3898 512.597 59.5723 513.243 59.7914 514.071L60.1111 515.298L60.6209 514.243C63.0588 509.423 64.4969 504.16 64.8485 498.77C65.2002 493.38 64.4582 487.975 62.6671 482.879C60.8456 477.734 58.3119 472.87 55.14 468.429C53.6284 466.241 51.8997 464.006 50.0191 461.791C48.3633 459.922 46.472 457.987 44.2434 455.865C43.3064 454.983 42.3693 454.101 41.3518 453.223C38.4641 450.661 35.305 448.109 31.959 445.644C28.3447 443.047 24.5897 440.651 20.7111 438.468L20.3939 438.284C16.7481 436.208 13.7248 434.659 11.8397 433.716C9.75177 432.668 8.51352 432.195 8.46514 432.171L7.83105 431.933L7.90571 432.681C7.92194 432.732 8.51867 438.182 9.99741 446.194Z" fill="white"/>
<path d="M39.4096 542.13C43.9232 551.161 49.0903 559.851 54.8696 568.13C58.0422 572.644 61.5415 576.918 65.3396 580.92C68.915 584.828 72.9667 588.271 77.3996 591.17C78.7309 592.021 80.1135 592.789 81.5396 593.47C84.5323 594.902 87.7093 595.912 90.9796 596.47C96.0131 597.303 101.176 596.838 105.98 595.12L106.57 594.93L106.13 594.36C105.59 593.66 104.99 592.9 104.34 592.08C102.91 590.29 101.16 588.19 99.1396 585.83C98.1396 584.67 97.1396 583.52 96.1396 582.38C95.1396 581.24 94.0796 580.16 92.8596 578.95C91.8596 577.95 90.7796 576.95 89.3996 575.75L87.6396 574.27L85.6396 572.72L84.1196 571.59L83.2596 571L84.6096 571.86L85.9296 572.75L87.7996 574L89.6296 575.41C91.0396 576.55 92.1796 577.53 93.2196 578.47C94.2596 579.41 95.3696 580.47 96.6996 581.74C97.7996 582.84 98.8696 583.96 99.8696 585.12C100.87 586.28 101.81 587.46 102.57 588.51C102.86 588.89 103.13 589.27 103.39 589.65L104.11 590.65L104.79 591.65C105.16 592.22 105.52 592.79 105.95 593.53L106.6 594.62L106.8 593.46C107.809 588.154 107.736 582.698 106.585 577.421C105.434 572.144 103.228 567.154 100.1 562.75C96.934 558.332 93.1678 554.377 88.9096 551C86.7432 549.219 84.4869 547.55 82.1496 546C80.0496 544.66 77.6996 543.32 74.9596 541.89C73.8296 541.3 72.6496 540.72 71.4596 540.15C67.9696 538.49 64.2296 536.92 60.3396 535.47C56.1463 533.971 51.8731 532.706 47.5396 531.68L47.1896 531.59C43.0996 530.59 39.7696 529.95 37.6996 529.59C36.4864 529.347 35.2614 529.167 34.0296 529.05L33.3496 528.99L33.6396 529.69C33.6396 529.69 35.7496 534.84 39.4096 542.13Z" fill="white"/>
<path d="M80.34 623.38C84.8532 632.414 90.0237 641.104 95.81 649.38C98.9824 653.894 102.478 658.172 106.27 662.18C109.847 666.083 113.899 669.523 118.33 672.42C119.66 673.273 121.043 674.041 122.47 674.72C125.462 676.155 128.639 677.165 131.91 677.72C136.943 678.556 142.105 678.095 146.91 676.38L147.49 676.18L147.05 675.61L145.26 673.34C143.83 671.54 142.08 669.44 140.06 667.09C139.06 665.92 138.06 664.78 137.06 663.64C136.06 662.5 135.06 661.41 133.79 660.21C132.79 659.21 131.7 658.21 130.32 657L128.56 655.52L126.56 653.97L125.03 652.85L124.17 652.25L125.53 653.12L126.84 654L128.66 655.31L130.49 656.72C131.9 657.86 133.05 658.83 134.09 659.72C135.13 660.61 136.24 661.72 137.56 663C138.67 664.09 139.74 665.22 140.74 666.37C141.74 667.52 142.67 668.71 143.43 669.76L144.26 670.9L144.97 671.9C145.21 672.25 145.44 672.58 145.65 672.9C146.02 673.46 146.38 674.04 146.82 674.77L147.47 675.86L147.66 674.71C148.661 669.422 148.587 663.987 147.443 658.728C146.299 653.469 144.107 648.494 141 644.1C137.835 639.658 134.069 635.677 129.81 632.27C127.74 630.59 125.47 628.92 123.04 627.27C120.94 625.93 118.59 624.59 115.85 623.17C114.72 622.58 113.54 622 112.35 621.43C108.87 619.77 105.12 618.19 101.23 616.74C97.0463 615.267 92.7869 614.019 88.47 613L88.12 612.92C84.04 611.92 80.71 611.27 78.63 610.92C76.34 610.49 75.02 610.37 74.97 610.37L74.29 610.32L74.57 611.01C74.6 611 76.68 616.1 80.34 623.38Z" fill="white"/>
<path d="M126.29 497.05C130.597 506.185 134.236 515.619 137.18 525.28C138.763 530.563 139.963 535.954 140.77 541.41C141.625 546.635 141.83 551.945 141.38 557.22C141.224 558.794 140.973 560.357 140.63 561.9C139.905 565.138 138.73 568.258 137.14 571.17C134.691 575.661 131.131 579.449 126.8 582.17L126.28 582.51L126.1 581.81C125.89 580.96 125.66 580.02 125.42 579C124.89 576.77 124.32 574.09 123.72 571C123.42 569.5 123.12 568 122.86 566.51C122.6 565.02 122.38 563.51 122.19 561.82C122.03 560.44 121.91 558.95 121.81 557.11L121.73 554.81V552.3L121.79 550.41L121.86 549.36L121.7 551L121.58 552.57L121.48 554.81V557.12C121.48 558.94 121.56 560.44 121.66 561.84C121.76 563.24 121.88 564.74 122.09 566.59C122.27 568.14 122.49 569.68 122.78 571.17C123.07 572.66 123.42 574.17 123.78 575.39L124.17 576.74L124.54 577.94C124.67 578.34 124.79 578.73 124.92 579.11C125.14 579.75 125.37 580.39 125.68 581.18L126.13 582.37L125.13 581.81C120.332 579.329 116.087 575.902 112.649 571.736C109.212 567.57 106.654 562.751 105.13 557.57C103.588 552.337 102.783 546.915 102.74 541.46C102.692 538.664 102.785 535.867 103.02 533.08C103.26 530.6 103.66 527.92 104.23 524.89C104.47 523.64 104.74 522.35 105.03 521.06C105.88 517.3 106.95 513.38 108.21 509.42C109.608 505.193 111.241 501.046 113.1 497L113.24 496.67C114.99 492.84 116.53 489.82 117.51 487.95C118.59 485.89 119.31 484.78 119.35 484.73L119.72 484.17L120.09 484.82C120.12 484.91 122.82 489.67 126.29 497.05Z" fill="white"/>
<path d="M166.65 580.4C172.139 588.874 177.002 597.737 181.2 606.92C183.478 611.944 185.387 617.128 186.91 622.43C188.457 627.493 189.364 632.731 189.61 638.02C189.67 639.601 189.63 641.184 189.49 642.76C189.204 646.065 188.457 649.313 187.27 652.41C185.433 657.182 182.407 661.406 178.48 664.68L178.01 665.08L177.75 664.41C177.42 663.6 177.07 662.69 176.7 661.72C175.87 659.57 174.95 657 173.95 654.06C173.45 652.61 172.95 651.18 172.5 649.73C172.05 648.28 171.63 646.83 171.21 645.17C170.87 643.83 170.56 642.36 170.21 640.55L169.82 638.28L169.49 635.79L169.3 633.91L169.23 632.91L169.29 634.52L169.38 636.11L169.58 638.34L169.86 640.63C170.13 642.42 170.38 643.9 170.67 645.28C170.96 646.66 171.27 648.13 171.73 649.93C172.1 651.44 172.54 652.93 173.02 654.38C173.5 655.83 174.02 657.24 174.57 658.38C174.76 658.83 174.95 659.26 175.13 659.67L175.66 660.82L176.2 661.92C176.5 662.53 176.81 663.13 177.2 663.92L177.81 665.03L176.72 664.61C171.635 662.787 166.971 659.956 163.008 656.285C159.046 652.614 155.866 648.181 153.66 643.25C151.438 638.269 149.923 633.001 149.16 627.6C148.738 624.836 148.457 622.053 148.32 619.26C148.23 616.77 148.27 614.07 148.43 610.98C148.5 609.71 148.6 608.4 148.71 607.08C149.05 603.24 149.59 599.21 150.32 595.08C151.157 590.691 152.235 586.351 153.55 582.08L153.66 581.74C154.88 577.74 156 574.51 156.73 572.53C157.132 571.363 157.596 570.218 158.12 569.1L158.41 568.48L158.87 569.08C158.87 569.08 162.23 573.54 166.65 580.4Z" fill="white"/>
<path d="M222.48 633.36C230.436 639.578 237.926 646.369 244.89 653.68C248.686 657.685 252.182 661.963 255.35 666.48C258.471 670.757 261.042 675.411 263 680.33C263.569 681.803 264.047 683.309 264.43 684.84C265.238 688.062 265.591 691.38 265.48 694.7C265.308 699.808 263.827 704.787 261.18 709.16L260.87 709.7L260.4 709.15C259.83 708.49 259.2 707.75 258.53 706.95C257.05 705.19 255.34 703.05 253.43 700.61C252.49 699.4 251.56 698.21 250.65 696.98C249.74 695.75 248.88 694.52 247.94 693.09C247.18 691.93 246.41 690.65 245.49 689.09L244.38 687.09L243.26 684.84L242.46 683.12L242.05 682.12L242.63 683.62L243.23 685.09L244.15 687.09L245.15 689.16C245.98 690.77 246.71 692.08 247.43 693.29C248.15 694.5 248.93 695.79 249.95 697.29C250.8 698.59 251.69 699.87 252.62 701.07C253.55 702.27 254.53 703.44 255.41 704.39L256.36 705.39L257.24 706.29C257.53 706.59 257.81 706.88 258.1 707.16C258.58 707.64 259.1 708.1 259.71 708.67L260.65 709.53H259.47C254.084 709.479 248.763 708.343 243.825 706.19C238.887 704.037 234.434 700.912 230.73 697C227.004 693.016 223.851 688.533 221.36 683.68C220.062 681.204 218.891 678.664 217.85 676.07C216.95 673.74 216.1 671.17 215.25 668.21C214.9 666.98 214.56 665.71 214.25 664.43C213.32 660.68 212.52 656.7 211.87 652.6C211.237 648.191 210.847 643.751 210.7 639.3V638.94C210.54 634.74 210.56 631.35 210.6 629.24C210.6 626.9 210.78 625.59 210.79 625.53L210.87 624.86L211.5 625.28C211.52 625.28 216.07 628.32 222.48 633.36Z" fill="white"/>
<path fill-rule="evenodd" clip-rule="evenodd" d="M163.33 644.56L169.25 645.29L168.07 644.13L160.43 636.13C158.54 634.22 156.73 632.13 154.97 630.18L154.87 630.06L153 628L149.35 623.89C149.23 623.74 149.1 623.59 148.97 623.45L148.7 623.15C148.31 622.72 147.93 622.28 147.56 621.84L138.85 611.24C137.4 609.41 135.96 607.51 134.57 605.68L132.21 602.58L131.06 601C130.35 600.08 129.64 599.15 128.95 598.21L122.71 589.36L122.23 588.68L121.75 587.99C121.04 586.99 120.32 585.99 119.67 584.99L119.6 584.88L112.35 573.75L108.25 566.92C105.48 562.48 102.95 557.92 100.5 553.42C99.6201 551.83 98.7501 550.24 97.8701 548.66C96.8701 546.75 95.8701 544.79 94.8701 542.88L94.8001 542.73L94.2501 541.64L93.1401 539.45L90.8101 534.87L84.4101 521.06L80.5401 511.87L79.8601 510.25C79.4401 509.25 79.0301 508.25 78.6401 507.31L73.5001 493.61C65.5174 471.062 59.5638 447.847 55.7101 424.24C55.4601 422.57 55.2301 420.9 55.0001 419.24V419.06C54.8701 418.06 54.7401 417.14 54.6101 416.2L54.2201 413.38L54.1601 412.91C53.9401 411.4 53.7301 409.84 53.5701 408.33L52.8301 400.64C52.7501 399.78 52.6601 398.93 52.5801 398.07V397.88C52.4201 396.32 52.2501 394.71 52.1901 393.16L51.7601 385.85C51.7601 385.22 51.6901 384.59 51.6501 383.95C51.5301 382.17 51.4301 380.48 51.4301 378.79L51.2101 366.57V365.28C51.2101 355.54 51.7401 346.63 52.4601 338.74L50.7401 338.53C49.9301 346.38 49.3101 355.21 49.1701 364.89C48.8144 384.762 50.1291 404.628 53.1001 424.28C56.8016 448.128 62.635 471.595 70.5301 494.4L75.6501 508.24C76.0401 509.24 76.4501 510.24 76.8601 511.24L77.2001 512.06C77.3201 512.34 77.4301 512.61 77.5401 512.89L81.3801 522.21L87.7601 536.21L90.0901 540.86C90.6501 541.96 91.2001 543.06 91.7501 544.16L91.8201 544.3C92.8201 546.23 93.8201 548.23 94.8201 550.19C95.7001 551.77 96.5701 553.357 97.4301 554.95C99.9101 559.48 102.43 564.18 105.28 568.7L109.41 575.61L116.78 587C117.42 588 118.15 589.06 118.84 590L118.9 590.09C119.23 590.54 119.55 591 119.9 591.46L126.19 600.46C126.74 601.22 127.31 601.97 127.88 602.72C128.04 602.93 128.19 603.14 128.35 603.34L128.71 603.81C128.97 604.16 129.24 604.51 129.5 604.87L131.86 607.97C133.26 609.84 134.72 611.77 136.2 613.65L145 624.37C145.37 624.82 145.74 625.24 146.13 625.67L146.19 625.75L146.83 626.47L150.52 630.65L152.37 632.75L152.57 632.98C154.32 634.98 156.13 636.98 158.02 638.93L163.33 644.56Z" fill="white"/>
<path d="M928.08 262C926.263 271.93 925.177 281.981 924.83 292.07C924.646 297.582 924.87 303.101 925.5 308.58C926.016 313.845 927.188 319.026 928.99 324C929.542 325.482 930.186 326.929 930.92 328.33C932.452 331.274 934.391 333.987 936.68 336.39C940.196 340.112 944.611 342.867 949.5 344.39L950.09 344.58V343.86C950.09 342.98 950.09 342.02 950.02 340.97C949.96 338.67 949.82 335.97 949.62 332.85C949.53 331.32 949.43 329.85 949.3 328.29C949.17 326.73 948.99 325.29 948.74 323.58C948.53 322.21 948.26 320.74 947.89 318.94L947.37 316.7L946.72 314.27L946.18 312.45L945.85 311.45L946.41 312.96L946.94 314.45L947.61 316.59L948.22 318.82C948.67 320.58 949 322.04 949.22 323.42C949.44 324.8 949.76 326.29 950.03 328.13C950.26 329.66 950.44 331.21 950.54 332.73C950.64 334.25 950.69 335.73 950.66 337.06C950.66 337.54 950.66 338.01 950.66 338.47L950.61 339.73C950.61 340.14 950.61 340.55 950.53 340.95C950.53 341.62 950.44 342.3 950.34 343.15L950.2 344.41L951.06 343.6C955.059 339.963 958.282 335.554 960.533 330.639C962.784 325.724 964.018 320.404 964.16 315C964.302 309.547 963.682 304.102 962.32 298.82C961.645 296.114 960.834 293.444 959.89 290.82C959.01 288.48 957.89 286 956.61 283.22C956.06 282.06 955.46 280.89 954.85 279.72C953.06 276.3 951.02 272.79 948.78 269.29C946.311 265.576 943.64 262.001 940.78 258.58L940.55 258.3C937.88 255.05 935.61 252.53 934.18 250.97C932.61 249.25 931.63 248.37 931.58 248.33L931.07 247.88L930.88 248.61C930.91 248.66 929.5 254 928.08 262Z" fill="white"/>
<path d="M992.36 333.94C993.576 343.965 994.057 354.065 993.8 364.16C993.639 369.673 993.078 375.168 992.12 380.6C991.288 385.832 989.803 390.938 987.7 395.8C987.053 397.244 986.318 398.646 985.5 400C983.787 402.841 981.69 405.432 979.27 407.7C975.524 411.184 970.949 413.652 965.98 414.87L965.39 415.03L965.44 414.31C965.5 413.43 965.59 412.46 965.68 411.42C965.88 409.14 966.18 406.42 966.57 403.34C966.76 401.82 966.95 400.34 967.17 398.81C967.39 397.28 967.66 395.81 968.01 394.14C968.3 392.79 968.66 391.34 969.14 389.56L969.79 387.35L970.59 384.97L971.24 383.19L971.63 382.19L970.98 383.66L970.36 385.12L969.57 387.22L968.81 389.4C968.27 391.13 967.81 392.57 967.5 393.93C967.19 395.29 966.79 396.76 966.41 398.58C966.08 400.1 965.82 401.63 965.62 403.14C965.42 404.65 965.29 406.14 965.24 407.46C965.24 407.94 965.24 408.41 965.18 408.86V410.12C965.18 410.54 965.18 410.95 965.18 411.35C965.18 412.02 965.18 412.7 965.24 413.55L965.3 414.82L964.5 414C960.732 410.129 957.785 405.536 955.836 400.498C953.887 395.459 952.977 390.079 953.16 384.68C953.348 379.242 954.294 373.857 955.97 368.68C956.77 366.13 957.74 363.49 958.88 360.81C959.88 358.54 961.12 356.12 962.62 353.42C963.24 352.31 963.9 351.17 964.62 350.04C966.62 346.74 968.87 343.36 971.31 340.04C973.989 336.483 976.86 333.074 979.91 329.83L980.15 329.56C983.01 326.48 985.43 324.1 986.95 322.64C987.824 321.763 988.745 320.935 989.71 320.16L990.24 319.74L990.39 320.48C990.35 320.47 991.41 325.84 992.36 333.94Z" fill="white"/>
<path d="M908.95 339.14C907.726 349.164 907.242 359.265 907.5 369.36C907.656 374.877 908.217 380.375 909.18 385.81C910.015 391.039 911.503 396.142 913.61 401C914.248 402.444 914.976 403.847 915.79 405.2C917.501 408.045 919.601 410.637 922.03 412.9C925.771 416.385 930.343 418.854 935.31 420.07L935.91 420.23L935.85 419.51C935.79 418.63 935.71 417.67 935.61 416.62C935.41 414.34 935.11 411.62 934.72 408.54C934.53 407.02 934.34 405.54 934.12 404.01C933.9 402.48 933.63 401.01 933.28 399.35C932.99 397.99 932.63 396.54 932.15 394.76L931.5 392.55L930.71 390.17L930.05 388.39L929.66 387.39L930.32 388.86L930.93 390.32L931.73 392.42L932.5 394.63C933.05 396.36 933.5 397.8 933.81 399.16C934.12 400.52 934.5 402 934.88 403.81C935.21 405.33 935.48 406.86 935.67 408.38C935.86 409.9 936 411.38 936.05 412.69C936.05 413.17 936.05 413.64 936.12 414.1V415.36C936.12 415.77 936.12 416.18 936.12 416.58C936.12 417.26 936.12 417.93 936.06 418.79L936 420.05L936.81 419.2C940.575 415.329 943.52 410.738 945.468 405.701C947.417 400.665 948.329 395.287 948.15 389.89C947.953 384.452 947.004 379.068 945.33 373.89C944.501 371.213 943.536 368.579 942.44 366C941.44 363.72 940.2 361.31 938.71 358.61C938.08 357.49 937.42 356.36 936.71 355.22C934.71 351.92 932.46 348.54 930.02 345.22C927.365 341.663 924.52 338.252 921.5 335L921.25 334.73C918.39 331.65 915.97 329.27 914.45 327.81C913.576 326.933 912.655 326.105 911.69 325.33L911.16 324.91L911.01 325.65C910.97 325.67 909.91 331.05 908.95 339.14Z" fill="white"/>
<path d="M899.4 419.16C896.791 428.915 894.903 438.848 893.75 448.88C893.131 454.36 892.917 459.878 893.11 465.39C893.198 470.683 893.95 475.944 895.35 481.05C895.783 482.57 896.307 484.063 896.92 485.52C898.22 488.575 899.936 491.435 902.02 494.02C905.235 498.008 909.418 501.107 914.17 503.02L914.74 503.25V502.54C914.8 501.66 914.86 500.69 914.91 499.65C915.03 497.35 915.11 494.65 915.16 491.52C915.16 489.99 915.16 488.52 915.16 486.95C915.16 485.38 915.09 483.95 914.98 482.21C914.88 480.83 914.73 479.34 914.51 477.52L914.17 475.24L913.72 472.77L913.32 470.91L913.07 469.91L913.51 471.46L913.91 472.99L914.41 475.18L914.84 477.44C915.15 479.23 915.36 480.72 915.51 482.11C915.66 483.5 915.82 485.01 915.94 486.87C916.05 488.42 916.1 489.97 916.09 491.5C916.08 493.03 915.99 494.5 915.86 495.82C915.86 496.31 915.77 496.82 915.72 497.22L915.57 498.47C915.52 498.89 915.46 499.29 915.4 499.69C915.31 500.36 915.19 501.03 915.03 501.86L914.8 503.11L915.71 502.38C919.981 499.074 923.541 494.939 926.175 490.224C928.809 485.509 930.464 480.31 931.04 474.94C931.618 469.518 931.436 464.042 930.5 458.67C930.07 456.04 929.5 453.28 928.72 450.47C928.03 448.08 927.16 445.47 926.06 442.63C925.6 441.44 925.06 440.22 924.59 439.01C923.08 435.46 921.32 431.79 919.36 428.13C917.213 424.23 914.852 420.451 912.29 416.81L912.08 416.51C909.68 413.07 907.62 410.37 906.32 408.71C904.89 406.87 903.98 405.9 903.94 405.87L903.47 405.38L903.22 406.09C903.28 406.1 901.5 411.27 899.4 419.16Z" fill="white"/>
<path d="M991.503 446.194C989.658 456.121 987.092 465.901 983.826 475.455C982.028 480.67 979.849 485.746 977.306 490.641C974.951 495.383 972.009 499.81 968.551 503.818C967.508 505.005 966.393 506.127 965.211 507.176C962.725 509.374 959.947 511.217 956.956 512.654C952.339 514.86 947.234 515.848 942.128 515.524L941.514 515.5L941.775 514.828C942.095 514.012 942.469 513.112 942.868 512.14C943.713 510.021 944.851 507.52 946.134 504.696C946.773 503.305 947.403 501.935 948.061 500.542C948.719 499.149 949.424 497.843 950.267 496.366C950.939 495.163 951.726 493.881 952.714 492.333L953.995 490.413L955.468 488.378L956.619 486.878L957.281 486.067L956.218 487.279L955.195 488.488L953.812 490.246L952.436 492.103C951.404 493.594 950.564 494.84 949.831 496.038C949.098 497.236 948.271 498.521 947.389 500.141C946.627 501.491 945.909 502.878 945.269 504.26C944.63 505.641 944.052 507.038 943.563 508.267C943.395 508.711 943.237 509.154 943.089 509.586L942.687 510.779C942.556 511.18 942.425 511.571 942.313 511.951C942.11 512.597 941.928 513.243 941.709 514.071L941.389 515.298L940.879 514.243C938.441 509.423 937.003 504.16 936.651 498.77C936.3 493.38 937.042 487.975 938.833 482.879C940.654 477.734 943.188 472.87 946.36 468.429C947.872 466.241 949.6 464.006 951.481 461.791C953.137 459.922 955.028 457.987 957.257 455.865C958.194 454.983 959.131 454.101 960.148 453.223C963.036 450.661 966.195 448.109 969.541 445.644C973.155 443.047 976.91 440.651 980.789 438.468L981.106 438.284C984.752 436.208 987.775 434.659 989.66 433.716C991.748 432.668 992.986 432.195 993.035 432.171L993.669 431.933L993.594 432.681C993.578 432.732 992.981 438.182 991.503 446.194Z" fill="white"/>
<path d="M962.09 542.13C957.577 551.161 952.41 559.851 946.63 568.13C943.458 572.644 939.958 576.918 936.16 580.92C932.585 584.828 928.533 588.271 924.1 591.17C922.769 592.021 921.386 592.789 919.96 593.47C916.968 594.902 913.791 595.912 910.52 596.47C905.487 597.303 900.324 596.838 895.52 595.12L894.93 594.93L895.37 594.36C895.91 593.66 896.51 592.9 897.16 592.08C898.59 590.29 900.34 588.19 902.36 585.83C903.36 584.67 904.36 583.52 905.36 582.38C906.36 581.24 907.42 580.16 908.64 578.95C909.64 577.95 910.72 576.95 912.1 575.75L913.86 574.27L915.86 572.72L917.38 571.59L918.24 571L916.89 571.86L915.57 572.75L913.7 574L911.87 575.41C910.46 576.55 909.32 577.53 908.28 578.47C907.24 579.41 906.13 580.47 904.8 581.74C903.7 582.84 902.63 583.96 901.63 585.12C900.63 586.28 899.69 587.46 898.93 588.51C898.64 588.89 898.37 589.27 898.11 589.65L897.39 590.65L896.71 591.65C896.34 592.22 895.98 592.79 895.55 593.53L894.9 594.62L894.7 593.46C893.691 588.154 893.764 582.698 894.915 577.421C896.066 572.144 898.272 567.154 901.4 562.75C904.566 558.332 908.332 554.377 912.59 551C914.757 549.219 917.013 547.55 919.35 546C921.45 544.66 923.8 543.32 926.54 541.89C927.67 541.3 928.85 540.72 930.04 540.15C933.53 538.49 937.27 536.92 941.16 535.47C945.354 533.971 949.627 532.706 953.96 531.68L954.31 531.59C958.4 530.59 961.73 529.95 963.8 529.59C965.014 529.347 966.239 529.167 967.47 529.05L968.15 528.99L967.86 529.69C967.86 529.69 965.75 534.84 962.09 542.13Z" fill="white"/>
<path d="M921.16 623.38C916.647 632.414 911.476 641.104 905.69 649.38C902.518 653.894 899.022 658.172 895.23 662.18C891.653 666.083 887.601 669.523 883.17 672.42C881.84 673.273 880.457 674.041 879.03 674.72C876.038 676.155 872.861 677.165 869.59 677.72C864.557 678.556 859.395 678.095 854.59 676.38L854.01 676.18L854.45 675.61L856.24 673.34C857.67 671.54 859.42 669.44 861.44 667.09C862.44 665.92 863.44 664.78 864.44 663.64C865.44 662.5 866.44 661.41 867.71 660.21C868.71 659.21 869.8 658.21 871.18 657L872.94 655.52L874.94 653.97L876.47 652.85L877.33 652.25L875.97 653.12L874.66 654L872.84 655.31L871.01 656.72C869.6 657.86 868.45 658.83 867.41 659.72C866.37 660.61 865.26 661.72 863.94 663C862.83 664.09 861.76 665.22 860.76 666.37C859.76 667.52 858.83 668.71 858.07 669.76L857.24 670.9L856.53 671.9C856.29 672.25 856.06 672.58 855.85 672.9C855.48 673.46 855.12 674.04 854.68 674.77L854.03 675.86L853.84 674.71C852.839 669.422 852.913 663.987 854.057 658.728C855.201 653.469 857.393 648.494 860.5 644.1C863.665 639.658 867.431 635.677 871.69 632.27C873.76 630.59 876.03 628.92 878.46 627.27C880.56 625.93 882.91 624.59 885.65 623.17C886.78 622.58 887.96 622 889.15 621.43C892.63 619.77 896.38 618.19 900.27 616.74C904.454 615.267 908.713 614.019 913.03 613L913.38 612.92C917.46 611.92 920.79 611.27 922.87 610.92C925.16 610.49 926.48 610.37 926.53 610.37L927.21 610.32L926.93 611.01C926.9 611 924.82 616.1 921.16 623.38Z" fill="white"/>
<path d="M875.21 497.05C870.903 506.185 867.264 515.619 864.32 525.28C862.737 530.563 861.537 535.954 860.73 541.41C859.875 546.635 859.67 551.945 860.12 557.22C860.276 558.794 860.527 560.357 860.87 561.9C861.595 565.138 862.77 568.258 864.36 571.17C866.809 575.661 870.369 579.449 874.7 582.17L875.22 582.51L875.4 581.81C875.61 580.96 875.84 580.02 876.08 579C876.61 576.77 877.18 574.09 877.78 571C878.08 569.5 878.38 568 878.64 566.51C878.9 565.02 879.12 563.51 879.31 561.82C879.47 560.44 879.59 558.95 879.69 557.11L879.77 554.81V552.3L879.71 550.41L879.64 549.36L879.8 551L879.92 552.57L880.02 554.81V557.12C880.02 558.94 879.94 560.44 879.84 561.84C879.74 563.24 879.62 564.74 879.41 566.59C879.23 568.14 879.01 569.68 878.72 571.17C878.43 572.66 878.08 574.17 877.72 575.39L877.33 576.74L876.96 577.94C876.83 578.34 876.71 578.73 876.58 579.11C876.36 579.75 876.13 580.39 875.82 581.18L875.37 582.37L876.37 581.81C881.168 579.329 885.413 575.902 888.851 571.736C892.288 567.57 894.846 562.751 896.37 557.57C897.912 552.337 898.717 546.915 898.76 541.46C898.808 538.664 898.715 535.867 898.48 533.08C898.24 530.6 897.84 527.92 897.27 524.89C897.03 523.64 896.76 522.35 896.47 521.06C895.62 517.3 894.55 513.38 893.29 509.42C891.892 505.193 890.259 501.046 888.4 497L888.26 496.67C886.51 492.84 884.97 489.82 883.99 487.95C882.91 485.89 882.19 484.78 882.15 484.73L881.78 484.17L881.41 484.82C881.38 484.91 878.68 489.67 875.21 497.05Z" fill="white"/>
<path d="M834.85 580.4C829.361 588.874 824.498 597.737 820.3 606.92C818.022 611.944 816.113 617.128 814.59 622.43C813.043 627.493 812.136 632.731 811.89 638.02C811.83 639.601 811.87 641.184 812.01 642.76C812.296 646.065 813.043 649.313 814.23 652.41C816.067 657.182 819.093 661.406 823.02 664.68L823.49 665.08L823.75 664.41C824.08 663.6 824.43 662.69 824.8 661.72C825.63 659.57 826.55 657 827.55 654.06C828.05 652.61 828.55 651.18 829 649.73C829.45 648.28 829.87 646.83 830.29 645.17C830.63 643.83 830.94 642.36 831.29 640.55L831.68 638.28L832.01 635.79L832.2 633.91L832.27 632.91L832.21 634.52L832.12 636.11L831.92 638.34L831.64 640.63C831.37 642.42 831.12 643.9 830.83 645.28C830.54 646.66 830.23 648.13 829.77 649.93C829.4 651.44 828.96 652.93 828.48 654.38C828 655.83 827.48 657.24 826.93 658.38C826.74 658.83 826.55 659.26 826.37 659.67L825.84 660.82L825.3 661.92C825 662.53 824.69 663.13 824.3 663.92L823.69 665.03L824.78 664.61C829.865 662.787 834.529 659.956 838.492 656.285C842.454 652.614 845.634 648.181 847.84 643.25C850.062 638.269 851.577 633.001 852.34 627.6C852.762 624.836 853.043 622.053 853.18 619.26C853.27 616.77 853.23 614.07 853.07 610.98C853 609.71 852.9 608.4 852.79 607.08C852.45 603.24 851.91 599.21 851.18 595.08C850.343 590.691 849.265 586.351 847.95 582.08L847.84 581.74C846.62 577.74 845.5 574.51 844.77 572.53C844.368 571.363 843.904 570.218 843.38 569.1L843.09 568.48L842.63 569.08C842.63 569.08 839.27 573.54 834.85 580.4Z" fill="white"/>
<path d="M779.02 633.36C771.064 639.578 763.574 646.369 756.61 653.68C752.814 657.685 749.318 661.963 746.15 666.48C743.029 670.757 740.458 675.411 738.5 680.33C737.931 681.803 737.453 683.309 737.07 684.84C736.262 688.062 735.909 691.38 736.02 694.7C736.192 699.808 737.673 704.787 740.32 709.16L740.63 709.7L741.1 709.15C741.67 708.49 742.3 707.75 742.97 706.95C744.45 705.19 746.16 703.05 748.07 700.61C749.01 699.4 749.94 698.21 750.85 696.98C751.76 695.75 752.62 694.52 753.56 693.09C754.32 691.93 755.09 690.65 756.01 689.09L757.12 687.09L758.24 684.84L759.04 683.12L759.45 682.12L758.87 683.62L758.27 685.09L757.35 687.09L756.35 689.16C755.52 690.77 754.79 692.08 754.07 693.29C753.35 694.5 752.57 695.79 751.55 697.29C750.7 698.59 749.81 699.87 748.88 701.07C747.95 702.27 746.97 703.44 746.09 704.39L745.14 705.39L744.26 706.29C743.97 706.59 743.69 706.88 743.4 707.16C742.92 707.64 742.4 708.1 741.79 708.67L740.85 709.53H742.03C747.416 709.479 752.737 708.343 757.675 706.19C762.613 704.037 767.066 700.912 770.77 697C774.496 693.016 777.649 688.533 780.14 683.68C781.438 681.204 782.609 678.664 783.65 676.07C784.55 673.74 785.4 671.17 786.25 668.21C786.6 666.98 786.94 665.71 787.25 664.43C788.18 660.68 788.98 656.7 789.63 652.6C790.263 648.191 790.653 643.751 790.8 639.3V638.94C790.96 634.74 790.94 631.35 790.9 629.24C790.9 626.9 790.72 625.59 790.71 625.53L790.63 624.86L790 625.28C789.98 625.28 785.43 628.32 779.02 633.36Z" fill="white"/>
<path fill-rule="evenodd" clip-rule="evenodd" d="M838.17 644.56L832.25 645.29L833.43 644.13L841.07 636.13C842.96 634.22 844.77 632.13 846.53 630.18L846.63 630.06L848.5 628L852.15 623.89C852.27 623.74 852.4 623.59 852.53 623.45L852.8 623.15C853.19 622.72 853.57 622.28 853.94 621.84L862.65 611.24C864.1 609.41 865.54 607.51 866.93 605.68L869.29 602.58L870.44 601C871.15 600.08 871.86 599.15 872.55 598.21L878.79 589.36L879.27 588.68L879.75 587.99C880.46 586.99 881.18 585.99 881.83 584.99L881.9 584.88L889.15 573.75L893.25 566.92C896.02 562.48 898.55 557.92 901 553.42C901.88 551.83 902.75 550.24 903.63 548.66C904.63 546.75 905.63 544.79 906.63 542.88L906.7 542.73L907.25 541.64L908.36 539.45L910.69 534.87L917.09 521.06L920.96 511.87L921.64 510.25C922.06 509.25 922.47 508.25 922.86 507.31L928 493.61C935.983 471.062 941.936 447.847 945.79 424.24C946.04 422.57 946.27 420.9 946.5 419.24V419.06C946.63 418.06 946.76 417.14 946.89 416.2L947.28 413.38L947.34 412.91C947.56 411.4 947.77 409.84 947.93 408.33L948.67 400.64C948.75 399.78 948.84 398.93 948.92 398.07V397.88C949.08 396.32 949.25 394.71 949.31 393.16L949.74 385.85C949.74 385.22 949.81 384.59 949.85 383.95C949.97 382.17 950.07 380.48 950.07 378.79L950.29 366.57V365.28C950.29 355.54 949.76 346.63 949.04 338.74L950.76 338.53C951.57 346.38 952.19 355.21 952.33 364.89C952.686 384.762 951.371 404.628 948.4 424.28C944.698 448.128 938.865 471.595 930.97 494.4L925.85 508.24C925.46 509.24 925.05 510.24 924.64 511.24L924.3 512.06C924.18 512.34 924.07 512.61 923.96 512.89L920.12 522.21L913.74 536.21L911.41 540.86C910.85 541.96 910.3 543.06 909.75 544.16L909.68 544.3C908.68 546.23 907.68 548.23 906.68 550.19C905.8 551.77 904.93 553.357 904.07 554.95C901.59 559.48 899.07 564.18 896.22 568.7L892.09 575.61L884.72 587C884.08 588 883.35 589.06 882.66 590L882.6 590.09C882.27 590.54 881.95 591 881.6 591.46L875.31 600.46C874.76 601.22 874.19 601.97 873.62 602.72C873.46 602.93 873.31 603.14 873.15 603.34L872.79 603.81C872.53 604.16 872.26 604.51 872 604.87L869.64 607.97C868.24 609.84 866.78 611.77 865.3 613.65L856.5 624.37C856.13 624.82 855.76 625.24 855.37 625.67L855.31 625.75L854.67 626.47L850.98 630.65L849.13 632.75L848.93 632.98C847.18 634.98 845.37 636.98 843.48 638.93L838.17 644.56Z" fill="white"/>
<path fill-rule="evenodd" clip-rule="evenodd" d="M818 378.5C818 553.3 676.3 695 501.5 695C326.7 695 185 553.3 185 378.5C185 203.7 326.7 62 501.5 62C676.3 62 818 203.7 818 378.5ZM738 378.5C738 509.11 632.11 615 501.5 615C370.88 615 265 509.12 265 378.5C265 247.88 370.89 142 501.5 142C632.11 142 738 247.89 738 378.5ZM341 135.89C332.43 141.54 324.13 147.53 316 153.89L336.55 179.64C343.802 173.824 351.352 168.39 359.17 163.36L355.89 158.26C350.25 161.98 344.78 165.79 339.33 169.79C339.031 169.392 338.754 169.024 338.493 168.678C338.113 168.174 337.767 167.714 337.432 167.27L337.415 167.247C336.498 166.031 335.667 164.928 334.47 163.33C339.42 159.59 344.55 155.97 349.77 152.59C348.988 151.405 348.457 150.589 347.863 149.677L347.523 149.155L347.17 148.614C347.019 148.384 346.861 148.141 346.69 147.88C341.38 151.43 336.23 155.05 331.08 158.83L326.86 153.21C332.533 148.937 338.35 144.877 344.31 141.03C343.08 139.095 342.414 138.069 341.236 136.253L341 135.89ZM360.48 154.12C363.28 152.41 364.69 151.57 367.48 149.95L371.02 156.13C368.25 157.71 366.88 158.53 364.15 160.2L360.48 154.12ZM361.8 130.53C365.97 128.23 368.07 127.12 372.31 125C376.31 133 380.29 141.003 384.25 149.01C387.07 147.6 388.48 146.92 391.32 145.6C387.566 137.487 383.81 129.373 380.05 121.26C384.33 119.27 386.49 118.33 390.83 116.52C390.229 115.06 389.816 114.072 389.345 112.945C389.088 112.328 388.813 111.67 388.48 110.87C378.35 115.22 368.53 119.96 358.8 125.17C359.751 126.838 360.319 127.862 361.086 129.245L361.367 129.751C361.503 129.996 361.647 130.254 361.8 130.53ZM402.38 133.14C405.38 131.96 406.87 131.38 409.89 130.29L412.32 136.98C409.38 138.05 407.92 138.6 405 139.76C404.347 138.037 403.878 136.872 403.338 135.533L403.338 135.532L403.337 135.53C403.05 134.819 402.744 134.059 402.38 133.14ZM432.74 96.46C429.35 97.27 427.69 97.71 424.35 98.63L433.11 130.4C435.421 129.718 436.778 129.389 438.79 128.901C439.028 128.844 439.275 128.784 439.533 128.721C439.719 128.675 439.911 128.629 440.11 128.58C438.363 121.433 436.61 114.29 434.85 107.15H434.95C441.71 113.05 448.21 119.13 454.54 125.49C457.57 124.92 459.08 124.66 462.13 124.18L456.99 91.64C453.79 92.15 452.19 92.42 448.99 93.01C450.323 100.263 451.657 107.51 452.99 114.75H452.89C446.37 108.4 439.69 102.34 432.74 96.46ZM472 89.65C476.52 89.17 480.36 91.94 480.65 95.65C480.94 99.36 477.76 102.75 473.45 103.2C469.14 103.65 465.31 101.1 464.8 97.33C464.29 93.56 467.52 90.12 472 89.65ZM473.15 100.46C474.26 100.359 475.291 99.8402 476.033 99.0086C476.776 98.177 477.175 97.0946 477.15 95.98C476.96 93.8 474.63 92.17 472.25 92.42C471.671 92.4038 471.095 92.5117 470.561 92.7366C470.027 92.9614 469.548 93.2979 469.154 93.7234C468.761 94.1489 468.464 94.6537 468.282 95.2037C468.1 95.7538 468.038 96.3363 468.1 96.9124C468.162 97.4884 468.346 98.0445 468.641 98.5433C468.936 99.0421 469.334 99.4721 469.808 99.8043C470.283 100.137 470.823 100.363 471.392 100.47C471.962 100.576 472.548 100.559 473.11 100.42L473.15 100.46ZM486.522 96.3427C485.907 98.0166 485.651 99.8009 485.77 101.58C488.64 101.41 490.08 101.34 492.95 101.24C492.82 97.83 494.1 93.73 498.67 93.65C501.95 93.59 504.35 95.59 504.35 98.59C504.316 102.035 501.017 103.997 498.064 105.753L498.064 105.753L498.058 105.756C497.585 106.038 497.12 106.314 496.68 106.59C491.14 109.77 485.67 114.49 486.22 121.49C494.66 121.03 503.04 120.9 511.5 121.03C511.518 120.447 511.534 119.938 511.548 119.466C511.56 119.051 511.572 118.664 511.583 118.279L511.585 118.226L511.585 118.209L511.586 118.182L511.587 118.164C511.611 117.336 511.636 116.502 511.67 115.4C506.12 115.2 500.54 115.21 495 115.4C496.907 112.774 499.87 111.031 502.742 109.342C503.589 108.844 504.428 108.35 505.23 107.84C508.75 105.6 511.86 102.96 511.94 98.17C512.03 91.35 504.76 88.08 498.94 88C497.158 87.9359 495.382 88.2465 493.728 88.9118C492.074 89.5771 490.578 90.5823 489.336 91.8623C488.095 93.1424 487.136 94.6687 486.522 96.3427ZM535.11 98.61C534.968 97.4353 534.425 96.3456 533.572 95.5255C532.719 94.7054 531.609 94.2053 530.43 94.11C524.9 93.61 522.99 99.79 522.55 103.35L522.65 103.45C524.85 101.05 527.65 100.22 531.26 100.55C537.26 101.09 541.99 106.14 541.14 112.28C540.23 118.88 533.94 122.94 527.66 122.63C518.72 122.19 514.83 112.73 515.18 105.11C515.58 96.47 521.43 88.35 531.03 89.21C536.59 89.71 542.16 93.35 542.27 99.47C539.4 99.09 538 98.92 535.11 98.61ZM522.74 110.81C522.655 111.573 522.723 112.346 522.94 113.082C523.156 113.819 523.517 114.505 524 115.102C524.484 115.698 525.081 116.192 525.758 116.556C526.434 116.919 527.176 117.145 527.94 117.22C531.34 117.52 533.55 114.79 533.86 111.88C534.17 108.97 532.8 105.63 529.01 105.29C525.22 104.95 523 107.63 522.74 110.81ZM582.68 98.49C577.2 96.99 571.65 95.65 566.08 94.49C563.806 105.23 561.52 115.97 559.22 126.71C565.17 127.97 568.13 128.68 574 130.28C583 133.34 591.76 127.7 594.68 119.18C597.92 109.87 592.22 100.57 582.68 98.49ZM568.249 122.492C570.983 123.151 572.343 123.491 575.06 124.24C579.5 125.44 584.33 123.96 586.61 117.24C588.73 111.09 585.75 105.02 579.04 103.77C576.69 103.15 575.51 102.85 573.15 102.28C571.513 109.047 569.879 115.785 568.249 122.492ZM597.12 130.13C600.12 131.22 601.65 131.79 604.64 132.97L602 139.6C599.08 138.45 597.62 137.89 594.68 136.83C595.67 134.15 596.16 132.81 597.12 130.13ZM649.02 125.42C640.15 120.64 631.19 116.17 621.94 112.17L608.84 142.46C617.17 146.18 625.28 150.15 633.28 154.46L636.28 149.15C630.45 145.98 624.64 143.01 618.64 140.15L622.04 132.81C627.57 135.35 633.06 138.12 638.39 141.05L641.09 136.11C635.65 133.12 630.05 130.29 624.41 127.7C625.416 125.597 625.994 124.358 626.833 122.557L626.837 122.549L626.881 122.455C627.045 122.102 627.22 121.727 627.41 121.32C633.73 124.247 639.933 127.397 646.02 130.77C647.079 128.913 647.663 127.861 648.577 126.217L648.58 126.212L649.02 125.42ZM642.08 151.18C644.91 152.83 646.31 153.68 649.08 155.42L645.31 161.42C642.59 159.72 641.22 158.89 638.47 157.29L642.08 151.18ZM679.563 152.277C679.913 153.446 679.851 154.7 679.39 155.83C681.81 157.65 683 158.58 685.35 160.51C688.48 154.95 685.06 148.84 680.48 145.51C672.59 139.77 663.12 143.21 658.2 150.68C653.84 157.3 652.89 167.47 660.43 172.47C665.71 175.99 673.52 176.25 677.82 170.91C681.82 165.94 679.86 158.99 674.91 155.4C671.86 153.19 668.91 152.37 665.72 153.25V153.12C667.92 150.28 672.77 145.98 677.47 149.4C678.475 150.092 679.214 151.107 679.563 152.277ZM661.116 161.752C661.296 160.987 661.628 160.266 662.09 159.63C662.511 158.942 663.076 158.352 663.746 157.902C664.415 157.452 665.174 157.152 665.971 157.022C666.767 156.892 667.582 156.935 668.361 157.149C669.139 157.362 669.862 157.741 670.48 158.26C673.7 160.57 673.32 164.13 671.48 166.57C671.049 167.19 670.499 167.718 669.862 168.124C669.225 168.53 668.514 168.806 667.77 168.935C667.026 169.064 666.264 169.045 665.527 168.877C664.791 168.71 664.095 168.398 663.48 167.96C662.836 167.509 662.289 166.934 661.869 166.269C661.45 165.604 661.168 164.862 661.038 164.086C660.909 163.311 660.935 162.518 661.116 161.752ZM237.096 418.167L236.435 410.893C237.364 410.676 238.175 410.329 238.869 409.854C239.573 409.378 240.156 408.795 240.618 408.106C241.08 407.417 241.412 406.64 241.612 405.773C241.813 404.918 241.87 404.003 241.781 403.029C241.621 401.269 241.044 399.775 240.051 398.547C239.069 397.319 237.714 396.419 235.988 395.849C234.273 395.278 232.236 395.099 229.878 395.311C227.453 395.529 225.449 396.072 223.865 396.94C222.282 397.819 221.129 398.95 220.406 400.332C219.683 401.714 219.4 403.263 219.556 404.979C219.643 405.942 219.852 406.822 220.181 407.618C220.511 408.426 220.949 409.129 221.494 409.727C222.051 410.324 222.703 410.801 223.449 411.158C224.197 411.526 225.033 411.752 225.956 411.837L226.584 419.113C225.005 419.065 223.457 418.73 221.938 418.108C220.431 417.496 219.051 416.61 217.795 415.451C216.552 414.301 215.52 412.887 214.697 411.209C213.887 409.541 213.383 407.616 213.185 405.435C212.909 402.402 213.349 399.628 214.504 397.113C215.661 394.609 217.477 392.548 219.953 390.931C222.43 389.324 225.518 388.354 229.215 388.021C232.924 387.687 236.143 388.101 238.872 389.261C241.6 390.422 243.754 392.137 245.334 394.405C246.924 396.673 247.855 399.302 248.127 402.291C248.306 404.261 248.195 406.113 247.794 407.845C247.395 409.589 246.723 411.162 245.779 412.564C244.846 413.965 243.653 415.144 242.199 416.1C240.747 417.068 239.046 417.757 237.096 418.167ZM230.206 456.075C233.072 456.862 236.321 456.835 239.952 455.994C243.584 455.153 246.514 453.749 248.742 451.782C250.973 449.826 252.482 447.512 253.268 444.84C254.067 442.177 254.127 439.376 253.446 436.439C252.761 433.479 251.474 430.979 249.585 428.938C247.707 426.895 245.336 425.485 242.472 424.709C239.608 423.933 236.361 423.966 232.729 424.807C229.109 425.646 226.183 427.043 223.952 428.999C221.721 430.954 220.206 433.264 219.406 435.928C218.607 438.591 218.55 441.403 219.235 444.362C219.916 447.3 221.195 449.79 223.073 451.834C224.964 453.885 227.342 455.299 230.206 456.075ZM244.005 446.42C242.553 447.499 240.651 448.311 238.299 448.855C235.947 449.4 233.881 449.507 232.103 449.177C230.327 448.857 228.875 448.16 227.747 447.085C226.618 446.01 225.857 444.622 225.463 442.92C225.069 441.218 225.142 439.636 225.683 438.174C226.224 436.713 227.22 435.443 228.672 434.364C230.127 433.296 232.03 432.49 234.383 431.945C236.735 431.4 238.799 431.288 240.575 431.607C242.353 431.938 243.806 432.641 244.935 433.716C246.063 434.791 246.825 436.179 247.219 437.881C247.613 439.583 247.539 441.165 246.999 442.626C246.458 444.088 245.46 445.352 244.005 446.42ZM257.735 456.391L261.048 464.665L243.226 481.941L243.375 482.312L268.195 482.515L271.507 490.789L239.775 503.494L237.169 496.987L257.823 488.717L257.718 488.454L233.931 488.449L232.156 484.018L249.445 467.567L249.34 467.304L228.608 475.604L226.002 469.096L257.735 456.391ZM274.391 495.075L244.653 512.166L248.266 518.453L257.908 512.912L260.946 518.197C262.259 520.482 263.798 522.186 265.564 523.309C267.335 524.441 269.22 525 271.22 524.984C273.22 524.968 275.207 524.392 277.182 523.257C279.157 522.122 280.657 520.7 281.683 518.99C282.725 517.284 283.215 515.392 283.155 513.315C283.104 511.232 282.43 509.063 281.134 506.807L274.391 495.075ZM262.947 510.016L265.4 514.285C266.096 515.495 266.877 516.373 267.744 516.918C268.626 517.467 269.551 517.721 270.519 517.679C271.502 517.642 272.482 517.343 273.46 516.781C274.447 516.214 275.195 515.52 275.703 514.7C276.225 513.885 276.462 512.963 276.412 511.936C276.372 510.903 276.002 509.776 275.301 508.556L272.864 504.316L262.947 510.016ZM301.961 537.904L306.312 543.675L288.586 557.037C286.596 558.538 284.496 559.375 282.286 559.55C280.084 559.733 277.925 559.291 275.811 558.224C273.705 557.149 271.801 555.484 270.1 553.227C268.392 550.961 267.312 548.668 266.859 546.348C266.415 544.022 266.584 541.825 267.367 539.758C268.15 537.691 269.536 535.907 271.526 534.407L289.252 521.044L293.602 526.815L276.37 539.806C275.33 540.59 274.577 541.513 274.11 542.575C273.65 543.647 273.503 544.774 273.671 545.958C273.838 547.141 274.341 548.289 275.178 549.399C276.022 550.519 276.986 551.318 278.071 551.796C279.163 552.282 280.284 552.448 281.434 552.291C282.591 552.144 283.689 551.678 284.729 550.895L301.961 537.904ZM308.976 546.769L304.704 550.923L312 558.425L291.766 578.102L296.746 583.223L316.98 563.547L324.276 571.049L328.547 566.895L308.976 546.769ZM311.462 597.144L305.479 592.227L336.297 573.309L343.492 579.222L330.896 613.112L324.912 608.196L327.905 600.567L318.37 592.732L311.462 597.144ZM335.039 582.385L330.072 595.045L323.369 589.538L334.833 582.216L335.039 582.385ZM367.251 609.987L373.449 613.863C374.301 612.06 374.78 610.286 374.887 608.542C375.003 606.803 374.784 605.138 374.232 603.546C373.685 601.944 372.837 600.456 371.689 599.081C370.55 597.713 369.141 596.504 367.461 595.453C364.914 593.861 362.256 593.012 359.487 592.907C356.723 592.793 354.054 593.473 351.479 594.947C348.904 596.421 346.628 598.738 344.652 601.898C342.681 605.049 341.588 608.099 341.371 611.047C341.164 614.002 341.709 616.698 343.005 619.136C344.312 621.581 346.257 623.611 348.842 625.227C350.701 626.39 352.54 627.153 354.36 627.516C356.195 627.877 357.946 627.909 359.614 627.613C361.297 627.314 362.838 626.749 364.237 625.918C365.652 625.083 366.855 624.051 367.847 622.821L361.667 618.917C361.041 619.602 360.356 620.131 359.61 620.505C358.874 620.884 358.1 621.115 357.287 621.198C356.481 621.271 355.656 621.194 354.812 620.969C353.979 620.749 353.151 620.383 352.33 619.87C350.868 618.955 349.805 617.791 349.14 616.378C348.475 614.965 348.271 613.361 348.527 611.566C348.793 609.777 349.572 607.849 350.864 605.783C352.121 603.773 353.495 602.258 354.987 601.235C356.485 600.204 358.021 599.668 359.595 599.628C361.174 599.579 362.714 600.024 364.214 600.962C365.044 601.481 365.739 602.08 366.299 602.758C366.868 603.442 367.288 604.177 367.558 604.963C367.828 605.748 367.94 606.566 367.894 607.417C367.853 608.258 367.639 609.114 367.251 609.987ZM390.987 608.974L375.687 639.54L369.224 636.305L384.524 605.739L390.987 608.974ZM413.786 647.396C416.042 645.473 417.84 642.778 419.182 639.311C420.524 635.845 421.009 632.641 420.636 629.701C420.273 626.764 419.21 624.223 417.447 622.077C415.698 619.924 413.422 618.305 410.618 617.22C407.793 616.126 405.009 615.786 402.267 616.2C399.529 616.604 397.037 617.769 394.792 619.696C392.546 621.623 390.753 624.32 389.411 627.787C388.073 631.243 387.585 634.439 387.948 637.376C388.31 640.312 389.366 642.857 391.115 645.009C392.864 647.162 395.151 648.785 397.976 649.878C400.78 650.964 403.551 651.305 406.289 650.901C409.042 650.491 411.541 649.323 413.786 647.396ZM413.558 630.602C413.634 632.404 413.237 634.428 412.368 636.673C411.499 638.919 410.43 640.682 409.16 641.964C407.901 643.249 406.512 644.056 404.993 644.384C403.473 644.712 401.902 644.562 400.277 643.933C398.652 643.304 397.389 642.357 396.487 641.092C395.584 639.826 395.095 638.292 395.02 636.49C394.954 634.692 395.356 632.67 396.225 630.425C397.094 628.179 398.159 626.414 399.418 625.128C400.687 623.847 402.082 623.042 403.601 622.714C405.12 622.385 406.692 622.536 408.316 623.165C409.941 623.794 411.204 624.741 412.107 626.006C413.009 627.272 413.493 628.804 413.558 630.602ZM415.289 607.873L409.264 613.662L413.936 615.47L421.404 610.24L415.289 607.873ZM457.705 630.794L449.969 664.089L443.889 662.676L434.272 638.355L434.028 638.298L429.16 659.254L422.12 657.618L429.856 624.323L436.034 625.759L445.54 650.037L445.833 650.105L450.698 629.166L457.705 630.794ZM536.735 666.729L544.359 665.368L545.486 657.25L557.635 655.081L561.496 662.31L569.12 660.949L551.514 629.369L542.346 631.006L536.735 666.729ZM554.841 649.849L548.434 637.854L548.171 637.901L546.301 651.374L554.841 649.849ZM586.512 619.856L593.392 617.644L600.185 638.777C600.948 641.15 601.049 643.408 600.487 645.552C599.937 647.693 598.81 649.586 597.106 651.232C595.4 652.868 593.201 654.118 590.511 654.983C587.809 655.851 585.289 656.118 582.949 655.783C580.605 655.438 578.586 654.556 576.891 653.137C575.196 651.719 573.968 649.823 573.205 647.45L566.412 626.317L573.292 624.105L579.896 644.651C580.294 645.89 580.919 646.905 581.769 647.695C582.63 648.482 583.646 648.991 584.819 649.222C585.992 649.452 587.24 649.355 588.565 648.929C589.899 648.5 590.971 647.852 591.779 646.984C592.597 646.113 593.122 645.109 593.352 643.972C593.593 642.831 593.515 641.64 593.116 640.401L586.512 619.856ZM597.151 616.155L599.68 621.55L609.156 617.109L621.133 642.665L627.601 639.634L615.624 614.078L625.1 609.637L622.571 604.242L597.151 616.155ZM660.565 600.736C662.557 603.887 663.654 606.945 663.857 609.91C664.069 612.87 663.519 615.581 662.206 618.043C660.896 620.49 658.967 622.519 656.418 624.13C653.851 625.754 651.178 626.627 648.4 626.751C645.621 626.875 642.941 626.207 640.359 624.746C637.777 623.284 635.492 620.983 633.507 617.842C631.515 614.691 630.413 611.636 630.201 608.677C629.988 605.717 630.537 603.014 631.847 600.567C633.15 598.111 635.086 596.071 637.654 594.448C640.202 592.837 642.866 591.969 645.644 591.845C648.426 591.706 651.108 592.366 653.69 593.828C656.282 595.283 658.573 597.586 660.565 600.736ZM654.372 604.651C653.082 602.611 651.688 601.083 650.191 600.068C648.703 599.047 647.18 598.522 645.622 598.494C644.063 598.465 642.546 598.918 641.069 599.851C639.593 600.785 638.533 601.961 637.891 603.381C637.248 604.801 637.064 606.405 637.339 608.193C637.623 609.974 638.41 611.886 639.7 613.927C640.99 615.968 642.379 617.499 643.867 618.519C645.364 619.534 646.892 620.056 648.45 620.085C650.008 620.113 651.526 619.661 653.002 618.727C654.479 617.794 655.539 616.617 656.181 615.197C656.824 613.777 657.003 612.177 656.719 610.395C656.445 608.607 655.662 606.692 654.372 604.651ZM661.803 577.959L655.076 583.805L677.496 609.607L682.788 605.008L668.14 588.152L668.354 587.966L689.57 598.894L693.173 595.763L685.366 573.293L685.58 573.107L700.173 589.901L705.465 585.303L683.044 559.501L676.316 565.348L684.275 588.857L683.973 589.12L661.803 577.959ZM719.754 542.904C722.594 545.318 724.554 547.909 725.632 550.679C726.717 553.441 727 556.192 726.481 558.934C725.96 561.66 724.724 564.173 722.772 566.471C720.805 568.786 718.514 570.417 715.899 571.363C713.285 572.31 710.527 572.471 707.626 571.847C704.726 571.222 701.86 569.707 699.027 567.301C696.187 564.887 694.224 562.3 693.139 559.538C692.054 556.777 691.771 554.033 692.292 551.307C692.803 548.573 694.043 546.049 696.009 543.734C697.962 541.436 700.245 539.814 702.86 538.867C705.474 537.904 708.231 537.736 711.131 538.36C714.039 538.976 716.913 540.491 719.754 542.904ZM715.01 548.488C713.17 546.925 711.384 545.882 709.652 545.36C707.927 544.829 706.317 544.783 704.821 545.22C703.326 545.657 702.012 546.542 700.881 547.873C699.75 549.204 699.089 550.643 698.899 552.19C698.71 553.737 699.012 555.323 699.807 556.948C700.61 558.564 701.931 560.153 703.771 561.717C705.611 563.28 707.394 564.327 709.118 564.858C710.85 565.38 712.464 565.422 713.96 564.985C715.456 564.548 716.769 563.663 717.9 562.332C719.031 561 719.692 559.561 719.882 558.015C720.071 556.468 719.765 554.886 718.963 553.27C718.168 551.645 716.85 550.051 715.01 548.488ZM707.809 530.184L712.794 533.448L718.526 524.692L742.139 540.15L746.052 534.174L722.438 518.715L728.17 509.96L723.185 506.696L707.809 530.184ZM753.622 483.66C756.977 485.3 759.52 487.331 761.251 489.753C762.988 492.166 763.943 494.767 764.118 497.557C764.287 500.332 763.708 503.077 762.382 505.791C761.045 508.525 759.225 510.675 756.921 512.241C754.617 513.807 751.979 514.645 749.009 514.757C746.039 514.868 742.881 514.106 739.537 512.471C736.182 510.831 733.636 508.804 731.9 506.392C730.163 503.98 729.21 501.386 729.041 498.611C728.862 495.83 729.44 493.073 730.777 490.34C732.104 487.626 733.919 485.486 736.223 483.92C738.522 482.339 741.157 481.493 744.127 481.382C747.102 481.26 750.267 482.02 753.622 483.66ZM750.398 490.254C748.225 489.192 746.233 488.621 744.423 488.543C742.617 488.454 741.043 488.807 739.699 489.602C738.355 490.397 737.299 491.58 736.53 493.152C735.761 494.724 735.476 496.285 735.674 497.834C735.873 499.382 736.559 500.847 737.733 502.227C738.912 503.598 740.587 504.814 742.761 505.876C744.934 506.939 746.923 507.514 748.728 507.603C750.539 507.681 752.116 507.323 753.46 506.529C754.804 505.734 755.86 504.55 756.629 502.978C757.397 501.406 757.682 499.846 757.484 498.297C757.286 496.748 756.597 495.289 755.419 493.918C754.245 492.538 752.571 491.317 750.398 490.254ZM739.904 471.815L772.308 482.695L774.608 475.844L763.121 471.987L764.8 466.986L778.348 464.705L780.888 457.142L765.99 459.791C765.986 459.744 765.982 459.698 765.978 459.651C765.971 459.585 765.964 459.519 765.956 459.453C765.725 457.415 764.995 455.674 763.767 454.228C762.528 452.78 760.833 451.694 758.681 450.971C756.539 450.252 754.524 450.086 752.633 450.473C750.736 450.845 749.063 451.756 747.613 453.206C746.157 454.642 745.018 456.584 744.196 459.031L739.904 471.815ZM759.177 465.487L757.615 470.139L747.805 466.845L749.356 462.225C749.799 460.906 750.361 459.88 751.042 459.146C751.715 458.398 752.492 457.937 753.372 457.763C754.256 457.579 755.235 457.667 756.311 458.028C757.377 458.386 758.195 458.901 758.768 459.575C759.343 460.237 759.665 461.062 759.733 462.047C759.802 463.032 759.616 464.179 759.177 465.487ZM782.583 449.867L749.084 442.689L753.921 420.117L759.761 421.368L756.441 436.858L764.423 438.568L767.494 424.24L773.333 425.491L770.263 439.819L778.261 441.533L781.594 425.978L787.434 427.229L782.583 449.867ZM762.843 398.957C763.677 398.016 764.769 397.54 766.121 397.527L766.747 390.636C764.718 390.487 762.886 390.869 761.252 391.782C759.617 392.695 758.282 394.06 757.246 395.875C756.212 397.679 755.58 399.843 755.35 402.368C755.125 404.847 755.355 407.1 756.042 409.127C756.728 411.153 757.79 412.794 759.227 414.051C760.666 415.296 762.415 416.006 764.475 416.181C766.988 416.418 769.061 415.773 770.695 414.246C772.33 412.719 773.626 410.553 774.585 407.748L775.851 404.129C776.263 402.916 776.69 401.9 777.133 401.08C777.577 400.249 778.079 399.636 778.64 399.24C779.201 398.833 779.864 398.664 780.628 398.733C781.447 398.806 782.15 399.121 782.736 399.676C783.321 400.231 783.75 400.978 784.022 401.918C784.295 402.846 784.376 403.92 784.265 405.137C784.152 406.377 783.863 407.473 783.397 408.424C782.921 409.364 782.28 410.093 781.474 410.612C780.657 411.119 779.675 411.36 778.528 411.335L777.896 418.292C780.347 418.457 782.455 418.05 784.218 417.07C785.972 416.078 787.361 414.607 788.387 412.657C789.413 410.696 790.052 408.342 790.301 405.597C790.553 402.829 790.352 400.428 789.7 398.394C789.038 396.348 787.996 394.736 786.573 393.559C785.141 392.37 783.385 391.676 781.304 391.477C779.886 391.361 778.606 391.508 777.464 391.919C776.322 392.318 775.306 392.935 774.415 393.77C773.525 394.605 772.746 395.618 772.08 396.808C771.414 397.998 770.847 399.32 770.38 400.774L769.371 403.763C769.138 404.49 768.875 405.17 768.583 405.802C768.28 406.433 767.946 406.983 767.579 407.453C767.202 407.921 766.773 408.279 766.293 408.526C765.814 408.762 765.271 408.841 764.664 408.764C763.933 408.698 763.299 408.429 762.762 407.957C762.225 407.473 761.833 406.813 761.586 405.976C761.327 405.138 761.251 404.132 761.358 402.958C761.515 401.231 762.01 399.898 762.843 398.957Z" fill="white"/>
<path d="M213.5 755.5C259 763 236.5 758 64 709.162L152.062 683.867L122.92 612C207.408 647.083 255.633 656.775 347.817 669.699L225.5 711.5L213.5 755.5Z" fill="#DCDCDC"/>
<path d="M799.317 755.5C753.817 763 776.317 758 948.817 709.162L860.755 683.867L889.896 612C805.409 647.083 757.184 656.775 665 669.699L787.317 711.5L799.317 755.5Z" fill="#DCDCDC"/>
<path d="M343.094 692.844L347.817 669.693L223.589 669.351C221.967 680.61 260.236 678.724 285.766 683.242C300.74 685.91 343.094 692.844 343.094 692.844Z" fill="#323232"/>
<path d="M660.776 692.844L656.053 669.693C656.053 669.693 780.665 667.067 780.503 669.351C779.764 681.83 743.604 678.724 718.134 683.242C703.136 685.91 660.776 692.844 660.776 692.844Z" fill="#323232"/>
<path fill-rule="evenodd" clip-rule="evenodd" d="M819.157 773.236C612.521 825.846 391.614 825.846 185.008 773.236C197.872 738.616 210.737 703.977 223.595 669.351C405.055 715.537 599.085 715.537 780.509 669.351C793.404 703.977 806.298 738.616 819.157 773.236ZM249.552 729.808C249.774 726.84 247.311 724.004 243.958 723.247C237.865 721.871 234.452 726.143 233.275 731.196C232.145 736.021 233.335 741.434 239.53 742.84C243.73 743.789 246.698 741.62 248.068 737.937C250.718 738.52 252.046 738.809 254.695 739.373C252.532 746.469 245.118 749.54 238.322 748.164C229.85 746.451 224.508 737.631 226.437 729.574C228.342 721.606 236.76 715.754 245.172 717.881C251.229 719.413 256.774 724.412 256.174 731.25C253.524 730.679 252.196 730.391 249.552 729.808ZM290.261 743.051C291.781 734.717 285.953 726.738 277.889 724.785C269.297 722.712 261.197 729.009 259.521 737.012C257.821 745.118 263.174 753.932 271.905 755.254C280.064 756.485 288.723 751.48 290.261 743.051ZM283.369 741.777C282.45 746.638 279.181 751.12 272.956 749.894C266.731 748.675 265.397 743.291 266.383 738.436C267.422 733.353 270.703 728.985 276.826 730.187C282.949 731.394 284.331 736.682 283.369 741.777ZM305.225 730.542L305.227 730.542L305.499 730.589C308.683 737.877 311.934 745.135 315.251 752.364C315.263 752.366 315.273 752.367 315.281 752.368L315.293 752.37L315.312 752.372C315.319 752.373 315.326 752.374 315.335 752.376C315.858 749.099 316.383 745.821 316.909 742.543C317.432 739.275 317.955 736.007 318.477 732.74C321.025 733.149 322.299 733.347 324.853 733.743L324.718 734.615L324.696 734.759L324.685 734.829C323.233 744.231 321.78 753.632 320.328 763.029L320.07 762.988C317.457 762.582 316.065 762.366 313.376 761.935C310.023 754.713 306.737 747.461 303.516 740.178C303.498 740.175 303.486 740.174 303.474 740.172C303.462 740.171 303.45 740.169 303.432 740.166C302.817 743.733 302.204 747.3 301.591 750.868L301.591 750.868L301.591 750.868L301.591 750.868L301.591 750.868L301.591 750.868L301.591 750.869L301.591 750.869L301.591 750.869L301.591 750.869L301.591 750.869L301.591 750.869L301.591 750.869L301.591 750.87L301.591 750.87L301.589 750.878L301.588 750.886L301.586 750.894L301.585 750.903L301.584 750.911C301.079 753.85 300.573 756.789 300.067 759.73C297.459 759.279 296.155 759.051 293.548 758.588C294.47 753.38 295.395 748.174 296.319 742.97C297.122 738.448 297.925 733.927 298.727 729.405C301.337 729.869 302.693 730.104 305.222 730.541L305.225 730.542ZM354.096 737.884C346.808 736.946 339.531 735.937 332.261 734.861L331.954 736.929C330.609 746.015 329.263 755.096 327.929 764.176C330.729 764.591 332.129 764.795 334.935 765.192C335.277 762.771 335.535 760.956 335.794 759.141C336.052 757.327 336.311 755.512 336.653 753.091C341.917 753.842 344.554 754.196 349.824 754.887C350.066 753.001 350.197 752.001 350.431 750.225L350.431 750.221L350.479 749.858C345.227 749.167 342.608 748.813 337.362 748.068L337.842 744.685L338.323 741.296C344.344 742.156 347.36 742.564 353.393 743.339C353.534 742.251 353.639 741.433 353.744 740.616L353.744 740.615L353.747 740.596L353.747 740.59C353.852 739.778 353.956 738.964 354.096 737.884ZM359.131 738.526C366.882 739.493 374.651 740.376 382.42 741.188C382.307 742.272 382.222 743.089 382.137 743.903L382.127 744.004L381.923 745.953L381.849 746.661C375.24 745.97 371.935 745.604 365.332 744.823C365.175 746.131 365.061 747.098 364.945 748.08L364.944 748.092L364.943 748.098C364.837 748.996 364.73 749.909 364.587 751.108C370.673 751.829 373.72 752.171 379.813 752.814C379.602 754.833 379.494 755.842 379.278 757.855C373.155 757.212 370.097 756.87 363.986 756.143C363.815 757.585 363.687 758.666 363.56 759.747C363.432 760.832 363.304 761.917 363.133 763.365C368.829 764.044 374.537 764.681 380.245 765.269C380.141 766.265 380.061 767.032 379.984 767.78L379.982 767.802L379.978 767.837L379.974 767.877L379.972 767.895C379.885 768.741 379.799 769.576 379.68 770.701C371.599 769.86 363.529 768.941 355.466 767.937C356.691 758.125 357.911 748.326 359.131 738.526ZM402.104 743.069C396.727 742.6 394.035 742.348 388.663 741.819L387.921 749.31L387.903 749.496L387.903 749.499L387.902 749.503L387.902 749.506L387.902 749.51L387.901 749.513L387.901 749.516C387.182 756.782 386.462 764.047 385.743 771.302C391.259 771.849 394.011 772.107 399.527 772.588C407.861 773.201 414.518 766.898 415.161 758.835C415.798 750.928 410.096 743.886 402.104 743.069ZM399.497 767.108C397.015 766.892 395.771 766.778 393.29 766.55C393.867 760.349 394.443 754.154 395.02 747.96C396.979 748.14 397.958 748.23 399.923 748.404C406.785 749.011 408.636 752.971 408.155 758.925C407.626 765.468 403.553 767.463 399.497 767.108ZM422.107 744.648C429.894 745.195 437.681 745.664 445.48 746.055C445.426 747.154 445.384 747.979 445.342 748.803V748.804C445.3 749.628 445.258 750.453 445.204 751.552C438.571 751.222 435.26 751.029 428.632 750.603C428.553 751.841 428.492 752.777 428.431 753.708L428.428 753.761C428.366 754.708 428.305 755.656 428.224 756.918C434.335 757.308 437.393 757.489 443.504 757.801C443.481 758.242 443.461 758.635 443.443 759.001L443.409 759.655L443.374 760.334C443.335 761.094 443.296 761.854 443.245 762.866C437.104 762.554 434.034 762.373 427.899 761.977C427.806 763.428 427.736 764.517 427.665 765.606C427.594 766.695 427.524 767.784 427.431 769.235C433.151 769.608 438.877 769.932 444.603 770.214L444.333 775.67C436.227 775.267 428.128 774.781 420.034 774.21C420.719 764.356 421.41 754.502 422.107 744.648ZM468.578 746.98C462.966 746.818 457.354 746.608 451.742 746.349C451.297 756.215 450.853 766.087 450.414 775.947C453.238 776.073 454.65 776.133 457.474 776.241L457.925 764.657L457.937 764.657C460.705 764.765 462.093 764.819 464.871 764.909C468.41 765.029 469.671 766.465 470.05 769.554C470.147 770.338 470.191 771.173 470.235 772.009V772.01V772.01C470.325 773.712 470.416 775.417 470.951 776.698C473.775 776.776 475.187 776.812 478.011 776.872C477.013 775.472 476.919 772.79 476.853 770.876C476.84 770.498 476.828 770.15 476.81 769.848C476.635 766.886 475.77 763.689 472.387 762.776V762.698C475.914 761.46 477.483 758.895 477.561 755.398C477.663 750.916 474.178 747.148 468.578 746.98ZM465.7 760.301C462.659 760.205 461.139 760.151 458.105 760.03C458.231 756.702 458.297 755.031 458.429 751.703C461.446 751.823 462.954 751.877 465.97 751.973C469.053 752.075 470.687 753.379 470.603 756.245C470.519 759.231 468.806 760.403 465.7 760.301ZM493.436 747.479L493.445 747.479H493.446C496.263 747.503 497.669 747.515 500.49 747.521C504.383 757.422 508.349 767.294 512.387 777.136C509.461 777.154 507.994 777.16 505.068 777.16C504.237 774.948 503.76 773.662 503.051 771.745L503.046 771.731L503.04 771.717L502.611 770.557C497.858 770.551 495.479 770.533 490.72 770.479C489.674 773.11 489.151 774.42 488.094 777.052C485.252 777.016 483.834 776.992 480.992 776.938C485.21 767.144 489.356 757.326 493.436 747.479ZM492.588 765.666C495.875 765.696 497.521 765.708 500.808 765.72C499.222 761.358 498.435 759.177 496.873 754.815H496.788C495.124 759.159 494.283 761.328 492.588 765.666ZM530.22 752.039C533.639 751.967 536.697 754.118 537.196 757.056C539.894 756.978 541.24 756.936 543.932 756.846C542.874 750.092 536.337 746.553 530.1 746.535C521.435 746.511 514.772 754.262 514.85 762.416C514.928 770.665 522.156 777.965 530.779 777.581C537.695 777.268 544.088 772.468 544.46 765.089C542.111 765.173 540.787 765.211 538.702 765.271L537.719 765.3C537.28 769.205 534.937 772.023 530.659 772.119C524.343 772.257 521.898 767.288 521.826 762.337C521.754 757.146 524.013 752.177 530.22 752.039ZM549.616 746.656L549.694 746.653L549.695 746.653C552.395 746.547 553.776 746.492 556.502 746.367L557.16 761.169L557.817 775.971C554.993 776.097 553.581 776.157 550.757 776.265C550.572 771.43 550.385 766.594 550.198 761.757C550.003 756.724 549.809 751.69 549.616 746.656ZM594.224 759.063C593.581 750.639 585.968 744.372 577.682 744.528C568.856 744.697 562.679 752.868 563.088 761.01C563.502 769.247 570.851 776.451 579.623 775.514C587.819 774.643 594.873 767.583 594.224 759.063ZM587.26 759.574C587.603 764.513 585.584 769.668 579.281 770.064C572.972 770.461 570.328 765.594 570.052 760.649C569.769 755.47 571.824 750.405 578.025 750.02C584.226 749.636 586.9 754.4 587.26 759.574ZM574.294 742.81L578.638 742.54C581.167 740.016 582.423 738.748 584.923 736.219C582.195 736.405 580.831 736.495 578.097 736.669L577.765 737.209C576.464 739.321 575.71 740.545 574.294 742.81ZM598.935 743.718C601.669 743.495 603.033 743.381 605.766 743.147C610.681 749.39 615.657 755.59 620.692 761.743C620.709 761.74 620.721 761.739 620.733 761.738C620.745 761.737 620.757 761.737 620.776 761.737C620.454 758.438 620.132 755.14 619.809 751.841L619.808 751.836L619.808 751.831L619.807 751.827C619.485 748.533 619.162 745.239 618.841 741.945C621.407 741.693 622.687 741.567 625.246 741.302C625.754 746.214 626.262 751.128 626.77 756.041L626.777 756.115C627.282 761.004 627.788 765.893 628.293 770.78C625.499 771.068 624.099 771.206 621.299 771.483C616.233 765.348 611.222 759.165 606.277 752.929C606.259 752.929 606.247 752.93 606.235 752.932L606.221 752.933C606.213 752.934 606.204 752.935 606.193 752.935C606.478 756.23 606.762 759.526 607.046 762.822L607.047 762.826C607.33 766.12 607.614 769.414 607.9 772.708C605.268 772.937 603.952 773.045 601.32 773.255C600.59 764.257 599.865 755.258 599.14 746.264L599.138 746.24L599.136 746.216L599.134 746.193L599.132 746.169L599.129 746.135L598.935 743.718ZM660.024 762.668C656.274 763.155 652.795 762.043 652.267 758.15C649.581 758.486 648.235 758.648 645.555 758.967C646.354 766.327 654.237 768.478 660.384 767.733C666.062 767.048 673.213 763.335 672.281 756.515C671.397 750.058 664.517 749.493 661.981 749.285L661.79 749.269L661.295 749.217C653.604 748.404 652.135 748.249 651.858 746.037C651.546 743.543 653.961 742.365 656.154 742.083C659.423 741.656 662.235 742.191 662.92 745.706C665.594 745.346 666.928 745.165 669.602 744.787C668.676 738.045 661.55 736.177 655.83 737.012C650.284 737.823 644.552 741.356 645.273 747.364C645.934 752.904 650.867 754.028 655.692 754.587C656.42 754.672 657.15 754.741 657.866 754.809L657.866 754.809C661.805 755.183 665.311 755.516 665.672 758.186C666.08 761.184 662.469 762.349 660.024 762.668ZM704.314 749.095C705.69 757.014 699.807 761.671 692.741 763.065C685.591 764.477 678.579 760.938 677.425 753.349L677.399 753.171C676.519 747.15 675.638 741.129 674.752 735.114C677.485 734.711 678.849 734.507 681.583 734.092L684.359 752.316C684.846 755.5 686.258 758.559 691.882 757.669C696.833 756.888 698.101 754.599 697.386 750.255C696.93 747.468 696.473 744.68 696.016 741.892L696.009 741.853L695.992 741.745C695.463 738.518 694.933 735.291 694.406 732.061C697.134 731.617 698.497 731.388 701.225 730.926L701.257 731.109C702.274 737.105 703.291 743.1 704.314 749.095ZM715.424 728.426C712.702 728.919 711.338 729.165 708.616 729.646C710.328 739.373 712.047 749.101 713.771 758.829L714.194 758.754C716.708 758.31 718.104 758.063 720.747 757.579C719.22 749.239 717.698 740.895 716.177 732.555L716.132 732.307L715.424 728.426ZM725.218 751.51C729.664 744.246 734.044 736.946 738.376 729.61C732.248 730.847 729.183 731.448 723.043 732.602L722.021 727.194C730.121 725.668 738.202 724.058 746.272 722.363C746.698 724.376 746.909 725.386 747.329 727.404C743.075 734.783 738.761 742.125 734.393 749.437C740.173 748.314 745.941 747.142 751.704 745.922C751.823 746.49 751.927 746.982 752.023 747.439L752.023 747.442C752.289 748.706 752.498 749.699 752.833 751.27C743.958 753.114 735.072 754.881 726.167 756.575C725.899 755.163 725.727 754.242 725.519 753.127L725.513 753.093L725.51 753.076C725.422 752.607 725.328 752.102 725.218 751.51ZM767.302 717.737C764.538 718.374 763.15 718.686 760.38 719.305C758.625 729.832 756.793 740.335 754.882 750.837C757.676 750.242 759.07 749.942 761.864 749.329C762.303 746.529 762.519 745.129 762.945 742.329C767.62 741.296 769.951 740.773 774.614 739.692C776.17 742.041 776.951 743.219 778.52 745.562L778.84 745.487C781.497 744.863 782.93 744.526 785.688 743.862C779.493 735.197 773.364 726.491 767.302 717.737ZM763.945 737.158L763.684 737.216C764.357 732.602 764.688 730.294 765.331 725.686C765.352 725.682 765.368 725.679 765.383 725.675C765.393 725.673 765.403 725.67 765.415 725.668C767.939 729.561 769.2 731.508 771.748 735.39C768.615 736.114 767 736.475 763.945 737.158Z" fill="white"/>
</svg>
