<svg xmlns="http://www.w3.org/2000/svg" width="1002" height="813" viewBox="0 0 1002 813" fill="none">
<path d="M619.25 231.103H383.75V388.795H619.25V231.103ZM614.342 383.31H386.995V235.807H614.342V383.31Z" fill="white"/>
<path d="M682.182 513.697L649.996 415.642C649.331 413.617 647.045 411.791 643.842 410.416C647.453 406.565 649.68 401.398 649.68 395.699V224.624C649.68 212.728 640.055 203.092 628.171 203.092H374.827C362.944 203.097 353.319 212.733 353.313 224.624V395.699C353.313 401.398 355.545 406.565 359.156 410.416C355.953 411.791 353.667 413.617 353.002 415.642L320.816 513.697C318.676 520.222 326.546 533 338.436 533H664.557C676.463 533 684.328 520.228 682.182 513.697ZM362.879 224.624C362.89 218.018 368.234 212.674 374.833 212.658H628.176C634.775 212.668 640.114 218.018 640.124 224.624V395.699C640.119 402.311 634.775 407.655 628.176 407.666L374.833 407.66C368.234 407.65 362.89 402.305 362.879 395.699V224.624ZM361.919 419.976C363.48 419.053 367.509 417.715 372.579 417.715H630.424C635.494 417.715 639.523 419.058 641.085 419.976L671.333 512.128H548.906L540.89 483.957H462.113L454.098 512.128H331.67L361.919 419.976ZM338.441 523.171C334.288 523.171 331.3 519.299 330.5 517.037H454.404L455.756 523.171H338.441ZM542.215 523.171H520.798C520.792 523.971 520.406 524.766 519.483 525.277C508.297 531.502 492.641 534.842 482.925 524.342C482.345 524.229 481.761 524.122 481.17 524.03C480.478 523.923 480.001 523.601 479.684 523.171H460.788L459.436 517.037H543.578L542.215 523.171ZM459.232 512.021L465.821 488.871H537.188L543.777 512.021H459.232ZM664.568 523.171H547.243L548.595 517.037H672.503C671.709 519.299 668.721 523.171 664.568 523.171Z" fill="white"/>
<path d="M630.001 429.255H371.957L357.814 473.866H644.15L630.001 429.255ZM633.01 456.414H616.951L614.37 446.707H629.937L633.01 456.414ZM614.413 456.414H597.813L595.667 446.707H611.833L614.413 456.414ZM626.094 434.587L629.161 444.266H613.723L611.153 434.587H626.094ZM608.621 434.587L611.191 444.266H595.132L592.99 434.587H608.621ZM590.48 434.587L592.621 444.266H576.54L574.827 434.587H590.48ZM572.343 434.587L574.056 444.266H557.954L556.67 434.587H572.343ZM557.093 456.414H540.439L539.577 446.707H555.802L557.093 456.414ZM554.197 434.587L555.481 444.266H539.369L538.512 434.587H554.197ZM537.982 456.414H521.318L520.89 446.707H537.126L537.982 456.414ZM536.055 434.587L536.912 444.266H520.783L520.354 434.587H536.055ZM518.866 456.414H502.202V446.707H518.438L518.866 456.414ZM517.903 434.587L518.331 444.266H502.202V434.587H517.903ZM484.055 434.587H499.756V444.266H483.627L484.055 434.587ZM483.52 446.707H499.756V456.414H483.092L483.52 446.707ZM465.908 434.587H481.604L481.175 444.266H465.052L465.908 434.587ZM464.832 446.707H481.063L480.635 456.414H463.976L464.832 446.707ZM447.762 434.587H463.451L462.595 444.266H446.477L447.762 434.587ZM462.375 446.707L461.514 456.414H444.86L446.15 446.707H462.375ZM429.615 434.587H445.288L444.004 444.266H427.902L429.615 434.587ZM411.478 434.587H427.136L425.423 444.266H409.337L411.478 434.587ZM408.973 434.587L406.832 444.266H390.773L393.342 434.587H408.973ZM406.291 446.707L404.145 456.414H387.545L390.12 446.707H406.291ZM375.87 434.587H390.805L388.235 444.266H372.797L375.87 434.587ZM372.026 446.707H387.588L385.013 456.414H368.954L372.026 446.707ZM365.105 468.534L368.172 458.855H384.36L381.79 468.534H365.105ZM401.458 468.534H384.322L386.892 458.855H403.599L401.458 468.534ZM421.119 468.534H403.968L406.109 458.855H422.838L421.119 468.534ZM406.65 456.414L408.797 446.707H424.99L423.271 456.414H406.65ZM440.787 468.534H423.609L425.321 458.855H442.071L440.787 468.534ZM425.755 456.414L427.473 446.707H443.683L442.392 456.414H425.755ZM443.254 468.534L444.539 458.855H557.419L558.704 468.534H443.254ZM558.276 446.707H574.485L576.203 456.414H559.566L558.276 446.707ZM561.172 468.534L559.887 458.855H576.637L578.35 468.534H561.172ZM576.974 446.707H593.162L595.308 456.414H578.687L576.974 446.707ZM580.839 468.534L579.126 458.855H595.849L597.99 468.534H580.839ZM600.501 468.534L598.359 458.855H615.061L617.63 468.534H600.501ZM617.598 458.855H633.786L636.853 468.534H620.168L617.598 458.855Z" fill="white"/>
<path d="M544.239 469.503H534.731C534.031 469.503 533.466 468.938 533.466 468.239V462.845C533.466 462.145 534.031 461.581 534.731 461.581H544.239C544.938 461.581 545.503 462.145 545.503 462.845V468.239C545.503 468.938 544.938 469.503 544.239 469.503Z" fill="white"/>
<path d="M544.239 540.549H534.731C534.031 540.549 533.466 539.984 533.466 539.285V533.891C533.466 533.192 534.031 532.627 534.731 532.627H544.239C544.938 532.627 545.503 533.192 545.503 533.891V539.285C545.503 539.984 544.938 540.549 544.239 540.549Z" fill="white"/>
<path d="M535.626 500.368V501.233L543.346 501.927V501.057L535.626 500.368Z" fill="white"/>
<path d="M535.626 502.046V502.912L543.346 503.606V502.741L535.626 502.046Z" fill="white"/>
<path d="M543.326 504.414L535.626 503.725V504.207C535.626 504.342 535.652 504.471 535.688 504.596L542.875 505.243C543.113 505.031 543.274 504.746 543.326 504.414Z" fill="white"/>
<path d="M543.346 498.57V497.891C543.346 497.129 542.74 496.513 541.989 496.513H536.984C536.237 496.513 535.636 497.124 535.626 497.875L543.346 498.57Z" fill="white"/>
<path d="M535.626 498.689V499.554L543.346 500.249V499.378L535.626 498.689Z" fill="white"/>
<path d="M536.455 505.477C536.616 505.549 536.797 505.585 536.984 505.585H537.673L536.455 505.477Z" fill="white"/>
<path fill-rule="evenodd" clip-rule="evenodd" d="M466.137 359.181H449.94V278.927H553.995V359.181H537.798C537.798 351.906 531.994 346.004 524.839 346.004H479.096C471.941 346.004 466.137 351.901 466.137 359.181ZM554 269.372H449.94V254.642H554V269.372ZM449.94 245.082V229.626H554V245.082H449.94ZM513.828 312.802C513.828 319.453 508.52 324.844 501.973 324.844C495.425 324.844 490.117 319.453 490.117 312.802C490.117 306.152 495.425 300.761 501.973 300.761C508.52 300.761 513.828 306.152 513.828 312.802Z" fill="white"/>
<path d="M470.096 469.502H460.588C459.888 469.502 459.323 468.938 459.323 468.238V462.844C459.323 462.145 459.888 461.58 460.588 461.58H470.096C470.795 461.58 471.36 462.145 471.36 462.844V468.238C471.36 468.938 470.79 469.502 470.096 469.502Z" fill="white"/>
<path d="M470.096 540.549H460.588C459.888 540.549 459.323 539.984 459.323 539.285V533.891C459.323 533.192 459.888 532.627 460.588 532.627H470.096C470.795 532.627 471.36 533.192 471.36 533.891V539.285C471.36 539.984 470.79 540.549 470.096 540.549Z" fill="white"/>
<path d="M477.562 497.849C479.054 486.129 488.625 476.875 500.361 476.114C513.563 475.254 524.74 485.051 526.372 497.849H548.373V474.932C548.373 473.305 547.072 471.984 545.471 471.984H532.543C529.854 471.984 527.258 471.057 525.103 469.424C525.066 469.399 525.03 469.368 524.989 469.342C519.595 465.285 516.335 458.937 516.335 452.119V349H487.599V452.114C487.599 458.932 484.34 465.285 478.946 469.336C478.909 469.362 478.868 469.393 478.832 469.419C476.676 471.051 474.08 471.979 471.391 471.979H458.463C456.862 471.979 455.562 473.3 455.562 474.927V497.844H477.562V497.849Z" fill="white"/>
<path d="M526.305 504.865C524.59 516.331 515.133 525.316 503.579 526.067C490.558 526.911 479.511 517.404 477.635 504.865H455.567V527.238C455.567 528.865 456.867 530.186 458.469 530.186H471.391C474.08 530.186 476.671 531.108 478.827 532.74C485.293 537.642 493.304 540.544 501.972 540.544C510.641 540.544 518.652 537.637 525.118 532.74C527.274 531.108 529.865 530.186 532.554 530.186H545.476C547.078 530.186 548.378 528.865 548.378 527.238V504.865H526.305Z" fill="white"/>
<path d="M461.484 500.368V501.233L469.2 501.927V501.057L461.484 500.368Z" fill="white"/>
<path d="M461.484 502.046V502.912L469.2 503.606V502.741L461.484 502.046Z" fill="white"/>
<path d="M469.179 504.414L461.479 503.725V504.207C461.479 504.342 461.505 504.471 461.541 504.596L468.728 505.243C468.966 505.031 469.132 504.746 469.179 504.414Z" fill="white"/>
<path d="M469.199 498.57V497.891C469.199 497.129 468.593 496.513 467.842 496.513H462.837C462.09 496.513 461.489 497.124 461.479 497.875L469.199 498.57Z" fill="white"/>
<path d="M461.484 498.689V499.554L469.199 500.249V499.378L461.484 498.689Z" fill="white"/>
<path d="M462.308 505.477C462.468 505.549 462.65 505.585 462.836 505.585H463.525L462.308 505.477Z" fill="white"/>
<path d="M654.193 106.807L612.999 83.0239L656.972 31.0467L726.093 70.9537L703.066 135.024L654.193 106.807Z" fill="white"/>
<path d="M769.782 219.694L746 178.5L810.07 155.473L849.977 224.594L798 268.567L769.782 219.694Z" fill="white"/>
<path d="M814 373.566L814 326L880.999 338.093L881 417.907L814 430L814 373.566Z" fill="white"/>
<path d="M663.873 643.783L705.066 620L728.093 684.07L658.972 723.977L615 672L663.873 643.783Z" fill="white"/>
<path d="M773.988 530.422L797.771 489.229L849.748 533.202L809.841 602.323L745.771 579.295L773.988 530.422Z" fill="white"/>
<path d="M497.565 67L449.999 67L462.092 7.22402e-06L541.906 6.57219e-06L553.999 67L497.565 67Z" fill="white"/>
<path d="M349.806 106.807L391 83.0239L347.027 31.0467L277.906 70.9537L300.933 135.024L349.806 106.807Z" fill="white"/>
<path d="M234.217 219.694L258 178.5L193.929 155.473L154.022 224.594L206 268.567L234.217 219.694Z" fill="white"/>
<path d="M190 373.566L190 326L123 338.093L123 417.907L190 430L190 373.566Z" fill="white"/>
<path d="M340.126 643.783L298.933 620L275.906 684.07L345.027 723.977L389 672L340.126 643.783Z" fill="white"/>
<path d="M230.011 530.422L206.228 489.228L154.251 533.201L194.158 602.322L258.228 579.295L230.011 530.422Z" fill="white"/>
<path d="M503.69 689L554 689L541.209 730L456.791 730L444 689L503.69 689Z" fill="white"/>
<path fill-rule="evenodd" clip-rule="evenodd" d="M818 378.5C818 553.298 676.298 695 501.5 695C326.702 695 185 553.298 185 378.5C185 203.702 326.702 62 501.5 62C676.298 62 818 203.702 818 378.5ZM738 378.5C738 509.115 632.115 615 501.5 615C370.884 615 265 509.115 265 378.5C265 247.885 370.884 142 501.5 142C632.115 142 738 247.885 738 378.5ZM230.612 376.24C230.412 373.139 230.334 371.583 230.218 368.46C219.636 364.342 209.277 359.868 199.018 355C198.985 358.429 198.996 360.146 199.057 363.558C201.842 364.731 203.237 365.309 206.032 366.426C206.188 372.033 206.332 374.828 206.738 380.38C204.065 381.73 202.731 382.414 200.074 383.814C200.363 387.282 200.53 389.01 200.908 392.456C210.65 386.721 220.52 381.325 230.612 376.24ZM211.645 377.924C211.389 374.128 211.295 372.222 211.161 368.398C215.78 370.155 218.097 370.999 222.743 372.611C222.743 372.635 222.745 372.651 222.747 372.668C222.748 372.679 222.749 372.691 222.749 372.705C218.291 374.728 216.069 375.773 211.645 377.924ZM218.583 426.424C210.008 428.686 204.428 420.967 203.206 413.52C201.939 405.795 204.161 397.098 213.126 395.97C216.248 395.573 219.369 395.176 222.49 394.779L222.664 394.757L222.686 394.754C225.877 394.348 229.068 393.942 232.26 393.536C232.638 396.52 232.849 398.004 233.299 400.966C230.217 401.441 227.133 401.917 224.05 402.392L224.007 402.399L223.768 402.436L223.749 402.439L223.73 402.442L219.115 403.154C217.489 403.405 215.863 403.656 214.237 403.906C210.903 404.423 207.668 406.023 208.83 412.503C209.852 418.21 212.37 419.588 216.882 418.66C223.179 417.365 229.481 416.071 235.777 414.781C236.378 417.699 236.694 419.149 237.367 422.045C231.109 423.506 224.846 424.968 218.583 426.424ZM232.936 428.186C233.936 432.176 234.475 434.166 235.614 438.106L211.356 445.125C212.262 448.253 212.734 449.815 213.718 452.91C216.955 451.883 220.192 450.855 223.43 449.826C228.215 448.307 233.001 446.787 237.787 445.269C239.027 449.17 239.682 451.11 241.055 454.955C242.139 454.569 242.953 454.279 243.767 453.988C244.581 453.698 245.395 453.408 246.479 453.021C243.372 444.424 240.772 435.644 238.521 426.786C237.404 427.066 236.566 427.276 235.729 427.486L234.4 427.819C233.956 427.93 233.479 428.05 232.936 428.186ZM254.33 470.818C258.036 478.882 254.652 488.884 246.677 492.947C238.097 497.315 228.06 492.291 224.553 483.816C221.169 475.631 223.942 464.599 232.873 461.337C241.17 458.303 250.723 462.971 254.33 470.818ZM229.788 481.527C232.145 486.917 238.241 488.423 243.276 486.034C248.128 483.733 251.379 478.448 249.05 473.124C246.722 467.795 240.636 466.572 235.646 468.562C230.461 470.629 227.432 476.136 229.788 481.527ZM268.461 500.299C266.405 496.77 265.41 494.981 263.476 491.374C254.362 496.248 245.243 501.121 236.123 505.995C237.546 508.657 238.274 509.98 239.763 512.608C243.569 510.452 247.376 508.298 251.185 506.144L251.217 506.126L251.233 506.117L251.265 506.099L251.274 506.094L251.291 506.084L251.349 506.051C253.798 504.666 256.248 503.28 258.697 501.894C258.709 501.914 258.719 501.929 258.729 501.948L258.736 501.961L258.741 501.972C253.823 508.046 249.038 514.198 244.359 520.461C245.648 522.589 246.304 523.645 247.632 525.751C255.374 524.312 263.065 522.722 270.745 520.983L270.746 520.983C270.762 521.006 270.775 521.022 270.787 521.039C270.792 521.047 270.798 521.055 270.803 521.063L270.815 521.081L270.823 521.094L266.008 524.336L261.715 527.227L256.51 530.73L252.606 533.359C254.284 535.86 255.146 537.099 256.885 539.555C261.011 536.634 265.135 533.711 269.259 530.788L269.48 530.632L269.508 530.612L269.537 530.591L269.566 530.571C273.773 527.589 277.98 524.608 282.188 521.628C279.821 518.288 278.665 516.593 276.414 513.164C269.106 515.042 261.748 516.748 254.357 518.271C254.349 518.258 254.343 518.247 254.337 518.236L254.321 518.21C254.309 518.192 254.298 518.174 254.284 518.149C258.858 512.08 263.588 506.129 268.461 500.299ZM296.427 538.904C302.234 545.601 301.706 556.132 295.215 562.233C288.235 568.802 277.215 566.868 271.485 559.727C265.944 552.819 265.65 541.538 273.263 535.931C280.332 530.724 290.775 532.386 296.427 538.904ZM275.875 556.065C279.643 560.577 285.901 560.261 290.047 556.571C294.037 553.02 295.732 547.057 292.008 542.594C288.285 538.137 282.116 538.737 277.909 542.027C273.541 545.451 272.107 551.552 275.875 556.065ZM304.583 557.756C307.378 560.68 308.801 562.113 311.697 564.936L311.436 565.204L311.362 565.28L311.263 565.381L311.165 565.483C305.468 571.33 299.771 577.178 294.074 583.031C296.375 585.27 297.542 586.376 299.898 588.56C302.763 585.465 305.626 582.369 308.489 579.274C311.342 576.19 314.194 573.105 317.048 570.021C320.022 572.772 321.533 574.117 324.601 576.768L325.449 575.785L326.241 574.866L326.413 574.667L326.478 574.591L326.482 574.586C327.046 573.932 327.61 573.278 328.363 572.405C321.511 566.537 314.992 560.268 308.74 553.772L308.131 554.356L307.499 554.962L306.693 555.734L306.662 555.764C306.038 556.362 305.414 556.959 304.583 557.756ZM343.922 583.985C351.119 589.176 353.175 599.568 348.234 607.053C342.916 615.106 331.668 615.628 324.437 609.987C317.446 604.536 314.473 593.594 320.62 586.352C326.333 579.628 336.914 578.928 343.922 583.985ZM327.866 605.408C332.573 608.937 338.631 607.259 341.832 602.685C344.916 598.278 345.117 592.076 340.465 588.586C335.813 585.096 329.923 587.047 326.572 591.243C323.093 595.6 323.159 601.879 327.866 605.408ZM377.66 606.556C372.397 603.611 367.246 600.582 362.105 597.415L345.55 623.639C348.306 625.384 349.701 626.24 352.513 627.913L354 625.415C355.603 622.72 356.784 620.737 358.721 617.487C361.405 619.088 362.761 619.871 365.495 621.405C368.974 623.356 369.58 625.329 368.535 628.418C368.274 629.189 367.937 629.982 367.6 630.776L367.6 630.777C366.897 632.433 366.19 634.096 366.156 635.587C369.063 637.127 370.53 637.877 373.481 639.344C373.049 637.513 374.156 634.92 374.942 633.077C375.097 632.716 375.238 632.384 375.354 632.092C376.493 629.208 377.027 625.773 374.042 623.234C374.051 623.22 374.056 623.209 374.062 623.197L374.071 623.18L374.075 623.172L374.081 623.161C378.199 623.745 380.928 622.05 382.567 618.777C384.674 614.586 382.945 609.44 377.66 606.556ZM368.529 617.537C365.573 615.892 364.111 615.048 361.21 613.319L362.029 611.944L362.552 611.065C363.571 609.353 364.392 607.973 365.679 605.823C368.491 607.501 369.913 608.318 372.781 609.918C375.71 611.558 376.704 613.558 375.287 616.209C373.809 618.971 371.553 619.221 368.529 617.537ZM393.331 614.483C401.083 617.99 408.875 621.213 416.844 624.203C416.707 624.581 416.583 624.926 416.465 625.25C416.251 625.841 416.063 626.36 415.875 626.877L415.867 626.9L415.866 626.902L415.477 627.973L415.214 628.7L415.083 629.062L414.882 629.616C409.136 627.465 403.484 625.214 397.832 622.825C396.771 625.253 396.243 626.465 395.187 628.893C400.428 631.194 405.779 633.345 411.159 635.301L410.786 636.313L410.242 637.79C409.967 638.538 409.692 639.285 409.325 640.28C403.851 638.285 398.399 636.101 393.064 633.756C392.456 635.151 392 636.197 391.544 637.243L391.067 638.338C390.757 639.051 390.423 639.815 390.024 640.73C396.132 643.392 402.328 645.854 408.597 648.11C407.819 650.261 407.43 651.339 406.658 653.49C397.688 650.155 388.907 646.532 380.193 642.564C384.56 633.239 388.926 623.902 393.292 614.565L393.331 614.483ZM428.238 655.67C423.942 654.441 420.713 651.735 421.903 647.801C418.913 646.856 417.423 646.367 414.461 645.339C412.077 653.13 419.763 658.937 426.432 660.66C432.612 662.255 442.259 662.505 444.221 654.997C445.892 648.593 438.744 645.046 436.087 643.728C435.996 643.682 435.91 643.639 435.829 643.599C427.588 639.276 426.16 638.392 426.865 636.114C427.643 633.602 430.622 633.574 432.995 634.263C436.535 635.286 439.231 636.975 438.503 640.654C441.465 641.438 442.954 641.81 445.949 642.521C447.544 635.363 440.681 630.907 434.829 629.273C429.45 627.772 421.758 628.217 419.552 634.308C417.601 639.693 422.242 643.266 427.104 645.994C427.956 646.472 428.823 646.927 429.668 647.371L429.669 647.371L429.669 647.372L429.67 647.372L429.67 647.372L429.671 647.372L429.671 647.373L429.672 647.373L429.672 647.373C433.562 649.414 436.985 651.211 436.296 653.858C435.496 656.925 431.039 656.47 428.238 655.67ZM554.665 641.733C553.52 638.827 549.602 637.365 545.795 638.027C539.893 639.055 536.837 644.601 537.72 650.214C538.643 656.043 543.85 659.922 549.786 658.661C554.782 657.599 557.132 654.204 556.882 650.092C560.017 649.391 561.573 649.025 564.674 648.247C566.347 656.81 558.183 662.745 550.869 664.279C541.844 666.169 530.713 661.334 529.468 651.397C528.306 642.178 535.814 633.953 544.7 632.381C551.681 631.147 559.194 633.014 562.284 639.944C559.25 640.694 557.727 641.05 554.665 641.733ZM602.965 632.116C599.458 623.508 589.26 619.857 580.808 622.874C572.616 625.792 566.253 634.794 568.598 643.653C571.138 653.189 582.675 656.34 591.161 653.672C599.997 650.894 606.744 641.385 602.965 632.116ZM595.451 635.045C597.48 640.468 594.968 646.365 589.344 648.249C583.72 650.138 578.123 646.987 576.462 641.424C574.856 636.067 577.095 630.199 582.647 628.331C588.199 626.464 593.501 629.821 595.451 635.045ZM603.053 615.133C606.977 613.432 608.922 612.549 612.768 610.709C618.286 615.994 623.943 621.129 629.729 626.119L629.748 626.109L629.769 626.098C629.783 626.091 629.796 626.085 629.811 626.078L629.84 626.063L629.862 626.053C629.023 618.517 627.989 611.004 626.767 603.518C630.501 601.462 632.346 600.406 635.992 598.217L651.947 624.808C649.269 626.419 647.913 627.209 645.189 628.754L643.738 626.191L642.539 624.072L642.303 623.657C639.658 618.985 637.012 614.312 634.364 609.642L634.323 609.665L634.303 609.675L634.281 609.687L634.241 609.709C635.286 617.556 636.17 625.403 636.892 633.288C634.597 634.5 633.447 635.089 631.124 636.25C625.144 631.143 619.286 625.93 613.512 620.59C613.496 620.598 613.484 620.604 613.472 620.609L613.47 620.61C613.458 620.615 613.445 620.621 613.429 620.629L614.241 622.383L615.439 624.969L617.148 628.659C618.956 632.563 620.764 636.467 622.571 640.374C619.709 641.696 618.269 642.341 615.374 643.597C611.361 634.322 607.348 625.052 603.335 615.783L603.053 615.133ZM655.668 585.246C650.678 588.842 648.132 590.576 642.936 593.905C645.121 597.318 647.306 600.731 649.491 604.143L649.887 604.762L650.488 605.701L650.865 606.289C653.795 610.866 656.725 615.442 659.653 620.018C662.47 618.212 663.865 617.295 666.627 615.417C666.171 614.745 665.756 614.134 665.368 613.562C664.695 612.571 664.102 611.697 663.51 610.824L662.465 609.284C661.846 608.373 661.182 607.393 660.392 606.231C663.187 604.336 664.571 603.369 667.305 601.396C672.485 598.05 675.402 591.243 671.245 585.969C667.283 580.94 660.364 581.479 655.668 585.246ZM662.42 598.367C660.431 599.779 659.43 600.473 657.413 601.846L656.581 600.62L655.969 599.717L655.842 599.53L655.799 599.467C654.627 597.738 653.673 596.331 652.189 594.155C654.145 592.827 655.118 592.154 657.041 590.787C659.936 588.731 662.904 587.386 665.26 590.554C667.622 593.716 665.41 596.244 662.42 598.367ZM704.671 568.642C711.173 574.727 707.505 583.602 701.854 588.598C695.979 593.789 687.438 596.54 681.714 589.532C677.64 584.558 673.566 579.584 669.487 574.611C671.805 572.71 672.955 571.743 675.217 569.781L675.343 569.927C679.508 574.741 683.673 579.555 687.832 584.369C690.039 586.92 693.112 588.809 697.997 584.364C702.298 580.446 702.143 577.573 698.958 574.244C696.741 571.927 694.525 569.61 692.31 567.294C690.705 565.615 689.1 563.937 687.494 562.259L685.626 560.306C687.788 558.234 688.86 557.189 690.967 555.06C695.529 559.579 700.081 564.091 704.638 568.61L704.671 568.642ZM698.557 555.52C701.43 552.514 702.842 550.985 705.609 547.879C711.895 553.475 718.186 559.071 724.482 564.667C726.677 562.2 727.761 560.949 729.895 558.421C726.677 555.706 723.46 552.993 720.242 550.28L716.722 547.311C714.677 545.587 712.633 543.863 710.589 542.138C713.273 538.959 714.59 537.342 717.158 534.064C716.563 533.598 716.066 533.21 715.603 532.848C715.157 532.498 714.741 532.173 714.301 531.828C713.802 531.438 713.27 531.021 712.623 530.513C706.926 537.837 700.791 544.822 694.4 551.541L695.41 552.507L695.58 552.67C696.563 553.609 697.337 554.349 698.557 555.52ZM721.109 519.103C722.882 516.591 723.749 515.324 725.455 512.762C736.514 514.985 747.668 516.591 758.866 517.936C757.082 520.903 756.17 522.376 754.303 525.288C751.347 524.782 749.874 524.516 746.934 523.965C743.916 528.589 742.355 530.867 739.131 535.347C740.688 537.914 741.454 539.209 742.972 541.815C740.988 544.516 739.982 545.855 737.926 548.501C732.652 538.492 727.061 528.722 721.109 519.103ZM736.231 530.701C738.409 527.628 739.471 526.077 741.555 522.932C736.742 521.948 734.347 521.42 729.59 520.303L729.584 520.311L729.571 520.329C729.56 520.346 729.551 520.358 729.539 520.381C732.268 524.46 733.607 526.522 736.231 530.701ZM746.265 487.086C748.015 483.785 751.539 481.701 754.529 482.601C755.835 479.85 756.474 478.467 757.73 475.677C750.527 473.832 744.425 478.289 741.146 484.474C736.934 492.415 739.412 502.907 747.182 507.503C755.551 512.455 766.055 507.498 770.1 499.217C773.357 492.554 773.368 482.768 765.738 478.917C764.471 481.773 763.821 483.19 762.481 486.008C765.888 488.325 767.161 492.193 764.999 496.628C762.359 502.04 756.118 503.357 751.111 500.595C746.287 497.934 743.481 492.332 746.265 487.086ZM750.795 465.348C751.963 462.542 752.529 461.13 753.624 458.285C758.435 460.136 763.245 461.988 768.056 463.841C772.893 465.703 777.73 467.566 782.567 469.427C781.35 472.584 780.722 474.156 779.427 477.268C770.08 473.379 760.739 469.489 751.398 465.599L750.795 465.348ZM780.716 422.665C771.596 420.62 762.805 427.061 760.454 435.719C758.164 444.127 762.004 454.374 770.596 457.487C779.849 460.837 789.008 453.319 791.653 444.805C794.398 435.974 790.53 424.866 780.716 422.665ZM778.815 430.601C784.445 432.04 787.818 437.508 786.162 443.204C784.506 448.901 778.715 451.657 773.219 449.845C767.917 448.111 764.344 442.954 765.983 437.325C767.623 431.695 773.397 429.217 778.815 430.601ZM757.481 438.625C758.042 436.786 758.32 435.858 758.848 434.007C757.292 430.467 756.491 428.722 754.819 425.288C754.074 428.183 753.685 429.623 752.862 432.485C754.735 434.908 755.658 436.136 757.481 438.625ZM766.83 412.783C767.435 409.749 767.724 408.226 768.247 405.17C776.005 401.335 783.557 397.278 791.043 392.938C791.046 392.919 791.047 392.903 791.049 392.888C791.05 392.873 791.052 392.858 791.054 392.838C787.598 392.428 784.143 392.02 780.688 391.612C777.255 391.206 773.821 390.8 770.386 390.393C770.731 387.47 770.886 386.003 771.159 383.057L772.793 383.207C782.541 384.102 792.289 384.997 802.041 385.892C801.725 389.376 801.536 391.11 801.124 394.561C793.716 399.168 786.064 403.38 778.272 407.298C778.267 407.337 778.261 407.354 778.256 407.393C781.665 407.987 785.076 408.582 788.487 409.176C791.898 409.771 795.308 410.366 798.718 410.96C798.162 414.15 797.868 415.74 797.234 418.902C787.097 416.857 776.966 414.817 766.83 412.783ZM341.041 135.847C332.434 141.543 324.129 147.529 316 153.892L319.237 157.932L322.188 161.617L322.352 161.821L322.39 161.868L322.427 161.915L322.465 161.962C327.175 167.841 331.884 173.719 336.59 179.599C343.857 173.814 351.383 168.325 359.211 163.325C358.564 162.317 358.075 161.557 357.589 160.801L357.573 160.776C357.079 160.009 356.585 159.242 355.929 158.219C350.291 161.944 344.819 165.757 339.37 169.753C338.401 168.463 337.673 167.496 336.945 166.53L336.943 166.526C336.213 165.557 335.484 164.589 334.512 163.295C339.465 159.541 344.595 155.934 349.807 152.552C348.975 151.282 348.425 150.439 347.776 149.444L347.769 149.433C347.458 148.957 347.124 148.446 346.726 147.836C341.425 151.389 336.265 155.014 331.124 158.791C329.436 156.542 328.591 155.421 326.897 153.172C332.564 148.904 338.391 144.837 344.353 140.988L343.789 140.112L343.311 139.369L343.301 139.353C342.571 138.218 341.969 137.282 341.041 135.847ZM360.484 154.124C363.282 152.406 364.693 151.574 367.532 149.95C368.657 151.922 369.335 153.106 370.282 154.759L370.288 154.769L370.305 154.8L370.315 154.816L371.068 156.131C368.305 157.713 366.93 158.527 364.203 160.198C363.458 158.981 362.9 158.069 362.342 157.158L362.229 156.974C361.928 156.484 361.625 155.988 361.288 155.438C361.041 155.035 360.777 154.603 360.484 154.124ZM361.796 130.57C365.97 128.268 368.071 127.164 372.31 125.045L372.315 125.055L372.32 125.065L372.325 125.076L372.346 125.117C376.33 133.091 380.314 141.066 384.293 149.046C387.109 147.641 388.52 146.956 391.365 145.64C389.484 141.584 387.605 137.526 385.726 133.469C383.848 129.413 381.97 125.357 380.09 121.302C384.37 119.313 386.53 118.369 390.875 116.562C390.404 115.429 390.051 114.58 389.697 113.731C389.345 112.886 388.993 112.04 388.525 110.913C378.396 115.264 368.567 120.004 358.845 125.21L359.396 126.211L359.85 127.036L360.323 127.895C360.765 128.697 361.207 129.501 361.796 130.57ZM402.377 133.142C405.37 131.956 406.869 131.383 409.891 130.285C410.49 131.927 410.903 133.066 411.359 134.322L411.381 134.384C411.661 135.155 411.958 135.972 412.324 136.979C409.384 138.048 407.92 138.602 405.004 139.765C404.478 138.44 404.084 137.447 403.69 136.454C403.296 135.461 402.902 134.467 402.377 133.142ZM432.746 96.4591C429.375 97.2737 427.693 97.7105 424.346 98.6255L424.393 98.7994L424.396 98.8106L424.399 98.8219L424.403 98.8331L424.406 98.8444L424.409 98.8557L424.412 98.8669L424.415 98.8782L424.418 98.8894C427.298 109.391 430.178 119.893 433.053 130.395C435.857 129.628 437.262 129.268 440.077 128.577C439.198 124.996 438.321 121.415 437.443 117.834L437.391 117.62C436.536 114.13 435.68 110.639 434.824 107.149C434.865 107.137 434.883 107.137 434.924 107.126C441.683 113.035 448.176 119.109 454.51 125.466C457.539 124.899 459.056 124.64 462.096 124.162L460.743 115.592L459.571 108.165L458.755 102.995L456.96 91.6246C453.749 92.1263 452.149 92.4037 448.956 92.994C450.296 100.237 451.642 107.486 452.987 114.729C452.952 114.735 452.928 114.74 452.893 114.746C446.37 108.401 439.688 102.344 432.746 96.4591ZM471.99 89.6475C476.512 89.1693 480.349 91.9437 480.644 95.6921C480.945 99.4818 477.751 102.787 473.436 103.242C469.168 103.696 465.296 101.135 464.794 97.3685C464.292 93.6497 467.515 90.1197 471.99 89.6475ZM473.141 100.462C475.443 100.22 477.385 98.2008 477.185 95.9813C476.99 93.8031 474.658 92.1739 472.285 92.4218C469.965 92.6698 468.029 94.7535 468.295 96.9199C468.56 99.1394 470.886 100.704 473.141 100.462ZM498.938 88.0013C491.382 87.9009 485.19 93.9691 485.768 101.584C488.643 101.407 490.083 101.336 492.964 101.23C492.834 97.8238 494.115 93.7212 498.678 93.6445C501.96 93.5855 504.381 95.5393 504.357 98.5793C504.327 101.935 501.113 103.88 498.196 105.645L498.195 105.646C497.679 105.958 497.173 106.264 496.695 106.572C491.152 109.748 485.685 114.429 486.228 121.471C494.676 121.028 503.052 120.875 511.512 121.01C511.543 119.911 511.568 119.08 511.592 118.254C511.618 117.39 511.644 116.532 511.677 115.379C506.134 115.202 500.549 115.208 495.012 115.403C496.921 112.76 499.874 111.02 502.763 109.317C503.592 108.829 504.415 108.344 505.207 107.841C508.725 105.604 511.836 102.959 511.919 98.1661C512.031 91.3482 504.764 88.078 498.938 88.0013ZM535.111 98.6131C534.84 96.3877 533.092 94.3512 530.43 94.1091C524.899 93.6074 522.992 99.7937 522.555 103.353L522.65 103.448C524.852 101.051 527.673 100.225 531.256 100.549C537.284 101.092 541.988 106.145 541.144 112.284C540.235 118.884 533.942 122.939 527.656 122.632C518.724 122.195 514.828 112.727 515.182 105.106C515.578 96.4703 521.434 88.3538 531.032 89.2097C536.587 89.7056 542.16 93.3477 542.266 99.4749C539.403 99.0912 537.974 98.92 535.111 98.6131ZM522.738 110.809C522.532 113.813 524.409 116.906 527.945 117.219C531.339 117.52 533.547 114.787 533.866 111.877C534.196 108.837 532.803 105.632 529.013 105.295C525.076 104.947 522.957 107.627 522.738 110.809ZM582.679 98.4999C577.201 96.9946 571.646 95.6546 566.085 94.4918C563.806 105.235 561.528 115.973 559.243 126.71C565.188 127.967 568.145 128.682 574.019 130.281C583.039 133.339 591.764 127.702 594.703 119.19C597.92 109.875 592.218 100.584 582.679 98.4999ZM575.064 124.278C572.342 123.54 570.979 123.192 568.245 122.531C569.853 115.903 571.466 109.27 573.079 102.637L573.145 102.366C575.506 102.939 576.687 103.24 579.036 103.86C585.748 105.111 588.729 111.179 586.616 117.33C584.326 123.995 579.503 125.476 575.064 124.278ZM597.125 130.129C600.141 131.221 601.647 131.788 604.64 132.974C603.762 135.202 603.25 136.491 602.486 138.419L602.019 139.597C599.102 138.446 597.639 137.891 594.699 136.829C595.673 134.149 596.157 132.809 597.125 130.129ZM649.016 125.418C640.155 120.642 631.194 116.162 621.944 112.171C619.771 117.246 617.598 122.321 615.424 127.395C613.274 132.415 611.123 137.434 608.975 142.453C617.298 146.155 625.391 150.121 633.414 154.431C634.004 153.368 634.445 152.571 634.886 151.774L634.892 151.764C635.332 150.97 635.772 150.176 636.359 149.118C630.527 145.978 624.695 143.008 618.721 140.145C619.4 138.679 619.91 137.579 620.421 136.48C620.931 135.38 621.442 134.281 622.121 132.814C627.652 135.352 633.136 138.121 638.473 141.054C639.013 140.066 639.417 139.323 639.821 138.581C640.226 137.839 640.63 137.097 641.17 136.108C635.728 133.115 630.131 130.293 624.488 127.702C624.737 127.165 624.959 126.685 625.167 126.237L625.747 124.986L625.967 124.512C626.271 123.857 626.574 123.202 626.925 122.445L627.446 121.321C633.762 124.249 639.972 127.401 646.058 130.772C646.645 129.707 647.087 128.907 647.529 128.109L647.532 128.102L647.975 127.302C648.285 126.741 648.617 126.141 649.016 125.418ZM642.082 151.177C644.909 152.83 646.314 153.68 649.101 155.421C648.347 156.625 647.783 157.529 647.22 158.432C646.653 159.341 646.086 160.249 645.328 161.46C642.613 159.76 641.244 158.933 638.493 157.328C639.927 154.866 640.647 153.632 642.082 151.177ZM677.475 149.405C679.741 151.052 680.279 153.761 679.387 155.827C681.807 157.651 683.006 158.584 685.385 160.491C688.46 154.954 685.096 148.844 680.515 145.515C672.616 139.771 663.154 143.207 658.23 150.68C653.868 157.297 652.924 167.438 660.462 172.468C665.745 175.992 673.555 176.246 677.852 170.909C681.855 165.939 679.889 158.991 674.942 155.402C671.89 153.189 668.939 152.368 665.751 153.248C665.745 153.221 665.739 153.202 665.733 153.183C665.727 153.164 665.721 153.145 665.716 153.118C667.917 150.284 672.77 145.981 677.475 149.405ZM663.484 167.958C660.474 165.774 660.367 162.108 662.085 159.629C663.903 157.008 667.156 155.839 670.515 158.265C673.744 160.609 673.366 164.133 671.518 166.571C669.747 168.908 666.377 170.059 663.484 167.958Z" fill="white"/>
<path d="M73.4171 261.989C74.7413 269.368 76.3772 280.576 76.6743 292.064C76.8288 298.079 76.5997 303.632 75.9926 308.58C75.3431 314.449 74.1692 319.644 72.5079 324.013C71.9469 325.508 71.2991 326.969 70.5818 328.341C69.0388 331.288 67.1565 333.93 64.8248 336.402C61.3627 340.068 57.1661 342.669 52.0003 344.36L51.4132 344.555L51.4224 343.834C51.435 342.955 51.4582 341.986 51.4889 340.94C51.5512 338.645 51.6902 335.914 51.8921 332.819C51.9853 331.289 52.083 329.782 52.2149 328.257C52.34 326.784 52.5227 325.244 52.7746 323.552C52.9778 322.185 53.2476 320.71 53.619 318.909L54.1358 316.665L54.7859 314.239L55.3321 312.424L55.6621 311.431L55.0981 312.94L54.5745 314.434L53.9048 316.574L53.2879 318.798C52.8441 320.556 52.5139 322.022 52.2484 323.401C51.9713 324.776 51.7153 326.267 51.442 328.107C51.2104 329.644 51.034 331.189 50.9281 332.71C50.8243 334.33 50.785 335.744 50.81 337.039C50.8119 337.524 50.821 337.989 50.8341 338.447L50.8848 339.706C50.9068 340.124 50.9267 340.531 50.9558 340.929C50.9972 341.603 51.0553 342.28 51.1495 343.127L51.2866 344.388L50.433 343.584C42.1471 335.768 37.7426 326.158 37.3408 315.01C37.1508 309.986 37.7746 304.538 39.1835 298.834C39.8205 296.246 40.6354 293.544 41.6101 290.807C42.486 288.473 43.5603 285.989 44.8916 283.207C45.4447 282.053 46.0371 280.88 46.6463 279.71C48.4362 276.29 50.4832 272.779 52.7209 269.283C55.388 265.137 58.2003 261.645 60.6797 258.566L60.9078 258.285C63.577 255.04 65.8457 252.517 67.2763 250.965C68.8476 249.243 69.8355 248.358 69.8779 248.325L70.3863 247.873L70.5771 248.602C70.5881 248.663 71.9707 253.963 73.4171 261.989Z" fill="white"/>
<path d="M9.13611 333.942C8.26085 341.388 7.30613 352.675 7.7046 364.16C7.91424 370.172 8.479 375.702 9.38432 380.604C10.3878 386.423 11.8738 391.538 13.7963 395.798C14.4468 397.256 15.1817 398.675 15.9808 400.001C17.6992 402.85 19.738 405.373 22.215 407.699C25.8925 411.149 30.2388 413.492 35.4975 414.867L36.0952 415.026L36.0425 414.307C35.9767 413.43 35.895 412.464 35.801 411.422C35.5999 409.136 35.296 406.418 34.9072 403.341C34.7215 401.818 34.5329 400.321 34.309 398.807C34.095 397.344 33.8194 395.817 33.4657 394.144C33.1801 392.791 32.8216 391.336 32.3418 389.56L31.6902 387.351L30.8945 384.969L30.2395 383.191L29.8501 382.22L30.5043 383.692L31.1173 385.152L31.9153 387.247L32.6656 389.43C33.2149 391.158 33.6333 392.601 33.9818 393.962C34.3415 395.317 34.6873 396.789 35.0714 398.61C35.3955 400.13 35.6651 401.662 35.8628 403.173C36.0644 404.785 36.1893 406.193 36.2427 407.487C36.2701 407.972 36.2892 408.436 36.3038 408.894L36.3293 410.154C36.3326 410.573 36.3374 410.98 36.3324 411.379C36.3319 412.054 36.3148 412.733 36.272 413.584L36.2116 414.852L37.0149 413.998C44.8127 405.694 48.6277 395.835 48.3544 384.684C48.24 379.658 47.2878 374.257 45.5362 368.648C44.7439 366.104 43.7671 363.457 42.6285 360.784C41.6129 358.507 40.3904 356.092 38.8932 353.395C38.2713 352.278 37.609 351.143 36.9301 350.012C34.9366 346.706 32.6808 343.325 30.2358 339.972C27.3227 335.994 24.3043 332.678 21.6431 329.755L21.3985 329.489C18.5378 326.411 16.1206 324.029 14.5988 322.567C12.9261 320.943 11.8864 320.119 11.8422 320.089L11.3074 319.669L11.161 320.408C11.1537 320.47 10.0943 325.844 9.13611 333.942Z" fill="white"/>
<path d="M92.5524 339.145C93.4276 346.59 94.3824 357.877 93.9839 369.362C93.7742 375.375 93.2095 380.904 92.3042 385.806C91.3007 391.625 89.8147 396.74 87.8921 401C87.2417 402.458 86.5067 403.877 85.7077 405.203C83.9892 408.052 81.9505 410.575 79.4735 412.901C75.796 416.352 71.4497 418.694 66.191 420.069L65.5933 420.228L65.646 419.509C65.7118 418.633 65.7935 417.667 65.8875 416.624C66.0886 414.338 66.3925 411.62 66.7812 408.543C66.967 407.021 67.1556 405.523 67.3795 404.009C67.5935 402.546 67.869 401.019 68.2228 399.346C68.5084 397.993 68.8669 396.538 69.3467 394.762L69.9982 392.554L70.794 390.171L71.449 388.393L71.8384 387.422L71.1842 388.894L70.5711 390.354L69.7732 392.449L69.0228 394.632C68.4735 396.36 68.0552 397.804 67.7067 399.164C67.347 400.519 67.0012 401.991 66.6171 403.812C66.2929 405.332 66.0233 406.864 65.8257 408.375C65.624 409.987 65.4992 411.395 65.4458 412.689C65.4184 413.174 65.3993 413.638 65.3847 414.096L65.3591 415.356C65.3558 415.775 65.3511 416.182 65.3561 416.581C65.3566 417.256 65.3736 417.935 65.4164 418.786L65.4769 420.054L64.6735 419.2C56.8758 410.896 53.0608 401.038 53.3341 389.886C53.4485 384.86 54.4007 379.459 56.1522 373.851C56.9446 371.306 57.9214 368.659 59.06 365.986C60.0755 363.709 61.2981 361.295 62.7953 358.598C63.4172 357.48 64.0795 356.345 64.7583 355.214C66.7519 351.908 69.0076 348.527 71.4527 345.174C74.3658 341.196 77.3842 337.88 80.0453 334.957L80.29 334.691C83.1506 331.613 85.5679 329.232 87.0897 327.769C88.7624 326.145 89.802 325.322 89.8463 325.291L90.3811 324.871L90.5275 325.61C90.5348 325.672 91.5941 331.046 92.5524 339.145Z" fill="white"/>
<path d="M100.104 422.156C102.013 429.406 104.539 440.447 105.752 451.875C106.387 457.858 106.602 463.412 106.392 468.392C106.213 474.295 105.458 479.567 104.151 484.054C103.711 485.589 103.182 487.097 102.576 488.522C101.274 491.583 99.6085 494.368 97.4817 497.017C94.3235 500.948 90.3479 503.876 85.3337 505.975L84.7641 506.215L84.7156 505.496C84.658 504.619 84.6037 503.651 84.5507 502.606C84.4297 500.314 84.3501 497.581 84.3041 494.479C84.2748 492.946 84.2519 491.437 84.2616 489.906C84.2686 488.428 84.3277 486.877 84.4436 485.171C84.537 483.792 84.6882 482.301 84.9146 480.475L85.2504 478.197L85.7048 475.727L86.1043 473.874L86.3539 472.858L85.9122 474.407L85.5097 475.939L85.0129 478.125L84.5757 480.391C84.2738 482.179 84.0617 483.667 83.9071 485.063C83.7407 486.455 83.6045 487.961 83.4792 489.818C83.371 491.368 83.3186 492.923 83.3345 494.447C83.3605 496.071 83.4341 497.483 83.5624 498.771C83.6031 499.255 83.6493 499.718 83.699 500.173L83.85 501.424C83.9054 501.839 83.9577 502.243 84.0185 502.638C84.1136 503.306 84.2256 503.976 84.3871 504.813L84.6245 506.06L83.7094 505.326C74.8258 498.196 69.6678 488.969 68.377 477.889C67.7864 472.896 67.973 467.415 68.9219 461.617C69.3502 458.987 69.9466 456.229 70.6997 453.423C71.3864 451.026 72.2588 448.464 73.3636 445.584C73.8229 444.39 74.3197 443.174 74.8335 441.959C76.3445 438.406 78.1046 434.743 80.056 431.08C82.3833 426.733 84.9078 423.028 87.1334 419.761L87.3383 419.463C89.7398 416.015 91.7998 413.319 93.1018 411.658C94.5306 409.815 95.4447 408.854 95.4842 408.818L95.955 408.327L96.2034 409.038C96.2193 409.098 98.0207 414.271 100.104 422.156Z" fill="white"/>
<path d="M4.0301 447.178C5.96624 454.421 9.24675 465.262 13.8581 475.788C16.2732 481.298 18.84 486.229 21.4913 490.45C24.5727 495.487 27.8422 499.691 31.202 502.94C32.3451 504.056 33.552 505.103 34.7844 506.04C37.4331 508.053 40.2598 509.645 43.4206 510.892C48.1122 512.741 53.0162 513.312 58.4112 512.649L59.0253 512.575L58.7109 511.927C58.326 511.137 57.8933 510.269 57.4211 509.335C56.3899 507.284 55.1039 504.871 53.6063 502.155C52.8716 500.809 52.1433 499.487 51.3762 498.162C50.637 496.882 49.8173 495.565 48.8706 494.14C48.1056 492.989 47.2351 491.769 46.1335 490.296L44.7124 488.484L43.0932 486.564L41.828 485.153L41.1074 484.394L42.2587 485.52L43.3678 486.651L44.883 488.303L46.3864 490.055C47.5349 491.458 48.4567 492.645 49.2829 493.78C50.1176 494.907 50.9827 496.148 52.012 497.698C52.8745 498.991 53.6908 500.315 54.4324 501.646C55.2149 503.069 55.8511 504.332 56.3784 505.515C56.5828 505.955 56.7722 506.38 56.9549 506.8L57.4437 507.961C57.6015 508.349 57.7562 508.726 57.899 509.099C58.1478 509.726 58.3828 510.364 58.6573 511.171L59.0693 512.371L59.5003 511.28C63.6807 500.684 63.5856 490.113 59.2137 479.851C57.2515 475.222 54.3722 470.555 50.6734 465.99C48.9975 463.918 47.1121 461.818 45.067 459.754C43.2823 458.013 41.2547 456.221 38.8674 454.268C37.8767 453.459 36.8421 452.648 35.7937 451.848C32.7202 449.512 29.3754 447.203 25.8649 444.989C21.6888 442.368 17.6594 440.402 14.107 438.668L13.7812 438.511C9.98621 436.707 6.86043 435.386 4.90617 434.589C2.75199 433.698 1.48168 433.316 1.42939 433.304L0.777344 433.112L0.914146 433.852C0.930089 433.912 1.93005 439.298 4.0301 447.178Z" fill="white"/>
<path d="M39.4107 542.126C42.7849 548.821 48.2099 558.764 54.8734 568.127C58.3626 573.028 61.882 577.331 65.3392 580.921C69.3844 585.224 73.4434 588.672 77.3958 591.166C78.7426 592.025 80.1378 592.803 81.5357 593.469C84.5395 594.898 87.6317 595.88 90.9806 596.456C95.9507 597.307 100.868 596.865 106.014 595.114L106.6 594.917L106.16 594.347C105.622 593.651 105.021 592.891 104.368 592.073C102.94 590.276 101.188 588.176 99.1677 585.823C98.1737 584.655 97.1908 583.509 96.1694 582.37C95.1844 581.267 94.113 580.145 92.8954 578.944C91.9114 577.973 90.8101 576.956 89.4309 575.739L87.6697 574.255L85.6926 572.706L84.1661 571.584L83.3057 570.988L84.6627 571.855L85.9793 572.736L87.7999 574.044L89.6293 575.452C91.0401 576.591 92.1849 577.565 93.2255 578.507C94.2727 579.44 95.3728 580.478 96.6969 581.785C97.8052 582.875 98.8747 584.004 99.8726 585.156C100.929 586.389 101.81 587.496 102.568 588.546C102.857 588.935 103.13 589.312 103.394 589.686L104.11 590.723C104.344 591.071 104.572 591.408 104.788 591.744C105.159 592.307 105.52 592.883 105.953 593.617L106.602 594.708L106.801 593.552C108.73 582.326 106.478 571.997 100.103 562.844C97.237 558.713 93.4654 554.732 88.9124 551.018C86.8488 549.332 84.5744 547.662 82.151 546.059C80.0484 544.719 77.6976 543.378 74.9617 541.954C73.8267 541.364 72.6484 540.782 71.4587 540.213C67.973 538.553 64.2273 536.976 60.3387 535.526C55.7154 533.813 51.3694 532.71 47.5379 531.738L47.1868 531.651C43.1034 530.66 39.7738 530.005 37.698 529.624C35.4072 529.191 34.0857 529.077 34.0321 529.076L33.3545 529.021L33.6396 529.718C33.6675 529.773 35.746 534.841 39.4107 542.126Z" fill="white"/>
<path d="M80.3443 623.382C83.7185 630.077 89.1435 640.02 95.8069 649.383C99.2962 654.284 102.816 658.586 106.273 662.177C110.318 666.479 114.377 669.927 118.329 672.421C119.676 673.28 121.071 674.059 122.469 674.725C125.473 676.154 128.565 677.136 131.914 677.711C136.884 678.562 141.802 678.121 146.948 676.37L147.534 676.173L147.094 675.602C146.555 674.907 145.955 674.146 145.302 673.328C143.874 671.531 142.122 669.431 140.101 667.078C139.107 665.91 138.124 664.765 137.103 663.625C136.118 662.522 135.047 661.4 133.829 660.199C132.845 659.228 131.744 658.212 130.365 656.994L128.603 655.511L126.626 653.962L125.1 652.839L124.239 652.244L125.596 653.111L126.913 653.991L128.734 655.299L130.563 656.707C131.974 657.846 133.118 658.82 134.159 659.763C135.206 660.695 136.306 661.733 137.631 663.041C138.739 664.13 139.808 665.26 140.806 666.411C141.863 667.645 142.743 668.751 143.501 669.801C143.791 670.19 144.063 670.568 144.328 670.942L145.043 671.978C145.277 672.326 145.505 672.663 145.721 672.999C146.093 673.563 146.453 674.139 146.887 674.872L147.535 675.964L147.734 674.808C149.663 663.581 147.412 653.253 141.037 644.099C138.171 639.969 134.399 635.987 129.846 632.273C127.782 630.587 125.508 628.917 123.085 627.314C120.982 625.974 118.631 624.634 115.895 623.209C114.76 622.619 113.582 622.037 112.392 621.468C108.907 619.809 105.161 618.231 101.272 616.781C96.649 615.068 92.303 613.966 88.4715 612.994L88.1204 612.906C84.037 611.915 80.7074 611.261 78.6316 610.879C76.3408 610.447 75.0193 610.332 74.9657 610.331L74.2881 610.276L74.5732 610.973C74.6011 611.029 76.6795 616.096 80.3443 623.382Z" fill="white"/>
<path d="M126.285 497.055C129.465 503.845 133.931 514.254 137.176 525.278C138.874 531.05 140.082 536.476 140.769 541.412C141.653 547.251 141.856 552.573 141.375 557.222C141.218 558.812 140.968 560.39 140.628 561.901C139.896 565.145 138.758 568.184 137.141 571.172C134.74 575.606 131.354 579.2 126.798 582.164L126.281 582.503L126.104 581.804C125.89 580.952 125.663 580.009 125.423 578.99C124.893 576.757 124.324 574.083 123.722 571.04C123.418 569.537 123.125 568.056 122.859 566.549C122.601 565.093 122.381 563.557 122.189 561.858C122.033 560.484 121.914 558.99 121.809 557.154L121.731 554.852L121.734 552.341L121.795 550.447L121.858 549.402L121.702 551.005L121.581 552.584L121.484 554.824L121.461 557.132C121.485 558.945 121.543 560.447 121.641 561.848C121.728 563.247 121.864 564.754 122.074 566.603C122.246 568.147 122.473 569.686 122.762 571.182C123.079 572.775 123.405 574.151 123.763 575.396C123.889 575.864 124.018 576.311 124.149 576.75L124.522 577.954C124.651 578.352 124.774 578.74 124.905 579.117C125.119 579.758 125.349 580.397 125.658 581.191L126.115 582.375L125.084 581.818C115.065 576.398 108.334 568.246 105.076 557.578C103.599 552.772 102.799 547.347 102.692 541.472C102.641 538.808 102.733 535.987 102.97 533.091C103.215 530.61 103.614 527.934 104.184 524.902C104.422 523.645 104.692 522.359 104.979 521.072C105.828 517.306 106.902 513.386 108.165 509.433C109.674 504.739 111.493 500.641 113.096 497.027L113.244 496.697C114.988 492.874 116.53 489.852 117.513 487.984C118.588 485.915 119.315 484.806 119.347 484.763L119.722 484.196L120.094 484.851C120.121 484.907 122.821 489.673 126.285 497.055Z" fill="white"/>
<path d="M166.65 580.395C170.704 586.701 176.516 596.423 181.199 606.918C183.649 612.412 185.569 617.629 186.907 622.43C188.559 628.1 189.469 633.347 189.611 638.019C189.667 639.615 189.629 641.212 189.493 642.755C189.199 646.068 188.475 649.231 187.27 652.408C185.48 657.122 182.603 661.134 178.482 664.678L178.014 665.083L177.746 664.414C177.42 663.598 177.07 662.694 176.697 661.716C175.874 659.573 174.954 656.998 173.953 654.062C173.452 652.613 172.964 651.185 172.501 649.726C172.051 648.318 171.628 646.825 171.212 645.166C170.875 643.825 170.558 642.36 170.21 640.554L169.826 638.283L169.495 635.794L169.303 633.909L169.227 632.865L169.285 634.474L169.375 636.056L169.578 638.288L169.862 640.579C170.126 642.373 170.384 643.854 170.668 645.229C170.94 646.604 171.275 648.079 171.729 649.884C172.105 651.392 172.535 652.887 173.021 654.331C173.547 655.868 174.053 657.188 174.573 658.374C174.761 658.821 174.948 659.247 175.136 659.665L175.665 660.808C175.846 661.186 176.021 661.554 176.2 661.911C176.497 662.517 176.811 663.12 177.223 663.866L177.833 664.978L176.737 664.563C166.086 660.525 158.331 653.341 153.682 643.201C151.578 638.634 150.064 633.364 149.176 627.555C148.771 624.921 148.487 622.114 148.337 619.212C148.25 616.721 148.289 614.015 148.45 610.934C148.518 609.657 148.615 608.346 148.729 607.033C149.069 603.187 149.612 599.159 150.337 595.073C151.209 590.22 152.466 585.916 153.574 582.122L153.677 581.775C154.896 577.754 156.023 574.553 156.749 572.571C157.539 570.378 158.112 569.181 158.138 569.135L158.434 568.523L158.89 569.122C158.924 569.175 162.234 573.538 166.65 580.395Z" fill="white"/>
<path d="M222.484 633.358C228.375 637.996 237.042 645.288 244.894 653.679C249.004 658.072 252.521 662.376 255.353 666.478C258.766 671.298 261.339 675.961 262.998 680.33C263.572 681.82 264.058 683.343 264.433 684.845C265.237 688.073 265.585 691.299 265.483 694.695C265.33 699.735 263.92 704.467 261.182 709.162L260.872 709.697L260.4 709.153C259.826 708.487 259.2 707.747 258.528 706.945C257.05 705.188 255.34 703.054 253.435 700.606C252.489 699.4 251.561 698.209 250.647 696.981C249.762 695.797 248.876 694.524 247.94 693.092C247.184 691.935 246.407 690.653 245.488 689.06L244.383 687.039L243.258 684.794L242.462 683.074L242.049 682.113L242.629 683.615L243.23 685.08L244.151 687.125L245.167 689.197C246.003 690.806 246.73 692.122 247.447 693.329C248.153 694.54 248.951 695.825 249.969 697.382C250.817 698.685 251.712 699.958 252.642 701.164C253.641 702.445 254.55 703.528 255.429 704.479C255.753 704.841 256.069 705.182 256.383 705.516L257.256 706.423C257.551 706.722 257.836 707.012 258.122 707.291C258.6 707.767 259.093 708.234 259.726 708.805L260.667 709.657L259.495 709.623C248.109 709.283 238.433 705.024 230.729 696.957C227.25 693.327 224.098 688.84 221.363 683.64C220.12 681.282 218.935 678.721 217.846 676.028C216.95 673.701 216.104 671.131 215.251 668.166C214.898 666.937 214.562 665.666 214.241 664.387C213.307 660.641 212.505 656.657 211.857 652.558C211.096 647.686 210.879 643.208 210.688 639.259L210.672 638.898C210.512 634.699 210.532 631.306 210.571 629.196C210.602 626.865 210.753 625.547 210.762 625.494L210.843 624.819L211.469 625.237C211.518 625.275 216.072 628.319 222.484 633.358Z" fill="white"/>
<path d="M927.897 261.989C926.573 269.368 924.937 280.576 924.64 292.064C924.485 298.079 924.714 303.632 925.321 308.58C925.971 314.449 927.145 319.644 928.806 324.013C929.367 325.508 930.015 326.969 930.732 328.341C932.275 331.288 934.157 333.93 936.489 336.402C939.951 340.068 944.148 342.669 949.314 344.36L949.901 344.555L949.892 343.834C949.879 342.955 949.856 341.986 949.825 340.94C949.763 338.645 949.624 335.914 949.422 332.819C949.329 331.289 949.231 329.782 949.099 328.257C948.974 326.784 948.791 325.244 948.539 323.552C948.336 322.185 948.066 320.71 947.695 318.909L947.178 316.665L946.528 314.239L945.982 312.424L945.652 311.431L946.216 312.94L946.739 314.434L947.409 316.574L948.026 318.798C948.47 320.556 948.8 322.022 949.066 323.401C949.343 324.776 949.599 326.267 949.872 328.107C950.104 329.644 950.28 331.189 950.386 332.71C950.49 334.33 950.529 335.744 950.504 337.039C950.502 337.524 950.493 337.989 950.48 338.447L950.429 339.706C950.407 340.124 950.387 340.531 950.358 340.929C950.317 341.603 950.259 342.28 950.164 343.127L950.027 344.388L950.881 343.584C959.167 335.768 963.571 326.158 963.973 315.01C964.163 309.986 963.539 304.538 962.13 298.834C961.493 296.246 960.679 293.544 959.704 290.807C958.828 288.473 957.754 285.989 956.422 283.207C955.869 282.053 955.277 280.88 954.668 279.71C952.878 276.29 950.831 272.779 948.593 269.283C945.926 265.137 943.114 261.645 940.634 258.566L940.406 258.285C937.737 255.04 935.468 252.517 934.038 250.965C932.466 249.243 931.478 248.358 931.436 248.325L930.928 247.873L930.737 248.602C930.726 248.663 929.343 253.963 927.897 261.989Z" fill="white"/>
<path d="M992.178 333.942C993.054 341.388 994.008 352.675 993.61 364.16C993.4 370.172 992.835 375.702 991.93 380.604C990.927 386.423 989.441 391.538 987.518 395.798C986.868 397.256 986.133 398.675 985.334 400.001C983.615 402.85 981.576 405.373 979.1 407.699C975.422 411.149 971.076 413.492 965.817 414.867L965.219 415.026L965.272 414.307C965.338 413.43 965.42 412.464 965.513 411.422C965.715 409.136 966.018 406.418 966.407 403.341C966.593 401.818 966.782 400.321 967.005 398.807C967.219 397.344 967.495 395.817 967.849 394.144C968.134 392.791 968.493 391.336 968.973 389.56L969.624 387.351L970.42 384.969L971.075 383.191L971.464 382.22L970.81 383.692L970.197 385.152L969.399 387.247L968.649 389.43C968.1 391.158 967.681 392.601 967.333 393.962C966.973 395.317 966.627 396.789 966.243 398.61C965.919 400.13 965.649 401.662 965.452 403.173C965.25 404.785 965.125 406.193 965.072 407.487C965.044 407.972 965.025 408.436 965.011 408.894L964.985 410.154C964.982 410.573 964.977 410.98 964.982 411.379C964.983 412.054 965 412.733 965.042 413.584L965.103 414.852L964.3 413.998C956.502 405.694 952.687 395.835 952.96 384.684C953.074 379.658 954.027 374.257 955.778 368.648C956.571 366.104 957.547 363.457 958.686 360.784C959.702 358.507 960.924 356.092 962.421 353.395C963.043 352.278 963.705 351.143 964.384 350.012C966.378 346.706 968.634 343.325 971.079 339.972C973.992 335.994 977.01 332.678 979.671 329.755L979.916 329.489C982.777 326.411 985.194 324.029 986.716 322.567C988.388 320.943 989.428 320.119 989.472 320.089L990.007 319.669L990.153 320.408C990.161 320.47 991.22 325.844 992.178 333.942Z" fill="white"/>
<path d="M908.762 339.145C907.886 346.59 906.932 357.877 907.33 369.362C907.54 375.375 908.104 380.904 909.01 385.806C910.013 391.625 911.499 396.74 913.422 401C914.072 402.458 914.807 403.877 915.606 405.203C917.325 408.052 919.363 410.575 921.84 412.901C925.518 416.352 929.864 418.694 935.123 420.069L935.721 420.228L935.668 419.509C935.602 418.633 935.52 417.667 935.427 416.624C935.225 414.338 934.921 411.62 934.533 408.543C934.347 407.021 934.158 405.523 933.934 404.009C933.72 402.546 933.445 401.019 933.091 399.346C932.806 397.993 932.447 396.538 931.967 394.762L931.316 392.554L930.52 390.171L929.865 388.393L929.476 387.422L930.13 388.894L930.743 390.354L931.541 392.449L932.291 394.632C932.84 396.36 933.259 397.804 933.607 399.164C933.967 400.519 934.313 401.991 934.697 403.812C935.021 405.332 935.291 406.864 935.488 408.375C935.69 409.987 935.815 411.395 935.868 412.689C935.896 413.174 935.915 413.638 935.929 414.096L935.955 415.356C935.958 415.775 935.963 416.182 935.958 416.581C935.957 417.256 935.94 417.935 935.898 418.786L935.837 420.054L936.64 419.2C944.438 410.896 948.253 401.038 947.98 389.886C947.865 384.86 946.913 379.459 945.162 373.851C944.369 371.306 943.393 368.659 942.254 365.986C941.238 363.709 940.016 361.295 938.519 358.598C937.897 357.48 937.234 356.345 936.556 355.214C934.562 351.908 932.306 348.527 929.861 345.174C926.948 341.196 923.93 337.88 921.269 334.957L921.024 334.691C918.163 331.613 915.746 329.232 914.224 327.769C912.552 326.145 911.512 325.322 911.468 325.291L910.933 324.871L910.787 325.61C910.779 325.672 909.72 331.046 908.762 339.145Z" fill="white"/>
<path d="M901.211 422.156C899.302 429.406 896.776 440.447 895.562 451.875C894.928 457.858 894.713 463.412 894.923 468.392C895.101 474.295 895.857 479.567 897.164 484.054C897.603 485.589 898.133 487.097 898.738 488.522C900.041 491.583 901.706 494.368 903.833 497.017C906.991 500.948 910.967 503.876 915.981 505.975L916.55 506.215L916.599 505.496C916.656 504.619 916.711 503.651 916.764 502.606C916.885 500.314 916.964 497.581 917.01 494.479C917.04 492.946 917.063 491.437 917.053 489.906C917.046 488.428 916.987 486.877 916.871 485.171C916.777 483.792 916.626 482.301 916.4 480.475L916.064 478.197L915.61 475.727L915.21 473.874L914.961 472.858L915.402 474.407L915.805 475.939L916.302 478.125L916.739 480.391C917.041 482.179 917.253 483.667 917.407 485.063C917.574 486.455 917.71 487.961 917.835 489.818C917.943 491.368 917.996 492.923 917.98 494.447C917.954 496.071 917.88 497.483 917.752 498.771C917.711 499.255 917.665 499.718 917.615 500.173L917.464 501.424C917.409 501.839 917.357 502.243 917.296 502.638C917.201 503.306 917.089 503.976 916.927 504.813L916.69 506.06L917.605 505.326C926.489 498.196 931.647 488.969 932.937 477.889C933.528 472.896 933.341 467.415 932.393 461.617C931.964 458.987 931.368 456.229 930.615 453.423C929.928 451.026 929.056 448.464 927.951 445.584C927.492 444.39 926.995 443.174 926.481 441.959C924.97 438.406 923.21 434.743 921.258 431.08C918.931 426.733 916.407 423.028 914.181 419.761L913.976 419.463C911.575 416.015 909.515 413.319 908.213 411.658C906.784 409.815 905.87 408.854 905.83 408.818L905.359 408.327L905.111 409.038C905.095 409.098 903.294 414.271 901.211 422.156Z" fill="white"/>
<path d="M997.284 447.178C995.348 454.421 992.068 465.262 987.456 475.788C985.041 481.298 982.475 486.229 979.823 490.45C976.742 495.487 973.472 499.691 970.112 502.94C968.969 504.056 967.762 505.103 966.53 506.04C963.881 508.053 961.055 509.645 957.894 510.892C953.202 512.741 948.298 513.312 942.903 512.649L942.289 512.575L942.604 511.927C942.988 511.137 943.421 510.269 943.893 509.335C944.925 507.284 946.211 504.871 947.708 502.155C948.443 500.809 949.171 499.487 949.938 498.162C950.677 496.882 951.497 495.565 952.444 494.14C953.209 492.989 954.079 491.769 955.181 490.296L956.602 488.484L958.221 486.564L959.486 485.153L960.207 484.394L959.056 485.52L957.947 486.651L956.431 488.303L954.928 490.055C953.78 491.458 952.858 492.645 952.032 493.78C951.197 494.907 950.332 496.148 949.302 497.698C948.44 498.991 947.624 500.315 946.882 501.646C946.1 503.069 945.463 504.332 944.936 505.515C944.732 505.955 944.542 506.38 944.36 506.8L943.871 507.961C943.713 508.349 943.558 508.726 943.415 509.099C943.167 509.726 942.932 510.364 942.657 511.171L942.245 512.371L941.814 511.28C937.634 500.684 937.729 490.113 942.101 479.851C944.063 475.222 946.942 470.555 950.641 465.99C952.317 463.918 954.202 461.818 956.247 459.754C958.032 458.013 960.06 456.221 962.447 454.268C963.438 453.459 964.472 452.648 965.521 451.848C968.594 449.512 971.939 447.203 975.45 444.989C979.626 442.368 983.655 440.402 987.207 438.668L987.533 438.511C991.328 436.707 994.454 435.386 996.408 434.589C998.562 433.698 999.833 433.316 999.885 433.304L1000.54 433.112L1000.4 433.852C1000.38 433.912 999.384 439.298 997.284 447.178Z" fill="white"/>
<path d="M961.904 542.126C958.53 548.821 953.105 558.764 946.441 568.127C942.952 573.028 939.432 577.331 935.975 580.921C931.93 585.224 927.871 588.672 923.919 591.166C922.572 592.025 921.177 592.803 919.779 593.469C916.775 594.898 913.683 595.88 910.334 596.456C905.364 597.307 900.446 596.865 895.3 595.114L894.714 594.917L895.154 594.347C895.693 593.651 896.293 592.891 896.946 592.073C898.374 590.276 900.126 588.176 902.147 585.823C903.141 584.655 904.124 583.509 905.145 582.37C906.13 581.267 907.201 580.145 908.419 578.944C909.403 577.973 910.504 576.956 911.884 575.739L913.645 574.255L915.622 572.706L917.148 571.584L918.009 570.988L916.652 571.855L915.335 572.736L913.515 574.044L911.685 575.452C910.274 576.591 909.13 577.565 908.089 578.507C907.042 579.44 905.942 580.478 904.618 581.785C903.509 582.875 902.44 584.004 901.442 585.156C900.385 586.389 899.505 587.496 898.747 588.546C898.457 588.935 898.185 589.312 897.92 589.686L897.205 590.723C896.971 591.071 896.743 591.408 896.527 591.744C896.155 592.307 895.795 592.883 895.361 593.617L894.713 594.708L894.514 593.552C892.585 582.326 894.836 571.997 901.211 562.844C904.077 558.713 907.849 554.732 912.402 551.018C914.466 549.332 916.74 547.662 919.163 546.059C921.266 544.719 923.617 543.378 926.353 541.954C927.488 541.364 928.666 540.782 929.856 540.213C933.341 538.553 937.087 536.976 940.976 535.526C945.599 533.813 949.945 532.71 953.777 531.738L954.128 531.651C958.211 530.66 961.541 530.005 963.616 529.624C965.907 529.191 967.229 529.077 967.282 529.076L967.96 529.021L967.675 529.718C967.647 529.773 965.569 534.841 961.904 542.126Z" fill="white"/>
<path d="M920.97 623.382C917.596 630.077 912.171 640.02 905.508 649.383C902.018 654.284 898.499 658.586 895.042 662.177C890.996 666.479 886.937 669.927 882.985 672.421C881.638 673.28 880.243 674.059 878.845 674.725C875.841 676.154 872.749 677.136 869.4 677.711C864.43 678.562 859.513 678.121 854.367 676.37L853.781 676.173L854.221 675.602C854.759 674.907 855.36 674.146 856.013 673.328C857.441 671.531 859.192 669.431 861.213 667.078C862.207 665.91 863.19 664.765 864.211 663.625C865.197 662.522 866.268 661.4 867.485 660.199C868.469 659.228 869.571 658.212 870.95 656.994L872.711 655.511L874.688 653.962L876.215 652.839L877.075 652.244L875.718 653.111L874.402 653.991L872.581 655.299L870.752 656.707C869.341 657.846 868.196 658.82 867.155 659.763C866.108 660.695 865.008 661.733 863.684 663.041C862.576 664.13 861.506 665.26 860.508 666.411C859.452 667.645 858.571 668.751 857.813 669.801C857.523 670.19 857.251 670.568 856.987 670.942L856.271 671.978C856.037 672.326 855.809 672.663 855.593 672.999C855.221 673.563 854.861 674.139 854.428 674.872L853.779 675.964L853.58 674.808C851.651 663.581 853.903 653.253 860.278 644.099C863.144 639.969 866.915 635.987 871.468 632.273C873.532 630.587 875.806 628.917 878.23 627.314C880.332 625.974 882.683 624.634 885.419 623.209C886.554 622.619 887.732 622.037 888.922 621.468C892.408 619.809 896.154 618.231 900.042 616.781C904.665 615.068 909.011 613.966 912.843 612.994L913.194 612.906C917.277 611.915 920.607 611.261 922.683 610.879C924.974 610.447 926.295 610.332 926.349 610.331L927.026 610.276L926.741 610.973C926.713 611.029 924.635 616.096 920.97 623.382Z" fill="white"/>
<path d="M875.029 497.055C871.849 503.845 867.383 514.254 864.138 525.278C862.44 531.05 861.232 536.476 860.545 541.412C859.661 547.251 859.458 552.573 859.939 557.222C860.096 558.812 860.346 560.39 860.685 561.901C861.418 565.145 862.556 568.184 864.173 571.172C866.574 575.606 869.96 579.2 874.516 582.164L875.033 582.503L875.21 581.804C875.424 580.952 875.651 580.009 875.891 578.99C876.421 576.757 876.99 574.083 877.592 571.04C877.896 569.537 878.189 568.056 878.455 566.549C878.713 565.093 878.933 563.557 879.125 561.858C879.281 560.484 879.4 558.99 879.505 557.154L879.583 554.852L879.58 552.341L879.519 550.447L879.456 549.402L879.612 551.005L879.733 552.584L879.83 554.824L879.853 557.132C879.829 558.945 879.771 560.447 879.673 561.848C879.586 563.247 879.45 564.754 879.24 566.603C879.068 568.147 878.841 569.686 878.552 571.182C878.235 572.775 877.909 574.151 877.551 575.396C877.425 575.864 877.296 576.311 877.165 576.75L876.792 577.954C876.663 578.352 876.54 578.74 876.409 579.117C876.195 579.758 875.965 580.397 875.656 581.191L875.199 582.375L876.23 581.818C886.249 576.398 892.98 568.246 896.238 557.578C897.715 552.772 898.515 547.347 898.622 541.472C898.673 538.808 898.581 535.987 898.344 533.091C898.099 530.61 897.7 527.934 897.13 524.902C896.892 523.645 896.622 522.359 896.335 521.072C895.486 517.306 894.412 513.386 893.149 509.433C891.64 504.739 889.821 500.641 888.218 497.027L888.07 496.697C886.326 492.874 884.784 489.852 883.801 487.984C882.726 485.915 881.999 484.806 881.967 484.763L881.592 484.196L881.22 484.851C881.193 484.907 878.493 489.673 875.029 497.055Z" fill="white"/>
<path d="M834.665 580.395C830.61 586.701 824.799 596.423 820.116 606.918C817.665 612.412 815.746 617.629 814.408 622.43C812.755 628.1 811.846 633.347 811.703 638.019C811.648 639.615 811.685 641.212 811.821 642.755C812.115 646.068 812.839 649.231 814.044 652.408C815.834 657.122 818.711 661.134 822.833 664.678L823.3 665.083L823.568 664.414C823.894 663.598 824.244 662.694 824.618 661.716C825.44 659.573 826.36 656.998 827.362 654.062C827.863 652.613 828.35 651.185 828.814 649.726C829.264 648.318 829.686 646.825 830.103 645.166C830.44 643.825 830.756 642.36 831.105 640.554L831.489 638.283L831.819 635.794L832.011 633.909L832.088 632.865L832.029 634.474L831.939 636.056L831.737 638.288L831.453 640.579C831.188 642.373 830.93 643.854 830.646 645.229C830.375 646.604 830.039 648.079 829.585 649.884C829.209 651.392 828.779 652.887 828.294 654.331C827.768 655.868 827.261 657.188 826.742 658.374C826.554 658.821 826.367 659.247 826.179 659.665L825.649 660.808C825.468 661.186 825.294 661.554 825.114 661.911C824.817 662.517 824.504 663.12 824.092 663.866L823.481 664.978L824.578 664.563C835.229 660.525 842.984 653.341 847.633 643.201C849.736 638.634 851.251 633.364 852.139 627.555C852.543 624.921 852.828 622.114 852.978 619.212C853.065 616.721 853.026 614.015 852.864 610.934C852.796 609.657 852.699 608.346 852.586 607.033C852.245 603.187 851.702 599.159 850.977 595.073C850.106 590.22 848.849 585.916 847.74 582.122L847.638 581.775C846.418 577.754 845.291 574.553 844.566 572.571C843.776 570.378 843.203 569.181 843.176 569.135L842.88 568.523L842.424 569.122C842.391 569.175 839.08 573.538 834.665 580.395Z" fill="white"/>
<path d="M778.831 633.358C772.94 637.996 764.273 645.288 756.42 653.679C752.31 658.072 748.793 662.376 745.961 666.478C742.548 671.298 739.976 675.961 738.316 680.33C737.742 681.82 737.256 683.343 736.881 684.845C736.077 688.073 735.73 691.299 735.831 694.695C735.984 699.735 737.394 704.467 740.133 709.162L740.442 709.697L740.914 709.153C741.489 708.487 742.115 707.747 742.787 706.945C744.264 705.188 745.974 703.054 747.879 700.606C748.826 699.4 749.753 698.209 750.667 696.981C751.552 695.797 752.439 694.524 753.374 693.092C754.13 691.935 754.908 690.653 755.827 689.06L756.931 687.039L758.056 684.794L758.853 683.074L759.266 682.113L758.686 683.615L758.084 685.08L757.164 687.125L756.148 689.197C755.312 690.806 754.585 692.122 753.868 693.329C753.162 694.54 752.363 695.825 751.345 697.382C750.498 698.685 749.603 699.958 748.672 701.164C747.673 702.445 746.764 703.528 745.885 704.479C745.562 704.841 745.246 705.182 744.932 705.516L744.058 706.423C743.764 706.722 743.479 707.012 743.193 707.291C742.714 707.767 742.221 708.234 741.588 708.805L740.648 709.657L741.82 709.623C753.206 709.283 762.881 705.024 770.585 696.957C774.064 693.327 777.217 688.84 779.952 683.64C781.194 681.282 782.379 678.721 783.469 676.028C784.364 673.701 785.211 671.131 786.064 668.166C786.416 666.937 786.752 665.666 787.074 664.387C788.008 660.641 788.809 656.657 789.458 652.558C790.218 647.686 790.435 643.208 790.626 639.259L790.642 638.898C790.802 634.699 790.782 631.306 790.743 629.196C790.712 626.865 790.562 625.547 790.552 625.494L790.472 624.819L789.845 625.237C789.796 625.275 785.243 628.319 778.831 633.358Z" fill="white"/>
<path fill-rule="evenodd" clip-rule="evenodd" d="M163.329 644.557L169.254 645.294C168.857 644.906 168.462 644.517 168.067 644.127L160.436 636.148C158.541 634.236 156.73 632.186 154.974 630.197L154.867 630.076C154.252 629.38 153.641 628.689 153.024 628L149.374 623.886C149.247 623.738 149.117 623.592 148.985 623.445C148.897 623.346 148.809 623.247 148.721 623.147C148.334 622.717 147.949 622.28 147.578 621.836L138.867 611.24C137.421 609.411 135.976 607.512 134.585 605.677C133.802 604.644 133.019 603.611 132.231 602.58C131.845 602.068 131.451 601.553 131.06 601.043L131.057 601.04C130.35 600.115 129.643 599.191 128.952 598.252L122.711 589.402C122.552 589.174 122.39 588.946 122.229 588.717C122.068 588.489 121.907 588.26 121.747 588.032C121.043 587.043 120.319 586.023 119.667 584.987L119.6 584.883L112.345 573.748L108.247 566.924C105.481 562.485 102.947 557.879 100.499 553.416L100.498 553.414C99.6245 551.823 98.7508 550.232 97.8657 548.653C96.8554 546.738 95.8654 544.775 94.9032 542.867L94.8263 542.715C94.6442 542.354 94.4629 541.994 94.2818 541.634C93.9127 540.9 93.5444 540.168 93.1719 539.438L90.8408 534.857L84.4377 521.055L80.5688 511.859L79.8877 510.235C79.4726 509.257 79.0622 508.277 78.6686 507.296L73.504 493.614C65.3979 470.597 59.4131 447.253 55.7131 424.243C55.4562 422.569 55.2286 420.901 55.0026 419.245L54.9776 419.061L54.9771 419.058C54.849 418.1 54.7209 417.142 54.5862 416.194C54.4613 415.254 54.3318 414.317 54.2022 413.379L54.2021 413.379C54.1805 413.223 54.1588 413.068 54.137 412.912C53.9254 411.396 53.7086 409.843 53.5552 408.333L52.8066 400.636C52.7294 399.783 52.6448 398.926 52.5555 398.071L52.5359 397.878C52.3774 396.318 52.214 394.711 52.1533 393.161L51.72 385.853C51.6852 385.219 51.6458 384.587 51.6063 383.955C51.4933 382.166 51.3905 380.482 51.3882 378.791L51.1746 366.566L51.2048 365.277C51.2142 355.535 51.7332 346.634 52.4496 338.745L50.7353 338.531C49.924 346.374 49.2981 355.214 49.1626 364.894C48.7991 384.682 50.1199 404.663 53.0943 424.282C56.6444 447.509 62.5121 471.102 70.5341 494.4L75.6492 508.242C76.0415 509.245 76.4499 510.233 76.861 511.226C76.9735 511.501 77.0879 511.776 77.2023 512.051C77.3166 512.327 77.431 512.602 77.5435 512.877L81.385 522.195L87.7621 536.195L90.09 540.853C90.6478 541.946 91.1989 543.05 91.75 544.154L91.7504 544.154L91.8223 544.298C92.7922 546.233 93.7928 548.23 94.8188 550.188C95.6995 551.77 96.5662 553.358 97.4329 554.947C99.9107 559.484 102.476 564.178 105.277 568.703L109.407 575.614L116.776 586.989C117.425 588.027 118.147 589.048 118.843 590.033L118.904 590.119C119.227 590.573 119.549 591.034 119.867 591.49L126.158 600.453C126.716 601.214 127.282 601.962 127.849 602.711C128.006 602.918 128.163 603.126 128.321 603.334C128.439 603.49 128.558 603.646 128.677 603.802C128.943 604.153 129.211 604.503 129.475 604.859C130.262 605.89 131.048 606.928 131.826 607.964C133.234 609.832 134.694 611.764 136.174 613.639L144.952 624.373C145.315 624.819 145.694 625.244 146.076 625.673L146.144 625.75C146.358 625.989 146.575 626.233 146.784 626.475L150.469 630.648C151.091 631.348 151.708 632.05 152.325 632.752L152.525 632.979C154.274 634.966 156.08 637.019 157.969 638.931L163.329 644.557Z" fill="white"/>
<path fill-rule="evenodd" clip-rule="evenodd" d="M837.925 644.557L832 645.294C832.396 644.906 832.792 644.517 833.187 644.127L840.818 636.148C842.713 634.235 844.525 632.185 846.281 630.196L846.387 630.076C847.002 629.38 847.613 628.689 848.23 628L851.88 623.886C852.007 623.738 852.138 623.591 852.269 623.444C852.357 623.345 852.445 623.246 852.533 623.146C852.92 622.717 853.305 622.279 853.676 621.835L862.387 611.24C863.833 609.41 865.278 607.512 866.669 605.677C867.452 604.644 868.235 603.611 869.023 602.58C869.409 602.068 869.803 601.553 870.194 601.043L870.197 601.039C870.904 600.115 871.611 599.191 872.302 598.252L878.543 589.402C878.703 589.174 878.864 588.945 879.025 588.717C879.186 588.488 879.347 588.259 879.507 588.031C880.211 587.042 880.935 586.022 881.586 584.987L881.654 584.883L888.908 573.747L893.007 566.924C895.773 562.485 898.307 557.879 900.755 553.416L900.756 553.414C901.629 551.823 902.503 550.231 903.388 548.652C904.399 546.738 905.389 544.775 906.351 542.867L906.428 542.715C906.61 542.353 906.791 541.993 906.973 541.632C907.342 540.899 907.71 540.167 908.082 539.437L910.413 534.857L916.816 521.055L920.685 511.859L921.366 510.235C921.781 509.257 922.192 508.277 922.585 507.296L927.75 493.614C935.856 470.597 941.841 447.253 945.541 424.242C945.798 422.569 946.025 420.901 946.251 419.245L946.276 419.061L946.277 419.058C946.405 418.1 946.533 417.142 946.668 416.194C946.793 415.254 946.922 414.317 947.052 413.379L947.052 413.378C947.073 413.223 947.095 413.068 947.117 412.912C947.329 411.396 947.545 409.843 947.699 408.332L948.447 400.636C948.525 399.782 948.609 398.926 948.698 398.071L948.718 397.878C948.877 396.318 949.04 394.71 949.101 393.16L949.534 385.853C949.569 385.218 949.608 384.586 949.648 383.955C949.761 382.166 949.863 380.482 949.866 378.79L950.079 366.566L950.049 365.277C950.04 355.534 949.521 346.634 948.804 338.745L950.519 338.531C951.33 346.374 951.956 355.214 952.091 364.894C952.455 384.682 951.134 404.663 948.16 424.282C944.61 447.509 938.742 471.102 930.72 494.4L925.605 508.242C925.212 509.245 924.804 510.233 924.393 511.226C924.28 511.501 924.166 511.776 924.052 512.051C923.937 512.327 923.823 512.602 923.71 512.876L919.869 522.195L913.492 536.195L911.164 540.853C910.607 541.945 910.056 543.047 909.506 544.15L909.503 544.154L909.432 544.298C908.462 546.233 907.461 548.23 906.435 550.188C905.555 551.769 904.688 553.357 903.822 554.946L903.821 554.947C901.343 559.484 898.778 564.178 895.977 568.703L891.847 575.614L884.477 586.988C883.829 588.026 883.107 589.048 882.412 590.032L882.35 590.119C882.071 590.51 881.794 590.907 881.518 591.301L881.386 591.49L875.096 600.453C874.538 601.214 873.971 601.963 873.403 602.712C873.247 602.919 873.09 603.126 872.933 603.334C872.815 603.49 872.696 603.646 872.578 603.802C872.311 604.152 872.043 604.503 871.779 604.859C870.992 605.89 870.206 606.928 869.427 607.963C868.02 609.832 866.56 611.764 865.08 613.639L856.302 624.373C855.939 624.818 855.56 625.244 855.177 625.673L855.11 625.749C854.896 625.989 854.679 626.233 854.47 626.475L850.785 630.648C850.163 631.347 849.546 632.049 848.929 632.751L848.729 632.979C846.98 634.966 845.174 637.019 843.285 638.93L837.925 644.557Z" fill="white"/>
<path d="M213.5 755.5C259 763 236.5 758 64 709.162L152.062 683.867L122.92 612C207.408 647.083 255.633 656.775 347.817 669.699L225.5 711.5L213.5 755.5Z" fill="#DCDCDC"/>
<path d="M799.317 755.5C753.817 763 776.317 758 948.817 709.162L860.755 683.867L889.896 612C805.409 647.083 757.184 656.775 665 669.699L787.317 711.5L799.317 755.5Z" fill="#DCDCDC"/>
<path d="M343.094 692.844L347.817 669.693L223.589 669.351C221.967 680.61 260.236 678.724 285.766 683.242C300.74 685.91 343.094 692.844 343.094 692.844Z" fill="#323232"/>
<path d="M660.776 692.843L656.053 669.693C656.053 669.693 780.665 667.067 780.503 669.35C779.764 681.83 743.604 678.724 718.134 683.242C703.136 685.91 660.776 692.843 660.776 692.843Z" fill="#323232"/>
<path fill-rule="evenodd" clip-rule="evenodd" d="M819.157 773.236C612.521 825.846 391.614 825.846 185.008 773.236C197.872 738.616 210.737 703.977 223.595 669.351C405.055 715.537 599.085 715.537 780.509 669.351C793.404 703.977 806.298 738.616 819.157 773.236ZM249.552 729.808C249.774 726.84 247.311 724.004 243.958 723.247C237.865 721.871 234.452 726.143 233.275 731.196C232.145 736.021 233.335 741.434 239.53 742.84C243.73 743.789 246.698 741.62 248.068 737.937C250.718 738.52 252.046 738.809 254.695 739.373C252.532 746.469 245.118 749.54 238.322 748.164C229.85 746.451 224.508 737.631 226.437 729.574C228.342 721.606 236.76 715.754 245.172 717.881C251.229 719.413 256.774 724.412 256.174 731.25C253.524 730.679 252.196 730.391 249.552 729.808ZM290.261 743.051C291.781 734.717 285.953 726.738 277.889 724.785C269.297 722.712 261.197 729.009 259.521 737.012C257.821 745.118 263.174 753.932 271.905 755.254C280.064 756.485 288.723 751.48 290.261 743.051ZM283.369 741.777C282.45 746.638 279.181 751.12 272.956 749.894C266.731 748.675 265.397 743.291 266.383 738.436C267.422 733.353 270.703 728.985 276.826 730.187C282.949 731.394 284.331 736.682 283.369 741.777ZM305.22 730.541L305.227 730.542L305.499 730.589C308.683 737.877 311.934 745.135 315.251 752.364L315.267 752.366L315.281 752.368C315.298 752.37 315.311 752.372 315.335 752.376C315.858 749.099 316.383 745.821 316.909 742.543C317.432 739.275 317.955 736.007 318.477 732.74C321.025 733.149 322.299 733.347 324.853 733.743C323.344 743.507 321.836 753.271 320.328 763.029L320.063 762.987L320.051 762.985C317.45 762.581 316.058 762.365 313.376 761.935C310.023 754.713 306.737 747.461 303.516 740.178C303.498 740.176 303.486 740.174 303.475 740.173L303.474 740.172C303.462 740.171 303.45 740.169 303.432 740.166C302.817 743.733 302.204 747.299 301.591 750.867L301.575 750.962C301.073 753.884 300.57 756.806 300.067 759.73C297.459 759.279 296.155 759.051 293.548 758.588C294.47 753.381 295.395 748.177 296.319 742.973L296.319 742.973L296.319 742.972C297.122 738.45 297.925 733.928 298.727 729.405C301.337 729.869 302.693 730.104 305.22 730.541ZM354.096 737.884C346.808 736.946 339.531 735.937 332.261 734.861L331.949 736.963L331.943 737.007L331.938 737.043L331.932 737.078L331.927 737.113C330.59 746.137 329.254 755.157 327.929 764.176C330.729 764.591 332.129 764.795 334.935 765.192C335.277 762.771 335.535 760.956 335.794 759.141C336.052 757.327 336.311 755.512 336.653 753.091C341.917 753.842 344.554 754.196 349.824 754.887C350.066 753.003 350.197 752.003 350.43 750.23L350.433 750.207L350.479 749.858C345.227 749.167 342.608 748.813 337.362 748.068L337.551 746.738L337.843 744.682L338.323 741.296C344.344 742.156 347.36 742.564 353.393 743.339L353.468 742.759L353.601 741.73L353.745 740.612C353.85 739.793 353.955 738.974 354.096 737.884ZM359.131 738.526C366.882 739.493 374.651 740.376 382.42 741.188L382.234 742.975L382.135 743.924L382.105 744.211C382.029 744.941 381.95 745.695 381.849 746.661C375.24 745.97 371.935 745.604 365.332 744.823C365.174 746.138 365.06 747.109 364.943 748.097C364.837 748.996 364.73 749.909 364.587 751.108C370.673 751.829 373.72 752.171 379.813 752.814C379.602 754.833 379.494 755.842 379.278 757.855C373.155 757.212 370.097 756.87 363.986 756.143C363.814 757.594 363.686 758.68 363.558 759.768C363.43 760.846 363.303 761.926 363.133 763.365C368.829 764.044 374.537 764.681 380.245 765.269C380.136 766.314 380.054 767.108 379.973 767.891C379.885 768.738 379.799 769.574 379.68 770.701C371.599 769.86 363.529 768.941 355.466 767.937C356.691 758.125 357.911 748.326 359.131 738.526ZM402.104 743.069C396.727 742.6 394.035 742.348 388.663 741.819L387.944 749.084L387.937 749.149C387.206 756.537 386.474 763.925 385.743 771.302C391.259 771.849 394.011 772.107 399.527 772.588C407.861 773.201 414.518 766.898 415.161 758.835C415.798 750.928 410.096 743.886 402.104 743.069ZM399.497 767.108C397.015 766.892 395.771 766.778 393.29 766.55C393.836 760.676 394.383 754.808 394.929 748.94L394.931 748.918L394.946 748.756L395.02 747.96C396.979 748.14 397.958 748.23 399.923 748.404C406.785 749.011 408.636 752.971 408.155 758.925C407.626 765.468 403.553 767.463 399.497 767.108ZM422.107 744.648C429.894 745.195 437.681 745.664 445.48 746.055C445.426 747.154 445.384 747.979 445.342 748.803L445.303 749.582L445.267 750.29C445.253 750.564 445.239 750.852 445.223 751.162L445.204 751.552C438.571 751.222 435.26 751.029 428.632 750.603C428.551 751.865 428.49 752.812 428.428 753.76C428.366 754.708 428.305 755.656 428.224 756.918C434.335 757.308 437.393 757.489 443.504 757.801C443.453 758.813 443.414 759.573 443.374 760.334C443.335 761.094 443.296 761.854 443.245 762.866C437.104 762.554 434.034 762.373 427.899 761.977C427.809 763.378 427.74 764.442 427.672 765.495L427.665 765.606C427.594 766.695 427.524 767.784 427.431 769.235C433.151 769.608 438.877 769.932 444.603 770.214L444.333 775.67C436.227 775.267 428.128 774.781 420.034 774.21C420.719 764.356 421.41 754.502 422.107 744.648ZM468.578 746.98C462.966 746.818 457.354 746.608 451.742 746.349C451.297 756.215 450.853 766.087 450.414 775.947C453.238 776.073 454.65 776.133 457.474 776.241L457.925 764.657L457.939 764.657C460.705 764.765 462.093 764.819 464.871 764.909C468.41 765.029 469.671 766.465 470.05 769.554C470.147 770.338 470.191 771.173 470.235 772.009V772.01V772.01C470.325 773.712 470.416 775.417 470.951 776.698C473.775 776.776 475.187 776.812 478.011 776.872C477.013 775.472 476.919 772.79 476.853 770.876L476.853 770.871L476.852 770.863L476.852 770.854C476.844 770.616 476.836 770.39 476.827 770.18L476.823 770.102L476.819 770.017C476.816 769.959 476.813 769.903 476.81 769.848C476.635 766.886 475.77 763.689 472.387 762.776V762.698C475.914 761.46 477.483 758.895 477.561 755.398C477.663 750.916 474.178 747.148 468.578 746.98ZM465.7 760.301C462.659 760.205 461.139 760.151 458.105 760.03C458.231 756.702 458.297 755.031 458.429 751.703C461.446 751.823 462.954 751.877 465.97 751.973C469.053 752.075 470.687 753.379 470.603 756.245C470.519 759.231 468.806 760.403 465.7 760.301ZM493.436 747.479L493.442 747.479C496.262 747.503 497.668 747.515 500.49 747.521C504.383 757.422 508.349 767.294 512.387 777.136C509.461 777.154 507.994 777.16 505.068 777.16C504.233 774.937 503.756 773.649 503.04 771.716L502.611 770.557C497.858 770.551 495.479 770.533 490.72 770.479C489.674 773.11 489.151 774.42 488.094 777.052C485.252 777.016 483.834 776.992 480.992 776.938C485.21 767.144 489.356 757.326 493.436 747.479ZM492.588 765.666C495.875 765.696 497.521 765.708 500.808 765.72C499.222 761.358 498.435 759.177 496.873 754.815H496.788C495.124 759.159 494.283 761.328 492.588 765.666ZM530.22 752.039C533.639 751.967 536.697 754.118 537.196 757.056C539.894 756.978 541.24 756.936 543.932 756.846C542.874 750.092 536.337 746.553 530.1 746.535C521.435 746.511 514.772 754.262 514.85 762.416C514.928 770.665 522.156 777.965 530.779 777.581C537.695 777.268 544.088 772.468 544.46 765.089C542.11 765.173 540.786 765.211 538.7 765.271L537.719 765.3C537.28 769.205 534.937 772.023 530.659 772.119C524.343 772.257 521.898 767.288 521.826 762.337C521.754 757.146 524.013 752.177 530.22 752.039ZM549.616 746.656L549.691 746.653L549.694 746.653L549.701 746.652C552.397 746.546 553.778 746.492 556.502 746.367L557.16 761.169L557.817 775.971C554.993 776.097 553.581 776.157 550.757 776.265C550.572 771.43 550.385 766.594 550.198 761.757C550.003 756.724 549.809 751.69 549.616 746.656ZM594.224 759.063C593.581 750.639 585.968 744.372 577.682 744.528C568.856 744.697 562.679 752.868 563.088 761.01C563.502 769.247 570.851 776.451 579.623 775.514C587.819 774.643 594.873 767.583 594.224 759.063ZM587.26 759.574C587.603 764.512 585.584 769.668 579.281 770.064C572.972 770.461 570.328 765.594 570.052 760.649C569.769 755.47 571.824 750.405 578.025 750.02C584.226 749.636 586.9 754.4 587.26 759.574ZM574.294 742.81L578.638 742.54C581.167 740.016 582.423 738.748 584.923 736.219C582.195 736.405 580.831 736.495 578.097 736.669L577.765 737.209L577.762 737.213C576.462 739.323 575.708 740.546 574.294 742.81ZM598.935 743.718C601.669 743.495 603.032 743.381 605.766 743.147C610.681 749.39 615.657 755.59 620.692 761.743C620.728 761.737 620.74 761.737 620.776 761.737C620.456 758.455 620.135 755.173 619.813 751.891C619.489 748.576 619.164 745.261 618.841 741.945C621.407 741.693 622.687 741.567 625.246 741.302C625.755 746.219 626.263 751.138 626.771 756.057L627.082 759.068L628.293 770.78C625.499 771.068 624.099 771.206 621.299 771.483C616.233 765.348 611.222 759.165 606.277 752.929C606.259 752.929 606.247 752.93 606.235 752.932C606.223 752.933 606.211 752.935 606.193 752.935C606.477 756.218 606.76 759.502 607.043 762.786L607.044 762.795L607.045 762.804L607.046 762.813L607.046 762.822L607.047 762.83L607.048 762.839L607.048 762.848L607.049 762.857L607.05 762.866C607.333 766.147 607.615 769.427 607.9 772.708C605.268 772.937 603.952 773.045 601.32 773.255C600.596 764.33 599.876 755.404 599.157 746.484L599.13 746.144L598.935 743.718ZM660.024 762.668C656.274 763.155 652.795 762.043 652.267 758.15C649.581 758.486 648.235 758.648 645.555 758.967C646.354 766.327 654.237 768.478 660.384 767.733C666.062 767.048 673.213 763.335 672.281 756.515C671.397 750.057 664.517 749.493 661.981 749.285L661.79 749.269L661.295 749.217C653.604 748.404 652.135 748.249 651.858 746.037C651.546 743.543 653.961 742.365 656.154 742.083C659.423 741.656 662.235 742.191 662.92 745.706C665.594 745.346 666.928 745.165 669.602 744.787C668.676 738.045 661.55 736.177 655.83 737.012C650.284 737.823 644.552 741.356 645.273 747.364C645.934 752.904 650.867 754.028 655.692 754.587C656.42 754.672 657.15 754.741 657.866 754.809C661.805 755.183 665.311 755.516 665.672 758.186C666.08 761.184 662.469 762.349 660.024 762.668ZM704.314 749.095C705.69 757.014 699.807 761.671 692.741 763.065C685.591 764.477 678.579 760.938 677.425 753.349L677.421 753.32L677.417 753.29L677.412 753.261L677.409 753.237C676.525 747.194 675.641 741.151 674.752 735.114C677.485 734.711 678.849 734.507 681.583 734.092L684.359 752.316C684.846 755.5 686.258 758.559 691.882 757.669C696.833 756.888 698.101 754.599 697.386 750.255C696.93 747.469 696.474 744.684 696.017 741.898C695.479 738.62 694.942 735.342 694.406 732.061C697.134 731.617 698.497 731.388 701.225 730.926L701.257 731.113L701.259 731.121L701.259 731.125L701.261 731.133C702.276 737.12 703.292 743.108 704.314 749.095ZM715.424 728.426C712.702 728.919 711.338 729.165 708.616 729.646C710.328 739.373 712.047 749.101 713.771 758.829L714.197 758.753L714.201 758.753C716.711 758.309 718.106 758.063 720.747 757.579C719.206 749.158 717.669 740.732 716.132 732.31L715.424 728.426ZM725.218 751.51C729.664 744.246 734.044 736.946 738.376 729.61C732.248 730.847 729.183 731.448 723.043 732.602L722.021 727.194C730.121 725.668 738.202 724.058 746.272 722.363C746.698 724.376 746.909 725.386 747.329 727.404C743.075 734.783 738.761 742.125 734.393 749.437C740.173 748.314 745.941 747.142 751.704 745.922C751.823 746.49 751.927 746.982 752.023 747.439C752.289 748.704 752.498 749.698 752.833 751.27C743.958 753.114 735.072 754.881 726.167 756.575C725.896 755.149 725.724 754.224 725.513 753.093C725.425 752.619 725.33 752.109 725.218 751.51ZM767.302 717.737C764.538 718.374 763.15 718.686 760.38 719.305C758.625 729.832 756.793 740.335 754.882 750.837C757.676 750.242 759.07 749.942 761.864 749.329C762.303 746.529 762.519 745.129 762.945 742.329C767.62 741.296 769.951 740.773 774.614 739.692C776.17 742.041 776.951 743.219 778.52 745.562L778.843 745.486C781.498 744.863 782.932 744.526 785.688 743.862C779.493 735.197 773.364 726.491 767.302 717.737ZM763.945 737.158L763.684 737.216C764.357 732.602 764.688 730.294 765.331 725.686C765.367 725.68 765.385 725.674 765.415 725.668C767.939 729.561 769.2 731.508 771.748 735.39C768.615 736.114 767 736.475 763.945 737.158Z" fill="white"/>
</svg>